<?xml version="1.0" encoding="UTF-8" standalone="no"?>
<!DOCTYPE svg PUBLIC "-//W3C//DTD SVG 1.1//EN"
 "http://www.w3.org/Graphics/SVG/1.1/DTD/svg11.dtd">
<!-- Generated by graphviz version 2.40.1 (20161225.0304)
 -->
<!-- Title: dependencies Pages: 1 -->
<svg width="817pt" height="211pt"
 viewBox="0.00 0.00 817.00 211.00" xmlns="http://www.w3.org/2000/svg" xmlns:xlink="http://www.w3.org/1999/xlink">
<g id="graph0" class="graph" transform="scale(1 1) rotate(0) translate(4 207)">
<title>dependencies</title>
<polygon fill="#ffffff" stroke="transparent" points="-4,4 -4,-207 813,-207 813,4 -4,4"/>
<text text-anchor="start" x="383.5091" y="-42.4" font-family="sans-serif" font-weight="bold" font-size="14.00" fill="#000000">Legend</text>
<polygon fill="#ffffb3" stroke="transparent" points="170.5,-10 170.5,-30 190.5,-30 190.5,-10 170.5,-10"/>
<text text-anchor="start" x="194.129" y="-15.4" font-family="sans-serif" font-size="14.00" fill="#000000"> &#160;Declarations</text>
<polygon fill="#8dd3c7" stroke="transparent" points="283.5,-10 283.5,-30 303.5,-30 303.5,-10 283.5,-10"/>
<text text-anchor="start" x="307.2251" y="-15.4" font-family="sans-serif" font-size="14.00" fill="#000000"> &#160;Module</text>
<polygon fill="#80b1d3" stroke="transparent" points="369.5,-10 369.5,-30 389.5,-30 389.5,-10 369.5,-10"/>
<text text-anchor="start" x="393.2812" y="-15.4" font-family="sans-serif" font-size="14.00" fill="#000000"> &#160;Bootstrap</text>
<polygon fill="#fdb462" stroke="transparent" points="466.5,-10 466.5,-30 486.5,-30 486.5,-10 466.5,-10"/>
<text text-anchor="start" x="490.1732" y="-15.4" font-family="sans-serif" font-size="14.00" fill="#000000"> &#160;Providers</text>
<polygon fill="#fb8072" stroke="transparent" points="562.5,-10 562.5,-30 582.5,-30 582.5,-10 562.5,-10"/>
<text text-anchor="start" x="586.2258" y="-15.4" font-family="sans-serif" font-size="14.00" fill="#000000"> &#160;Exports</text>
<g id="clust1" class="cluster">
<title>cluster_LoginModule</title>
<polygon fill="none" stroke="#000000" stroke-dasharray="1,5" points="8,-70 8,-195 801,-195 801,-70 8,-70"/>
</g>
<g id="clust2" class="cluster">
<title>cluster_LoginModule_declarations</title>
<polygon fill="none" stroke="#000000" points="479,-78 479,-130 793,-130 793,-78 479,-78"/>
</g>
<g id="clust5" class="cluster">
<title>cluster_LoginModule_imports</title>
<polygon fill="none" stroke="#000000" points="343,-78 343,-130 471,-130 471,-78 343,-78"/>
</g>
<g id="clust8" class="cluster">
<title>cluster_LoginModule_providers</title>
<polygon fill="none" stroke="#000000" points="16,-78 16,-130 335,-130 335,-78 16,-78"/>
</g>
<!-- LoginComponent -->
<g id="node1" class="node">
<title>LoginComponent</title>
<polygon fill="#ffffb3" stroke="#000000" points="785.2758,-122 670.7242,-122 670.7242,-86 785.2758,-86 785.2758,-122"/>
<text text-anchor="middle" x="728" y="-99.8" font-family="Times,serif" font-size="14.00" fill="#000000">LoginComponent</text>
</g>
<!-- LoginModule -->
<g id="node3" class="node">
<title>LoginModule</title>
<polygon fill="#8dd3c7" stroke="#000000" points="453.493,-187 450.493,-191 429.493,-191 426.493,-187 360.507,-187 360.507,-151 453.493,-151 453.493,-187"/>
<text text-anchor="middle" x="407" y="-164.8" font-family="Times,serif" font-size="14.00" fill="#000000">LoginModule</text>
</g>
<!-- LoginComponent&#45;&gt;LoginModule -->
<g id="edge1" class="edge">
<title>LoginComponent&#45;&gt;LoginModule</title>
<path fill="none" stroke="#000000" d="M728,-122.2843C728,-143.3211 728,-175 728,-175 728,-175 463.6762,-175 463.6762,-175"/>
<polygon fill="#000000" stroke="#000000" points="463.6762,-171.5001 453.6762,-175 463.6761,-178.5001 463.6762,-171.5001"/>
</g>
<!-- ScheduleLoginComponent -->
<g id="node2" class="node">
<title>ScheduleLoginComponent</title>
<polygon fill="#ffffb3" stroke="#000000" points="653.0926,-122 486.9074,-122 486.9074,-86 653.0926,-86 653.0926,-122"/>
<text text-anchor="middle" x="570" y="-99.8" font-family="Times,serif" font-size="14.00" fill="#000000">ScheduleLoginComponent</text>
</g>
<!-- ScheduleLoginComponent&#45;&gt;LoginModule -->
<g id="edge2" class="edge">
<title>ScheduleLoginComponent&#45;&gt;LoginModule</title>
<path fill="none" stroke="#000000" d="M570,-122.0225C570,-139.3734 570,-163 570,-163 570,-163 463.7093,-163 463.7093,-163"/>
<polygon fill="#000000" stroke="#000000" points="463.7093,-159.5001 453.7093,-163 463.7092,-166.5001 463.7093,-159.5001"/>
</g>
<!-- MaterialsModule -->
<g id="node4" class="node">
<title>MaterialsModule</title>
<polygon fill="#8dd3c7" stroke="#000000" points="463.416,-122 460.416,-126 439.416,-126 436.416,-122 350.584,-122 350.584,-86 463.416,-86 463.416,-122"/>
<text text-anchor="middle" x="407" y="-99.8" font-family="Times,serif" font-size="14.00" fill="#000000">MaterialsModule</text>
</g>
<!-- MaterialsModule&#45;&gt;LoginModule -->
<g id="edge3" class="edge">
<title>MaterialsModule&#45;&gt;LoginModule</title>
<path fill="none" stroke="#000000" d="M407,-122.1061C407,-122.1061 407,-140.991 407,-140.991"/>
<polygon fill="#000000" stroke="#000000" points="403.5001,-140.9909 407,-150.991 410.5001,-140.991 403.5001,-140.9909"/>
</g>
<!-- AuthGuardService -->
<g id="node5" class="node">
<title>AuthGuardService</title>
<ellipse fill="#fdb462" stroke="#000000" cx="244" cy="-104" rx="83.3674" ry="18"/>
<text text-anchor="middle" x="244" y="-99.8" font-family="Times,serif" font-size="14.00" fill="#000000">AuthGuardService</text>
</g>
<!-- AuthGuardService&#45;&gt;LoginModule -->
<g id="edge4" class="edge">
<title>AuthGuardService&#45;&gt;LoginModule</title>
<path fill="none" stroke="#000000" d="M244,-122.0225C244,-139.3734 244,-163 244,-163 244,-163 350.2907,-163 350.2907,-163"/>
<polygon fill="#000000" stroke="#000000" points="350.2908,-166.5001 360.2907,-163 350.2907,-159.5001 350.2908,-166.5001"/>
</g>
<!-- AuthService -->
<g id="node6" class="node">
<title>AuthService</title>
<ellipse fill="#fdb462" stroke="#000000" cx="83" cy="-104" rx="59.1083" ry="18"/>
<text text-anchor="middle" x="83" y="-99.8" font-family="Times,serif" font-size="14.00" fill="#000000">AuthService</text>
</g>
<!-- AuthService&#45;&gt;LoginModule -->
<g id="edge5" class="edge">
<title>AuthService&#45;&gt;LoginModule</title>
<path fill="none" stroke="#000000" d="M83,-122.2843C83,-143.3211 83,-175 83,-175 83,-175 350.2336,-175 350.2336,-175"/>
<polygon fill="#000000" stroke="#000000" points="350.2337,-178.5001 360.2336,-175 350.2336,-171.5001 350.2337,-178.5001"/>
</g>
</g>
</svg>
