<?xml version="1.0" encoding="utf-8"?>
<!-- Generated by IcoMoon.io -->
<!DOCTYPE svg PUBLIC "-//W3C//DTD SVG 1.1//EN" "http://www.w3.org/Graphics/SVG/1.1/DTD/svg11.dtd">
<svg version="1.1" xmlns="http://www.w3.org/2000/svg" xmlns:xlink="http://www.w3.org/1999/xlink" width="20" height="20" viewBox="0 0 20 20">
<g>
</g>
	<path d="M17.1330617,2.8594383 C15.9930617,1.7194383 14.0130617,1.7194383 12.8930617,2.8594383 L5.5130617,10.2394383 C5.3330617,10.4394383 5.3330617,10.7594383 5.5130617,10.9594383 C5.7130617,11.1394383 6.0330617,11.1394383 6.2330617,10.9594383 L13.5930617,3.5594383 C14.3530617,2.7994383 15.6730617,2.7994383 16.4130617,3.5594383 C17.1730617,4.3194383 17.1930617,5.5594383 16.4130617,6.3394383 L9.0330617,13.7594383 C8.7130617,14.0794383 8.9330617,14.6194383 9.3730617,14.6194383 C9.5130617,14.6194383 9.6330617,14.5594383 9.7330617,14.4594383 L17.1330617,7.0394383 C18.2930617,5.8794383 18.2930617,4.0194383 17.1330617,2.8594383 L17.1330617,2.8594383 Z M8.4930617,15.3594383 C8.0330617,13.4594383 6.5130617,11.9394383 4.6130617,11.4794383 C4.3530617,11.4194383 4.0930617,11.5794383 4.0130617,11.8194383 L2.0330617,17.3194383 C1.8730617,17.7194383 2.2730617,18.1194383 2.6730617,17.9594383 C8.6730617,15.7794383 8.2530617,15.9594383 8.3730617,15.8194383 C8.4930617,15.6994383 8.5330617,15.5194383 8.4930617,15.3594383 L8.4930617,15.3594383 Z M3.3330617,16.6594383 L4.8130617,12.5794383 C6.0130617,12.9994383 6.9730617,13.9794383 7.3930617,15.1794383 L3.3330617,16.6594383 Z" fill="#000000" />
</svg>
