<?xml version="1.0" encoding="utf-8"?>
<!-- Generated by IcoMoon.io -->
<!DOCTYPE svg PUBLIC "-//W3C//DTD SVG 1.1//EN" "http://www.w3.org/Graphics/SVG/1.1/DTD/svg11.dtd">
<svg version="1.1" xmlns="http://www.w3.org/2000/svg" xmlns:xlink="http://www.w3.org/1999/xlink" width="18" height="18" viewBox="0 0 18 18">
<g>
</g>
	<path d="M 3.74 18 C 3.64 18 3.54 17.96 3.46 17.9 C 3.28 17.76 3.2 17.54 3.28 17.34 L 5.16 11.5 L 0.2 7.9 C 0.04 7.78 -0.04 7.56 0.02 7.34 C 0.1 7.14 0.28 7 0.5 7 L 6.64 7 L 8.52 1.16 C 8.66 0.76 9.34 0.76 9.48 1.16 L 11.38 7 L 17.5 7 C 17.72 7 17.9 7.14 17.98 7.34 C 18.04 7.56 17.96 7.78 17.8 7.9 L 12.84 11.5 L 14.72 17.34 C 14.8 17.54 14.72 17.76 14.54 17.9 C 14.38 18.02 14.14 18.02 13.96 17.9 L 9 14.3 L 4.04 17.9 C 3.96 17.96 3.84 18 3.74 18 L 3.74 18 Z M 9 13.18 C 9.1 13.18 9.2 13.2 9.3 13.28 L 13.3 16.18 L 11.78 11.46 C 11.7 11.26 11.78 11.04 11.96 10.92 L 15.96 8 L 11 8 C 10.8 8 10.6 7.86 10.54 7.66 L 9 2.94 L 7.46 7.66 C 7.4 7.86 7.22 8 7 8 L 2.04 8 L 6.04 10.92 C 6.22 11.04 6.3 11.26 6.22 11.46 L 4.7 16.18 L 8.7 13.28 C 8.8 13.2 8.9 13.18 9 13.18 L 9 13.18 Z" fill="none" stroke-width="1px" stroke="rgb(166, 166, 166)" />
</svg>
