<?xml version="1.0" encoding="utf-8"?>
<!-- Generated by IcoMoon.io -->
<!DOCTYPE svg PUBLIC "-//W3C//DTD SVG 1.1//EN" "http://www.w3.org/Graphics/SVG/1.1/DTD/svg11.dtd">
<svg version="1.1" xmlns="http://www.w3.org/2000/svg" xmlns:xlink="http://www.w3.org/1999/xlink" width="20" height="20" viewBox="0 0 20 20">
<g>
</g>
	<path d="M9.5,14c-0.132,0 -0.259,-0.052 -0.354,-0.146c-1.485,-1.486 -3.134,-2.808 -4.904,-3.932c-0.232,-0.148 -0.302,-0.457 -0.153,-0.691c0.147,-0.231 0.456,-0.299 0.69,-0.153c1.652,1.049 3.202,2.266 4.618,3.621c2.964,-4.9 5.989,-8.792 9.749,-12.553c0.196,-0.195 0.512,-0.195 0.708,0c0.195,0.196 0.195,0.512 0,0.708c-3.838,3.837 -6.899,7.817 -9.924,12.902c-0.079,0.133 -0.215,0.221 -0.368,0.24c-0.021,0.003 -0.041,0.004 -0.062,0.004" fill="none" stroke-width="1px" stroke="rgb(166, 166, 166)" />
	<path d="M15.5,18l-11,0c-1.379,0 -2.5,-1.121 -2.5,-2.5l0,-11c0,-1.379 1.121,-2.5 2.5,-2.5l10,0c0.276,0 0.5,0.224 0.5,0.5c0,0.276 -0.224,0.5 -0.5,0.5l-10,0c-0.827,0 -1.5,0.673 -1.5,1.5l0,11c0,0.827 0.673,1.5 1.5,1.5l11,0c0.827,0 1.5,-0.673 1.5,-1.5l0,-9.5c0,-0.276 0.224,-0.5 0.5,-0.5c0.276,0 0.5,0.224 0.5,0.5l0,9.5c0,1.379 -1.121,2.5 -2.5,2.5" fill="none" stroke-width="1px" stroke="rgb(166, 166, 166)" />
</svg>
