<?xml version="1.0" encoding="UTF-8" standalone="no"?>
<!DOCTYPE svg PUBLIC "-//W3C//DTD SVG 1.1//EN"
 "http://www.w3.org/Graphics/SVG/1.1/DTD/svg11.dtd">
<!-- Generated by graphviz version 2.40.1 (20161225.0304)
 -->
<!-- Title: dependencies Pages: 1 -->
<svg width="804pt" height="211pt"
 viewBox="0.00 0.00 804.00 211.00" xmlns="http://www.w3.org/2000/svg" xmlns:xlink="http://www.w3.org/1999/xlink">
<g id="graph0" class="graph" transform="scale(1 1) rotate(0) translate(4 207)">
<title>dependencies</title>
<polygon fill="#ffffff" stroke="transparent" points="-4,4 -4,-207 800,-207 800,4 -4,4"/>
<text text-anchor="start" x="377.0091" y="-42.4" font-family="sans-serif" font-weight="bold" font-size="14.00" fill="#000000">Legend</text>
<polygon fill="#ffffb3" stroke="transparent" points="164,-10 164,-30 184,-30 184,-10 164,-10"/>
<text text-anchor="start" x="187.629" y="-15.4" font-family="sans-serif" font-size="14.00" fill="#000000"> &#160;Declarations</text>
<polygon fill="#8dd3c7" stroke="transparent" points="277,-10 277,-30 297,-30 297,-10 277,-10"/>
<text text-anchor="start" x="300.7251" y="-15.4" font-family="sans-serif" font-size="14.00" fill="#000000"> &#160;Module</text>
<polygon fill="#80b1d3" stroke="transparent" points="363,-10 363,-30 383,-30 383,-10 363,-10"/>
<text text-anchor="start" x="386.7812" y="-15.4" font-family="sans-serif" font-size="14.00" fill="#000000"> &#160;Bootstrap</text>
<polygon fill="#fdb462" stroke="transparent" points="460,-10 460,-30 480,-30 480,-10 460,-10"/>
<text text-anchor="start" x="483.6732" y="-15.4" font-family="sans-serif" font-size="14.00" fill="#000000"> &#160;Providers</text>
<polygon fill="#fb8072" stroke="transparent" points="556,-10 556,-30 576,-30 576,-10 556,-10"/>
<text text-anchor="start" x="579.7258" y="-15.4" font-family="sans-serif" font-size="14.00" fill="#000000"> &#160;Exports</text>
<g id="clust1" class="cluster">
<title>cluster_ShiftsModule</title>
<polygon fill="none" stroke="#000000" stroke-dasharray="1,5" points="8,-70 8,-195 788,-195 788,-70 8,-70"/>
</g>
<g id="clust2" class="cluster">
<title>cluster_ShiftsModule_declarations</title>
<polygon fill="none" stroke="#000000" points="302,-78 302,-130 780,-130 780,-78 302,-78"/>
</g>
<g id="clust6" class="cluster">
<title>cluster_ShiftsModule_imports</title>
<polygon fill="none" stroke="#000000" points="166,-78 166,-130 294,-130 294,-78 166,-78"/>
</g>
<g id="clust9" class="cluster">
<title>cluster_ShiftsModule_providers</title>
<polygon fill="none" stroke="#000000" points="16,-78 16,-130 158,-130 158,-78 16,-78"/>
</g>
<!-- ShiftsComponent -->
<g id="node1" class="node">
<title>ShiftsComponent</title>
<polygon fill="#ffffb3" stroke="#000000" points="772.0014,-122 657.9986,-122 657.9986,-86 772.0014,-86 772.0014,-122"/>
<text text-anchor="middle" x="715" y="-99.8" font-family="Times,serif" font-size="14.00" fill="#000000">ShiftsComponent</text>
</g>
<!-- ShiftsModule -->
<g id="node4" class="node">
<title>ShiftsModule</title>
<polygon fill="#8dd3c7" stroke="#000000" points="433.2191,-187 430.2191,-191 409.2191,-191 406.2191,-187 340.7809,-187 340.7809,-151 433.2191,-151 433.2191,-187"/>
<text text-anchor="middle" x="387" y="-164.8" font-family="Times,serif" font-size="14.00" fill="#000000">ShiftsModule</text>
</g>
<!-- ShiftsComponent&#45;&gt;ShiftsModule -->
<g id="edge1" class="edge">
<title>ShiftsComponent&#45;&gt;ShiftsModule</title>
<path fill="none" stroke="#000000" d="M715,-122.2843C715,-143.3211 715,-175 715,-175 715,-175 443.2987,-175 443.2987,-175"/>
<polygon fill="#000000" stroke="#000000" points="443.2988,-171.5001 433.2987,-175 443.2987,-178.5001 443.2988,-171.5001"/>
</g>
<!-- ContentShiftsComponent -->
<g id="node2" class="node">
<title>ContentShiftsComponent</title>
<polygon fill="#ffffb3" stroke="#000000" points="640.3342,-122 481.6658,-122 481.6658,-86 640.3342,-86 640.3342,-122"/>
<text text-anchor="middle" x="561" y="-99.8" font-family="Times,serif" font-size="14.00" fill="#000000">ContentShiftsComponent</text>
</g>
<!-- ContentShiftsComponent&#45;&gt;ShiftsModule -->
<g id="edge2" class="edge">
<title>ContentShiftsComponent&#45;&gt;ShiftsModule</title>
<path fill="none" stroke="#000000" d="M561,-122.0225C561,-139.3734 561,-163 561,-163 561,-163 443.172,-163 443.172,-163"/>
<polygon fill="#000000" stroke="#000000" points="443.172,-159.5001 433.172,-163 443.1719,-166.5001 443.172,-159.5001"/>
</g>
<!-- DetailsShiftsComponent -->
<g id="node3" class="node">
<title>DetailsShiftsComponent</title>
<polygon fill="#ffffb3" stroke="#000000" points="463.654,-122 310.346,-122 310.346,-86 463.654,-86 463.654,-122"/>
<text text-anchor="middle" x="387" y="-99.8" font-family="Times,serif" font-size="14.00" fill="#000000">DetailsShiftsComponent</text>
</g>
<!-- DetailsShiftsComponent&#45;&gt;ShiftsModule -->
<g id="edge3" class="edge">
<title>DetailsShiftsComponent&#45;&gt;ShiftsModule</title>
<path fill="none" stroke="#000000" d="M387,-122.1061C387,-122.1061 387,-140.991 387,-140.991"/>
<polygon fill="#000000" stroke="#000000" points="383.5001,-140.9909 387,-150.991 390.5001,-140.991 383.5001,-140.9909"/>
</g>
<!-- MaterialsModule -->
<g id="node5" class="node">
<title>MaterialsModule</title>
<polygon fill="#8dd3c7" stroke="#000000" points="286.416,-122 283.416,-126 262.416,-126 259.416,-122 173.584,-122 173.584,-86 286.416,-86 286.416,-122"/>
<text text-anchor="middle" x="230" y="-99.8" font-family="Times,serif" font-size="14.00" fill="#000000">MaterialsModule</text>
</g>
<!-- MaterialsModule&#45;&gt;ShiftsModule -->
<g id="edge4" class="edge">
<title>MaterialsModule&#45;&gt;ShiftsModule</title>
<path fill="none" stroke="#000000" d="M230,-122.0225C230,-139.3734 230,-163 230,-163 230,-163 330.744,-163 330.744,-163"/>
<polygon fill="#000000" stroke="#000000" points="330.744,-166.5001 340.744,-163 330.7439,-159.5001 330.744,-166.5001"/>
</g>
<!-- ShiftsService -->
<g id="node6" class="node">
<title>ShiftsService</title>
<ellipse fill="#fdb462" stroke="#000000" cx="87" cy="-104" rx="62.5528" ry="18"/>
<text text-anchor="middle" x="87" y="-99.8" font-family="Times,serif" font-size="14.00" fill="#000000">ShiftsService</text>
</g>
<!-- ShiftsService&#45;&gt;ShiftsModule -->
<g id="edge5" class="edge">
<title>ShiftsService&#45;&gt;ShiftsModule</title>
<path fill="none" stroke="#000000" d="M87,-122.2843C87,-143.3211 87,-175 87,-175 87,-175 330.7825,-175 330.7825,-175"/>
<polygon fill="#000000" stroke="#000000" points="330.7825,-178.5001 340.7825,-175 330.7824,-171.5001 330.7825,-178.5001"/>
</g>
</g>
</svg>
