<svg xmlns="http://www.w3.org/2000/svg" style="position:absolute; width: 0; height: 0;"><symbol viewBox="0 0 20 20" id="icon_bell"><path d="M15.2 10.14a3.43 3.43 0 0 1-.8-1.94l-.12-1.26c-.14-1.86-1.52-3.4-3.28-3.82V3c0-.56-.44-1-1-1s-1 .44-1 1v.12c-1.76.42-3.14 1.96-3.28 3.82L5.6 8.2c-.06.72-.32 1.4-.8 1.96l-.76.9C3.38 11.88 3 12.9 3 13.94v.56c0 .28.22.5.5.5h13c.28 0 .5-.22.5-.5v-.56c0-1.04-.38-2.06-1.04-2.88l-.76-.92zM16 14H4v-.06c0-.8.28-1.6.82-2.24l.76-.9c.6-.72.94-1.6 1.02-2.52l.1-1.26C6.84 5.34 8.3 4 10 4c1.7 0 3.16 1.34 3.3 3.02l.1 1.26c.08.92.44 1.8 1.02 2.52l.76.9c.54.64.82 1.44.82 2.24V14zm-3.7 2.1a.533.533 0 0 0-.72.1c-.76 1.02-2.4 1.02-3.18 0a.505.505 0 0 0-.7-.1c-.22.16-.26.48-.08.7.56.76 1.44 1.2 2.38 1.2s1.82-.44 2.38-1.2c.18-.22.14-.54-.08-.7z" fill="#A6A6A6"></path></symbol><symbol viewBox="0 0 20 20" id="icon_conversations"><path d="M3.46 18a.502.502 0 0 1-.42-.32.491.491 0 0 1 .08-.52c.98-1.08 1.18-3.04.42-4.04-.36-.48-.82-1.12-1.12-1.86C2.14 10.52 2 9.76 2 9c0-3.86 3.58-7 8-7s8 3.14 8 7c0 3.82-3.54 6.96-7.92 7H10c-1.3 0-2.58-.28-3.72-.8a.487.487 0 0 1-.24-.66c.1-.26.4-.36.66-.26.98.46 2.1.7 3.22.72H10c3.86 0 7-2.7 7-6 0-3.32-3.14-6-7-6S3 5.68 3 9c0 .64.12 1.28.36 1.88.24.64.64 1.2.98 1.64.86 1.12.88 3 .14 4.44.72-.12 1.44-.4 2.04-.86.22-.16.54-.12.7.1.16.22.12.54-.1.7a5.5 5.5 0 0 1-3.3 1.1h-.36z" fill="#A6A6A6"></path></symbol><symbol viewBox="0 0 20 20" id="icon_folder-option"><path d="M3.5 11a1.5 1.5 0 1 0-.001-3.001A1.5 1.5 0 0 0 3.5 11zM9.5 11a1.5 1.5 0 1 0-.001-3.001A1.5 1.5 0 0 0 9.5 11zM15.5 11a1.5 1.5 0 1 0-.001-3.001A1.5 1.5 0 0 0 15.5 11z" fill="#FFF"></path></symbol><symbol viewBox="0 0 20 20" id="icon_inbox"><path d="M10 15c-1.2 0-2.22-.86-2.44-2H2.5c-.28 0-.5-.22-.5-.5v-9C2 2.68 2.68 2 3.5 2h13c.82 0 1.5.68 1.5 1.5v9c0 .28-.22.5-.5.5h-5.06A2.49 2.49 0 0 1 10 15zm-7-3h5c.28 0 .5.22.5.5 0 .82.68 1.5 1.5 1.5s1.5-.68 1.5-1.5c0-.28.22-.5.5-.5h5V3.5c0-.28-.22-.5-.5-.5h-13c-.28 0-.5.22-.5.5V12zm2.5-6c-.28 0-.5-.22-.5-.5s.22-.5.5-.5h9c.28 0 .5.22.5.5s-.22.5-.5.5h-9zm0 2c-.28 0-.5-.22-.5-.5s.22-.5.5-.5h9c.28 0 .5.22.5.5s-.22.5-.5.5h-9zm0 2c-.28 0-.5-.22-.5-.5s.22-.5.5-.5h9c.28 0 .5.22.5.5s-.22.5-.5.5h-9zm-2 8c-.82 0-1.5-.68-1.5-1.5v-2c0-.28.22-.5.5-.5s.5.22.5.5v2c0 .28.22.5.5.5h13c.28 0 .5-.22.5-.5v-2c0-.28.22-.5.5-.5s.5.22.5.5v2c0 .82-.68 1.5-1.5 1.5h-13z" fill="#2B8DEC"></path></symbol><symbol viewBox="0 0 20 20" id="icon_list-toggle"><path d="M.5 3.5h19M.5 9.53h19M.5 15.5h19" fill="none" stroke="#FFF"></path></symbol><symbol viewBox="0 0 20 20" id="icon_list"><path d="M3 7c-.56 0-1-.44-1-1V5c0-.56.44-1 1-1h1c.56 0 1 .44 1 1v1c0 .56-.44 1-1 1H3zm1-2H3v1h1V5zm3.5 1c-.28 0-.5-.22-.5-.5s.22-.5.5-.5h10c.28 0 .5.22.5.5s-.22.5-.5.5h-10zM3 12c-.56 0-1-.44-1-1v-1c0-.56.44-1 1-1h1c.56 0 1 .44 1 1v1c0 .56-.44 1-1 1H3zm1-2H3v1h1v-1zm3.5 1c-.28 0-.5-.22-.5-.5s.22-.5.5-.5h10c.28 0 .5.22.5.5s-.22.5-.5.5h-10zM3 17c-.56 0-1-.44-1-1v-1c0-.56.44-1 1-1h1c.56 0 1 .44 1 1v1c0 .56-.44 1-1 1H3zm1-2H3v1h1v-1zm3.5 1c-.28 0-.5-.22-.5-.5s.22-.5.5-.5h10c.28 0 .5.22.5.5s-.22.5-.5.5h-10z" fill="#A6A6A6"></path></symbol><symbol viewBox="0 0 20 20" id="icon_more-vertical"><path d="M8 15.5a1.5 1.5 0 1 1 3.001.001A1.5 1.5 0 0 1 8 15.5zM8 9.5a1.5 1.5 0 1 1 3.001.001A1.5 1.5 0 0 1 8 9.5zM8 3.5a1.5 1.5 0 1 1 3.001.001A1.5 1.5 0 0 1 8 3.5z" fill="#2B8DEC"></path></symbol><symbol viewBox="0 0 20 20" id="icon_option"><path d="M17.133 2.86c-1.14-1.14-3.12-1.14-4.24 0l-7.38 7.38c-.18.2-.18.52 0 .72.2.18.52.18.72 0l7.36-7.4c.76-.76 2.08-.76 2.82 0 .76.76.78 2 0 2.78l-7.38 7.42c-.32.32-.1.86.34.86a.5.5 0 0 0 .36-.16l7.4-7.42a2.945 2.945 0 0 0 0-4.18zm-8.64 12.5a5.31 5.31 0 0 0-3.88-3.88c-.26-.06-.52.1-.6.34l-1.98 5.5c-.16.4.24.8.64.64 6-2.18 5.58-2 5.7-2.14.12-.12.16-.3.12-.46zm-5.16 1.3l1.48-4.08c1.2.42 2.16 1.4 2.58 2.6l-4.06 1.48z"></path></symbol><symbol viewBox="0 0 18 18" id="icon_partners__airplane"><path class="cls-1" d="M16.452 1.715a.163.163 0 0 0-.173-.015L.6 9.635a.159.159 0 0 0-.088.156.162.162 0 0 0 .112.14l4.966 1.561a.161.161 0 0 0 .157-.034l7.545-6.386L7.5 11.865a.16.16 0 0 0-.032.149.162.162 0 0 0 .108.107l5.822 1.756a.161.161 0 0 0 .127-.014.162.162 0 0 0 .077-.1l2.907-11.884a.161.161 0 0 0-.057-.164zM9.276 13.856l-1.609-.49a.161.161 0 0 0-.209.153v3.007a.16.16 0 0 0 .117.154.168.168 0 0 0 .045.006.163.163 0 0 0 .136-.074l1.609-2.517a.156.156 0 0 0 .015-.141.162.162 0 0 0-.104-.098z"></path></symbol><symbol viewBox="0 0 20 20" id="icon_plus-task"><path d="M10 10v6.5a.633.633 0 0 1-.024.155.506.506 0 0 1-.372.334c-.052.008-.051.008-.104.011a.633.633 0 0 1-.155-.024.512.512 0 0 1-.321-.321A.633.633 0 0 1 9 16.5V10H2.5c-.046-.002-.058-.001-.104-.011a.506.506 0 0 1-.268-.154.506.506 0 0 1 .122-.768A.546.546 0 0 1 2.5 9H9V2.5a.546.546 0 0 1 .067-.25.504.504 0 0 1 .768-.122.506.506 0 0 1 .154.268c.01.046.009.058.011.104V9h6.5c.046.002.058.001.104.011a.506.506 0 0 1 .268.154.506.506 0 0 1-.122.768.546.546 0 0 1-.25.067H10z" fill="#FFF"></path></symbol><symbol viewBox="0 0 20 20" id="icon_plus"><path d="M10 10v6.5a.633.633 0 0 1-.024.155.506.506 0 0 1-.372.334c-.052.008-.051.008-.104.011a.633.633 0 0 1-.155-.024.512.512 0 0 1-.321-.321A.633.633 0 0 1 9 16.5V10H2.5c-.046-.002-.058-.001-.104-.011a.506.506 0 0 1-.268-.154.506.506 0 0 1 .122-.768A.546.546 0 0 1 2.5 9H9V2.5a.546.546 0 0 1 .067-.25.504.504 0 0 1 .768-.122.506.506 0 0 1 .154.268c.01.046.009.058.011.104V9h6.5c.046.002.058.001.104.011a.506.506 0 0 1 .268.154.506.506 0 0 1-.122.768.546.546 0 0 1-.25.067H10z" fill="#2B8DEC"></path></symbol><symbol viewBox="0 0 20 20" id="icon_share"><path d="M11.502 12c2.28 0 4-3.16 4-6 0-2.2-1.8-4-4-4s-4 1.8-4 4c0 2.5 1.52 6 4 6zm0-9c1.66 0 3 1.34 3 3 0 2.26-1.38 5-3 5-1.66 0-3-2.74-3-5 0-1.66 1.34-3 3-3zm-7 7h1.5c.28 0 .5-.22.5-.5s-.22-.5-.5-.5h-1.5V7.5c0-.28-.22-.5-.5-.5s-.5.22-.5.5V9h-1.5c-.28 0-.5.22-.5.5s.22.5.5.5h1.5v1.5c0 .28.22.5.5.5s.5-.22.5-.5V10zm13.76 4.88c-.2-.88-.86-1.6-1.74-1.84l-2.3-.68a.682.682 0 0 1-.36-.22c-.2-.18-.52-.18-.7.02-.2.18-.2.5 0 .7.22.22.48.38.78.46l2.3.68c.52.14.92.58 1.04 1.1l.16.7c-.54.36-2.24 1.2-5.94 1.2-3.72 0-5.4-.86-5.94-1.2l.16-.76a1.5 1.5 0 0 1 1.08-1.12l2.24-.6c.3-.08.58-.24.82-.46.18-.2.18-.52 0-.72a.548.548 0 0 0-.72 0c-.1.1-.22.18-.36.22l-2.24.6c-.9.24-1.58.96-1.8 1.86l-.22 1.08c-.04.16 0 .34.12.46.08.06 1.72 1.64 6.86 1.64 5.14 0 6.78-1.58 6.86-1.64.12-.12.16-.3.12-.46l-.22-1.02z" fill="#FFF"></path></symbol><symbol viewBox="0 0 20 20" id="icon_sort"><path d="M14.2 2.3a.5.5 0 0 0-.44-.3h-.5c-.2 0-.38.12-.46.3l-2.76 6c-.1.24 0 .54.26.66.24.12.54 0 .66-.26l.78-1.7h3.52l.78 1.7c.1.2.28.3.46.3.08 0 .14-.02.2-.04.26-.12.36-.42.26-.66l-2.76-6zm-8.56.72C5.56 3 5.48 3 5.4 3c-.1.02-.18.08-.26.16l-2 1.98c-.18.2-.18.52 0 .72.2.18.52.18.72 0L5 4.7v3.8c0 .28.22.5.5.5s.5-.22.5-.5V4.7l1.14 1.16c.1.1.24.14.36.14s.26-.04.36-.14c.18-.2.18-.52 0-.72C5.68 2.98 5.8 3.08 5.64 3.02zM14.8 6h-2.6l1.3-2.84L14.8 6zM6 15.3v-3.8c0-.28-.22-.5-.5-.5s-.5.22-.5.5v3.8l-1.14-1.16a.548.548 0 0 0-.72 0c-.18.2-.18.52 0 .72C5.28 17 5.2 16.96 5.4 17c.16.02.34-.02.46-.16l2-1.98c.18-.2.18-.52 0-.72a.548.548 0 0 0-.72 0L6 15.3zm9.94-4.04a.497.497 0 0 0-.44-.26h-4c-.28 0-.5.22-.5.5s.22.5.5.5h3.06l-3.48 5.22c-.1.16-.1.36-.02.52.08.16.26.26.44.26h4c.28 0 .5-.22.5-.5s-.22-.5-.5-.5h-3.06l3.48-5.22c.1-.16.1-.36.02-.52z" fill="#FFF"></path></symbol><symbol viewBox="0 0 22 44" id="icon_star-flag"><path d="M0 0v40.5c0 .28.22.42.48.32l10.04-3.64c.28-.1.7-.1.96 0l10.04 3.64c.28.1.48-.04.48-.32V0H0zm14.46 24.08l1.68 5.26c.08.18 0 .38-.16.5-.14.1-.36.1-.52 0L11 26.6l-4.46 3.24c-.08.06-.18.1-.28.1-.08 0-.18-.04-.24-.1-.16-.12-.24-.32-.16-.5l1.68-5.26-4.46-3.24a.5.5 0 0 1-.16-.52c.08-.18.24-.32.44-.32h5.52l1.68-5.24c.14-.36.74-.36.88 0l1.7 5.24h5.5c.2 0 .36.14.44.32a.5.5 0 0 1-.16.52l-4.46 3.24z" fill="none" stroke="#A6A6A6"></path></symbol><symbol viewBox="0 0 18 18" id="icon_star"><path d="M3.74 18c-.1 0-.2-.04-.28-.1-.18-.14-.26-.36-.18-.56l1.88-5.84L.2 7.9a.525.525 0 0 1-.18-.56C.1 7.14.28 7 .5 7h6.14l1.88-5.84c.14-.4.82-.4.96 0L11.38 7h6.12c.22 0 .4.14.48.34.06.22-.02.44-.18.56l-4.96 3.6 1.88 5.84c.08.2 0 .42-.18.56-.16.12-.4.12-.58 0L9 14.3l-4.96 3.6c-.08.06-.2.1-.3.1zM9 13.18c.1 0 .2.02.3.1l4 2.9-1.52-4.72c-.08-.2 0-.42.18-.54l4-2.92H11c-.2 0-.4-.14-.46-.34L9 2.94 7.46 7.66C7.4 7.86 7.22 8 7 8H2.04l4 2.92c.18.12.26.34.18.54L4.7 16.18l4-2.9c.1-.08.2-.1.3-.1z" fill="none" stroke="#A6A6A6"></path></symbol><symbol viewBox="0 0 20 20" id="icon_task-check"><path d="M17.5 4.5a2 2 0 0 0-2-2h-11a2 2 0 0 0-2 2v11a2 2 0 0 0 2 2h11a2 2 0 0 0 2-2v-11z" fill="none" stroke="#A6A6A6"></path></symbol><symbol viewBox="0 0 20 20" id="icon_task-checked"><path d="M9.5 14a.503.503 0 0 1-.354-.146 28.673 28.673 0 0 0-4.904-3.932.5.5 0 0 1 .537-.844 29.779 29.779 0 0 1 4.618 3.621c2.964-4.9 5.989-8.792 9.749-12.553a.502.502 0 0 1 .708.708c-3.838 3.837-6.899 7.817-9.924 12.902A.499.499 0 0 1 9.5 14" fill="none" stroke="#A6A6A6"></path><path d="M15.5 18h-11A2.502 2.502 0 0 1 2 15.5v-11C2 3.121 3.121 2 4.5 2h10a.5.5 0 0 1 0 1h-10C3.673 3 3 3.673 3 4.5v11c0 .827.673 1.5 1.5 1.5h11c.827 0 1.5-.673 1.5-1.5V6a.5.5 0 0 1 1 0v9.5c0 1.379-1.121 2.5-2.5 2.5" fill="none" stroke="#A6A6A6"></path></symbol></svg>