<?xml version="1.0" encoding="UTF-8" standalone="no"?>
<svg width="19px" height="18px" viewBox="0 0 19 18" version="1.1" xmlns="http://www.w3.org/2000/svg" xmlns:xlink="http://www.w3.org/1999/xlink" xmlns:sketch="http://www.bohemiancoding.com/sketch/ns">
    <!-- Generator: Sketch 3.3.2 (12043) - http://www.bohemiancoding.com/sketch -->
    <title>Shape</title>
    <desc>Created with Sketch.</desc>
    <defs></defs>
    <g id="Page-1" stroke="none" stroke-width="1" fill="none" fill-rule="evenodd" sketch:type="MSPage">
        <path d="M17.512,18 L1.488,18 C0.666,18 0,17.35 0,16.549 L0,2.443 C0,1.642 0.666,0.992 1.488,0.992 L17.512,0.992 C18.334,0.992 19,1.642 19,2.443 L19,16.549 C19,17.35 18.334,18 17.512,18 L17.512,18 Z M16.983,4.988 L1.985,4.988 L1.985,15.997 L16.983,15.997 L16.983,4.988 L16.983,4.988 Z M4.249,6.977 L6.741,6.977 C6.873,6.977 6.979,7.081 6.979,7.209 L6.979,9.734 C6.979,9.862 6.873,9.966 6.741,9.966 L4.249,9.966 C4.117,9.966 4.011,9.862 4.011,9.734 L4.011,7.209 C4.011,7.081 4.117,6.977 4.249,6.977 L4.249,6.977 Z M4.249,10.977 L6.741,10.977 C6.873,10.977 6.979,11.081 6.979,11.209 L6.979,13.734 C6.979,13.862 6.873,13.966 6.741,13.966 L4.249,13.966 C4.117,13.966 4.011,13.862 4.011,13.734 L4.011,11.209 C4.011,11.081 4.117,10.977 4.249,10.977 L4.249,10.977 Z M8.222,7.009 L10.779,7.009 C10.91,7.009 11.017,7.113 11.017,7.241 L11.017,9.766 C11.017,9.894 10.91,9.998 10.779,9.998 L8.222,9.998 C8.091,9.998 7.984,9.894 7.984,9.766 L7.984,7.241 C7.984,7.113 8.091,7.009 8.222,7.009 L8.222,7.009 Z M8.222,11.009 L10.779,11.009 C10.91,11.009 11.017,11.113 11.017,11.241 L11.017,13.766 C11.017,13.894 10.91,13.998 10.779,13.998 L8.222,13.998 C8.091,13.998 7.984,13.894 7.984,13.766 L7.984,11.241 C7.984,11.113 8.091,11.009 8.222,11.009 L8.222,11.009 Z M12.194,7.009 L14.783,7.009 C14.915,7.009 15.022,7.113 15.022,7.241 L15.022,9.766 C15.022,9.894 14.915,9.998 14.783,9.998 L12.194,9.998 C12.063,9.998 11.956,9.894 11.956,9.766 L11.956,7.241 C11.956,7.113 12.063,7.009 12.194,7.009 L12.194,7.009 Z M12.194,11.009 L14.783,11.009 C14.915,11.009 15.022,11.113 15.022,11.241 L15.022,13.766 C15.022,13.894 14.915,13.998 14.783,13.998 L12.194,13.998 C12.063,13.998 11.956,13.894 11.956,13.766 L11.956,11.241 C11.956,11.113 12.063,11.009 12.194,11.009 L12.194,11.009 Z" id="Shape" fill="#A4A4A4" sketch:type="MSShapeGroup"></path>
    </g>
</svg>