<?xml version="1.0" encoding="utf-8"?>
<svg xmlns="http://www.w3.org/2000/svg"
	xmlns:xlink="http://www.w3.org/1999/xlink"
	width="7px" height="11px" viewBox="0 0 7 11">
<path fillRule="evenodd" d="M 6.61 1.88C 6.61 1.88 2.77 5.5 2.77 5.5 2.77 5.5 6.69 9.19 6.69 9.19 6.69 9.19 6.69 9.19 6.69 9.19 6.89 9.38 7.01 9.65 7.01 9.94 7.01 10.53 6.5 11.01 5.87 11.01 5.56 11.01 5.28 10.9 5.07 10.71 5.07 10.71 5.07 10.71 5.07 10.71 5.07 10.71 0.36 6.28 0.36 6.28 0.36 6.28 0.36 6.28 0.36 6.28 0.14 6.08 0.01 5.81 0.01 5.5 0.01 5.5 0.01 5.5 0.01 5.5 0.01 5.5 0.01 5.5 0.01 5.5 0.01 5.19 0.14 4.92 0.36 4.72 0.36 4.72 0.36 4.72 0.36 4.72 0.36 4.72 5.07 0.29 5.07 0.29 5.07 0.29 5.07 0.29 5.07 0.29 5.28 0.1 5.56-0.01 5.87-0.01 6.5-0.01 7.01 0.47 7.01 1.07 7.01 1.39 6.85 1.69 6.61 1.88Z" fill="rgb(163,163,163)" opacity="0.80"/></svg>
