<?xml version="1.0" encoding="utf-8"?>
<svg xmlns="http://www.w3.org/2000/svg"
	xmlns:xlink="http://www.w3.org/1999/xlink"
	width="7px" height="11px" viewBox="0 0 7 11">
<path fillRule="evenodd" d="M 0.39 9.12C 0.39 9.12 4.23 5.5 4.23 5.5 4.23 5.5 0.31 1.81 0.31 1.81 0.31 1.81 0.31 1.81 0.31 1.81 0.11 1.62-0.01 1.35-0.01 1.06-0.01 0.47 0.5-0.01 1.13-0.01 1.44-0.01 1.72 0.1 1.93 0.29 1.93 0.29 1.93 0.29 1.93 0.29 1.93 0.29 6.64 4.72 6.64 4.72 6.64 4.72 6.64 4.72 6.64 4.72 6.86 4.92 6.99 5.2 6.99 5.5 6.99 5.5 6.99 5.5 6.99 5.5 6.99 5.5 6.99 5.5 6.99 5.5 6.99 5.81 6.86 6.08 6.64 6.28 6.64 6.28 6.64 6.28 6.64 6.28 6.64 6.28 1.93 10.71 1.93 10.71 1.93 10.71 1.93 10.71 1.93 10.71 1.72 10.9 1.44 11.01 1.13 11.01 0.5 11.01-0.01 10.53-0.01 9.94-0.01 9.61 0.15 9.32 0.39 9.12Z" fill="rgb(163,163,163)" opacity="0.80"/></svg>
