<svg xmlns="http://www.w3.org/2000/svg" xmlns:xlink="http://www.w3.org/1999/xlink" preserveAspectRatio="xMidYMid" width="13" height="10.156" viewBox="0 0 13 10.156">
  <defs>
    <style>
      .cls-1 {
        fill: #5bc;
        fill-rule: evenodd;
      }
    </style>
  </defs>
  <path d="M12.541,2.568 L5.441,9.669 C5.434,9.676 5.432,9.687 5.424,9.694 C4.834,10.284 3.877,10.284 3.287,9.694 L3.286,9.693 C3.285,9.692 3.283,9.692 3.282,9.691 C3.281,9.690 3.281,9.688 3.280,9.687 L0.438,6.845 C-0.152,6.255 -0.152,5.299 0.438,4.709 C1.028,4.118 1.985,4.118 2.575,4.709 L4.351,6.485 L10.405,0.431 C10.995,-0.159 11.951,-0.159 12.541,0.431 C13.131,1.021 13.131,1.978 12.541,2.568 Z" class="cls-1"/>
</svg>
