<svg xmlns="http://www.w3.org/2000/svg" xmlns:xlink="http://www.w3.org/1999/xlink" preserveAspectRatio="xMidYMid" width="19.313" height="15" viewBox="0 0 19.313 15">
  <defs>
    <style>
      .cls-1 {
        fill: #ccc;
        fill-rule: evenodd;
        width: 20px;
		height: 16px; 
      }
    </style>
  </defs>
  <path d="M5.552,13.791 L5.552,13.790 C4.977,13.415 4.816,12.642 5.192,12.067 C5.564,11.496 6.325,11.332 6.898,11.696 C6.908,11.703 6.916,11.709 6.926,11.714 C7.712,12.227 8.649,12.524 9.656,12.524 C12.176,12.524 14.260,10.663 14.614,8.240 C14.615,8.229 14.616,8.218 14.618,8.208 C14.620,8.186 14.621,8.164 14.621,8.143 C14.621,7.791 14.337,7.507 13.987,7.507 L12.813,7.507 C12.638,7.507 12.495,7.365 12.495,7.189 C12.495,7.123 12.516,7.062 12.551,7.012 L12.549,7.011 L14.022,5.044 L15.401,3.203 C15.466,3.115 15.553,3.045 15.654,3.001 C15.732,2.967 15.818,2.947 15.909,2.947 C16.100,2.947 16.271,3.032 16.387,3.165 L16.444,3.240 L19.237,6.970 L19.286,7.035 C19.286,7.035 19.286,7.037 19.288,7.038 C19.312,7.084 19.326,7.135 19.326,7.189 C19.326,7.365 19.184,7.507 19.009,7.507 L17.764,7.507 C17.440,7.507 17.173,7.750 17.135,8.064 C17.132,8.083 17.130,8.103 17.130,8.123 C16.817,11.981 13.591,15.015 9.656,15.015 C8.141,15.015 6.731,14.565 5.552,13.791 ZM12.414,3.318 C12.405,3.312 12.396,3.305 12.386,3.299 C11.601,2.787 10.664,2.490 9.656,2.490 C7.138,2.490 5.052,4.351 4.699,6.775 C4.698,6.785 4.696,6.796 4.695,6.806 C4.693,6.828 4.692,6.850 4.692,6.871 C4.692,7.223 4.976,7.507 5.326,7.507 L6.500,7.507 C6.675,7.507 6.817,7.649 6.817,7.825 C6.817,7.890 6.797,7.952 6.762,8.002 L6.764,8.003 L5.291,9.971 L3.911,11.811 C3.846,11.899 3.760,11.969 3.659,12.013 C3.581,12.048 3.495,12.067 3.403,12.067 C3.213,12.067 3.043,11.983 2.926,11.849 L2.868,11.774 L0.076,8.044 L0.028,7.980 C0.027,7.979 0.027,7.978 0.026,7.976 C0.001,7.931 -0.013,7.880 -0.013,7.825 C-0.013,7.649 0.129,7.507 0.304,7.507 L1.549,7.507 C1.874,7.507 2.140,7.265 2.179,6.951 C2.181,6.931 2.183,6.912 2.183,6.892 C2.496,3.033 5.722,-0.001 9.656,-0.001 C11.171,-0.001 12.581,0.449 13.761,1.223 L13.760,1.224 C14.335,1.600 14.497,2.372 14.121,2.948 C13.748,3.519 12.987,3.683 12.414,3.318 Z" class="cls-1"/>
</svg>
