<?xml version="1.0" encoding="utf-8"?>
<!-- Generated by IcoMoon.io -->
<!DOCTYPE svg PUBLIC "-//W3C//DTD SVG 1.1//EN" "http://www.w3.org/Graphics/SVG/1.1/DTD/svg11.dtd">
<svg version="1.1" xmlns="http://www.w3.org/2000/svg" xmlns:xlink="http://www.w3.org/1999/xlink" width="18" height="18" viewBox="0 0 18 18">
<g>
</g>
	<path d="M9.991,10.832c-1.716,1.671 -3.445,3.329 -5.137,5.022c-0.058,0.052 -0.12,0.095 -0.195,0.12c-0.039,0.013 -0.05,0.014 -0.09,0.021c-0.046,0.004 -0.046,0.004 -0.092,0.004c-0.078,-0.007 -0.151,-0.024 -0.22,-0.062c-0.193,-0.108 -0.294,-0.336 -0.244,-0.551c0.018,-0.078 0.055,-0.143 0.102,-0.205c1.627,-1.785 3.329,-3.499 5.053,-5.19c-1.671,-1.716 -3.329,-3.445 -5.022,-5.137c-0.052,-0.058 -0.095,-0.12 -0.12,-0.195c-0.081,-0.242 0.039,-0.513 0.272,-0.616c0.056,-0.025 0.117,-0.04 0.179,-0.042c0.128,-0.006 0.242,0.038 0.342,0.114c1.785,1.627 3.499,3.329 5.19,5.053c1.716,-1.671 3.445,-3.329 5.137,-5.022c0.058,-0.052 0.12,-0.095 0.195,-0.12c0.059,-0.02 0.121,-0.028 0.182,-0.025c0.255,0.011 0.465,0.221 0.476,0.476c0.006,0.128 -0.038,0.242 -0.114,0.342c-1.627,1.785 -3.329,3.499 -5.053,5.19c1.671,1.716 3.329,3.445 5.022,5.137c0.052,0.058 0.095,0.12 0.12,0.195c0.07,0.21 -0.009,0.447 -0.191,0.571c-0.066,0.045 -0.137,0.069 -0.214,0.083c-0.046,0.004 -0.046,0.004 -0.092,0.004c-0.078,-0.007 -0.151,-0.024 -0.22,-0.062c-0.036,-0.02 -0.044,-0.028 -0.076,-0.052c-1.785,-1.627 -3.499,-3.329 -5.19,-5.053Z" fill="none" stroke-width="1px" stroke="rgb(255, 255, 255)" />
</svg>
