<?xml version="1.0" encoding="UTF-8" standalone="no"?>
<!DOCTYPE svg PUBLIC "-//W3C//DTD SVG 1.1//EN"
 "http://www.w3.org/Graphics/SVG/1.1/DTD/svg11.dtd">
<!-- Generated by graphviz version 2.40.1 (20161225.0304)
 -->
<!-- Title: dependencies Pages: 1 -->
<svg width="1634pt" height="284pt"
 viewBox="0.00 0.00 1634.00 284.00" xmlns="http://www.w3.org/2000/svg" xmlns:xlink="http://www.w3.org/1999/xlink">
<g id="graph0" class="graph" transform="scale(1 1) rotate(0) translate(4 280)">
<title>dependencies</title>
<polygon fill="#ffffff" stroke="transparent" points="-4,4 -4,-280 1630,-280 1630,4 -4,4"/>
<text text-anchor="start" x="792.0091" y="-42.4" font-family="sans-serif" font-weight="bold" font-size="14.00" fill="#000000">Legend</text>
<polygon fill="#ffffb3" stroke="transparent" points="579,-10 579,-30 599,-30 599,-10 579,-10"/>
<text text-anchor="start" x="602.629" y="-15.4" font-family="sans-serif" font-size="14.00" fill="#000000"> &#160;Declarations</text>
<polygon fill="#8dd3c7" stroke="transparent" points="692,-10 692,-30 712,-30 712,-10 692,-10"/>
<text text-anchor="start" x="715.7251" y="-15.4" font-family="sans-serif" font-size="14.00" fill="#000000"> &#160;Module</text>
<polygon fill="#80b1d3" stroke="transparent" points="778,-10 778,-30 798,-30 798,-10 778,-10"/>
<text text-anchor="start" x="801.7812" y="-15.4" font-family="sans-serif" font-size="14.00" fill="#000000"> &#160;Bootstrap</text>
<polygon fill="#fdb462" stroke="transparent" points="875,-10 875,-30 895,-30 895,-10 875,-10"/>
<text text-anchor="start" x="898.6732" y="-15.4" font-family="sans-serif" font-size="14.00" fill="#000000"> &#160;Providers</text>
<polygon fill="#fb8072" stroke="transparent" points="971,-10 971,-30 991,-30 991,-10 971,-10"/>
<text text-anchor="start" x="994.7258" y="-15.4" font-family="sans-serif" font-size="14.00" fill="#000000"> &#160;Exports</text>
<g id="clust1" class="cluster">
<title>cluster_AppModule</title>
<polygon fill="none" stroke="#000000" stroke-dasharray="1,5" points="8,-70 8,-268 1618,-268 1618,-70 8,-70"/>
</g>
<g id="clust2" class="cluster">
<title>cluster_AppModule_declarations</title>
<polygon fill="none" stroke="#000000" points="1162,-78 1162,-130 1610,-130 1610,-78 1162,-78"/>
</g>
<g id="clust6" class="cluster">
<title>cluster_AppModule_imports</title>
<polygon fill="none" stroke="#000000" points="1032,-78 1032,-130 1154,-130 1154,-78 1032,-78"/>
</g>
<g id="clust8" class="cluster">
<title>cluster_AppModule_bootstrap</title>
<polygon fill="none" stroke="#000000" points="816,-208 816,-260 940,-260 940,-208 816,-208"/>
</g>
<g id="clust9" class="cluster">
<title>cluster_AppModule_providers</title>
<polygon fill="none" stroke="#000000" points="16,-78 16,-130 1024,-130 1024,-78 16,-78"/>
</g>
<!-- AppComponent -->
<g id="node1" class="node">
<title>AppComponent</title>
<polygon fill="#ffffb3" stroke="#000000" points="1601.9399,-122 1496.0601,-122 1496.0601,-86 1601.9399,-86 1601.9399,-122"/>
<text text-anchor="middle" x="1549" y="-99.8" font-family="Times,serif" font-size="14.00" fill="#000000">AppComponent</text>
</g>
<!-- AppModule -->
<g id="node4" class="node">
<title>AppModule</title>
<polygon fill="#8dd3c7" stroke="#000000" points="919.6571,-187 916.6571,-191 895.6571,-191 892.6571,-187 836.3429,-187 836.3429,-151 919.6571,-151 919.6571,-187"/>
<text text-anchor="middle" x="878" y="-164.8" font-family="Times,serif" font-size="14.00" fill="#000000">AppModule</text>
</g>
<!-- AppComponent&#45;&gt;AppModule -->
<g id="edge1" class="edge">
<title>AppComponent&#45;&gt;AppModule</title>
<path fill="none" stroke="#000000" d="M1549,-122.0109C1549,-144.4852 1549,-180 1549,-180 1549,-180 929.7205,-180 929.7205,-180"/>
<polygon fill="#000000" stroke="#000000" points="929.7206,-176.5001 919.7205,-180 929.7205,-183.5001 929.7206,-176.5001"/>
</g>
<!-- Error404Component -->
<g id="node2" class="node">
<title>Error404Component</title>
<polygon fill="#ffffb3" stroke="#000000" points="1477.8669,-122 1346.1331,-122 1346.1331,-86 1477.8669,-86 1477.8669,-122"/>
<text text-anchor="middle" x="1412" y="-99.8" font-family="Times,serif" font-size="14.00" fill="#000000">Error404Component</text>
</g>
<!-- Error404Component&#45;&gt;AppModule -->
<g id="edge2" class="edge">
<title>Error404Component&#45;&gt;AppModule</title>
<path fill="none" stroke="#000000" d="M1412,-122.1289C1412,-142.5724 1412,-173 1412,-173 1412,-173 929.9021,-173 929.9021,-173"/>
<polygon fill="#000000" stroke="#000000" points="929.9021,-169.5001 919.9021,-173 929.902,-176.5001 929.9021,-169.5001"/>
</g>
<!-- WrapperPageComponent -->
<g id="node3" class="node">
<title>WrapperPageComponent</title>
<polygon fill="#ffffb3" stroke="#000000" points="1327.51,-122 1170.49,-122 1170.49,-86 1327.51,-86 1327.51,-122"/>
<text text-anchor="middle" x="1249" y="-99.8" font-family="Times,serif" font-size="14.00" fill="#000000">WrapperPageComponent</text>
</g>
<!-- WrapperPageComponent&#45;&gt;AppModule -->
<g id="edge3" class="edge">
<title>WrapperPageComponent&#45;&gt;AppModule</title>
<path fill="none" stroke="#000000" d="M1249,-122.2667C1249,-140.5552 1249,-166 1249,-166 1249,-166 929.8372,-166 929.8372,-166"/>
<polygon fill="#000000" stroke="#000000" points="929.8373,-162.5001 919.8372,-166 929.8372,-169.5001 929.8373,-162.5001"/>
</g>
<!-- AppComponent  -->
<g id="node6" class="node">
<title>AppComponent </title>
<polygon fill="#80b1d3" stroke="#000000" points="932.439,-252 823.561,-252 823.561,-216 932.439,-216 932.439,-252"/>
<text text-anchor="middle" x="878" y="-229.8" font-family="Times,serif" font-size="14.00" fill="#000000">AppComponent </text>
</g>
<!-- AppModule&#45;&gt;AppComponent  -->
<g id="edge5" class="edge">
<title>AppModule&#45;&gt;AppComponent </title>
<path fill="none" stroke="#000000" stroke-dasharray="1,5" d="M878,-187.1061C878,-187.1061 878,-205.991 878,-205.991"/>
<polygon fill="#000000" stroke="#000000" points="874.5001,-205.9909 878,-215.991 881.5001,-205.991 874.5001,-205.9909"/>
</g>
<!-- Ng2Webstorage -->
<g id="node5" class="node">
<title>Ng2Webstorage</title>
<polygon fill="#8dd3c7" stroke="#000000" points="1146.4608,-122 1143.4608,-126 1122.4608,-126 1119.4608,-122 1039.5392,-122 1039.5392,-86 1146.4608,-86 1146.4608,-122"/>
<text text-anchor="middle" x="1093" y="-99.8" font-family="Times,serif" font-size="14.00" fill="#000000">Ng2Webstorage</text>
</g>
<!-- Ng2Webstorage&#45;&gt;AppModule -->
<g id="edge4" class="edge">
<title>Ng2Webstorage&#45;&gt;AppModule</title>
<path fill="none" stroke="#000000" d="M1093,-122.0091C1093,-138.0494 1093,-159 1093,-159 1093,-159 929.7091,-159 929.7091,-159"/>
<polygon fill="#000000" stroke="#000000" points="929.7091,-155.5001 919.7091,-159 929.7091,-162.5001 929.7091,-155.5001"/>
</g>
<!-- AuthService -->
<g id="node7" class="node">
<title>AuthService</title>
<ellipse fill="#fdb462" stroke="#000000" cx="957" cy="-104" rx="59.1083" ry="18"/>
<text text-anchor="middle" x="957" y="-99.8" font-family="Times,serif" font-size="14.00" fill="#000000">AuthService</text>
</g>
<!-- AuthService&#45;&gt;AppModule -->
<g id="edge6" class="edge">
<title>AuthService&#45;&gt;AppModule</title>
<path fill="none" stroke="#000000" d="M908.7622,-114.7334C908.7622,-114.7334 908.7622,-140.8723 908.7622,-140.8723"/>
<polygon fill="#000000" stroke="#000000" points="905.2623,-140.8722 908.7622,-150.8723 912.2623,-140.8723 905.2623,-140.8722"/>
</g>
<!-- ProjectInterceptor -->
<g id="node8" class="node">
<title>ProjectInterceptor</title>
<ellipse fill="#fdb462" stroke="#000000" cx="799" cy="-104" rx="80.993" ry="18"/>
<text text-anchor="middle" x="799" y="-99.8" font-family="Times,serif" font-size="14.00" fill="#000000">ProjectInterceptor</text>
</g>
<!-- ProjectInterceptor&#45;&gt;AppModule -->
<g id="edge7" class="edge">
<title>ProjectInterceptor&#45;&gt;AppModule</title>
<path fill="none" stroke="#000000" d="M857.959,-116.5327C857.959,-116.5327 857.959,-140.8507 857.959,-140.8507"/>
<polygon fill="#000000" stroke="#000000" points="854.4591,-140.8506 857.959,-150.8507 861.4591,-140.8507 854.4591,-140.8506"/>
</g>
<!-- MainService -->
<g id="node9" class="node">
<title>MainService</title>
<ellipse fill="#fdb462" stroke="#000000" cx="640" cy="-104" rx="60.2499" ry="18"/>
<text text-anchor="middle" x="640" y="-99.8" font-family="Times,serif" font-size="14.00" fill="#000000">MainService</text>
</g>
<!-- MainService&#45;&gt;AppModule -->
<g id="edge8" class="edge">
<title>MainService&#45;&gt;AppModule</title>
<path fill="none" stroke="#000000" d="M640,-122.0091C640,-138.0494 640,-159 640,-159 640,-159 826.2712,-159 826.2712,-159"/>
<polygon fill="#000000" stroke="#000000" points="826.2713,-162.5001 836.2712,-159 826.2712,-155.5001 826.2713,-162.5001"/>
</g>
<!-- UserService -->
<g id="node10" class="node">
<title>UserService</title>
<ellipse fill="#fdb462" stroke="#000000" cx="503" cy="-104" rx="58.4415" ry="18"/>
<text text-anchor="middle" x="503" y="-99.8" font-family="Times,serif" font-size="14.00" fill="#000000">UserService</text>
</g>
<!-- UserService&#45;&gt;AppModule -->
<g id="edge9" class="edge">
<title>UserService&#45;&gt;AppModule</title>
<path fill="none" stroke="#000000" d="M503,-122.2667C503,-140.5552 503,-166 503,-166 503,-166 826.0743,-166 826.0743,-166"/>
<polygon fill="#000000" stroke="#000000" points="826.0743,-169.5001 836.0743,-166 826.0743,-162.5001 826.0743,-169.5001"/>
</g>
<!-- RouteActivatorService -->
<g id="node11" class="node">
<title>RouteActivatorService</title>
<ellipse fill="#fdb462" stroke="#000000" cx="327" cy="-104" rx="99.5539" ry="18"/>
<text text-anchor="middle" x="327" y="-99.8" font-family="Times,serif" font-size="14.00" fill="#000000">RouteActivatorService</text>
</g>
<!-- RouteActivatorService&#45;&gt;AppModule -->
<g id="edge10" class="edge">
<title>RouteActivatorService&#45;&gt;AppModule</title>
<path fill="none" stroke="#000000" d="M327,-122.1289C327,-142.5724 327,-173 327,-173 327,-173 826.1332,-173 826.1332,-173"/>
<polygon fill="#000000" stroke="#000000" points="826.1332,-176.5001 836.1332,-173 826.1332,-169.5001 826.1332,-176.5001"/>
</g>
<!-- UserResolverService -->
<g id="node12" class="node">
<title>UserResolverService</title>
<ellipse fill="#fdb462" stroke="#000000" cx="117" cy="-104" rx="92.59" ry="18"/>
<text text-anchor="middle" x="117" y="-99.8" font-family="Times,serif" font-size="14.00" fill="#000000">UserResolverService</text>
</g>
<!-- UserResolverService&#45;&gt;AppModule -->
<g id="edge11" class="edge">
<title>UserResolverService&#45;&gt;AppModule</title>
<path fill="none" stroke="#000000" d="M117,-122.0109C117,-144.4852 117,-180 117,-180 117,-180 826.2735,-180 826.2735,-180"/>
<polygon fill="#000000" stroke="#000000" points="826.2736,-183.5001 836.2735,-180 826.2735,-176.5001 826.2736,-183.5001"/>
</g>
</g>
</svg>
