<?xml version="1.0" encoding="UTF-8" standalone="no"?>
<!DOCTYPE svg PUBLIC "-//W3C//DTD SVG 1.1//EN"
 "http://www.w3.org/Graphics/SVG/1.1/DTD/svg11.dtd">
<!-- Generated by graphviz version 2.40.1 (20161225.0304)
 -->
<!-- Title: dependencies Pages: 1 -->
<svg width="1293pt" height="284pt"
 viewBox="0.00 0.00 1293.00 284.00" xmlns="http://www.w3.org/2000/svg" xmlns:xlink="http://www.w3.org/1999/xlink">
<g id="graph0" class="graph" transform="scale(1 1) rotate(0) translate(4 280)">
<title>dependencies</title>
<polygon fill="#ffffff" stroke="transparent" points="-4,4 -4,-280 1289,-280 1289,4 -4,4"/>
<text text-anchor="start" x="621.5091" y="-42.4" font-family="sans-serif" font-weight="bold" font-size="14.00" fill="#000000">Legend</text>
<polygon fill="#ffffb3" stroke="transparent" points="408.5,-10 408.5,-30 428.5,-30 428.5,-10 408.5,-10"/>
<text text-anchor="start" x="432.129" y="-15.4" font-family="sans-serif" font-size="14.00" fill="#000000"> &#160;Declarations</text>
<polygon fill="#8dd3c7" stroke="transparent" points="521.5,-10 521.5,-30 541.5,-30 541.5,-10 521.5,-10"/>
<text text-anchor="start" x="545.2251" y="-15.4" font-family="sans-serif" font-size="14.00" fill="#000000"> &#160;Module</text>
<polygon fill="#80b1d3" stroke="transparent" points="607.5,-10 607.5,-30 627.5,-30 627.5,-10 607.5,-10"/>
<text text-anchor="start" x="631.2812" y="-15.4" font-family="sans-serif" font-size="14.00" fill="#000000"> &#160;Bootstrap</text>
<polygon fill="#fdb462" stroke="transparent" points="704.5,-10 704.5,-30 724.5,-30 724.5,-10 704.5,-10"/>
<text text-anchor="start" x="728.1732" y="-15.4" font-family="sans-serif" font-size="14.00" fill="#000000"> &#160;Providers</text>
<polygon fill="#fb8072" stroke="transparent" points="800.5,-10 800.5,-30 820.5,-30 820.5,-10 800.5,-10"/>
<text text-anchor="start" x="824.2258" y="-15.4" font-family="sans-serif" font-size="14.00" fill="#000000"> &#160;Exports</text>
<g id="clust1" class="cluster">
<title>cluster_AppComponentsModule</title>
<polygon fill="none" stroke="#000000" stroke-dasharray="1,5" points="8,-70 8,-268 1277,-268 1277,-70 8,-70"/>
</g>
<g id="clust2" class="cluster">
<title>cluster_AppComponentsModule_declarations</title>
<polygon fill="none" stroke="#000000" points="152,-78 152,-130 1269,-130 1269,-78 152,-78"/>
</g>
<g id="clust10" class="cluster">
<title>cluster_AppComponentsModule_imports</title>
<polygon fill="none" stroke="#000000" points="16,-78 16,-130 144,-130 144,-78 16,-78"/>
</g>
<g id="clust11" class="cluster">
<title>cluster_AppComponentsModule_exports</title>
<polygon fill="none" stroke="#000000" points="72,-208 72,-260 1213,-260 1213,-208 72,-208"/>
</g>
<!-- ShiftBlockComponent -->
<g id="node1" class="node">
<title>ShiftBlockComponent</title>
<polygon fill="#ffffb3" stroke="#000000" points="1260.9986,-122 1119.0014,-122 1119.0014,-86 1260.9986,-86 1260.9986,-122"/>
<text text-anchor="middle" x="1190" y="-99.8" font-family="Times,serif" font-size="14.00" fill="#000000">ShiftBlockComponent</text>
</g>
<!-- AppComponentsModule -->
<g id="node8" class="node">
<title>AppComponentsModule</title>
<polygon fill="#8dd3c7" stroke="#000000" points="720.434,-187 717.434,-191 696.434,-191 693.434,-187 565.566,-187 565.566,-151 720.434,-151 720.434,-187"/>
<text text-anchor="middle" x="643" y="-164.8" font-family="Times,serif" font-size="14.00" fill="#000000">AppComponentsModule</text>
</g>
<!-- ShiftBlockComponent&#45;&gt;AppComponentsModule -->
<g id="edge1" class="edge">
<title>ShiftBlockComponent&#45;&gt;AppComponentsModule</title>
<path fill="none" stroke="#000000" d="M1161.875,-122.2222C1161.875,-140.8285 1161.875,-167 1161.875,-167 1161.875,-167 730.4005,-167 730.4005,-167"/>
<polygon fill="#000000" stroke="#000000" points="730.4005,-163.5001 720.4005,-167 730.4005,-170.5001 730.4005,-163.5001"/>
</g>
<!-- FormComponent -->
<g id="node2" class="node">
<title>FormComponent</title>
<polygon fill="#ffffb3" stroke="#000000" points="1100.6667,-122 989.3333,-122 989.3333,-86 1100.6667,-86 1100.6667,-122"/>
<text text-anchor="middle" x="1045" y="-99.8" font-family="Times,serif" font-size="14.00" fill="#000000">FormComponent</text>
</g>
<!-- FormComponent&#45;&gt;AppComponentsModule -->
<g id="edge2" class="edge">
<title>FormComponent&#45;&gt;AppComponentsModule</title>
<path fill="none" stroke="#000000" d="M1015.375,-122.0336C1015.375,-139.0597 1015.375,-162 1015.375,-162 1015.375,-162 730.6087,-162 730.6087,-162"/>
<polygon fill="#000000" stroke="#000000" points="730.6088,-158.5001 720.6087,-162 730.6087,-165.5001 730.6088,-158.5001"/>
</g>
<!-- PageNotFoundComponent -->
<g id="node3" class="node">
<title>PageNotFoundComponent</title>
<polygon fill="#ffffb3" stroke="#000000" points="971.8243,-122 806.1757,-122 806.1757,-86 971.8243,-86 971.8243,-122"/>
<text text-anchor="middle" x="889" y="-99.8" font-family="Times,serif" font-size="14.00" fill="#000000">PageNotFoundComponent</text>
</g>
<!-- PageNotFoundComponent&#45;&gt;AppComponentsModule -->
<g id="edge3" class="edge">
<title>PageNotFoundComponent&#45;&gt;AppComponentsModule</title>
<path fill="none" stroke="#000000" d="M857.375,-122.2396C857.375,-137.5706 857.375,-157 857.375,-157 857.375,-157 730.3943,-157 730.3943,-157"/>
<polygon fill="#000000" stroke="#000000" points="730.3943,-153.5001 720.3943,-157 730.3943,-160.5001 730.3943,-153.5001"/>
</g>
<!-- HeaderShiftsComponent -->
<g id="node4" class="node">
<title>HeaderShiftsComponent</title>
<polygon fill="#ffffb3" stroke="#000000" points="788.413,-122 633.587,-122 633.587,-86 788.413,-86 788.413,-122"/>
<text text-anchor="middle" x="711" y="-99.8" font-family="Times,serif" font-size="14.00" fill="#000000">HeaderShiftsComponent</text>
</g>
<!-- HeaderShiftsComponent&#45;&gt;AppComponentsModule -->
<g id="edge4" class="edge">
<title>HeaderShiftsComponent&#45;&gt;AppComponentsModule</title>
<path fill="none" stroke="#000000" d="M677.0052,-122.1061C677.0052,-122.1061 677.0052,-140.991 677.0052,-140.991"/>
<polygon fill="#000000" stroke="#000000" points="673.5053,-140.9909 677.0052,-150.991 680.5053,-140.991 673.5053,-140.9909"/>
</g>
<!-- SpinnerComponent -->
<g id="node5" class="node">
<title>SpinnerComponent</title>
<polygon fill="#ffffb3" stroke="#000000" points="615.3809,-122 490.6191,-122 490.6191,-86 615.3809,-86 615.3809,-122"/>
<text text-anchor="middle" x="553" y="-99.8" font-family="Times,serif" font-size="14.00" fill="#000000">SpinnerComponent</text>
</g>
<!-- SpinnerComponent&#45;&gt;AppComponentsModule -->
<g id="edge5" class="edge">
<title>SpinnerComponent&#45;&gt;AppComponentsModule</title>
<path fill="none" stroke="#000000" d="M590.6119,-122.1061C590.6119,-122.1061 590.6119,-140.991 590.6119,-140.991"/>
<polygon fill="#000000" stroke="#000000" points="587.1119,-140.9909 590.6119,-150.991 594.1119,-140.991 587.1119,-140.9909"/>
</g>
<!-- SmallSpinnerComponent -->
<g id="node6" class="node">
<title>SmallSpinnerComponent</title>
<polygon fill="#ffffb3" stroke="#000000" points="472.5504,-122 315.4496,-122 315.4496,-86 472.5504,-86 472.5504,-122"/>
<text text-anchor="middle" x="394" y="-99.8" font-family="Times,serif" font-size="14.00" fill="#000000">SmallSpinnerComponent</text>
</g>
<!-- SmallSpinnerComponent&#45;&gt;AppComponentsModule -->
<g id="edge6" class="edge">
<title>SmallSpinnerComponent&#45;&gt;AppComponentsModule</title>
<path fill="none" stroke="#000000" d="M445.2923,-122.2396C445.2923,-137.5706 445.2923,-157 445.2923,-157 445.2923,-157 555.7116,-157 555.7116,-157"/>
<polygon fill="#000000" stroke="#000000" points="555.7116,-160.5001 565.7116,-157 555.7116,-153.5001 555.7116,-160.5001"/>
</g>
<!-- ListFieldsComponent -->
<g id="node7" class="node">
<title>ListFieldsComponent</title>
<polygon fill="#ffffb3" stroke="#000000" points="297.8342,-122 160.1658,-122 160.1658,-86 297.8342,-86 297.8342,-122"/>
<text text-anchor="middle" x="229" y="-99.8" font-family="Times,serif" font-size="14.00" fill="#000000">ListFieldsComponent</text>
</g>
<!-- ListFieldsComponent&#45;&gt;AppComponentsModule -->
<g id="edge7" class="edge">
<title>ListFieldsComponent&#45;&gt;AppComponentsModule</title>
<path fill="none" stroke="#000000" d="M268.071,-122.0336C268.071,-139.0597 268.071,-162 268.071,-162 268.071,-162 555.7691,-162 555.7691,-162"/>
<polygon fill="#000000" stroke="#000000" points="555.7691,-165.5001 565.7691,-162 555.769,-158.5001 555.7691,-165.5001"/>
</g>
<!-- ShiftBlockComponent  -->
<g id="node10" class="node">
<title>ShiftBlockComponent </title>
<polygon fill="#fb8072" stroke="#000000" points="1204.9995,-252 1059.0005,-252 1059.0005,-216 1204.9995,-216 1204.9995,-252"/>
<text text-anchor="middle" x="1132" y="-229.8" font-family="Times,serif" font-size="14.00" fill="#000000">ShiftBlockComponent </text>
</g>
<!-- AppComponentsModule&#45;&gt;ShiftBlockComponent  -->
<g id="edge9" class="edge">
<title>AppComponentsModule&#45;&gt;ShiftBlockComponent </title>
<path fill="none" stroke="#000000" stroke-dasharray="5,2" d="M720.3794,-172C845.9068,-172 1080.0419,-172 1080.0419,-172 1080.0419,-172 1080.0419,-205.7333 1080.0419,-205.7333"/>
<polygon fill="#000000" stroke="#000000" points="1076.542,-205.7333 1080.0419,-215.7333 1083.542,-205.7333 1076.542,-205.7333"/>
</g>
<!-- FormComponent  -->
<g id="node11" class="node">
<title>FormComponent </title>
<polygon fill="#fb8072" stroke="#000000" points="1041.6663,-252 926.3337,-252 926.3337,-216 1041.6663,-216 1041.6663,-252"/>
<text text-anchor="middle" x="984" y="-229.8" font-family="Times,serif" font-size="14.00" fill="#000000">FormComponent </text>
</g>
<!-- AppComponentsModule&#45;&gt;FormComponent  -->
<g id="edge10" class="edge">
<title>AppComponentsModule&#45;&gt;FormComponent </title>
<path fill="none" stroke="#000000" stroke-dasharray="5,2" d="M720.2267,-177C810.8883,-177 949.0395,-177 949.0395,-177 949.0395,-177 949.0395,-205.9648 949.0395,-205.9648"/>
<polygon fill="#000000" stroke="#000000" points="945.5395,-205.9648 949.0395,-215.9648 952.5395,-205.9649 945.5395,-205.9648"/>
</g>
<!-- PageNotFoundComponent  -->
<g id="node12" class="node">
<title>PageNotFoundComponent </title>
<polygon fill="#fb8072" stroke="#000000" points="908.3241,-252 739.6759,-252 739.6759,-216 908.3241,-216 908.3241,-252"/>
<text text-anchor="middle" x="824" y="-229.8" font-family="Times,serif" font-size="14.00" fill="#000000">PageNotFoundComponent </text>
</g>
<!-- AppComponentsModule&#45;&gt;PageNotFoundComponent  -->
<g id="edge11" class="edge">
<title>AppComponentsModule&#45;&gt;PageNotFoundComponent </title>
<path fill="none" stroke="#000000" stroke-dasharray="5,2" d="M720.2505,-182C743.9444,-182 763.8971,-182 763.8971,-182 763.8971,-182 763.8971,-205.8129 763.8971,-205.8129"/>
<polygon fill="#000000" stroke="#000000" points="760.3972,-205.8129 763.8971,-215.8129 767.3972,-205.813 760.3972,-205.8129"/>
</g>
<!-- HeaderShiftsComponent  -->
<g id="node13" class="node">
<title>HeaderShiftsComponent </title>
<polygon fill="#fb8072" stroke="#000000" points="721.9124,-252 564.0876,-252 564.0876,-216 721.9124,-216 721.9124,-252"/>
<text text-anchor="middle" x="643" y="-229.8" font-family="Times,serif" font-size="14.00" fill="#000000">HeaderShiftsComponent </text>
</g>
<!-- AppComponentsModule&#45;&gt;HeaderShiftsComponent  -->
<g id="edge12" class="edge">
<title>AppComponentsModule&#45;&gt;HeaderShiftsComponent </title>
<path fill="none" stroke="#000000" stroke-dasharray="5,2" d="M643,-187.1061C643,-187.1061 643,-205.991 643,-205.991"/>
<polygon fill="#000000" stroke="#000000" points="639.5001,-205.9909 643,-215.991 646.5001,-205.991 639.5001,-205.9909"/>
</g>
<!-- SpinnerComponent  -->
<g id="node14" class="node">
<title>SpinnerComponent </title>
<polygon fill="#fb8072" stroke="#000000" points="546.3814,-252 417.6186,-252 417.6186,-216 546.3814,-216 546.3814,-252"/>
<text text-anchor="middle" x="482" y="-229.8" font-family="Times,serif" font-size="14.00" fill="#000000">SpinnerComponent </text>
</g>
<!-- AppComponentsModule&#45;&gt;SpinnerComponent  -->
<g id="edge13" class="edge">
<title>AppComponentsModule&#45;&gt;SpinnerComponent </title>
<path fill="none" stroke="#000000" stroke-dasharray="5,2" d="M565.4904,-182C540.1467,-182 518.375,-182 518.375,-182 518.375,-182 518.375,-205.8129 518.375,-205.8129"/>
<polygon fill="#000000" stroke="#000000" points="514.8751,-205.8129 518.375,-215.8129 521.8751,-205.813 514.8751,-205.8129"/>
</g>
<!-- SmallSpinnerComponent  -->
<g id="node15" class="node">
<title>SmallSpinnerComponent </title>
<polygon fill="#fb8072" stroke="#000000" points="399.5498,-252 238.4502,-252 238.4502,-216 399.5498,-216 399.5498,-252"/>
<text text-anchor="middle" x="319" y="-229.8" font-family="Times,serif" font-size="14.00" fill="#000000">SmallSpinnerComponent </text>
</g>
<!-- AppComponentsModule&#45;&gt;SmallSpinnerComponent  -->
<g id="edge14" class="edge">
<title>AppComponentsModule&#45;&gt;SmallSpinnerComponent </title>
<path fill="none" stroke="#000000" stroke-dasharray="5,2" d="M565.7058,-177C481.1167,-177 357.375,-177 357.375,-177 357.375,-177 357.375,-205.9648 357.375,-205.9648"/>
<polygon fill="#000000" stroke="#000000" points="353.8751,-205.9648 357.375,-215.9648 360.8751,-205.9649 353.8751,-205.9648"/>
</g>
<!-- ListFieldsComponent  -->
<g id="node16" class="node">
<title>ListFieldsComponent </title>
<polygon fill="#fb8072" stroke="#000000" points="220.3339,-252 79.6661,-252 79.6661,-216 220.3339,-216 220.3339,-252"/>
<text text-anchor="middle" x="150" y="-229.8" font-family="Times,serif" font-size="14.00" fill="#000000">ListFieldsComponent </text>
</g>
<!-- AppComponentsModule&#45;&gt;ListFieldsComponent  -->
<g id="edge15" class="edge">
<title>AppComponentsModule&#45;&gt;ListFieldsComponent </title>
<path fill="none" stroke="#000000" stroke-dasharray="5,2" d="M565.7053,-172C436.4302,-172 190.375,-172 190.375,-172 190.375,-172 190.375,-205.7333 190.375,-205.7333"/>
<polygon fill="#000000" stroke="#000000" points="186.8751,-205.7333 190.375,-215.7333 193.8751,-205.7333 186.8751,-205.7333"/>
</g>
<!-- MaterialsModule -->
<g id="node9" class="node">
<title>MaterialsModule</title>
<polygon fill="#8dd3c7" stroke="#000000" points="136.416,-122 133.416,-126 112.416,-126 109.416,-122 23.584,-122 23.584,-86 136.416,-86 136.416,-122"/>
<text text-anchor="middle" x="80" y="-99.8" font-family="Times,serif" font-size="14.00" fill="#000000">MaterialsModule</text>
</g>
<!-- MaterialsModule&#45;&gt;AppComponentsModule -->
<g id="edge8" class="edge">
<title>MaterialsModule&#45;&gt;AppComponentsModule</title>
<path fill="none" stroke="#000000" d="M107.8954,-122.2222C107.8954,-140.8285 107.8954,-167 107.8954,-167 107.8954,-167 555.7627,-167 555.7627,-167"/>
<polygon fill="#000000" stroke="#000000" points="555.7627,-170.5001 565.7627,-167 555.7626,-163.5001 555.7627,-170.5001"/>
</g>
</g>
</svg>
