<?xml version="1.0" encoding="UTF-8" standalone="no"?>
<!DOCTYPE svg PUBLIC "-//W3C//DTD SVG 1.1//EN"
 "http://www.w3.org/Graphics/SVG/1.1/DTD/svg11.dtd">
<!-- Generated by graphviz version 2.40.1 (20161225.0304)
 -->
<!-- Title: dependencies Pages: 1 -->
<svg width="2231pt" height="211pt"
 viewBox="0.00 0.00 2231.00 211.00" xmlns="http://www.w3.org/2000/svg" xmlns:xlink="http://www.w3.org/1999/xlink">
<g id="graph0" class="graph" transform="scale(1 1) rotate(0) translate(4 207)">
<title>dependencies</title>
<polygon fill="#ffffff" stroke="transparent" points="-4,4 -4,-207 2227,-207 2227,4 -4,4"/>
<text text-anchor="start" x="1090.5091" y="-42.4" font-family="sans-serif" font-weight="bold" font-size="14.00" fill="#000000">Legend</text>
<polygon fill="#ffffb3" stroke="transparent" points="877.5,-10 877.5,-30 897.5,-30 897.5,-10 877.5,-10"/>
<text text-anchor="start" x="901.129" y="-15.4" font-family="sans-serif" font-size="14.00" fill="#000000"> &#160;Declarations</text>
<polygon fill="#8dd3c7" stroke="transparent" points="990.5,-10 990.5,-30 1010.5,-30 1010.5,-10 990.5,-10"/>
<text text-anchor="start" x="1014.2251" y="-15.4" font-family="sans-serif" font-size="14.00" fill="#000000"> &#160;Module</text>
<polygon fill="#80b1d3" stroke="transparent" points="1076.5,-10 1076.5,-30 1096.5,-30 1096.5,-10 1076.5,-10"/>
<text text-anchor="start" x="1100.2812" y="-15.4" font-family="sans-serif" font-size="14.00" fill="#000000"> &#160;Bootstrap</text>
<polygon fill="#fdb462" stroke="transparent" points="1173.5,-10 1173.5,-30 1193.5,-30 1193.5,-10 1173.5,-10"/>
<text text-anchor="start" x="1197.1732" y="-15.4" font-family="sans-serif" font-size="14.00" fill="#000000"> &#160;Providers</text>
<polygon fill="#fb8072" stroke="transparent" points="1269.5,-10 1269.5,-30 1289.5,-30 1289.5,-10 1269.5,-10"/>
<text text-anchor="start" x="1293.2258" y="-15.4" font-family="sans-serif" font-size="14.00" fill="#000000"> &#160;Exports</text>
<g id="clust1" class="cluster">
<title>cluster_MainModule</title>
<polygon fill="none" stroke="#000000" stroke-dasharray="1,5" points="8,-70 8,-195 2215,-195 2215,-70 8,-70"/>
</g>
<g id="clust2" class="cluster">
<title>cluster_MainModule_declarations</title>
<polygon fill="none" stroke="#000000" points="146,-78 146,-130 2207,-130 2207,-78 146,-78"/>
</g>
<g id="clust16" class="cluster">
<title>cluster_MainModule_imports</title>
<polygon fill="none" stroke="#000000" points="16,-78 16,-130 138,-130 138,-78 16,-78"/>
</g>
<!-- FormPageComponent -->
<g id="node1" class="node">
<title>FormPageComponent</title>
<polygon fill="#ffffb3" stroke="#000000" points="2199.3781,-122 2060.6219,-122 2060.6219,-86 2199.3781,-86 2199.3781,-122"/>
<text text-anchor="middle" x="2130" y="-99.8" font-family="Times,serif" font-size="14.00" fill="#000000">FormPageComponent</text>
</g>
<!-- MainModule -->
<g id="node14" class="node">
<title>MainModule</title>
<polygon fill="#8dd3c7" stroke="#000000" points="1114.5997,-187 1111.5997,-191 1090.5997,-191 1087.5997,-187 1025.4003,-187 1025.4003,-151 1114.5997,-151 1114.5997,-187"/>
<text text-anchor="middle" x="1070" y="-164.8" font-family="Times,serif" font-size="14.00" fill="#000000">MainModule</text>
</g>
<!-- FormPageComponent&#45;&gt;MainModule -->
<g id="edge1" class="edge">
<title>FormPageComponent&#45;&gt;MainModule</title>
<path fill="none" stroke="#000000" d="M2130,-122.0908C2130,-145.1328 2130,-182 2130,-182 2130,-182 1124.8698,-182 1124.8698,-182"/>
<polygon fill="#000000" stroke="#000000" points="1124.8699,-178.5001 1114.8698,-182 1124.8698,-185.5001 1124.8699,-178.5001"/>
</g>
<!-- TabPageComponent -->
<g id="node2" class="node">
<title>TabPageComponent</title>
<polygon fill="#ffffb3" stroke="#000000" points="2042.3118,-122 1911.6882,-122 1911.6882,-86 2042.3118,-86 2042.3118,-122"/>
<text text-anchor="middle" x="1977" y="-99.8" font-family="Times,serif" font-size="14.00" fill="#000000">TabPageComponent</text>
</g>
<!-- TabPageComponent&#45;&gt;MainModule -->
<g id="edge2" class="edge">
<title>TabPageComponent&#45;&gt;MainModule</title>
<path fill="none" stroke="#000000" d="M1977,-122.0449C1977,-143.6623 1977,-177 1977,-177 1977,-177 1124.6689,-177 1124.6689,-177"/>
<polygon fill="#000000" stroke="#000000" points="1124.6689,-173.5001 1114.6689,-177 1124.6689,-180.5001 1124.6689,-173.5001"/>
</g>
<!-- MainPageComponent -->
<g id="node3" class="node">
<title>MainPageComponent</title>
<polygon fill="#ffffb3" stroke="#000000" points="1894.094,-122 1755.906,-122 1755.906,-86 1894.094,-86 1894.094,-122"/>
<text text-anchor="middle" x="1825" y="-99.8" font-family="Times,serif" font-size="14.00" fill="#000000">MainPageComponent</text>
</g>
<!-- MainPageComponent&#45;&gt;MainModule -->
<g id="edge3" class="edge">
<title>MainPageComponent&#45;&gt;MainModule</title>
<path fill="none" stroke="#000000" d="M1825,-122.2228C1825,-142.3652 1825,-172 1825,-172 1825,-172 1124.6885,-172 1124.6885,-172"/>
<polygon fill="#000000" stroke="#000000" points="1124.6885,-168.5001 1114.6885,-172 1124.6884,-175.5001 1124.6885,-168.5001"/>
</g>
<!-- SidebarPageComponent -->
<g id="node4" class="node">
<title>SidebarPageComponent</title>
<polygon fill="#ffffb3" stroke="#000000" points="1737.8075,-122 1586.1925,-122 1586.1925,-86 1737.8075,-86 1737.8075,-122"/>
<text text-anchor="middle" x="1662" y="-99.8" font-family="Times,serif" font-size="14.00" fill="#000000">SidebarPageComponent</text>
</g>
<!-- SidebarPageComponent&#45;&gt;MainModule -->
<g id="edge4" class="edge">
<title>SidebarPageComponent&#45;&gt;MainModule</title>
<path fill="none" stroke="#000000" d="M1662,-122.2222C1662,-140.8285 1662,-167 1662,-167 1662,-167 1124.9821,-167 1124.9821,-167"/>
<polygon fill="#000000" stroke="#000000" points="1124.9822,-163.5001 1114.9821,-167 1124.9821,-170.5001 1124.9822,-163.5001"/>
</g>
<!-- HeaderPageComponent -->
<g id="node5" class="node">
<title>HeaderPageComponent</title>
<polygon fill="#ffffb3" stroke="#000000" points="1568.4552,-122 1419.5448,-122 1419.5448,-86 1568.4552,-86 1568.4552,-122"/>
<text text-anchor="middle" x="1494" y="-99.8" font-family="Times,serif" font-size="14.00" fill="#000000">HeaderPageComponent</text>
</g>
<!-- HeaderPageComponent&#45;&gt;MainModule -->
<g id="edge5" class="edge">
<title>HeaderPageComponent&#45;&gt;MainModule</title>
<path fill="none" stroke="#000000" d="M1494,-122.0336C1494,-139.0597 1494,-162 1494,-162 1494,-162 1124.574,-162 1124.574,-162"/>
<polygon fill="#000000" stroke="#000000" points="1124.5741,-158.5001 1114.574,-162 1124.574,-165.5001 1124.5741,-158.5001"/>
</g>
<!-- HelloPageComponent -->
<g id="node6" class="node">
<title>HelloPageComponent</title>
<polygon fill="#ffffb3" stroke="#000000" points="1401.647,-122 1262.353,-122 1262.353,-86 1401.647,-86 1401.647,-122"/>
<text text-anchor="middle" x="1332" y="-99.8" font-family="Times,serif" font-size="14.00" fill="#000000">HelloPageComponent</text>
</g>
<!-- HelloPageComponent&#45;&gt;MainModule -->
<g id="edge6" class="edge">
<title>HelloPageComponent&#45;&gt;MainModule</title>
<path fill="none" stroke="#000000" d="M1332,-122.2396C1332,-137.5706 1332,-157 1332,-157 1332,-157 1124.7417,-157 1124.7417,-157"/>
<polygon fill="#000000" stroke="#000000" points="1124.7417,-153.5001 1114.7417,-157 1124.7417,-160.5001 1124.7417,-153.5001"/>
</g>
<!-- ProjectTextEllipsisDirective -->
<g id="node7" class="node">
<title>ProjectTextEllipsisDirective</title>
<polygon fill="#ffffb3" stroke="#000000" points="1243.8989,-122 1068.1011,-122 1068.1011,-86 1243.8989,-86 1243.8989,-122"/>
<text text-anchor="middle" x="1156" y="-99.8" font-family="Times,serif" font-size="14.00" fill="#000000">ProjectTextEllipsisDirective</text>
</g>
<!-- ProjectTextEllipsisDirective&#45;&gt;MainModule -->
<g id="edge7" class="edge">
<title>ProjectTextEllipsisDirective&#45;&gt;MainModule</title>
<path fill="none" stroke="#000000" d="M1091.4253,-122.1061C1091.4253,-122.1061 1091.4253,-140.991 1091.4253,-140.991"/>
<polygon fill="#000000" stroke="#000000" points="1087.9254,-140.9909 1091.4253,-150.991 1094.9254,-140.991 1087.9254,-140.9909"/>
</g>
<!-- ProjectTextDirective -->
<g id="node8" class="node">
<title>ProjectTextDirective</title>
<polygon fill="#ffffb3" stroke="#000000" points="1050.8948,-122 917.1052,-122 917.1052,-86 1050.8948,-86 1050.8948,-122"/>
<text text-anchor="middle" x="984" y="-99.8" font-family="Times,serif" font-size="14.00" fill="#000000">ProjectTextDirective</text>
</g>
<!-- ProjectTextDirective&#45;&gt;MainModule -->
<g id="edge8" class="edge">
<title>ProjectTextDirective&#45;&gt;MainModule</title>
<path fill="none" stroke="#000000" d="M1038.0737,-122.1061C1038.0737,-122.1061 1038.0737,-140.991 1038.0737,-140.991"/>
<polygon fill="#000000" stroke="#000000" points="1034.5737,-140.9909 1038.0737,-150.991 1041.5737,-140.991 1034.5737,-140.9909"/>
</g>
<!-- ProjectTitleDirective -->
<g id="node9" class="node">
<title>ProjectTitleDirective</title>
<polygon fill="#ffffb3" stroke="#000000" points="899.1755,-122 764.8245,-122 764.8245,-86 899.1755,-86 899.1755,-122"/>
<text text-anchor="middle" x="832" y="-99.8" font-family="Times,serif" font-size="14.00" fill="#000000">ProjectTitleDirective</text>
</g>
<!-- ProjectTitleDirective&#45;&gt;MainModule -->
<g id="edge9" class="edge">
<title>ProjectTitleDirective&#45;&gt;MainModule</title>
<path fill="none" stroke="#000000" d="M832,-122.2396C832,-137.5706 832,-157 832,-157 832,-157 1015.234,-157 1015.234,-157"/>
<polygon fill="#000000" stroke="#000000" points="1015.2341,-160.5001 1025.234,-157 1015.234,-153.5001 1015.2341,-160.5001"/>
</g>
<!-- ProjectPointerDirective -->
<g id="node10" class="node">
<title>ProjectPointerDirective</title>
<polygon fill="#ffffb3" stroke="#000000" points="747.1755,-122 598.8245,-122 598.8245,-86 747.1755,-86 747.1755,-122"/>
<text text-anchor="middle" x="673" y="-99.8" font-family="Times,serif" font-size="14.00" fill="#000000">ProjectPointerDirective</text>
</g>
<!-- ProjectPointerDirective&#45;&gt;MainModule -->
<g id="edge10" class="edge">
<title>ProjectPointerDirective&#45;&gt;MainModule</title>
<path fill="none" stroke="#000000" d="M673,-122.0336C673,-139.0597 673,-162 673,-162 673,-162 1015.2308,-162 1015.2308,-162"/>
<polygon fill="#000000" stroke="#000000" points="1015.2308,-165.5001 1025.2308,-162 1015.2307,-158.5001 1015.2308,-165.5001"/>
</g>
<!-- ProjectListDirective -->
<g id="node11" class="node">
<title>ProjectListDirective</title>
<polygon fill="#ffffb3" stroke="#000000" points="580.5157,-122 451.4843,-122 451.4843,-86 580.5157,-86 580.5157,-122"/>
<text text-anchor="middle" x="516" y="-99.8" font-family="Times,serif" font-size="14.00" fill="#000000">ProjectListDirective</text>
</g>
<!-- ProjectListDirective&#45;&gt;MainModule -->
<g id="edge11" class="edge">
<title>ProjectListDirective&#45;&gt;MainModule</title>
<path fill="none" stroke="#000000" d="M516,-122.2222C516,-140.8285 516,-167 516,-167 516,-167 1015.1331,-167 1015.1331,-167"/>
<polygon fill="#000000" stroke="#000000" points="1015.1332,-170.5001 1025.1331,-167 1015.1331,-163.5001 1015.1332,-170.5001"/>
</g>
<!-- FocusDirective -->
<g id="node12" class="node">
<title>FocusDirective</title>
<polygon fill="#ffffb3" stroke="#000000" points="432.5257,-122 331.4743,-122 331.4743,-86 432.5257,-86 432.5257,-122"/>
<text text-anchor="middle" x="382" y="-99.8" font-family="Times,serif" font-size="14.00" fill="#000000">FocusDirective</text>
</g>
<!-- FocusDirective&#45;&gt;MainModule -->
<g id="edge12" class="edge">
<title>FocusDirective&#45;&gt;MainModule</title>
<path fill="none" stroke="#000000" d="M382,-122.2228C382,-142.3652 382,-172 382,-172 382,-172 1015.3885,-172 1015.3885,-172"/>
<polygon fill="#000000" stroke="#000000" points="1015.3885,-175.5001 1025.3885,-172 1015.3885,-168.5001 1015.3885,-175.5001"/>
</g>
<!-- AddUserPageComponent -->
<g id="node13" class="node">
<title>AddUserPageComponent</title>
<polygon fill="#ffffb3" stroke="#000000" points="313.5772,-122 154.4228,-122 154.4228,-86 313.5772,-86 313.5772,-122"/>
<text text-anchor="middle" x="234" y="-99.8" font-family="Times,serif" font-size="14.00" fill="#000000">AddUserPageComponent</text>
</g>
<!-- AddUserPageComponent&#45;&gt;MainModule -->
<g id="edge13" class="edge">
<title>AddUserPageComponent&#45;&gt;MainModule</title>
<path fill="none" stroke="#000000" d="M234,-122.0449C234,-143.6623 234,-177 234,-177 234,-177 1015.3486,-177 1015.3486,-177"/>
<polygon fill="#000000" stroke="#000000" points="1015.3486,-180.5001 1025.3486,-177 1015.3485,-173.5001 1015.3486,-180.5001"/>
</g>
<!-- Ng2Webstorage -->
<g id="node15" class="node">
<title>Ng2Webstorage</title>
<polygon fill="#8dd3c7" stroke="#000000" points="130.4608,-122 127.4608,-126 106.4608,-126 103.4608,-122 23.5392,-122 23.5392,-86 130.4608,-86 130.4608,-122"/>
<text text-anchor="middle" x="77" y="-99.8" font-family="Times,serif" font-size="14.00" fill="#000000">Ng2Webstorage</text>
</g>
<!-- Ng2Webstorage&#45;&gt;MainModule -->
<g id="edge14" class="edge">
<title>Ng2Webstorage&#45;&gt;MainModule</title>
<path fill="none" stroke="#000000" d="M77,-122.0908C77,-145.1328 77,-182 77,-182 77,-182 1015.4038,-182 1015.4038,-182"/>
<polygon fill="#000000" stroke="#000000" points="1015.4038,-185.5001 1025.4038,-182 1015.4037,-178.5001 1015.4038,-185.5001"/>
</g>
</g>
</svg>
