<?xml version="1.0" encoding="UTF-8" standalone="no"?>
<!DOCTYPE svg PUBLIC "-//W3C//DTD SVG 1.1//EN"
 "http://www.w3.org/Graphics/SVG/1.1/DTD/svg11.dtd">
<!-- Generated by graphviz version 2.40.1 (20161225.0304)
 -->
<!-- Title: dependencies Pages: 1 -->
<svg width="1993pt" height="284pt"
 viewBox="0.00 0.00 1993.00 284.00" xmlns="http://www.w3.org/2000/svg" xmlns:xlink="http://www.w3.org/1999/xlink">
<g id="graph0" class="graph" transform="scale(1 1) rotate(0) translate(4 280)">
<title>dependencies</title>
<polygon fill="#ffffff" stroke="transparent" points="-4,4 -4,-280 1989,-280 1989,4 -4,4"/>
<text text-anchor="start" x="971.5091" y="-42.4" font-family="sans-serif" font-weight="bold" font-size="14.00" fill="#000000">Legend</text>
<polygon fill="#ffffb3" stroke="transparent" points="758.5,-10 758.5,-30 778.5,-30 778.5,-10 758.5,-10"/>
<text text-anchor="start" x="782.129" y="-15.4" font-family="sans-serif" font-size="14.00" fill="#000000"> &#160;Declarations</text>
<polygon fill="#8dd3c7" stroke="transparent" points="871.5,-10 871.5,-30 891.5,-30 891.5,-10 871.5,-10"/>
<text text-anchor="start" x="895.2251" y="-15.4" font-family="sans-serif" font-size="14.00" fill="#000000"> &#160;Module</text>
<polygon fill="#80b1d3" stroke="transparent" points="957.5,-10 957.5,-30 977.5,-30 977.5,-10 957.5,-10"/>
<text text-anchor="start" x="981.2812" y="-15.4" font-family="sans-serif" font-size="14.00" fill="#000000"> &#160;Bootstrap</text>
<polygon fill="#fdb462" stroke="transparent" points="1054.5,-10 1054.5,-30 1074.5,-30 1074.5,-10 1054.5,-10"/>
<text text-anchor="start" x="1078.1732" y="-15.4" font-family="sans-serif" font-size="14.00" fill="#000000"> &#160;Providers</text>
<polygon fill="#fb8072" stroke="transparent" points="1150.5,-10 1150.5,-30 1170.5,-30 1170.5,-10 1150.5,-10"/>
<text text-anchor="start" x="1174.2258" y="-15.4" font-family="sans-serif" font-size="14.00" fill="#000000"> &#160;Exports</text>
<g id="clust1" class="cluster">
<title>cluster_ComponentsModule</title>
<polygon fill="none" stroke="#000000" stroke-dasharray="1,5" points="8,-70 8,-268 1977,-268 1977,-70 8,-70"/>
</g>
<g id="clust2" class="cluster">
<title>cluster_ComponentsModule_declarations</title>
<polygon fill="none" stroke="#000000" points="16,-78 16,-130 1969,-130 1969,-78 16,-78"/>
</g>
<g id="clust15" class="cluster">
<title>cluster_ComponentsModule_exports</title>
<polygon fill="none" stroke="#000000" points="88,-208 88,-260 1898,-260 1898,-208 88,-208"/>
</g>
<!-- ProjectModalComponent -->
<g id="node1" class="node">
<title>ProjectModalComponent</title>
<polygon fill="#ffffb3" stroke="#000000" points="1960.5365,-122 1803.4635,-122 1803.4635,-86 1960.5365,-86 1960.5365,-122"/>
<text text-anchor="middle" x="1882" y="-99.8" font-family="Times,serif" font-size="14.00" fill="#000000">ProjectModalComponent</text>
</g>
<!-- ComponentsModule -->
<g id="node12" class="node">
<title>ComponentsModule</title>
<polygon fill="#8dd3c7" stroke="#000000" points="1059.3272,-187 1056.3272,-191 1035.3272,-191 1032.3272,-187 928.6728,-187 928.6728,-151 1059.3272,-151 1059.3272,-187"/>
<text text-anchor="middle" x="994" y="-164.8" font-family="Times,serif" font-size="14.00" fill="#000000">ComponentsModule</text>
</g>
<!-- ProjectModalComponent&#45;&gt;ComponentsModule -->
<g id="edge1" class="edge">
<title>ProjectModalComponent&#45;&gt;ComponentsModule</title>
<path fill="none" stroke="#000000" d="M1846.375,-122.1061C1846.375,-141.3391 1846.375,-169 1846.375,-169 1846.375,-169 1069.4691,-169 1069.4691,-169"/>
<polygon fill="#000000" stroke="#000000" points="1069.4691,-165.5001 1059.4691,-169 1069.4691,-172.5001 1069.4691,-165.5001"/>
</g>
<!-- ProjectButtonComponent -->
<g id="node2" class="node">
<title>ProjectButtonComponent</title>
<polygon fill="#ffffb3" stroke="#000000" points="1785.6038,-122 1626.3962,-122 1626.3962,-86 1785.6038,-86 1785.6038,-122"/>
<text text-anchor="middle" x="1706" y="-99.8" font-family="Times,serif" font-size="14.00" fill="#000000">ProjectButtonComponent</text>
</g>
<!-- ProjectButtonComponent&#45;&gt;ComponentsModule -->
<g id="edge2" class="edge">
<title>ProjectButtonComponent&#45;&gt;ComponentsModule</title>
<path fill="none" stroke="#000000" d="M1668.375,-122.2667C1668.375,-140.5552 1668.375,-166 1668.375,-166 1668.375,-166 1069.2747,-166 1069.2747,-166"/>
<polygon fill="#000000" stroke="#000000" points="1069.2747,-162.5001 1059.2747,-166 1069.2746,-169.5001 1069.2747,-162.5001"/>
</g>
<!-- ProjectDeleteComponent -->
<g id="node3" class="node">
<title>ProjectDeleteComponent</title>
<polygon fill="#ffffb3" stroke="#000000" points="1608.5183,-122 1451.4817,-122 1451.4817,-86 1608.5183,-86 1608.5183,-122"/>
<text text-anchor="middle" x="1530" y="-99.8" font-family="Times,serif" font-size="14.00" fill="#000000">ProjectDeleteComponent</text>
</g>
<!-- ProjectDeleteComponent&#45;&gt;ComponentsModule -->
<g id="edge3" class="edge">
<title>ProjectDeleteComponent&#45;&gt;ComponentsModule</title>
<path fill="none" stroke="#000000" d="M1490.375,-122.0336C1490.375,-139.0597 1490.375,-162 1490.375,-162 1490.375,-162 1069.4028,-162 1069.4028,-162"/>
<polygon fill="#000000" stroke="#000000" points="1069.4028,-158.5001 1059.4028,-162 1069.4028,-165.5001 1069.4028,-158.5001"/>
</g>
<!-- ProjectCheckboxComponent -->
<g id="node4" class="node">
<title>ProjectCheckboxComponent</title>
<polygon fill="#ffffb3" stroke="#000000" points="1432.752,-122 1255.248,-122 1255.248,-86 1432.752,-86 1432.752,-122"/>
<text text-anchor="middle" x="1344" y="-99.8" font-family="Times,serif" font-size="14.00" fill="#000000">ProjectCheckboxComponent</text>
</g>
<!-- ProjectCheckboxComponent&#45;&gt;ComponentsModule -->
<g id="edge4" class="edge">
<title>ProjectCheckboxComponent&#45;&gt;ComponentsModule</title>
<path fill="none" stroke="#000000" d="M1302.875,-122.0091C1302.875,-138.0494 1302.875,-159 1302.875,-159 1302.875,-159 1069.5044,-159 1069.5044,-159"/>
<polygon fill="#000000" stroke="#000000" points="1069.5045,-155.5001 1059.5044,-159 1069.5044,-162.5001 1069.5045,-155.5001"/>
</g>
<!-- ProjectCircleComponent -->
<g id="node5" class="node">
<title>ProjectCircleComponent</title>
<polygon fill="#ffffb3" stroke="#000000" points="1237.6937,-122 1082.3063,-122 1082.3063,-86 1237.6937,-86 1237.6937,-122"/>
<text text-anchor="middle" x="1160" y="-99.8" font-family="Times,serif" font-size="14.00" fill="#000000">ProjectCircleComponent</text>
</g>
<!-- ProjectCircleComponent&#45;&gt;ComponentsModule -->
<g id="edge5" class="edge">
<title>ProjectCircleComponent&#45;&gt;ComponentsModule</title>
<path fill="none" stroke="#000000" d="M1116.875,-122.1243C1116.875,-136.7832 1116.875,-155 1116.875,-155 1116.875,-155 1069.3949,-155 1069.3949,-155"/>
<polygon fill="#000000" stroke="#000000" points="1069.3949,-151.5001 1059.3949,-155 1069.3949,-158.5001 1069.3949,-151.5001"/>
</g>
<!-- ProjectBarComponent -->
<g id="node6" class="node">
<title>ProjectBarComponent</title>
<polygon fill="#ffffb3" stroke="#000000" points="1064.6979,-122 923.3021,-122 923.3021,-86 1064.6979,-86 1064.6979,-122"/>
<text text-anchor="middle" x="994" y="-99.8" font-family="Times,serif" font-size="14.00" fill="#000000">ProjectBarComponent</text>
</g>
<!-- ProjectBarComponent&#45;&gt;ComponentsModule -->
<g id="edge6" class="edge">
<title>ProjectBarComponent&#45;&gt;ComponentsModule</title>
<path fill="none" stroke="#000000" d="M994,-122.1061C994,-122.1061 994,-140.991 994,-140.991"/>
<polygon fill="#000000" stroke="#000000" points="990.5001,-140.9909 994,-150.991 997.5001,-140.991 990.5001,-140.9909"/>
</g>
<!-- ProjectTextareaComponent -->
<g id="node7" class="node">
<title>ProjectTextareaComponent</title>
<polygon fill="#ffffb3" stroke="#000000" points="904.9482,-122 735.0518,-122 735.0518,-86 904.9482,-86 904.9482,-122"/>
<text text-anchor="middle" x="820" y="-99.8" font-family="Times,serif" font-size="14.00" fill="#000000">ProjectTextareaComponent</text>
</g>
<!-- ProjectTextareaComponent&#45;&gt;ComponentsModule -->
<g id="edge7" class="edge">
<title>ProjectTextareaComponent&#45;&gt;ComponentsModule</title>
<path fill="none" stroke="#000000" d="M867.3126,-122.1243C867.3126,-136.7832 867.3126,-155 867.3126,-155 867.3126,-155 918.8008,-155 918.8008,-155"/>
<polygon fill="#000000" stroke="#000000" points="918.8008,-158.5001 928.8008,-155 918.8007,-151.5001 918.8008,-158.5001"/>
</g>
<!-- ProjectSelectComponent -->
<g id="node8" class="node">
<title>ProjectSelectComponent</title>
<polygon fill="#ffffb3" stroke="#000000" points="716.6937,-122 561.3063,-122 561.3063,-86 716.6937,-86 716.6937,-122"/>
<text text-anchor="middle" x="639" y="-99.8" font-family="Times,serif" font-size="14.00" fill="#000000">ProjectSelectComponent</text>
</g>
<!-- ProjectSelectComponent&#45;&gt;ComponentsModule -->
<g id="edge8" class="edge">
<title>ProjectSelectComponent&#45;&gt;ComponentsModule</title>
<path fill="none" stroke="#000000" d="M677.4363,-122.0091C677.4363,-138.0494 677.4363,-159 677.4363,-159 677.4363,-159 918.7916,-159 918.7916,-159"/>
<polygon fill="#000000" stroke="#000000" points="918.7917,-162.5001 928.7916,-159 918.7916,-155.5001 918.7917,-162.5001"/>
</g>
<!-- ProjectInputComponent -->
<g id="node9" class="node">
<title>ProjectInputComponent</title>
<polygon fill="#ffffb3" stroke="#000000" points="543.0379,-122 392.9621,-122 392.9621,-86 543.0379,-86 543.0379,-122"/>
<text text-anchor="middle" x="468" y="-99.8" font-family="Times,serif" font-size="14.00" fill="#000000">ProjectInputComponent</text>
</g>
<!-- ProjectInputComponent&#45;&gt;ComponentsModule -->
<g id="edge9" class="edge">
<title>ProjectInputComponent&#45;&gt;ComponentsModule</title>
<path fill="none" stroke="#000000" d="M502.4609,-122.0336C502.4609,-139.0597 502.4609,-162 502.4609,-162 502.4609,-162 918.7274,-162 918.7274,-162"/>
<polygon fill="#000000" stroke="#000000" points="918.7274,-165.5001 928.7274,-162 918.7274,-158.5001 918.7274,-165.5001"/>
</g>
<!-- ProjectUploaderDirective -->
<g id="node10" class="node">
<title>ProjectUploaderDirective</title>
<polygon fill="#ffffb3" stroke="#000000" points="374.8235,-122 215.1765,-122 215.1765,-86 374.8235,-86 374.8235,-122"/>
<text text-anchor="middle" x="295" y="-99.8" font-family="Times,serif" font-size="14.00" fill="#000000">ProjectUploaderDirective</text>
</g>
<!-- ProjectUploaderDirective&#45;&gt;ComponentsModule -->
<g id="edge10" class="edge">
<title>ProjectUploaderDirective&#45;&gt;ComponentsModule</title>
<path fill="none" stroke="#000000" d="M332.4466,-122.2667C332.4466,-140.5552 332.4466,-166 332.4466,-166 332.4466,-166 918.7572,-166 918.7572,-166"/>
<polygon fill="#000000" stroke="#000000" points="918.7572,-169.5001 928.7572,-166 918.7572,-162.5001 918.7572,-169.5001"/>
</g>
<!-- ProjectUploaderComponent -->
<g id="node11" class="node">
<title>ProjectUploaderComponent</title>
<polygon fill="#ffffb3" stroke="#000000" points="197.573,-122 24.427,-122 24.427,-86 197.573,-86 197.573,-122"/>
<text text-anchor="middle" x="111" y="-99.8" font-family="Times,serif" font-size="14.00" fill="#000000">ProjectUploaderComponent</text>
</g>
<!-- ProjectUploaderComponent&#45;&gt;ComponentsModule -->
<g id="edge11" class="edge">
<title>ProjectUploaderComponent&#45;&gt;ComponentsModule</title>
<path fill="none" stroke="#000000" d="M146.625,-122.1061C146.625,-141.3391 146.625,-169 146.625,-169 146.625,-169 918.5644,-169 918.5644,-169"/>
<polygon fill="#000000" stroke="#000000" points="918.5644,-172.5001 928.5644,-169 918.5643,-165.5001 918.5644,-172.5001"/>
</g>
<!-- ProjectModalComponent  -->
<g id="node13" class="node">
<title>ProjectModalComponent </title>
<polygon fill="#fb8072" stroke="#000000" points="1889.5358,-252 1728.4642,-252 1728.4642,-216 1889.5358,-216 1889.5358,-252"/>
<text text-anchor="middle" x="1809" y="-229.8" font-family="Times,serif" font-size="14.00" fill="#000000">ProjectModalComponent </text>
</g>
<!-- ComponentsModule&#45;&gt;ProjectModalComponent  -->
<g id="edge12" class="edge">
<title>ComponentsModule&#45;&gt;ProjectModalComponent </title>
<path fill="none" stroke="#000000" stroke-dasharray="5,2" d="M1059.3842,-173C1244.1843,-173 1757.017,-173 1757.017,-173 1757.017,-173 1757.017,-205.698 1757.017,-205.698"/>
<polygon fill="#000000" stroke="#000000" points="1753.5171,-205.698 1757.017,-215.698 1760.5171,-205.698 1753.5171,-205.698"/>
</g>
<!-- ProjectButtonComponent  -->
<g id="node14" class="node">
<title>ProjectButtonComponent </title>
<polygon fill="#fb8072" stroke="#000000" points="1710.1043,-252 1547.8957,-252 1547.8957,-216 1710.1043,-216 1710.1043,-252"/>
<text text-anchor="middle" x="1629" y="-229.8" font-family="Times,serif" font-size="14.00" fill="#000000">ProjectButtonComponent </text>
</g>
<!-- ComponentsModule&#45;&gt;ProjectButtonComponent  -->
<g id="edge13" class="edge">
<title>ComponentsModule&#45;&gt;ProjectButtonComponent </title>
<path fill="none" stroke="#000000" stroke-dasharray="5,2" d="M1059.3178,-177C1211.7702,-177 1578.2285,-177 1578.2285,-177 1578.2285,-177 1578.2285,-205.9648 1578.2285,-205.9648"/>
<polygon fill="#000000" stroke="#000000" points="1574.7285,-205.9648 1578.2285,-215.9648 1581.7285,-205.9649 1574.7285,-205.9648"/>
</g>
<!-- ProjectDeleteComponent  -->
<g id="node15" class="node">
<title>ProjectDeleteComponent </title>
<polygon fill="#fb8072" stroke="#000000" points="1529.5176,-252 1368.4824,-252 1368.4824,-216 1529.5176,-216 1529.5176,-252"/>
<text text-anchor="middle" x="1449" y="-229.8" font-family="Times,serif" font-size="14.00" fill="#000000">ProjectDeleteComponent </text>
</g>
<!-- ComponentsModule&#45;&gt;ProjectDeleteComponent  -->
<g id="edge14" class="edge">
<title>ComponentsModule&#45;&gt;ProjectDeleteComponent </title>
<path fill="none" stroke="#000000" stroke-dasharray="5,2" d="M1059.3407,-180C1174.3008,-180 1400.6836,-180 1400.6836,-180 1400.6836,-180 1400.6836,-205.7181 1400.6836,-205.7181"/>
<polygon fill="#000000" stroke="#000000" points="1397.1836,-205.718 1400.6836,-215.7181 1404.1836,-205.7181 1397.1836,-205.718"/>
</g>
<!-- ProjectCheckboxComponent  -->
<g id="node16" class="node">
<title>ProjectCheckboxComponent </title>
<polygon fill="#fb8072" stroke="#000000" points="1350.752,-252 1169.248,-252 1169.248,-216 1350.752,-216 1350.752,-252"/>
<text text-anchor="middle" x="1260" y="-229.8" font-family="Times,serif" font-size="14.00" fill="#000000">ProjectCheckboxComponent </text>
</g>
<!-- ComponentsModule&#45;&gt;ProjectCheckboxComponent  -->
<g id="edge15" class="edge">
<title>ComponentsModule&#45;&gt;ProjectCheckboxComponent </title>
<path fill="none" stroke="#000000" stroke-dasharray="5,2" d="M1059.4208,-184C1120.8862,-184 1203.4855,-184 1203.4855,-184 1203.4855,-184 1203.4855,-205.9489 1203.4855,-205.9489"/>
<polygon fill="#000000" stroke="#000000" points="1199.9855,-205.9488 1203.4855,-215.9489 1206.9855,-205.9489 1199.9855,-205.9488"/>
</g>
<!-- ProjectCircleComponent  -->
<g id="node17" class="node">
<title>ProjectCircleComponent </title>
<polygon fill="#fb8072" stroke="#000000" points="1151.1939,-252 992.8061,-252 992.8061,-216 1151.1939,-216 1151.1939,-252"/>
<text text-anchor="middle" x="1072" y="-229.8" font-family="Times,serif" font-size="14.00" fill="#000000">ProjectCircleComponent </text>
</g>
<!-- ComponentsModule&#45;&gt;ProjectCircleComponent  -->
<g id="edge16" class="edge">
<title>ComponentsModule&#45;&gt;ProjectCircleComponent </title>
<path fill="none" stroke="#000000" stroke-dasharray="5,2" d="M1025.9083,-187.1061C1025.9083,-187.1061 1025.9083,-205.991 1025.9083,-205.991"/>
<polygon fill="#000000" stroke="#000000" points="1022.4084,-205.9909 1025.9083,-215.991 1029.4084,-205.991 1022.4084,-205.9909"/>
</g>
<!-- ProjectBarComponent  -->
<g id="node18" class="node">
<title>ProjectBarComponent </title>
<polygon fill="#fb8072" stroke="#000000" points="974.1981,-252 829.8019,-252 829.8019,-216 974.1981,-216 974.1981,-252"/>
<text text-anchor="middle" x="902" y="-229.8" font-family="Times,serif" font-size="14.00" fill="#000000">ProjectBarComponent </text>
</g>
<!-- ComponentsModule&#45;&gt;ProjectBarComponent  -->
<g id="edge17" class="edge">
<title>ComponentsModule&#45;&gt;ProjectBarComponent </title>
<path fill="none" stroke="#000000" stroke-dasharray="5,2" d="M951.5928,-187.1061C951.5928,-187.1061 951.5928,-205.991 951.5928,-205.991"/>
<polygon fill="#000000" stroke="#000000" points="948.0928,-205.9909 951.5928,-215.991 955.0928,-205.991 948.0928,-205.9909"/>
</g>
<!-- ProjectTextareaComponent  -->
<g id="node19" class="node">
<title>ProjectTextareaComponent </title>
<polygon fill="#fb8072" stroke="#000000" points="811.9488,-252 638.0512,-252 638.0512,-216 811.9488,-216 811.9488,-252"/>
<text text-anchor="middle" x="725" y="-229.8" font-family="Times,serif" font-size="14.00" fill="#000000">ProjectTextareaComponent </text>
</g>
<!-- ComponentsModule&#45;&gt;ProjectTextareaComponent  -->
<g id="edge18" class="edge">
<title>ComponentsModule&#45;&gt;ProjectTextareaComponent </title>
<path fill="none" stroke="#000000" stroke-dasharray="5,2" d="M928.7007,-184C863.6437,-184 773.375,-184 773.375,-184 773.375,-184 773.375,-205.9489 773.375,-205.9489"/>
<polygon fill="#000000" stroke="#000000" points="769.8751,-205.9488 773.375,-215.9489 776.8751,-205.9489 769.8751,-205.9488"/>
</g>
<!-- ProjectSelectComponent  -->
<g id="node20" class="node">
<title>ProjectSelectComponent </title>
<polygon fill="#fb8072" stroke="#000000" points="620.1939,-252 461.8061,-252 461.8061,-216 620.1939,-216 620.1939,-252"/>
<text text-anchor="middle" x="541" y="-229.8" font-family="Times,serif" font-size="14.00" fill="#000000">ProjectSelectComponent </text>
</g>
<!-- ComponentsModule&#45;&gt;ProjectSelectComponent  -->
<g id="edge19" class="edge">
<title>ComponentsModule&#45;&gt;ProjectSelectComponent </title>
<path fill="none" stroke="#000000" stroke-dasharray="5,2" d="M928.783,-180C814.6898,-180 590.875,-180 590.875,-180 590.875,-180 590.875,-205.7181 590.875,-205.7181"/>
<polygon fill="#000000" stroke="#000000" points="587.3751,-205.718 590.875,-215.7181 594.3751,-205.7181 587.3751,-205.718"/>
</g>
<!-- ProjectInputComponent  -->
<g id="node21" class="node">
<title>ProjectInputComponent </title>
<polygon fill="#fb8072" stroke="#000000" points="444.0372,-252 289.9628,-252 289.9628,-216 444.0372,-216 444.0372,-252"/>
<text text-anchor="middle" x="367" y="-229.8" font-family="Times,serif" font-size="14.00" fill="#000000">ProjectInputComponent </text>
</g>
<!-- ComponentsModule&#45;&gt;ProjectInputComponent  -->
<g id="edge20" class="edge">
<title>ComponentsModule&#45;&gt;ProjectInputComponent </title>
<path fill="none" stroke="#000000" stroke-dasharray="5,2" d="M928.8084,-177C778.1023,-177 418.375,-177 418.375,-177 418.375,-177 418.375,-205.9648 418.375,-205.9648"/>
<polygon fill="#000000" stroke="#000000" points="414.8751,-205.9648 418.375,-215.9648 421.8751,-205.9649 414.8751,-205.9648"/>
</g>
<!-- ProjectUploaderComponent  -->
<g id="node22" class="node">
<title>ProjectUploaderComponent </title>
<polygon fill="#fb8072" stroke="#000000" points="272.0735,-252 95.9265,-252 95.9265,-216 272.0735,-216 272.0735,-252"/>
<text text-anchor="middle" x="184" y="-229.8" font-family="Times,serif" font-size="14.00" fill="#000000">ProjectUploaderComponent </text>
</g>
<!-- ComponentsModule&#45;&gt;ProjectUploaderComponent  -->
<g id="edge21" class="edge">
<title>ComponentsModule&#45;&gt;ProjectUploaderComponent </title>
<path fill="none" stroke="#000000" stroke-dasharray="5,2" d="M928.7272,-173C746.1808,-173 243.6874,-173 243.6874,-173 243.6874,-173 243.6874,-205.698 243.6874,-205.698"/>
<polygon fill="#000000" stroke="#000000" points="240.1875,-205.698 243.6874,-215.698 247.1875,-205.698 240.1875,-205.698"/>
</g>
</g>
</svg>
