<?xml version="1.0" encoding="UTF-8" standalone="no"?>
<!DOCTYPE svg PUBLIC "-//W3C//DTD SVG 1.1//EN"
 "http://www.w3.org/Graphics/SVG/1.1/DTD/svg11.dtd">
<!-- Generated by graphviz version 2.40.1 (20161225.0304)
 -->
<!-- Title: dependencies Pages: 1 -->
<svg width="1323pt" height="284pt"
 viewBox="0.00 0.00 1323.00 284.00" xmlns="http://www.w3.org/2000/svg" xmlns:xlink="http://www.w3.org/1999/xlink">
<g id="graph0" class="graph" transform="scale(1 1) rotate(0) translate(4 280)">
<title>dependencies</title>
<polygon fill="#ffffff" stroke="transparent" points="-4,4 -4,-280 1319,-280 1319,4 -4,4"/>
<text text-anchor="start" x="636.5091" y="-42.4" font-family="sans-serif" font-weight="bold" font-size="14.00" fill="#000000">Legend</text>
<polygon fill="#ffffb3" stroke="transparent" points="423.5,-10 423.5,-30 443.5,-30 443.5,-10 423.5,-10"/>
<text text-anchor="start" x="447.129" y="-15.4" font-family="sans-serif" font-size="14.00" fill="#000000"> &#160;Declarations</text>
<polygon fill="#8dd3c7" stroke="transparent" points="536.5,-10 536.5,-30 556.5,-30 556.5,-10 536.5,-10"/>
<text text-anchor="start" x="560.2251" y="-15.4" font-family="sans-serif" font-size="14.00" fill="#000000"> &#160;Module</text>
<polygon fill="#80b1d3" stroke="transparent" points="622.5,-10 622.5,-30 642.5,-30 642.5,-10 622.5,-10"/>
<text text-anchor="start" x="646.2812" y="-15.4" font-family="sans-serif" font-size="14.00" fill="#000000"> &#160;Bootstrap</text>
<polygon fill="#fdb462" stroke="transparent" points="719.5,-10 719.5,-30 739.5,-30 739.5,-10 719.5,-10"/>
<text text-anchor="start" x="743.1732" y="-15.4" font-family="sans-serif" font-size="14.00" fill="#000000"> &#160;Providers</text>
<polygon fill="#fb8072" stroke="transparent" points="815.5,-10 815.5,-30 835.5,-30 835.5,-10 815.5,-10"/>
<text text-anchor="start" x="839.2258" y="-15.4" font-family="sans-serif" font-size="14.00" fill="#000000"> &#160;Exports</text>
<g id="clust1" class="cluster">
<title>cluster_AppModule</title>
<polygon fill="none" stroke="#000000" stroke-dasharray="1,5" points="8,-70 8,-268 1307,-268 1307,-70 8,-70"/>
</g>
<g id="clust2" class="cluster">
<title>cluster_AppModule_declarations</title>
<polygon fill="none" stroke="#000000" points="1177,-78 1177,-130 1299,-130 1299,-78 1177,-78"/>
</g>
<g id="clust4" class="cluster">
<title>cluster_AppModule_imports</title>
<polygon fill="none" stroke="#000000" points="769,-78 769,-130 1169,-130 1169,-78 769,-78"/>
</g>
<g id="clust6" class="cluster">
<title>cluster_AppModule_bootstrap</title>
<polygon fill="none" stroke="#000000" points="618,-208 618,-260 742,-260 742,-208 618,-208"/>
</g>
<g id="clust7" class="cluster">
<title>cluster_AppModule_providers</title>
<polygon fill="none" stroke="#000000" points="16,-78 16,-130 761,-130 761,-78 16,-78"/>
</g>
<!-- AppComponent -->
<g id="node1" class="node">
<title>AppComponent</title>
<polygon fill="#ffffb3" stroke="#000000" points="1290.9399,-122 1185.0601,-122 1185.0601,-86 1290.9399,-86 1290.9399,-122"/>
<text text-anchor="middle" x="1238" y="-99.8" font-family="Times,serif" font-size="14.00" fill="#000000">AppComponent</text>
</g>
<!-- AppModule -->
<g id="node2" class="node">
<title>AppModule</title>
<polygon fill="#8dd3c7" stroke="#000000" points="721.6571,-187 718.6571,-191 697.6571,-191 694.6571,-187 638.3429,-187 638.3429,-151 721.6571,-151 721.6571,-187"/>
<text text-anchor="middle" x="680" y="-164.8" font-family="Times,serif" font-size="14.00" fill="#000000">AppModule</text>
</g>
<!-- AppComponent&#45;&gt;AppModule -->
<g id="edge1" class="edge">
<title>AppComponent&#45;&gt;AppModule</title>
<path fill="none" stroke="#000000" d="M1238,-122.0109C1238,-144.4852 1238,-180 1238,-180 1238,-180 731.9407,-180 731.9407,-180"/>
<polygon fill="#000000" stroke="#000000" points="731.9407,-176.5001 721.9407,-180 731.9407,-183.5001 731.9407,-176.5001"/>
</g>
<!-- AppComponent  -->
<g id="node6" class="node">
<title>AppComponent </title>
<polygon fill="#80b1d3" stroke="#000000" points="734.439,-252 625.561,-252 625.561,-216 734.439,-216 734.439,-252"/>
<text text-anchor="middle" x="680" y="-229.8" font-family="Times,serif" font-size="14.00" fill="#000000">AppComponent </text>
</g>
<!-- AppModule&#45;&gt;AppComponent  -->
<g id="edge5" class="edge">
<title>AppModule&#45;&gt;AppComponent </title>
<path fill="none" stroke="#000000" stroke-dasharray="1,5" d="M680,-187.1061C680,-187.1061 680,-205.991 680,-205.991"/>
<polygon fill="#000000" stroke="#000000" points="676.5001,-205.9909 680,-215.991 683.5001,-205.991 676.5001,-205.9909"/>
</g>
<!-- AppRoutingModule -->
<g id="node3" class="node">
<title>AppRoutingModule</title>
<polygon fill="#8dd3c7" stroke="#000000" points="1161.2744,-122 1158.2744,-126 1137.2744,-126 1134.2744,-122 1032.7256,-122 1032.7256,-86 1161.2744,-86 1161.2744,-122"/>
<text text-anchor="middle" x="1097" y="-99.8" font-family="Times,serif" font-size="14.00" fill="#000000">AppRoutingModule</text>
</g>
<!-- AppRoutingModule&#45;&gt;AppModule -->
<g id="edge2" class="edge">
<title>AppRoutingModule&#45;&gt;AppModule</title>
<path fill="none" stroke="#000000" d="M1097,-122.1289C1097,-142.5724 1097,-173 1097,-173 1097,-173 731.8928,-173 731.8928,-173"/>
<polygon fill="#000000" stroke="#000000" points="731.8929,-169.5001 721.8928,-173 731.8928,-176.5001 731.8929,-169.5001"/>
</g>
<!-- Ng2Webstorage -->
<g id="node4" class="node">
<title>Ng2Webstorage</title>
<polygon fill="#8dd3c7" stroke="#000000" points="1014.4608,-122 1011.4608,-126 990.4608,-126 987.4608,-122 907.5392,-122 907.5392,-86 1014.4608,-86 1014.4608,-122"/>
<text text-anchor="middle" x="961" y="-99.8" font-family="Times,serif" font-size="14.00" fill="#000000">Ng2Webstorage</text>
</g>
<!-- Ng2Webstorage&#45;&gt;AppModule -->
<g id="edge3" class="edge">
<title>Ng2Webstorage&#45;&gt;AppModule</title>
<path fill="none" stroke="#000000" d="M961,-122.2667C961,-140.5552 961,-166 961,-166 961,-166 731.7651,-166 731.7651,-166"/>
<polygon fill="#000000" stroke="#000000" points="731.7652,-162.5001 721.7651,-166 731.7651,-169.5001 731.7652,-162.5001"/>
</g>
<!-- MaterialsModule -->
<g id="node5" class="node">
<title>MaterialsModule</title>
<polygon fill="#8dd3c7" stroke="#000000" points="889.416,-122 886.416,-126 865.416,-126 862.416,-122 776.584,-122 776.584,-86 889.416,-86 889.416,-122"/>
<text text-anchor="middle" x="833" y="-99.8" font-family="Times,serif" font-size="14.00" fill="#000000">MaterialsModule</text>
</g>
<!-- MaterialsModule&#45;&gt;AppModule -->
<g id="edge4" class="edge">
<title>MaterialsModule&#45;&gt;AppModule</title>
<path fill="none" stroke="#000000" d="M833,-122.0091C833,-138.0494 833,-159 833,-159 833,-159 731.8079,-159 731.8079,-159"/>
<polygon fill="#000000" stroke="#000000" points="731.808,-155.5001 721.8079,-159 731.8079,-162.5001 731.808,-155.5001"/>
</g>
<!-- AuthInterceptor -->
<g id="node7" class="node">
<title>AuthInterceptor</title>
<ellipse fill="#fdb462" stroke="#000000" cx="680" cy="-104" rx="72.9121" ry="18"/>
<text text-anchor="middle" x="680" y="-99.8" font-family="Times,serif" font-size="14.00" fill="#000000">AuthInterceptor</text>
</g>
<!-- AuthInterceptor&#45;&gt;AppModule -->
<g id="edge6" class="edge">
<title>AuthInterceptor&#45;&gt;AppModule</title>
<path fill="none" stroke="#000000" d="M680,-122.1061C680,-122.1061 680,-140.991 680,-140.991"/>
<polygon fill="#000000" stroke="#000000" points="676.5001,-140.9909 680,-150.991 683.5001,-140.991 676.5001,-140.9909"/>
</g>
<!-- HttpService -->
<g id="node8" class="node">
<title>HttpService</title>
<ellipse fill="#fdb462" stroke="#000000" cx="532" cy="-104" rx="57.3185" ry="18"/>
<text text-anchor="middle" x="532" y="-99.8" font-family="Times,serif" font-size="14.00" fill="#000000">HttpService</text>
</g>
<!-- HttpService&#45;&gt;AppModule -->
<g id="edge7" class="edge">
<title>HttpService&#45;&gt;AppModule</title>
<path fill="none" stroke="#000000" d="M532,-122.0091C532,-138.0494 532,-159 532,-159 532,-159 627.985,-159 627.985,-159"/>
<polygon fill="#000000" stroke="#000000" points="627.9851,-162.5001 637.985,-159 627.985,-155.5001 627.9851,-162.5001"/>
</g>
<!-- FakeService -->
<g id="node9" class="node">
<title>FakeService</title>
<ellipse fill="#fdb462" stroke="#000000" cx="398" cy="-104" rx="58.5251" ry="18"/>
<text text-anchor="middle" x="398" y="-99.8" font-family="Times,serif" font-size="14.00" fill="#000000">FakeService</text>
</g>
<!-- FakeService&#45;&gt;AppModule -->
<g id="edge8" class="edge">
<title>FakeService&#45;&gt;AppModule</title>
<path fill="none" stroke="#000000" d="M398,-122.2667C398,-140.5552 398,-166 398,-166 398,-166 628.0863,-166 628.0863,-166"/>
<polygon fill="#000000" stroke="#000000" points="628.0863,-169.5001 638.0863,-166 628.0862,-162.5001 628.0863,-169.5001"/>
</g>
<!-- HttpGuardService -->
<g id="node10" class="node">
<title>HttpGuardService</title>
<ellipse fill="#fdb462" stroke="#000000" cx="240" cy="-104" rx="81.0782" ry="18"/>
<text text-anchor="middle" x="240" y="-99.8" font-family="Times,serif" font-size="14.00" fill="#000000">HttpGuardService</text>
</g>
<!-- HttpGuardService&#45;&gt;AppModule -->
<g id="edge9" class="edge">
<title>HttpGuardService&#45;&gt;AppModule</title>
<path fill="none" stroke="#000000" d="M240,-122.1289C240,-142.5724 240,-173 240,-173 240,-173 628.2092,-173 628.2092,-173"/>
<polygon fill="#000000" stroke="#000000" points="628.2092,-176.5001 638.2092,-173 628.2092,-169.5001 628.2092,-176.5001"/>
</g>
<!-- DataService -->
<g id="node11" class="node">
<title>DataService</title>
<ellipse fill="#fdb462" stroke="#000000" cx="82" cy="-104" rx="58.4415" ry="18"/>
<text text-anchor="middle" x="82" y="-99.8" font-family="Times,serif" font-size="14.00" fill="#000000">DataService</text>
</g>
<!-- DataService&#45;&gt;AppModule -->
<g id="edge10" class="edge">
<title>DataService&#45;&gt;AppModule</title>
<path fill="none" stroke="#000000" d="M82,-122.0109C82,-144.4852 82,-180 82,-180 82,-180 627.9498,-180 627.9498,-180"/>
<polygon fill="#000000" stroke="#000000" points="627.9498,-183.5001 637.9498,-180 627.9498,-176.5001 627.9498,-183.5001"/>
</g>
</g>
</svg>
