<?xml version="1.0" encoding="utf-8"?>
<!-- Generated by IcoMoon.io -->
<!DOCTYPE svg PUBLIC "-//W3C//DTD SVG 1.1//EN" "http://www.w3.org/Graphics/SVG/1.1/DTD/svg11.dtd">
<svg version="1.1" xmlns="http://www.w3.org/2000/svg" xmlns:xlink="http://www.w3.org/1999/xlink" width="20" height="20" viewBox="0 0 20 20">
<g>
</g>
	<path d="M10,15 C8.8,15 7.78,14.14 7.56,13 L2.5,13 C2.22,13 2,12.78 2,12.5 L2,3.5 C2,2.68 2.68,2 3.5,2 L16.5,2 C17.32,2 18,2.68 18,3.5 L18,12.5 C18,12.78 17.78,13 17.5,13 L12.44,13 C12.22,14.14 11.2,15 10,15 L10,15 Z M3,12 L8,12 C8.28,12 8.5,12.22 8.5,12.5 C8.5,13.32 9.18,14 10,14 C10.82,14 11.5,13.32 11.5,12.5 C11.5,12.22 11.72,12 12,12 L17,12 L17,3.5 C17,3.22 16.78,3 16.5,3 L3.5,3 C3.22,3 3,3.22 3,3.5 L3,12 Z M5.5,6 C5.22,6 5,5.78 5,5.5 C5,5.22 5.22,5 5.5,5 L14.5,5 C14.78,5 15,5.22 15,5.5 C15,5.78 14.78,6 14.5,6 L5.5,6 Z M5.5,8 C5.22,8 5,7.78 5,7.5 C5,7.22 5.22,7 5.5,7 L14.5,7 C14.78,7 15,7.22 15,7.5 C15,7.78 14.78,8 14.5,8 L5.5,8 Z M5.5,10 C5.22,10 5,9.78 5,9.5 C5,9.22 5.22,9 5.5,9 L14.5,9 C14.78,9 15,9.22 15,9.5 C15,9.78 14.78,10 14.5,10 L5.5,10 Z M3.5,18 C2.68,18 2,17.32 2,16.5 L2,14.5 C2,14.22 2.22,14 2.5,14 C2.78,14 3,14.22 3,14.5 L3,16.5 C3,16.78 3.22,17 3.5,17 L16.5,17 C16.78,17 17,16.78 17,16.5 L17,14.5 C17,14.22 17.22,14 17.5,14 C17.78,14 18,14.22 18,14.5 L18,16.5 C18,17.32 17.32,18 16.5,18 L3.5,18 Z" fill="rgb(43, 141, 236)" />
</svg>
