<?xml version="1.0" encoding="utf-8"?>
<svg version="1.1" id="Layer_1" xmlns="http://www.w3.org/2000/svg" xmlns:xlink="http://www.w3.org/1999/xlink" x="0px" y="0px"
	 viewBox="0 0 22 18" style="enable-background:new 0 0 22 18;" xml:space="preserve">
<style type="text/css">
	.st0{fill-rule:evenodd;clip-rule:evenodd;fill:#ffffff;}
</style>
<path class="st0" d="M19,3c1.7,0,3,1.3,3,3s-1.3,3-3,3s-3-1.3-3-3S17.3,3,19,3z"/>
<path class="st0" d="M11,10c1.7,0,3,1.3,3,3s-1.3,3-3,3s-3-1.3-3-3S9.3,10,11,10z"/>
<path class="st0" d="M3,3c1.7,0,3,1.3,3,3S4.7,9,3,9S0,7.7,0,6S1.3,3,3,3z"/>
<path class="st0" d="M2,0h2v18H2V0z"/>
<path class="st0" d="M10,0h2v18h-2V0z"/>
<path class="st0" d="M18,0h2v18h-2V0z"/>
</svg>
