<svg xmlns="http://www.w3.org/2000/svg" width="18" height="18" viewBox="0 0 18 18">
  <defs>
    <style>
      .cls-1 {
        fill: #fff;
        fill-rule: evenodd;
      }
    </style>
  </defs>
  <path class="cls-1" d="M14.269,14.429c-0.6-.043-1.291-0.076-2.034-0.1a6.843,6.843,0,0,0,1.672-2.245,1.584,1.584,0,0,0,1.965.239,1.614,1.614,0,0,0-1.223-2.947c0.029-.289.048-0.581,0.048-0.879a0.561,0.561,0,0,0-.559-0.564H3.793a0.561,0.561,0,0,0-.559.564,7.719,7.719,0,0,0,2.459,5.833c-0.742.025-1.43,0.059-2.031,0.1-2.092.148-2.7,0.288-2.7,0.934s0.608,0.787,2.7.934c1.419,0.1,3.3.155,5.3,0.155s3.885-.055,5.3-0.155c2.092-.148,2.7-0.288,2.7-0.934S16.362,14.576,14.269,14.429Zm0.268-4.292s0.009,0,.013-0.005a0.932,0.932,0,0,1,1.285.315,0.943,0.943,0,0,1,.11.713,0.934,0.934,0,0,1-.422.583,0.93,0.93,0,0,1-1.285-.315,0.288,0.288,0,0,0-.04-0.043A8.348,8.348,0,0,0,14.537,10.137ZM4.372,9.058h9.187c-0.22,3.038-2.2,5.424-4.594,5.424S4.592,12.1,4.372,9.058ZM7.929,6.778l0.038,0a0.452,0.452,0,0,0,.422-0.606,3.194,3.194,0,0,1,.124-2.3,2.926,2.926,0,0,0,.572-2.364A1.075,1.075,0,0,0,8.419.84a0.454,0.454,0,0,0-.558.3,0.448,0.448,0,0,0,.283.556,0.221,0.221,0,0,1,.1.126,2.056,2.056,0,0,1-.484,1.561l-0.022.037C7.692,3.5,7.643,3.576,7.591,3.657,6.91,4.711,6.705,5.541,6.984,6.122A1.208,1.208,0,0,0,7.929,6.778Zm2.386,0.084h0.031a0.425,0.425,0,0,0,.4-0.569,1.809,1.809,0,0,1,.063-1.283,1.9,1.9,0,0,0,.364-1.579,0.808,0.808,0,0,0-.5-0.5,0.43,0.43,0,0,0-.523.287,0.424,0.424,0,0,0,.033.324,0.419,0.419,0,0,0,.249.2,0.377,0.377,0,0,1-.046-0.016,1.162,1.162,0,0,1-.281.825l-0.026.043c-0.024.04-.05,0.082-0.078,0.125a1.743,1.743,0,0,0-.382,1.658A0.885,0.885,0,0,0,10.315,6.862Z"/>
</svg>
