<svg xmlns="http://www.w3.org/2000/svg" width="18" height="18" viewBox="0 0 18 18">
  <defs>
    <style>
      .cls-1 {
        fill: #fff;
        fill-rule: evenodd;
      }
    </style>
  </defs>
  <path class="cls-1" d="M15.617,5.149H9.936l2.241-2.682a0.583,0.583,0,0,0,.1.02,0.666,0.666,0,1,0-.667-0.666,0.657,0.657,0,0,0,.046.226l-2.592,3.1H8.824l-2.591-3.1a0.664,0.664,0,1,0-.622.44,0.562,0.562,0,0,0,.1-0.02L7.956,5.149H2.275A1.333,1.333,0,0,0,.942,6.479V15.8a1.332,1.332,0,0,0,1.334,1.331H15.617A1.332,1.332,0,0,0,16.95,15.8V6.479A1.333,1.333,0,0,0,15.617,5.149Zm-2.669,9.318A1.333,1.333,0,0,1,11.614,15.8h-8a1.333,1.333,0,0,1-1.334-1.331V7.811A1.333,1.333,0,0,1,3.61,6.479h8a1.332,1.332,0,0,1,1.334,1.332v6.656Zm1.966-5.949a0.951,0.951,0,1,1,.952-0.951A0.952,0.952,0,0,1,14.914,8.518Z"/>
</svg>
