<svg xmlns="http://www.w3.org/2000/svg" width="18" height="18" viewBox="0 0 18 18"><defs><style>.cls-1{fill:#fff;fill-rule:evenodd}</style></defs><path class="cls-1" d="M15.617 5.149H9.936l2.241-2.682a.583.583 0 0 0 .1.02.666.666 0 1 0-.667-.666.657.657 0 0 0 .046.226l-2.592 3.1h-.24l-2.591-3.1a.664.664 0 1 0-.622.44.562.562 0 0 0 .1-.02l2.245 2.682H2.275a1.333 1.333 0 0 0-1.333 1.33V15.8a1.332 1.332 0 0 0 1.334 1.331h13.341A1.332 1.332 0 0 0 16.95 15.8V6.479a1.333 1.333 0 0 0-1.333-1.33zm-2.669 9.318a1.333 1.333 0 0 1-1.334 1.333h-8a1.333 1.333 0 0 1-1.334-1.331V7.811a1.333 1.333 0 0 1 1.33-1.332h8a1.332 1.332 0 0 1 1.334 1.332v6.656zm1.966-5.949a.951.951 0 1 1 .952-.951.952.952 0 0 1-.952.951z"/></svg>