<?xml version="1.0" encoding="utf-8"?>
<!-- Generator: Adobe Illustrator 19.0.1, SVG Export Plug-In . SVG Version: 6.00 Build 0)  -->
<svg version="1.1" id="Layer_1" xmlns="http://www.w3.org/2000/svg" xmlns:xlink="http://www.w3.org/1999/xlink" x="0px" y="0px"
	 viewBox="283.5 -11.8 200 47.1" enable-background="new 283.5 -11.8 200 47.1" xml:space="preserve">
<g id="XMLID_2_">
	<path id="XMLID_55_" opacity="0.4" fill="#FFFFFF" enable-background="new    " d="M314.5,5.6v5.5l0,0c0,1.9-0.8,3.6-2,4.8
		c-1.2,1.2-2.9,2-4.8,2l0,0c-1.9,0-3.5-0.7-4.8-2c-1.2-1.2-2-2.9-2-4.8l0,0V5.6l-5.8-5.8v11.3l0,0v0.1l0,0c0,3.4,1.4,6.6,3.7,8.8
		c2.3,2.3,5.4,3.7,8.9,3.7l0,0c3.5,0,6.6-1.4,8.9-3.7c2.3-2.3,3.7-5.4,3.7-8.8l0,0V-0.2L314.5,5.6z"/>
	<path id="XMLID_54_" fill="#FFFFFF" d="M326.1-6v17.1l0,0c0,5.1-2.1,9.7-5.4,13l0,0c-3.3,3.3-7.9,5.4-13,5.4c-5.1,0-9.6-2-13-5.4
		c-3.3-3.3-5.4-7.9-5.4-13l0,0V-6l-5.8-5.8v22.9l0,0c0,6.7,2.7,12.7,7.1,17.1s10.4,7.1,17.1,7.1c6.7,0,12.7-2.7,17.1-7.1l0,0
		c4.4-4.4,7.1-10.4,7.1-17.1l0,0v-22.9L326.1-6z"/>
	<g id="XMLID_14_" opacity="0.4">
		<g id="XMLID_235_">
			<path id="XMLID_252_" fill="#FFFFFF" d="M353.6-2.8L353.6-2.8c0-4.1,3-7.5,7.3-7.5c2.6,0,4.2,0.9,5.6,2.3l-1.1,1.2
				c-1.2-1.1-2.6-2-4.5-2c-3.2,0-5.6,2.6-5.6,5.9l0,0c0,3.3,2.4,5.9,5.6,5.9c2,0,3.3-0.8,4.6-2.1l1.1,1c-1.5,1.5-3.1,2.5-5.7,2.5
				C356.7,4.6,353.6,1.3,353.6-2.8z"/>
			<path id="XMLID_249_" fill="#FFFFFF" d="M377.7-10.1h1.5l6.5,14.5H384l-1.7-3.8h-7.8l-1.7,3.8h-1.7L377.7-10.1z M381.7-0.9
				l-3.3-7.3l-3.3,7.3H381.7z"/>
			<path id="XMLID_246_" fill="#FFFFFF" d="M392.1-10h5c4.5,0,7.6,3.1,7.6,7.1l0,0c0,4-3.1,7.2-7.6,7.2h-5V-10z M397.1,2.8
				c3.6,0,6-2.5,6-5.6l0,0c0-3.2-2.3-5.7-6-5.7h-3.4V2.9h3.4V2.8z"/>
			<path id="XMLID_243_" fill="#FFFFFF" d="M412.3-10h6.2c1.8,0,3.2,0.5,4.1,1.4c0.7,0.7,1.1,1.7,1.1,2.8l0,0c0,2.4-1.6,3.8-3.9,4.2
				l4.4,5.9h-2L418-1.3l0,0h-4.1v5.6h-1.6V-10z M418.3-2.7c2.2,0,3.7-1.1,3.7-3l0,0c0-1.8-1.4-2.8-3.7-2.8h-4.4v5.8H418.3z"/>
			<path id="XMLID_241_" fill="#FFFFFF" d="M432.3-10h10.4v1.5h-8.8v4.9h7.8v1.5h-7.8v5h8.9v1.5h-10.5L432.3-10L432.3-10z"/>
			<path id="XMLID_238_" fill="#FFFFFF" d="M449.4-2.8L449.4-2.8c0-4,3-7.5,7.3-7.5c4.4,0,7.3,3.4,7.3,7.4l0,0c0,4-3,7.4-7.3,7.4
				S449.4,1.2,449.4-2.8z M462.4-2.8L462.4-2.8c0-3.3-2.4-6-5.7-6s-5.6,2.6-5.6,5.9l0,0c0,3.3,2.4,5.9,5.7,5.9
				C460,3.1,462.4,0.5,462.4-2.8z"/>
			<path id="XMLID_236_" fill="#FFFFFF" d="M470.8-10h1.5l9.1,11.5V-10h1.6V4.4h-1.3l-9.3-11.8V4.4h-1.6L470.8-10L470.8-10z"/>
		</g>
	</g>
	<g id="XMLID_3_">
		<path id="XMLID_12_" fill="#FFFFFF" d="M354,25.2V12.9h2.4V25c0,4.6,2.4,7.1,6.5,7.1c3.9,0,6.4-2.4,6.4-7V12.9h2.4V25
			c0,6.2-3.5,9.4-8.8,9.4C357.6,34.4,354,31.2,354,25.2z"/>
		<path id="XMLID_10_" fill="#FFFFFF" d="M386.3,12.9h2.2l13.3,16.9V12.9h2.3V34h-1.9l-13.6-17.3V34h-2.3V12.9z"/>
		<path id="XMLID_8_" fill="#FFFFFF" d="M419.5,12.9h2.4V34h-2.4V12.9z"/>
		<path id="XMLID_6_" fill="#FFFFFF" d="M442.7,15.1h-7.1v-2.2h16.6v2.2h-7.1V34h-2.4V15.1z"/>
		<path id="XMLID_4_" fill="#FFFFFF" d="M472.3,25.7l-8.8-12.8h2.9l7.1,10.6l7.2-10.6h2.8l-8.8,12.7V34h-2.4L472.3,25.7L472.3,25.7z
			"/>
	</g>
</g>
</svg>
