<?xml version="1.0" encoding="utf-8"?>
<!-- Generator: Adobe Illustrator 19.2.1, SVG Export Plug-In . SVG Version: 6.00 Build 0)  -->
<svg version="1.1" id="Layer_1" xmlns="http://www.w3.org/2000/svg" xmlns:xlink="http://www.w3.org/1999/xlink" x="0px" y="0px"
	 viewBox="0 0 18 18" style="enable-background:new 0 0 18 18;" xml:space="preserve">
<style type="text/css">
	.st0{opacity:0.4;fill:#FFFFFF;enable-background:new    ;}
	.st1{fill:#FFFFFF;}
</style>
<path id="XMLID_55_" class="st0" d="M11.5,7v2l0,0c0,0.7-0.3,1.3-0.7,1.8c-0.4,0.4-1.1,0.7-1.8,0.7l0,0c-0.7,0-1.3-0.3-1.8-0.7
	C6.8,10.3,6.5,9.7,6.5,9l0,0V7L4.3,4.8V9l0,0v0l0,0c0,1.3,0.5,2.5,1.4,3.3c0.9,0.9,2,1.4,3.3,1.4l0,0c1.3,0,2.5-0.5,3.3-1.4
	c0.9-0.9,1.4-2,1.4-3.3l0,0V4.8L11.5,7z"/>
<path id="XMLID_54_" class="st1" d="M15.8,2.6V9l0,0c0,1.9-0.8,3.6-2,4.8l0,0c-1.2,1.2-2.9,2-4.8,2s-3.6-0.7-4.8-2
	c-1.2-1.2-2-2.9-2-4.8l0,0V2.6L0,0.5V9l0,0c0,2.5,1,4.7,2.6,6.4S6.5,18,9,18s4.7-1,6.4-2.6l0,0C17,13.7,18,11.5,18,9l0,0V0.5
	L15.8,2.6z"/>
</svg>
