<svg id="logo" xmlns="http://www.w3.org/2000/svg" width="210" height="18" viewBox="0 0 210 18">
  <defs>
    <style>
      .cls-1, .cls-2 {
        fill: #fff;
        fill-rule: evenodd;
      }

      .cls-2 {
        opacity: 0.4;
      }
    </style>
  </defs>
  <path class="cls-1" d="M214,34.033V34a5.768,5.768,0,0,1,9.988-4.16l-0.86.961a4.763,4.763,0,0,0-3.5-1.591,4.474,4.474,0,0,0-4.318,4.756V34a4.5,4.5,0,0,0,4.318,4.789,4.759,4.759,0,0,0,3.6-1.674l0.829,0.846A5.693,5.693,0,0,1,214,34.033Zm18.687-5.916h1.179L238.947,39.8h-1.353l-1.307-3.066h-6.069L228.9,39.8h-1.29Zm3.106,7.441-2.533-5.916-2.549,5.916h5.082Zm8.051-7.358h3.871a5.66,5.66,0,0,1,5.926,5.767V34a5.686,5.686,0,0,1-5.926,5.8h-3.871V28.2Zm3.871,10.39a4.4,4.4,0,0,0,4.62-4.557V34a4.424,4.424,0,0,0-4.62-4.591H245.1V38.59h2.613ZM259.5,28.2h4.8a4.3,4.3,0,0,1,3.17,1.16,3.272,3.272,0,0,1,.86,2.287V31.68a3.344,3.344,0,0,1-3.027,3.381l3.425,4.739H267.18l-3.234-4.508H260.76V39.8H259.5V28.2Zm4.683,5.916c1.673,0,2.867-.9,2.867-2.386V31.7c0-1.425-1.051-2.287-2.851-2.287H260.76v4.706h3.425Zm10.85-5.916h8.06v1.193h-6.8v3.961h6.086v1.193h-6.086v4.06h6.883V39.8h-8.141V28.2Zm13.284,5.833V34a5.694,5.694,0,1,1,11.374-.033c0.016,0.017.016,0.017,0,.033A5.694,5.694,0,1,1,288.319,34.033Zm10.069,0V34a4.535,4.535,0,0,0-4.4-4.789,4.48,4.48,0,0,0-4.365,4.756V34a4.534,4.534,0,0,0,4.4,4.789A4.481,4.481,0,0,0,298.388,34.033Zm6.545-5.833h1.179l7.025,9.3V28.2h1.227V39.8h-1l-7.2-9.512V39.8h-1.227V28.2Zm24.054,6.616V28.2h1.234v6.535c0,2.455,1.25,3.836,3.344,3.836,2.016,0,3.3-1.268,3.3-3.755V28.2H338.1v6.518c0,3.316-1.829,5.039-4.563,5.039C330.831,39.757,328.987,38.034,328.987,34.816ZM345.705,28.2h1.156l6.891,9.119V28.2h1.2V39.579h-0.984l-7.063-9.33v9.33h-1.2V28.2Zm17.139,0h1.235V39.579h-1.235V28.2Zm12.016,1.187h-3.672V28.2h8.594v1.187H376.11V39.579h-1.25V29.387ZM390.2,35.076L385.656,28.2h1.5l3.688,5.689,3.719-5.689H396l-4.547,6.86v4.519H390.2v-4.5Z" transform="translate(-186 -25)"/>
  <path id="Shape_4_copy" data-name="Shape 4 copy" class="cls-1" d="M201.84,27.217v6.547h0a7.089,7.089,0,0,1-2,4.963l-0.009.008a6.717,6.717,0,0,1-9.656,0,7.088,7.088,0,0,1-2.012-4.972h0V27.217L186,25v8.764h0a9.327,9.327,0,0,0,2.645,6.539,8.837,8.837,0,0,0,12.71,0l0.009-.008A9.327,9.327,0,0,0,204,33.764h0V25Z" transform="translate(-186 -25)"/>
  <path id="Shape_4_copy_2" data-name="Shape 4 copy 2" class="cls-2" d="M197.52,31.65v2.115h0a2.611,2.611,0,0,1-.747,1.837A2.478,2.478,0,0,1,195,36.35h0a2.478,2.478,0,0,1-1.773-.749,2.611,2.611,0,0,1-.747-1.837h0V31.65l-2.16-2.216v4.331h0V33.8h0a4.845,4.845,0,0,0,1.378,3.371,4.606,4.606,0,0,0,3.3,1.4h0a4.608,4.608,0,0,0,3.3-1.4,4.853,4.853,0,0,0,1.378-3.371h0V29.433Z" transform="translate(-186 -25)"/>
</svg>
