<svg xmlns="http://www.w3.org/2000/svg" width="18" height="18" viewBox="0 0 18 18">
  <defs>
    <style>
      .cls-1 {
        fill: #fff;
        fill-rule: evenodd;
      }
    </style>
  </defs>
  <path class="cls-1" d="M15.22,15.013L12.155,6.747V4.314a1.47,1.47,0,0,0,.994-1.385v-0.4A1.474,1.474,0,0,0,11.67,1.066H7.3A1.474,1.474,0,0,0,5.816,2.532v0.4a1.469,1.469,0,0,0,.995,1.385V6.747L3.752,15a1.455,1.455,0,0,0,.142,1.372,1.481,1.481,0,0,0,1.228.648h8.722a1.479,1.479,0,0,0,1.228-.648A1.444,1.444,0,0,0,15.22,15.013Zm-8.11-1.874a0.5,0.5,0,1,1,.5.5A0.5,0.5,0,0,1,7.109,13.139Zm3.25,0.436a0.864,0.864,0,1,1-.871.862A0.867,0.867,0,0,1,10.359,13.575ZM9.617,11.682a0.628,0.628,0,1,1,.629.622A0.627,0.627,0,0,1,9.617,11.682ZM7.789,6.919V3.91l0-.485H7.3a0.5,0.5,0,0,1-.5-0.5v-0.4a0.5,0.5,0,0,1,.5-0.5H11.67a0.5,0.5,0,0,1,.5.5v0.4a0.5,0.5,0,0,1-.505.5H11.176V6.919l0.858,2.315c-0.011.011-.022,0.018-0.033,0.03C11.362,9.922,6.693,10,6.693,10H6.648ZM9.142,8.787A0.676,0.676,0,1,0,8.46,8.111,0.679,0.679,0,0,0,9.142,8.787Z"/>
</svg>
