<svg class="dashboard_icon" width="24px" height="24px" version="1.1" fill="#fff" id="Layer_1" xmlns="http://www.w3.org/2000/svg" xmlns:xlink="http://www.w3.org/1999/xlink" x="0px" y="0px"
                                         viewBox="-293 385 24 24" style="enable-background:new -293 385 24 24;" xml:space="preserve">
                                    <style type="text/css">
                                        .st0 {
                                            fill: none;
                                        }
                                    </style>
                                    <g>
                                        <rect x="-293" y="385" class="st0" width="24" height="24"/>
                                        <path d="M-272.5,390.4c-1.1-0.3-2.2-0.5-3.3-0.5c-1.8,0-3.8,0.4-5.2,1.4c-1.4-1-3.4-1.4-5.2-1.4s-3.8,0.4-5.2,1.4v13.9
                                            c0,0.2,0.2,0.5,0.5,0.5c0.1,0,0.1,0,0.2,0c1.3-0.6,3.1-1,4.5-1c1.8,0,3.8,0.4,5.2,1.4c1.3-0.8,3.6-1.4,5.2-1.4c1.6,0,3.2,0.3,4.5,1
                                            c0.1,0,0.1,0,0.2,0c0.2,0,0.5-0.2,0.5-0.5v-13.8C-271.2,390.9-271.8,390.7-272.5,390.4z M-272.5,403.2c-1-0.3-2.2-0.5-3.3-0.5
                                            c-1.6,0-3.9,0.6-5.2,1.4v-10.9c1.3-0.8,3.6-1.4,5.2-1.4c1.1,0,2.3,0.1,3.3,0.5V403.2z"/>
                                        <rect x="-293" y="385" class="st0" width="24" height="24"/>
                                    </g>
                                </svg>
