<svg xmlns="http://www.w3.org/2000/svg" xmlns:xlink="http://www.w3.org/1999/xlink" preserveAspectRatio="xMidYMid" width="54" height="54" viewBox="0 0 54 54">
  <path d="M27.000,54.000 C12.088,54.000 -0.000,41.912 -0.000,27.000 C-0.000,12.088 12.088,-0.000 27.000,-0.000 C41.912,-0.000 54.000,12.088 54.000,27.000 C54.000,41.912 41.912,54.000 27.000,54.000 ZM27.000,3.000 C13.766,3.000 3.000,13.766 3.000,27.000 C3.000,40.234 13.766,51.000 27.000,51.000 C40.234,51.000 51.000,40.234 51.000,27.000 C51.000,13.766 40.234,3.000 27.000,3.000 ZM37.293,27.549 C37.266,27.617 37.261,27.689 37.224,27.755 C37.205,27.786 37.174,27.804 37.154,27.834 C37.111,27.897 37.056,27.948 37.003,28.005 C36.914,28.100 36.826,28.188 36.719,28.255 C36.702,28.266 36.693,28.284 36.675,28.294 L22.818,36.294 C22.752,36.333 22.679,36.337 22.610,36.364 C22.580,36.378 22.549,36.384 22.518,36.395 C22.386,36.438 22.258,36.471 22.123,36.475 C22.080,36.479 22.044,36.500 22.000,36.500 C21.910,36.500 21.833,36.464 21.748,36.449 C21.714,36.442 21.682,36.439 21.649,36.429 C20.995,36.267 20.500,35.704 20.500,35.000 L20.500,19.000 C20.500,18.296 20.995,17.733 21.649,17.571 C21.682,17.561 21.714,17.558 21.748,17.551 C21.833,17.536 21.910,17.500 22.000,17.500 C22.044,17.500 22.080,17.521 22.123,17.525 C22.258,17.529 22.386,17.562 22.518,17.605 C22.549,17.616 22.580,17.622 22.610,17.636 C22.679,17.663 22.752,17.667 22.818,17.706 L36.675,25.706 C36.693,25.716 36.702,25.734 36.719,25.745 C36.826,25.812 36.914,25.900 37.003,25.995 C37.056,26.052 37.111,26.103 37.154,26.166 C37.174,26.196 37.205,26.214 37.224,26.245 C37.261,26.311 37.266,26.383 37.293,26.451 C37.328,26.537 37.362,26.619 37.380,26.711 C37.399,26.808 37.401,26.902 37.400,27.000 C37.401,27.098 37.399,27.192 37.380,27.289 C37.362,27.381 37.328,27.463 37.293,27.549 ZM23.500,21.563 L23.500,32.437 L32.917,27.000 L23.500,21.563 Z"/>
</svg>
