<?xml version="1.0" encoding="utf-8"?>
<svg xmlns="http://www.w3.org/2000/svg"
	xmlns:xlink="http://www.w3.org/1999/xlink"
	width="12px" height="12px" viewBox="0 0 12 12">
<path fillRule="evenodd" d="M 10.54 7.01C 10.54 7.01 7 7.01 7 7.01 7 7.01 7 10.55 7 10.55 7 11.11 6.55 11.56 5.99 11.56 5.44 11.56 4.98 11.11 4.98 10.55 4.98 10.55 4.98 7.01 4.98 7.01 4.98 7.01 1.45 7.01 1.45 7.01 0.89 7.01 0.44 6.56 0.44 6 0.44 5.44 0.89 4.99 1.45 4.99 1.45 4.99 4.98 4.99 4.98 4.99 4.98 4.99 4.98 1.45 4.98 1.45 4.98 0.89 5.44 0.44 5.99 0.44 6.55 0.44 7 0.89 7 1.45 7 1.45 7 4.99 7 4.99 7 4.99 10.54 4.99 10.54 4.99 11.1 4.99 11.55 5.44 11.55 6 11.55 6.56 11.1 7.01 10.54 7.01Z"/></svg>
