<svg id="SvgjsSvg1239" xmlns="http://www.w3.org/2000/svg" version="1.1" xmlns:xlink="http://www.w3.org/1999/xlink" xmlns:svgjs="http://svgjs.com/svgjs" width="94" height="110" viewBox="0 0 94 110"><title>Shape 69</title><desc>Created with Avocode.</desc><defs id="SvgjsDefs1240"></defs><path id="SvgjsPath1241" d="M302.79 162C302.73 161.9 302.66 161.8 302.57 161.71L281.3 140.44C281.21000000000004 140.35 281.11 140.27 281 140.21C280.77 140.07000000000002 280.5 140 280.24 140L229 140C226.8 140 225 141.8 225 144L225 151.5C225 152.328 225.672 153 226.5 153C227.328 153 228 152.328 228 151.5L228 144C228 143.45 228.45 143 229 143L278 143L278 161C278 163.2 279.8 165 282 165L300 165L300 230C300 230.55 299.55 231 299 231L291.5 231C290.672 231 290 231.672 290 232.5C290 233.328 290.672 234 291.5 234L299 234C301.2 234 303 232.2 303 230L303 162.76999999999998C303 162.49999999999997 302.93 162.23 302.79 161.99999999999997ZM286.57 177.71L265.3 156.44C265.21000000000004 156.35 265.11 156.27 265 156.21C264.77 156.07000000000002 264.5 156 264.24 156L213 156C210.8 156 209 157.8 209 160L209 246C209 248.2 210.8 250 213 250L283 250C285.2 250 287 248.2 287 246L287 178.76999999999998C287 178.49999999999997 286.93 178.23 286.79 177.99999999999997C286.73 177.89999999999998 286.66 177.79999999999998 286.57 177.70999999999998ZM284 246C284 246.55 283.55 247 282 247L212 247C212.45 247 212 246.55 212 246L212 160C212 159.45 212.45 159 213 159L262 159L262 177C262 179.2 263.8 181 266 181L284 181ZM282 162C281.45 162 281 161.55 281 161L281 144.38L298.62 162ZM265 160.38L282.62 178L266 178C265.45 178 265 177.55 265 177ZM274 225.5C274 224.675 273.325 224 272.5 224L223.5 224C222.675 224 222 224.675 222 225.5C222 226.325 222.675 227 223.5 227L272.5 227C273.325 227 274 226.325 274 225.5ZM274 212.5C274 211.675 273.325 211 272.5 211L223.5 211C222.675 211 222 211.675 222 212.5C222 213.325 222.675 214 223.5 214L272.5 214C273.325 214 274 213.325 274 212.5ZM274 219.5C274 218.675 273.325 218 272.5 218L223.5 218C222.675 218 222 218.675 222 219.5C222 220.325 222.675 221 223.5 221L272.5 221C273.325 221 274 220.325 274 219.5ZM274 205.5C274 204.675 273.325 204 272.5 204L223.5 204C222.675 204 222 204.675 222 205.5C222 206.325 222.675 207 223.5 207L272.5 207C273.325 207 274 206.325 274 205.5ZM274 191.517L274 191.483C274 190.667 273.333 190 272.517 190L253.483 190C252.667 190 252 190.667 252 191.483L252 191.517C252 192.333 252.667 193 253.483 193L272.517 193C273.33299999999997 193 274 192.333 274 191.517ZM274 198.517L274 198.483C274 197.668 273.333 197 272.517 197L253.483 197C252.667 197 252 197.668 252 198.483L252 198.517C252 199.333 252.667 200 253.483 200L272.517 200C273.33299999999997 200 274 199.333 274 198.517ZM274 232.5C274 231.675 273.325 231 272.5 231L223.5 231C222.675 231 222 231.675 222 232.5C222 233.325 222.675 234 223.5 234L272.5 234C273.325 234 274 233.325 274 232.5Z " fill="#55bbcc" fill-opacity="1" transform="matrix(1,0,0,1,-209,-140)"></path><path id="SvgjsPath1242" d="M238.75 183.65C239.12 183.18 239.42 182.65 239.62 182.08C239.87 181.44000000000003 240 180.74 240 180C240 179.242 239.865 178.52 239.605 177.86C239.576 177.786 239.536 177.71800000000002 239.493 177.651C239.353 177.437 239.238 177.20100000000002 239.16 176.95000000000002C238.49 175.81000000000003 237.45 174.91000000000003 236.21 174.42000000000002C235.53 174.15 234.78 174.00000000000003 234 174.00000000000003C233.22 174.00000000000003 232.47 174.15000000000003 231.79 174.42000000000002C230.54999999999998 174.91000000000003 229.51 175.81 228.84 176.95000000000002C228.762 177.20100000000002 228.647 177.437 228.507 177.651C228.464 177.71800000000002 228.425 177.786 228.395 177.86C228.13500000000002 178.52 228 179.24200000000002 228 180C228 180.74 228.13 181.44 228.38 182.08C228.57999999999998 182.65 228.88 183.18 229.25 183.65C226.94 184.62 225.13 186.59 224.38 189C224.13 189.79 224 190.63 224 191.5L224 194.5C224 195.329 224.672 196 225.5 196L242.5 196C243.086 195.414 243.414 195.086 244 194.5L244 191.5C244 190.63 243.87 189.79 243.62 189C242.87 186.59 241.06 184.62 238.75 183.65ZM231.02 179.77C231.03 179.51000000000002 231.08 179.26000000000002 231.17000000000002 179.03C231.26000000000002 178.76 231.39000000000001 178.5 231.55 178.27C232.09 177.5 232.99 177 234 177C235.01 177 235.91 177.5 236.45 178.27C236.60999999999999 178.5 236.73999999999998 178.76000000000002 236.82999999999998 179.03C236.92 179.26 236.96999999999997 179.51 236.98 179.77C237 179.84 237 179.92000000000002 237 180C237 181.43 235.99 182.63 234.65 182.93C234.44 182.97 234.22 183 234 183C233.78 183 233.56 182.97 233.35 182.93C232.01 182.63 231 181.43 231 180C231 179.92 231 179.84 231.02 179.77ZM239.5 193L228.5 193C227.671 193 227 192.329 227 191.5C227 190.6 227.22 189.75 227.61 189C228.46 187.33 230.16000000000003 186.15 232.13000000000002 186.02C232.25000000000003 186 232.37000000000003 186 232.50000000000003 186L235.50000000000003 186C235.63000000000002 186 235.75000000000003 186 235.87000000000003 186.02C237.84000000000003 186.15 239.54000000000002 187.33 240.39000000000004 189C240.78000000000003 189.75 241.00000000000006 190.6 241.00000000000006 191.5C241.00000000000006 192.329 240.32900000000006 193 239.50000000000006 193Z " fill="#a4a4a4" fill-opacity="1" transform="matrix(1,0,0,1,-209,-140)"></path></svg>