<svg xmlns="http://www.w3.org/2000/svg" width="105" height="105" viewBox="0 0 105 105">
    <g fill="none" fill-rule="evenodd">
        <path d="M0 0h105v105H0z"/>
        <path fill="#5BC" d="M96 54.5c0 .8-.7 1.5-1.5 1.5s-1.5-.7-1.5-1.5V8c0-.5-.4-1-.9-1H4c-.5 0-1 .4-1 .9V96c0 .5.4 1 .9 1H92c.5 0 1-.4 1-.9v-3.5c0-.8.7-1.5 1.5-1.5s1.5.7 1.5 1.5V96c0 2.2-1.8 4-4 4H4c-2.2 0-4-1.8-4-4V8c0-2.2 1.8-4 4-4h88c2.2 0 4 1.8 4 4v46.5zM30.677 36h48.646c.553 0 1.677.672 1.677 2 0 .329-1.124 1-1.677 1H30.677C30.124 39 29 38.329 29 38c0-1.328 1.124-2 1.677-2zM19.5 42a4.5 4.5 0 1 1 0-9 4.5 4.5 0 0 1 0 9zm0-3a1.5 1.5 0 1 0 0-3 1.5 1.5 0 0 0 0 3zm11.177 10h48.646c.553 0 1.677.672 1.677 2 0 .329-1.124 1-1.677 1H30.677C30.124 52 29 51.329 29 51c0-1.328 1.124-2 1.677-2zM19.5 55a4.5 4.5 0 1 1 0-9 4.5 4.5 0 0 1 0 9zm0-3a1.5 1.5 0 1 0 0-3 1.5 1.5 0 0 0 0 3zm10.403 10h26.194c.298 0 .903.672.903 2 0 .329-.605 1-.903 1H29.903c-.298 0-.903-.671-.903-1 0-1.328.605-2 .903-2zM19.5 68a4.5 4.5 0 1 1 0-9 4.5 4.5 0 0 1 0 9zm0-3a1.5 1.5 0 1 0 0-3 1.5 1.5 0 0 0 0 3zm10.403 10h26.194c.298 0 .903.672.903 2 0 .329-.605 1-.903 1H29.903c-.298 0-.903-.671-.903-1 0-1.328.605-2 .903-2zM19.5 81a4.5 4.5 0 1 1 0-9 4.5 4.5 0 0 1 0 9zm0-3a1.5 1.5 0 1 0 0-3 1.5 1.5 0 0 0 0 3zm-6-66c1.4 0 2.5 1.1 2.5 2.5S14.9 17 13.5 17 11 15.9 11 14.5s1.2-2.5 2.5-2.5m8 0c1.4 0 2.5 1.1 2.5 2.5S22.9 17 21.5 17 19 15.9 19 14.5s1.1-2.5 2.5-2.5m8 0c1.4 0 2.5 1.1 2.5 2.5S30.9 17 29.5 17 27 15.9 27 14.5s1.2-2.5 2.5-2.5"/>
        <path fill="#A4A4A4" fill-rule="nonzero" d="M88 78.184V86.5a1.5 1.5 0 0 1-3 0v-7.914l-1.538 1.538c-.597.596-1.555.604-2.14.019-.586-.586-.578-1.544.018-2.14l4.318-4.319c.596-.596 1.555-.604 2.14-.018l4.243 4.242c.586.586.577 1.544-.019 2.14-.596.597-1.554.605-2.14.02L88 78.183zm-5.644-18.54c6.522-2.171 13.334 1.363 15.244 7.422 4.98.911 8.35 5.598 7.159 10.641-.94 3.98-4.787 6.73-9.082 6.73-.828 0-1.5-.683-1.5-1.526s.672-1.526 1.5-1.526c2.971 0 5.566-1.856 6.165-4.392.826-3.496-1.759-6.758-5.53-7.017l-1.13-.077-.236-1.127c-1.03-4.908-6.435-7.965-11.658-6.227-3.455 1.15-5.81 4.392-5.789 7.89.001.17.01.342.025.522l.129 1.502-1.474.15c-2.796.285-4.697 2.797-4.049 5.434.473 1.926 2.47 3.342 4.764 3.342.829 0 1.5.683 1.5 1.526s-.671 1.527-1.5 1.527c-3.609 0-6.85-2.298-7.674-5.654-.993-4.041 1.484-7.869 5.293-8.952.236-4.594 3.363-8.699 7.843-10.189z"/>
    </g>
</svg>
