<?xml version="1.0" encoding="utf-8"?>
<!-- Generator: Adobe Illustrator 19.2.1, SVG Export Plug-In . SVG Version: 6.00 Build 0)  -->
<svg version="1.1" id="ic_advertisers_mapping" xmlns="http://www.w3.org/2000/svg" xmlns:xlink="http://www.w3.org/1999/xlink"
	 x="0px" y="0px" width="96px" height="96px" viewBox="0 0 96 96" style="enable-background:new 0 0 96 96;" xml:space="preserve">
<style type="text/css">
	.st0{fill:#55BBCC;}
	.st1{fill:#A4A4A4;}
</style>
<path class="st0" d="M92,0H4C1.8,0,0,1.8,0,4v88c0,2.2,1.8,4,4,4h88c2.2,0,4-1.8,4-4V4C96,1.8,94.2,0,92,0z M93,92.1
	c0,0.5-0.5,0.9-1,0.9H3.9C3.4,93,3,92.5,3,92V3.9C3,3.4,3.5,3,4,3h88.1C92.6,3,93,3.5,93,4V92.1z"/>
<path id="Ellipse_5_copy_2" class="st0" d="M13.5,8C12.1,8,11,9.1,11,10.5s1.1,2.5,2.5,2.5s2.5-1.1,2.5-2.5S14.9,8,13.5,8z M21.5,8
	C20.1,8,19,9.1,19,10.5s1.1,2.5,2.5,2.5s2.5-1.1,2.5-2.5S22.9,8,21.5,8z M29.5,8C28.1,8,27,9.1,27,10.5s1.1,2.5,2.5,2.5
	s2.5-1.1,2.5-2.5S30.9,8,29.5,8z"/>
<g>
	<path class="st1" d="M48,28c-6.1,0-11,4.9-11,11c0,3.3,1.4,6.2,3.7,8.2c0.8,0.7,1.6,1.2,2.5,1.7c1.5,0.7,3.1,1.1,4.8,1.1
		c1.7,0,3.4-0.4,4.8-1.1c0.9-0.5,1.8-1,2.5-1.7c2.3-2,3.7-4.9,3.7-8.2C59,32.9,54.1,28,48,28z M53.9,44.4c-0.7,0.8-1.5,1.4-2.4,1.8
		c-1,0.5-2.2,0.8-3.4,0.8c-1.2,0-2.4-0.3-3.4-0.8c-0.9-0.4-1.8-1.1-2.5-1.8C40.8,43,40,41.1,40,39c0-4.4,3.6-8,8-8s8,3.6,8,8
		C56,41.1,55.2,43,53.9,44.4z"/>
</g>
<g id="Ellipse_10_copy">
	<path class="st0" d="M66,55c-2.1,0-4.1,0.6-5.8,1.7l-4.8-9.5c-0.8,0.7-1.6,1.2-2.5,1.7l5,9.8c-1.5,1.7-2.6,3.9-2.8,6.4H41
		c-0.2-2.4-1.2-4.6-2.8-6.4l5-9.8c-0.9-0.4-1.8-1-2.5-1.7l-4.9,9.5C34.2,55.6,32.2,55,30,55c-6.1,0-11,4.9-11,11s4.9,11,11,11
		c5.4,0,9.9-3.9,10.8-9h14.4c0.9,5.1,5.4,9,10.8,9c6.1,0,11-4.9,11-11S72.1,55,66,55z M37.7,68c-0.9,3.4-4,6-7.7,6c-4.4,0-8-3.6-8-8
		s3.6-8,8-8c1.7,0,3.2,0.5,4.5,1.4c0.9,0.6,1.6,1.3,2.2,2.2c0.7,1,1.1,2.2,1.3,3.4c0,0.3,0.1,0.6,0.1,1C38,66.7,37.9,67.4,37.7,68z
		 M66,74c-3.7,0-6.8-2.5-7.7-6c-0.2-0.6-0.3-1.3-0.3-2c0-0.3,0-0.7,0.1-1c0.2-1.2,0.6-2.4,1.3-3.4c0.6-0.9,1.3-1.7,2.2-2.2
		c1.3-0.9,2.8-1.4,4.4-1.4c4.4,0,8,3.6,8,8S70.4,74,66,74z"/>
</g>
</svg>
