<?xml version="1.0" encoding="utf-8"?>
<!-- Generator: Adobe Illustrator 19.2.1, SVG Export Plug-In . SVG Version: 6.00 Build 0)  -->
<svg version="1.1" id="ic_system_alerts" xmlns="http://www.w3.org/2000/svg" xmlns:xlink="http://www.w3.org/1999/xlink" x="0px"
	 y="0px" width="107px" height="96px" viewBox="0 0 107 96" style="enable-background:new 0 0 107 96;" xml:space="preserve">
<style type="text/css">
	.st0{fill:#55BBCC;}
	.st1{fill:#A4A4A4;}
</style>
<path id="Ellipse_5_copy_6" class="st0" d="M29.3,8c1.4,0,2.5,1.1,2.5,2.5c0,1.4-1.1,2.5-2.5,2.5c-1.4,0-2.5-1.1-2.5-2.5
	c0,0,0,0,0,0C26.8,9.1,28,8,29.3,8z M21.4,8c1.4,0,2.5,1.1,2.5,2.5c0,1.4-1.1,2.5-2.5,2.5s-2.5-1.1-2.5-2.5c0,0,0,0,0,0
	C18.9,9.1,20,8,21.4,8C21.4,8,21.4,8,21.4,8z M13.4,8c1.4,0,2.5,1.1,2.5,2.5c0,1.4-1.1,2.5-2.5,2.5c-1.4,0-2.5-1.1-2.5-2.5
	c0,0,0,0,0,0C10.9,9.1,12.1,8,13.4,8z"/>
<path id="Rounded_Rectangle_13" class="st0" d="M79,21c0.6,0,1,0.4,1,1v14c0,0.6-0.4,1-1,1H17c-0.6,0-1-0.4-1-1V22c0-0.6,0.4-1,1-1
	H79 M79,18H17c-2.2,0-4,1.8-4,4v14c0,2.2,1.8,4,4,4h62c2.2,0,4-1.8,4-4V22C83,19.8,81.2,18,79,18L79,18z"/>
<path id="Rounded_Rectangle_7_copy_22" class="st0" d="M14.5,48h17c0.8,0,1.5,0.7,1.5,1.5l0,0c0,0.8-0.7,1.5-1.5,1.5h-17
	c-0.8,0-1.5-0.7-1.5-1.5l0,0C13,48.7,13.7,48,14.5,48z"/>
<path id="Rounded_Rectangle_7_copy_22-2" class="st0" d="M14.5,55h17c0.8,0,1.5,0.7,1.5,1.5l0,0c0,0.8-0.7,1.5-1.5,1.5h-17
	c-0.8,0-1.5-0.7-1.5-1.5l0,0C13,55.7,13.7,55,14.5,55z"/>
<path id="Rounded_Rectangle_7_copy_22-3" class="st0" d="M14.5,62h17c0.8,0,1.5,0.7,1.5,1.5l0,0c0,0.8-0.7,1.5-1.5,1.5h-17
	c-0.8,0-1.5-0.7-1.5-1.5l0,0C13,62.7,13.7,62,14.5,62z"/>
<path id="Rounded_Rectangle_7_copy_22-4" class="st0" d="M14.5,69h17c0.8,0,1.5,0.7,1.5,1.5l0,0c0,0.8-0.7,1.5-1.5,1.5h-17
	c-0.8,0-1.5-0.7-1.5-1.5l0,0C13,69.7,13.7,69,14.5,69z"/>
<path id="Rounded_Rectangle_7_copy_22-5" class="st0" d="M14.5,76h17c0.8,0,1.5,0.7,1.5,1.5l0,0c0,0.8-0.7,1.5-1.5,1.5h-17
	c-0.8,0-1.5-0.7-1.5-1.5l0,0C13,76.7,13.7,76,14.5,76z"/>
<path id="Rounded_Rectangle_7_copy_22-6" class="st0" d="M14.5,83h17c0.8,0,1.5,0.7,1.5,1.5l0,0c0,0.8-0.7,1.5-1.5,1.5h-17
	c-0.8,0-1.5-0.7-1.5-1.5l0,0C13,83.7,13.7,83,14.5,83z"/>
<path id="Rounded_Rectangle_7_copy_28" class="st0" d="M40.5,48h17c0.8,0,1.5,0.7,1.5,1.5l0,0c0,0.8-0.7,1.5-1.5,1.5h-17
	c-0.8,0-1.5-0.7-1.5-1.5l0,0C39,48.7,39.7,48,40.5,48z"/>
<path id="Rounded_Rectangle_7_copy_27" class="st0" d="M40.5,55h17c0.8,0,1.5,0.7,1.5,1.5l0,0c0,0.8-0.7,1.5-1.5,1.5h-17
	c-0.8,0-1.5-0.7-1.5-1.5l0,0C39,55.7,39.7,55,40.5,55z"/>
<path id="Rounded_Rectangle_7_copy_26" class="st0" d="M40.5,62h17c0.8,0,1.5,0.7,1.5,1.5l0,0c0,0.8-0.7,1.5-1.5,1.5h-17
	c-0.8,0-1.5-0.7-1.5-1.5l0,0C39,62.7,39.7,62,40.5,62z"/>
<path id="Rounded_Rectangle_7_copy_25" class="st0" d="M40.5,69h17c0.8,0,1.5,0.7,1.5,1.5l0,0c0,0.8-0.7,1.5-1.5,1.5h-17
	c-0.8,0-1.5-0.7-1.5-1.5l0,0C39,69.7,39.7,69,40.5,69z"/>
<path id="Rounded_Rectangle_7_copy_24" class="st0" d="M40.5,76h17c0.8,0,1.5,0.7,1.5,1.5l0,0c0,0.8-0.7,1.5-1.5,1.5h-17
	c-0.8,0-1.5-0.7-1.5-1.5l0,0C39,76.7,39.7,76,40.5,76z"/>
<path id="Rounded_Rectangle_7_copy_23" class="st0" d="M40.5,83h17c0.8,0,1.5,0.7,1.5,1.5l0,0c0,0.8-0.7,1.5-1.5,1.5h-17
	c-0.8,0-1.5-0.7-1.5-1.5l0,0C39,83.7,39.7,83,40.5,83z"/>
<path class="st1" d="M86,50c0.8,0,1.6,0.4,2.1,1.1l7.9,13.6l7.8,13.6c0.3,0.5,0.4,1.2,0,1.7c-0.4,0.7-1.3,1.2-2.1,1.1H70.3
	c-0.9,0-1.7-0.4-2.1-1.1c-0.3-0.5-0.3-1.2,0-1.7l7.8-13.6l7.9-13.6C84.4,50.4,85.1,50,86,50 M86,47c-1.9,0-3.6,0.9-4.6,2.5L73.5,63
	l-7.8,13.6c-2.1,3.3,0.5,7.4,4.6,7.4h31.4c4.1,0,6.7-4.1,4.6-7.4L98.4,63l-7.9-13.6C89.6,47.9,87.8,47,86,47L86,47z M88,61.5
	c0,1-0.9,10.1-2,10.1s-2-9.1-2-10.1c0.1-1.1,1-1.9,2.2-1.9C87.1,59.7,87.9,60.5,88,61.5L88,61.5z M87.5,75.5c0,0.8-0.7,1.5-1.5,1.5
	s-1.5-0.7-1.5-1.5S85.1,74,86,74C86.8,74,87.5,74.7,87.5,75.5C87.5,75.5,87.5,75.5,87.5,75.5L87.5,75.5z"/>
<path id="Shape_64_copy" class="st0" d="M96,4v42.5c0,0.8-0.7,1.5-1.5,1.5S93,47.3,93,46.5V4c0-0.5-0.4-1-0.9-1c0,0-0.1,0-0.1,0H4
	C3.5,3,3,3.4,3,3.9C3,3.9,3,4,3,4v88c0,0.5,0.4,1,0.9,1c0,0,0.1,0,0.1,0h88c0.5,0,1-0.4,1-0.9c0,0,0-0.1,0-0.1v-3.4
	c0-0.8,0.7-1.5,1.5-1.5s1.5,0.7,1.5,1.5V92c0,2.2-1.8,4-4,4H4c-2.2,0-4-1.8-4-4V4c0-2.2,1.8-4,4-4h88C94.2,0,96,1.8,96,4z"/>
</svg>
