<svg id="SvgjsSvg1263" xmlns="http://www.w3.org/2000/svg" version="1.1" xmlns:xlink="http://www.w3.org/1999/xlink" xmlns:svgjs="http://svgjs.com/svgjs" width="105" height="105" viewBox="0 0 105 105"><title>Shape 67</title><desc>Created with Avocode.</desc><defs id="SvgjsDefs1264"></defs><path id="SvgjsPath1265" d="M770 143.03C769.5 143.01 769 143 768.5 143C768 143 767 143.01 767 143.03C738.71 143.81 716 167.01 716 195.5C716 223.99 738.71 247.19 767 247.97C767 247.99 768 248 768.5 248C769 248 769.5 247.99 770 247.97C775.45 247.82 780.69 246.84 785.59 245.14C784.57 244.47 783.61 243.72 782.71 242.91C779.6 243.85 776.34 244.49 772.99 244.79C774.6800000000001 243.45 776.89 241.54 779.3 239.04C778.6999999999999 238.20999999999998 778.17 237.32999999999998 777.6999999999999 236.42C774.5699999999999 239.73 771.7299999999999 242.01999999999998 769.9999999999999 243.28L769.9999999999999 222C770.8199999999999 221.99 772.6899999999999 221.99 775.2499999999999 222.08C775.3999999999999 221.06 775.6099999999999 220.05 775.8999999999999 219.08C774.3499999999999 219.02 773.0199999999999 219 771.9999999999999 219C771.3399999999999 219.02 770.5899999999999 219.02 769.9999999999999 219.01L769.9999999999999 197L793.9999999999999 197C793.9699999999999 198.88 793.8499999999999 200.72 793.6599999999999 202.5C794.6599999999999 202.29 795.6699999999998 202.15 796.7099999999998 202.07C796.8799999999998 200.43 796.9799999999998 198.73999999999998 796.9999999999998 197L817.9699999999998 197C817.8399999999998 201.38 817.1299999999998 205.67 815.9299999999998 209.73C816.7399999999998 210.63 817.4799999999998 211.59 818.1499999999999 212.60999999999999C819.9899999999999 207.23999999999998 820.9999999999999 201.48999999999998 820.9999999999999 195.5C820.9999999999999 167.01 798.2899999999998 143.81 769.9999999999999 143.03ZM730.26 227L730.25 227C723.52 219 719.36 208.32 719.03 197L740.01 197C740.15 206.33 742.33 214.35 745.4 221.06C745.7099999999999 221.75 746.03 222.43 746.36 223.1C746.03 222.46 745.71 221.81 745.4 221.12C740.1899999999999 222.3 734.8299999999999 224 730.26 227ZM730.26 164.12C734.79 166.92000000000002 740.11 168.74 745.28 169.91C742.27 176.60999999999999 740.15 184.63 740.01 194L719.03 194C719.36 182.68 723.52 172.3 730.26 164.12ZM732.26 229.17C732.24 229.14999999999998 732.23 229.14 732.21 229.11999999999998C732.23 229.10999999999999 732.24 229.09999999999997 732.26 229.08999999999997C736.56 226.52999999999997 741.6899999999999 224.80999999999997 746.6899999999999 223.74999999999997C746.7099999999999 223.79999999999998 746.7399999999999 223.83999999999997 746.76 223.88999999999996C752.27 234.47999999999996 759.78 241.43999999999997 764.01 244.78999999999996C751.51 243.66999999999996 740.34 237.86999999999998 732.26 229.16999999999996ZM763.74 146.23C759.4300000000001 149.63 752.03 156.53 746.63 167.07999999999998C741.65 166.01999999999998 736.54 164.38 732.26 161.82999999999998C740.28 153.19 751.35 147.42 763.74 146.23ZM804.74 161.83C800.46 164.38000000000002 795.35 166.02 790.37 167.08C784.97 156.53 777.57 149.63000000000002 773.26 146.23000000000002C785.65 147.42000000000002 796.72 153.19000000000003 804.74 161.83ZM770 194L770 171.99C771 171.98000000000002 771.34 171.98000000000002 772 172C775.3 172 781.69 171.81 788.71 170.53C791.7 177.01 793.86 185 794 194ZM767 194L743.01 194C743.15 184.82 745.3 177.01 748.29 170.53C755.31 171.81 761.6999999999999 172 765 172C765.66 171.98 766.41 171.98 767 171.99ZM767 219.01C766.41 219.01999999999998 765.66 219.01999999999998 765 219C761.71 219 755.34 219.19 748.34 220.47C748.32 220.42 748.2900000000001 220.37 748.27 220.32C745.28 213.85 743.15 206.2 743.01 197L767 197ZM767 169C765.16 169.02 757.89 169.07 749.7 167.68C755.5 156.72 763.5 150.06 767 147.5ZM770 147.5C773 150.06 781.5 156.72 787.3 167.68C779.1099999999999 169.07 772 169.02 770 169ZM767 243.28C763.5 240.74 755.48 234 749.68 223C757.88 222 765.16 221.98 767 222ZM796.99 194C796.85 184.63 794.73 176.61 791.72 169.91C796.89 168.74 802.21 166.92 806.74 164.12C813.48 172.3 817.64 182.68 817.97 194Z " fill="#55bbcc" fill-opacity="1" transform="matrix(1,0,0,1,-716,-143)"></path><path id="SvgjsPath1266" d="M797.326 205C795.515 205 794.042 206.473 794.042 208.284L794.042 209.822C794.0350000000001 209.824 794.029 209.826 794.022 209.828C792.822 210.172 791.6600000000001 210.657 790.5730000000001 211.267L789.4800000000001 210.174C789.4430000000001 210.137 789.4050000000001 210.101 789.3670000000001 210.067C788.7570000000001 209.517 787.9720000000001 209.215 787.1540000000001 209.215C786.2770000000002 209.215 785.4530000000001 209.556 784.8340000000001 210.175L783.1740000000001 211.836C782.5550000000001 212.455 782.2150000000001 213.27800000000002 782.2150000000001 214.15400000000002C782.2150000000001 214.97000000000003 782.5160000000002 215.75400000000002 783.0630000000001 216.36300000000003C783.099 216.40300000000002 783.1360000000001 216.44200000000004 783.1740000000001 216.48000000000002L784.267 217.573C784.263 217.58 784.2600000000001 217.586 784.2560000000001 217.59300000000002C783.6580000000001 218.657 783.1730000000001 219.82000000000002 782.8270000000001 221.02700000000002C782.8250000000002 221.032 782.8240000000001 221.037 782.8220000000001 221.042L781.2840000000001 221.042C779.4730000000001 221.042 778.0000000000001 222.51500000000001 778.0000000000001 224.326L778.0000000000001 226.674C778.0000000000001 228.485 779.4730000000001 229.958 781.2840000000001 229.958L782.8300000000002 229.958C782.8320000000001 229.965 782.8340000000002 229.972 782.8360000000001 229.97899999999998C783.1720000000001 231.17399999999998 783.6530000000001 232.33399999999997 784.2670000000002 233.427L783.1730000000001 234.521C783.1360000000001 234.558 783.1000000000001 234.59599999999998 783.0640000000001 234.635C782.5160000000001 235.244 782.215 236.03 782.215 236.846C782.215 237.723 782.556 238.547 783.1750000000001 239.165L784.836 240.826C785.47 241.45999999999998 786.294 241.809 787.158 241.809C788.022 241.809 788.846 241.46 789.48 240.826L790.573 239.733C790.576 239.735 790.5799999999999 239.736 790.583 239.738C791.664 240.346 792.8249999999999 240.828 794.021 241.164C794.0279999999999 241.166 794.035 241.16899999999998 794.0419999999999 241.171L794.0419999999999 242.71599999999998C794.0419999999999 244.527 795.5149999999999 245.99999999999997 797.3259999999999 245.99999999999997L799.6739999999999 245.99999999999997C801.4849999999999 245.99999999999997 802.9579999999999 244.52699999999996 802.9579999999999 242.71599999999998L802.9579999999999 241.171C802.9649999999998 241.16899999999998 802.9719999999999 241.167 802.9789999999998 241.164C804.1739999999999 240.82799999999997 805.3339999999998 240.34699999999998 806.4269999999998 239.73299999999998L807.5199999999998 240.82699999999997C808.1529999999998 241.45999999999998 808.9779999999997 241.80899999999997 809.8419999999998 241.80899999999997C810.7059999999998 241.80899999999997 811.5309999999997 241.45999999999998 812.1649999999997 240.82499999999996L813.8259999999997 239.16399999999996C814.4439999999997 238.54699999999997 814.7849999999996 237.72299999999996 814.7849999999996 236.84599999999995C814.7849999999996 236.02899999999994 814.4829999999996 235.24399999999994 813.9349999999996 234.63499999999993C813.8999999999996 234.59599999999995 813.8639999999996 234.55799999999994 813.8269999999997 234.52099999999993L812.7329999999996 233.42699999999994C812.7349999999996 233.42399999999995 812.7359999999996 233.42099999999994 812.7379999999996 233.41799999999995C813.3449999999996 232.33699999999996 813.8279999999996 231.17599999999996 814.1639999999996 229.97899999999996C814.1659999999996 229.97199999999995 814.1679999999997 229.96499999999995 814.1709999999996 229.95799999999997L815.7149999999996 229.95799999999997C817.5269999999996 229.95799999999997 818.9999999999995 228.48499999999996 818.9999999999995 226.67399999999998L818.9999999999995 224.32599999999996C818.9999999999995 222.51499999999996 817.5269999999996 221.04199999999997 815.7149999999996 221.04199999999997L814.1779999999995 221.04199999999997C814.1759999999996 221.03499999999997 814.1739999999995 221.02899999999997 814.1719999999996 221.02199999999996C813.8279999999995 219.82099999999997 813.3429999999996 218.65899999999996 812.7329999999996 217.57299999999995L813.8259999999996 216.47999999999996C813.8639999999996 216.44199999999995 813.9009999999996 216.40299999999996 813.9369999999996 216.36399999999995C814.4839999999996 215.75499999999994 814.7849999999995 214.96999999999994 814.7849999999995 214.15399999999994C814.7849999999995 213.27799999999993 814.4449999999995 212.45499999999993 813.8269999999995 211.83599999999993L812.1639999999995 210.17399999999992C811.5469999999996 209.55599999999993 810.7229999999995 209.21499999999992 809.8459999999995 209.21499999999992C809.0279999999996 209.21499999999992 808.2429999999996 209.5169999999999 807.6329999999996 210.06599999999992C807.5949999999996 210.1009999999999 807.5569999999996 210.13699999999992 807.5199999999995 210.17399999999992L806.4269999999996 211.2669999999999C806.4159999999996 211.2609999999999 806.4059999999996 211.25599999999991 806.3949999999995 211.24999999999991C805.3429999999995 210.6579999999999 804.1799999999995 210.17299999999992 802.9729999999995 209.8269999999999C802.9679999999995 209.8249999999999 802.9629999999995 209.82399999999993 802.9579999999995 209.82199999999992L802.9579999999995 208.2839999999999C802.9579999999995 206.4729999999999 801.4849999999996 204.99999999999991 799.6739999999995 204.99999999999991ZM799.958 208.284L799.958 212.28C800.709 212.361 801.439 212.506 802.146 212.71C803.137 212.995 804.078 213.389 804.9599999999999 213.88400000000001C805.617 214.24200000000002 806.2289999999999 214.657 806.805 215.13100000000003L808.635 213.30100000000002L809.6419999999999 212.29500000000002C809.7149999999999 212.229 809.7869999999999 212.215 809.8459999999999 212.215C809.8969999999999 212.215 809.9769999999999 212.229 810.0429999999999 212.29500000000002L811.7049999999999 213.95700000000002C811.771 214.02300000000002 811.785 214.103 811.785 214.15400000000002C811.785 214.21300000000002 811.771 214.28500000000003 811.7049999999999 214.35800000000003L808.8689999999999 217.19500000000002C809.343 217.77100000000002 809.7579999999999 218.39100000000002 810.1159999999999 219.04000000000002C810.6109999999999 219.92200000000003 811.0049999999999 220.86300000000003 811.2899999999998 221.854C811.4939999999998 222.562 811.6399999999999 223.29100000000003 811.7199999999998 224.042L815.7149999999998 224.042C815.8759999999997 224.042 815.9999999999998 224.166 815.9999999999998 224.326L815.9999999999998 226.674C815.9999999999998 226.834 815.8759999999997 226.958 815.7149999999998 226.958L811.7199999999998 226.958C811.6399999999998 227.709 811.4939999999998 228.439 811.2819999999998 229.146C811.0049999999998 230.137 810.6109999999998 231.07799999999997 810.1159999999998 231.95999999999998C809.7509999999997 232.617 809.3349999999998 233.22899999999998 808.8689999999998 233.80499999999998L810.6989999999998 235.635L811.7049999999998 236.642C811.7709999999998 236.715 811.7849999999999 236.787 811.7849999999999 236.846C811.7849999999999 236.897 811.7709999999998 236.977 811.7049999999998 237.043L810.0429999999998 238.705C809.9729999999997 238.774 809.9079999999998 238.80900000000003 809.8419999999998 238.80900000000003C809.7769999999997 238.80900000000003 809.7109999999998 238.77400000000003 809.6419999999997 238.705L806.8049999999997 235.869C806.2289999999997 236.335 805.6169999999997 236.751 804.9599999999997 237.116C804.0779999999997 237.61100000000002 803.1369999999997 238.00500000000002 802.1459999999997 238.282C801.4389999999997 238.494 800.7089999999997 238.64000000000001 799.9579999999997 238.72L799.9579999999997 242.716C799.9579999999997 242.876 799.8339999999997 243 799.6739999999998 243L797.3259999999998 243C797.1659999999998 243 797.0419999999998 242.876 797.0419999999998 242.716L797.0419999999998 238.72C796.2909999999998 238.64 795.5609999999998 238.494 794.8539999999998 238.282C793.8619999999999 238.00500000000002 792.9219999999998 237.61100000000002 792.0399999999998 237.116C791.3829999999998 236.751 790.7709999999998 236.335 790.1949999999998 235.869L787.3579999999998 238.705C787.2889999999999 238.774 787.2239999999998 238.80900000000003 787.1579999999998 238.80900000000003C787.0919999999998 238.80900000000003 787.0269999999998 238.77400000000003 786.9569999999998 238.705L785.2949999999997 237.043C785.2289999999997 236.977 785.2149999999997 236.89700000000002 785.2149999999997 236.846C785.2149999999997 236.787 785.2289999999997 236.715 785.2949999999997 236.642L786.3009999999997 235.635L788.1309999999997 233.80499999999998C787.6649999999997 233.22899999999998 787.2489999999998 232.617 786.8839999999998 231.95999999999998C786.3889999999998 231.07799999999997 785.9949999999998 230.13699999999997 785.7179999999997 229.146C785.5059999999997 228.439 785.3599999999998 227.70899999999997 785.2799999999997 226.958L781.2839999999998 226.958C781.1239999999998 226.958 780.9999999999998 226.834 780.9999999999998 226.674L780.9999999999998 224.326C780.9999999999998 224.166 781.1239999999998 224.042 781.2839999999998 224.042L785.2799999999997 224.042C785.3599999999998 223.291 785.5059999999997 222.562 785.7099999999997 221.854C785.9949999999997 220.863 786.3889999999997 219.92200000000003 786.8839999999997 219.04000000000002C787.2419999999996 218.39100000000002 787.6569999999997 217.77100000000002 788.1309999999996 217.19500000000002L785.2949999999996 214.35800000000003C785.2289999999996 214.28500000000003 785.2149999999996 214.21300000000002 785.2149999999996 214.15400000000002C785.2149999999996 214.10300000000004 785.2289999999996 214.02300000000002 785.2949999999996 213.95700000000002L786.9569999999997 212.29500000000002C787.0229999999997 212.229 787.1029999999996 212.215 787.1539999999997 212.215C787.2119999999996 212.215 787.2849999999996 212.229 787.3579999999996 212.29500000000002L788.3649999999996 213.30100000000002L790.1949999999996 215.13100000000003C790.7709999999996 214.65700000000004 791.3829999999996 214.24200000000002 792.0399999999996 213.88400000000001C792.9219999999996 213.389 793.8619999999996 212.995 794.8539999999996 212.71C795.5609999999996 212.506 796.2909999999996 212.36100000000002 797.0419999999996 212.28L797.0419999999996 208.284C797.0419999999996 208.124 797.1659999999996 208 797.3259999999996 208L799.6739999999995 208C799.8339999999995 208 799.9579999999995 208.124 799.9579999999995 208.284ZM798.5 232.062C802.124 232.062 805.063 229.12400000000002 805.063 225.5C805.063 221.876 802.124 218.938 798.5 218.938C794.876 218.938 791.938 221.87599999999998 791.938 225.5C791.938 229.124 794.876 232.062 798.5 232.062C802.124 232.062 798.5 232.062 798.5 232.062ZM794.938 225.5C794.938 223.536 796.536 221.938 798.5 221.938C800.464 221.938 802.063 223.536 802.063 225.5C802.063 227.464 800.4639999999999 229.063 798.5 229.063C796.536 229.063 794.938 227.464 794.938 225.5Z " fill="#a4a4a4" fill-opacity="1" transform="matrix(1,0,0,1,-716,-143)"></path></svg>