<svg xmlns="http://www.w3.org/2000/svg" width="105" height="105" viewBox="0 0 105 105">
    <g fill="none" fill-rule="evenodd">
        <path d="M0 0h105v105H0z"/>
        <path fill="#5BC" d="M96 50.5c0 .8-.7 1.5-1.5 1.5s-1.5-.7-1.5-1.5V9c0-.5-.4-1-.9-1H4c-.5 0-1 .4-1 .9V97c0 .5.4 1 .9 1H92c.5 0 1-.4 1-.9v-3.5c0-.8.7-1.5 1.5-1.5s1.5.7 1.5 1.5V97c0 2.2-1.8 4-4 4H4c-2.2 0-4-1.8-4-4V9c0-2.2 1.8-4 4-4h88c2.2 0 4 1.8 4 4v41.5zM14.65 53h18.7c.88 0 1.65.7 1.65 1.5s-.77 1.5-1.65 1.5h-18.7c-.88 0-1.65-.7-1.65-1.5s.77-1.5 1.65-1.5zm0 7h18.7c.88 0 1.65.7 1.65 1.5s-.77 1.5-1.65 1.5h-18.7c-.88 0-1.65-.7-1.65-1.5s.77-1.5 1.65-1.5zm0 7h18.7c.88 0 1.65.7 1.65 1.5s-.77 1.5-1.65 1.5h-18.7c-.88 0-1.65-.7-1.65-1.5s.77-1.5 1.65-1.5zm0 7h18.7c.88 0 1.65.7 1.65 1.5s-.77 1.5-1.65 1.5h-18.7c-.88 0-1.65-.7-1.65-1.5s.77-1.5 1.65-1.5zm0 7h18.7c.88 0 1.65.7 1.65 1.5s-.77 1.5-1.65 1.5h-18.7c-.88 0-1.65-.7-1.65-1.5s.77-1.5 1.65-1.5zm0 7h18.7c.88 0 1.65.7 1.65 1.5s-.77 1.5-1.65 1.5h-18.7c-.88 0-1.65-.7-1.65-1.5s.77-1.5 1.65-1.5zm30-35h18.7c.88 0 1.65.7 1.65 1.5s-.77 1.5-1.65 1.5h-18.7c-.88 0-1.65-.7-1.65-1.5s.77-1.5 1.65-1.5zm0 7h18.7c.88 0 1.65.7 1.65 1.5s-.77 1.5-1.65 1.5h-18.7c-.88 0-1.65-.7-1.65-1.5s.77-1.5 1.65-1.5zm0 7h18.7c.88 0 1.65.7 1.65 1.5s-.77 1.5-1.65 1.5h-18.7c-.88 0-1.65-.7-1.65-1.5s.77-1.5 1.65-1.5zm0 7h18.7c.88 0 1.65.7 1.65 1.5s-.77 1.5-1.65 1.5h-18.7c-.88 0-1.65-.7-1.65-1.5s.77-1.5 1.65-1.5zm0 7h18.7c.88 0 1.65.7 1.65 1.5s-.77 1.5-1.65 1.5h-18.7c-.88 0-1.65-.7-1.65-1.5s.77-1.5 1.65-1.5zm0 7h18.7c.88 0 1.65.7 1.65 1.5s-.77 1.5-1.65 1.5h-18.7c-.88 0-1.65-.7-1.65-1.5s.77-1.5 1.65-1.5zM79 23H17c-2.2 0-4 1.8-4 4v14c0 2.2 1.8 4 4 4h62c2.2 0 4-1.8 4-4V27c0-2.2-1.8-4-4-4m0 3c.6 0 1 .4 1 1v14c0 .6-.4 1-1 1H17c-.6 0-1-.4-1-1V27c0-.6.4-1 1-1h62M13.5 13c1.4 0 2.5 1.1 2.5 2.5S14.9 18 13.5 18 11 16.9 11 15.5s1.2-2.5 2.5-2.5m8 0c1.4 0 2.5 1.1 2.5 2.5S22.9 18 21.5 18 19 16.9 19 15.5s1.1-2.5 2.5-2.5m8 0c1.4 0 2.5 1.1 2.5 2.5S30.9 18 29.5 18 27 16.9 27 15.5s1.2-2.5 2.5-2.5"/>
        <path fill="#A4A4A4" fill-rule="nonzero" d="M84 72.469a21.45 21.45 0 0 0 4.5 12.705A21.397 21.397 0 0 0 93 72.53a21.45 21.45 0 0 0-4.5-12.705A21.397 21.397 0 0 0 84 72.47zm5.607-15.98C93.604 60.863 95.876 66.542 96 72.53a24.45 24.45 0 0 1-6.392 15.98 1.5 1.5 0 0 1-2.215 0C83.395 84.137 81.123 78.458 81 72.47a24.45 24.45 0 0 1 6.392-15.98 1.5 1.5 0 0 1 2.215 0zM88.5 89C79.387 89 72 81.613 72 72.5S79.387 56 88.5 56 105 63.387 105 72.5 97.613 89 88.5 89zm0-3c7.456 0 13.5-6.044 13.5-13.5S95.956 59 88.5 59 75 65.044 75 72.5 81.044 86 88.5 86z"/>
        <path fill="#A4A4A4" d="M74 74h30c.328 0 1-.672 1-1 0-1.328-.672-2-1-2H74c-1.328 0-2 .672-2 2 0 .328.672 1 2 1z"/>
    </g>
</svg>
