<svg id="ic-role-management" xmlns="http://www.w3.org/2000/svg" width="107" height="96" viewBox="0 0 107 96">
  <defs>
    <style>
      .cls-1, .cls-2 {
        fill: #5bc;
      }

      .cls-1, .cls-3 {
        fill-rule: evenodd;
      }

      .cls-3 {
        fill: #a4a4a4;
      }
    </style>
  </defs>
  <path id="Shape_64_copy" data-name="Shape 64 copy" class="cls-1" d="M704,2001v42.5a1.5,1.5,0,0,1-3,0V2001a0.945,0.945,0,0,0-1-1H612a0.945,0.945,0,0,0-1,1v88a0.945,0.945,0,0,0,1,1h88a0.945,0.945,0,0,0,1-1v-3.44a1.5,1.5,0,0,1,3,0V2089a4.012,4.012,0,0,1-4,4H612a4.012,4.012,0,0,1-4-4v-88a4.012,4.012,0,0,1,4-4h88A4.012,4.012,0,0,1,704,2001Z" transform="translate(-608 -1997)"/>
  <g>
    <path id="Shape_74_copy" data-name="Shape 74 copy" class="cls-1" d="M669.15,2029.73A6.9,6.9,0,0,0,671,2025a7,7,0,0,0-12.29-4.58,8.964,8.964,0,0,1,2.79,1.46,4,4,0,1,1,3.5,6.99V2029a8.962,8.962,0,0,1-.51,3h1a6.517,6.517,0,0,1,6.51,6.51V2040h-3.28a10.974,10.974,0,0,1,.28,2.51V2043h4.5a1.5,1.5,0,0,0,1.5-1.5v-2.99A9.518,9.518,0,0,0,669.15,2029.73ZM637,2038.51v2.99a1.5,1.5,0,0,0,1.5,1.5H643v-0.49a10.974,10.974,0,0,1,.28-2.51H640v-1.49a6.517,6.517,0,0,1,6.51-6.51h1a8.962,8.962,0,0,1-.51-3v-0.13a4,4,0,1,1,3.5-6.99,8.964,8.964,0,0,1,2.79-1.46A7,7,0,0,0,641,2025a6.9,6.9,0,0,0,1.85,4.73A9.518,9.518,0,0,0,637,2038.51Zm29.66,1.49a9.518,9.518,0,0,0-5.51-6.27,6.972,6.972,0,0,0,1.17-1.72A6.888,6.888,0,0,0,663,2029a0.57,0.57,0,0,0-.01-0.13,6.9,6.9,0,0,0-2.69-5.38,6.626,6.626,0,0,0-2.71-1.3A6.411,6.411,0,0,0,656,2022a7,7,0,0,0-7,7,6.9,6.9,0,0,0,1.85,4.73,9.518,9.518,0,0,0-5.85,8.78v2.99a1.5,1.5,0,0,0,1.5,1.5h19a1.5,1.5,0,0,0,1.5-1.5v-2.99A9.446,9.446,0,0,0,666.66,2040ZM656,2025a4.171,4.171,0,0,1,1.01.13A4,4,0,0,1,656,2033a3.726,3.726,0,0,1-1.11-.16A4,4,0,0,1,656,2025Zm8,19H648v-1.49a6.524,6.524,0,0,1,5.31-6.4,6.779,6.779,0,0,1,1.2-.11h2.98a6.5,6.5,0,0,1,6.51,6.51V2044Z" transform="translate(-608 -1997)"/>
    <rect id="Rounded_Rectangle_7_copy_29" data-name="Rounded Rectangle 7 copy 29" class="cls-2" x="31" y="59" width="36" height="3" rx="1.5" ry="1.5"/>
    <rect id="Rounded_Rectangle_7_copy_29-2" data-name="Rounded Rectangle 7 copy 29" class="cls-2" x="31" y="66" width="36" height="3" rx="1.5" ry="1.5"/>
    <rect id="Rounded_Rectangle_7_copy_29-3" data-name="Rounded Rectangle 7 copy 29" class="cls-2" x="31" y="73" width="36" height="3" rx="1.5" ry="1.5"/>
    <path id="ic_Lock_big_copy" data-name="ic_Lock_big copy" class="cls-3" d="M711.807,2064.01a0.208,0.208,0,0,1,.193.19v11.55a0.189,0.189,0,0,1-.193.19H692.193a0.189,0.189,0,0,1-.193-0.19V2064.2a0.2,0.2,0,0,1,.193-0.19H712m-10-14.09a7.966,7.966,0,0,0-8,7.93v3.18h-1.807A3.193,3.193,0,0,0,689,2064.2v11.55a3.2,3.2,0,0,0,3.193,3.18h19.614a3.2,3.2,0,0,0,3.193-3.18V2064.2a3.193,3.193,0,0,0-3.193-3.17H710v-2.92a8.128,8.128,0,0,0-6.669-8.09,8.649,8.649,0,0,0-1.331-.1h0Zm-5,11.11v-2.96a4.92,4.92,0,0,1,3.447-4.75,5.33,5.33,0,0,1,1.553-.23,4.9,4.9,0,0,1,5,4.76v3.18H697Z" transform="translate(-608 -1997)"/>
  </g>
</svg>
