<?xml version="1.0" encoding="UTF-8" standalone="no"?>
<svg width="12px" height="8px" viewBox="0 0 12 8" version="1.1" xmlns="http://www.w3.org/2000/svg" xmlns:xlink="http://www.w3.org/1999/xlink" xmlns:sketch="http://www.bohemiancoding.com/sketch/ns">
    <!-- Generator: Sketch 3.3.2 (12043) - http://www.bohemiancoding.com/sketch -->
    <title>arrow-down</title>
    <desc>Created with Sketch.</desc>
    <defs></defs>
    <g id="Page-1" stroke="none" stroke-width="1"  fill-rule="evenodd" sketch:type="MSPage">
        <path d="M2.8263125,1.23103125 L6.4433125,5.07403125 L10.1333125,1.15203125 L10.1333125,1.15303125 C10.3273125,0.95403125 10.5903125,0.83203125 10.8803125,0.83203125 C11.4743125,0.83203125 11.9563125,1.34403125 11.9563125,1.97503125 C11.9563125,2.28403125 11.8413125,2.56303125 11.6543125,2.76903125 L11.6553125,2.76903125 L7.2203125,7.48203125 L7.2193125,7.48203125 C7.0243125,7.69703125 6.7493125,7.83203125 6.4453125,7.83203125 L6.4433125,7.83203125 L6.4403125,7.83203125 C6.1363125,7.83203125 5.8623125,7.69703125 5.6663125,7.48203125 L5.6653125,7.48203125 L1.2303125,2.76903125 L1.2333125,2.76603125 C1.0483125,2.56103125 0.9343125,2.28203125 0.9343125,1.97503125 C0.9343125,1.34403125 1.4163125,0.83203125 2.0103125,0.83203125 C2.3363125,0.83203125 2.6293125,0.98603125 2.8263125,1.23103125 L2.8263125,1.23103125 Z" id="arrow-down"  sketch:type="MSShapeGroup"></path>
    </g>
</svg>
