<?xml version="1.0" encoding="UTF-8" standalone="no"?>
<svg width="9px" height="13px" viewBox="0 0 9 13" version="1.1" xmlns="http://www.w3.org/2000/svg" xmlns:xlink="http://www.w3.org/1999/xlink" xmlns:sketch="http://www.bohemiancoding.com/sketch/ns">
    <!-- Generator: Sketch 3.3.2 (12043) - http://www.bohemiancoding.com/sketch -->
    <title>arrow-left</title>
    <desc>Created with Sketch.</desc>
    <defs></defs>
    <g id="Page-1" stroke="none" stroke-width="1"  fill-rule="evenodd" sketch:type="MSPage">
        <path d="M3.8,6.5 L7.9,10.6 C8.1,10.8 8.2,11.1 8.2,11.4 C8.2,12.1 7.7,12.6 7,12.6 C6.7,12.6 6.4,12.5 6.2,12.3 L1.3,7.4 C1.1,7.2 0.9,6.9 0.9,6.5 C0.9,6.2 1,5.9 1.3,5.6 L6.2,0.7 C6.4,0.5 6.7,0.4 7,0.4 C7.7,0.4 8.2,0.9 8.2,1.6 C8.2,2 8,2.3 7.8,2.5 L3.8,6.5 L3.8,6.5 Z" id="arrow-left"  sketch:type="MSShapeGroup"></path>
    </g>
</svg>
