<?xml version="1.0" encoding="UTF-8" standalone="no"?>
<svg width="18px" height="18px" viewBox="0 0 18 18" version="1.1" xmlns="http://www.w3.org/2000/svg" xmlns:xlink="http://www.w3.org/1999/xlink" xmlns:sketch="http://www.bohemiancoding.com/sketch/ns">
    <!-- Generator: Sketch 3.3.2 (12043) - http://www.bohemiancoding.com/sketch -->
    <title>Shape</title>
    <desc>Created with Sketch.</desc>
    <defs></defs>
    <g id="Page-1" stroke="none" stroke-width="1"  fill-rule="evenodd" sketch:type="MSPage">
        <path d="M9,18 C4.029,18 0,13.97 0,9 C0,4.03 4.029,0 9,0 C13.971,0 18,4.03 18,9 C18,13.97 13.971,18 9,18 L9,18 Z M9,1.714 C4.976,1.714 1.714,4.976 1.714,9 C1.714,13.024 4.976,16.286 9,16.286 C13.024,16.286 16.286,13.024 16.286,9 C16.286,4.976 13.024,1.714 9,1.714 L9,1.714 Z M9,14 C8.448,14 8,13.552 8,13 C8,12.448 8.448,12 9,12 C9.552,12 10,12.448 10,13 C10,13.552 9.552,14 9,14 L9,14 Z M9,11 C8.448,11 8,10.552 8,10 L8,5 C8,4.448 8.448,4 9,4 C9.552,4 10,4.448 10,5 L10,10 C10,10.552 9.552,11 9,11 L9,11 Z" id="Shape"  sketch:type="MSShapeGroup"></path>
    </g>
</svg>
