<?xml version="1.0" encoding="utf-8"?>
<svg xmlns="http://www.w3.org/2000/svg"
	xmlns:xlink="http://www.w3.org/1999/xlink"
	width="18px" height="18px" viewBox="0 0 18 18">
<path fillRule="evenodd" d="M 16 18C 16 18 2 18 2 18 0.9 18-0 17.1-0 16-0 16-0 6-0 6-0 5.95-0 5.9 0.01 5.86 0.08 4.82 0.95 4 2 4 2 4 5 4 5 4 5 4 5 2 5 2 5 0.9 5.9-0 7-0 7-0 11-0 11-0 12.1-0 13 0.9 13 2 13 2 13 4 13 4 13 4 16 4 16 4 17.05 4 17.92 4.82 17.99 5.86 18 5.9 18 5.95 18 6 18 6 18 16 18 16 18 17.1 17.1 18 16 18ZM 11 2C 11 2 7 2 7 2 7 2 7 4 7 4 7 4 11 4 11 4 11 4 11 2 11 2ZM 2.11 6C 3.7 8.92 8.17 9.84 9 9.98 9.83 9.84 14.3 8.92 15.89 6 15.89 6 2.11 6 2.11 6ZM 16 8.99C 14.02 10.74 11.35 11.52 10 11.82 10 11.82 10 14 10 14 10 14 8 14 8 14 8 14 8 11.82 8 11.82 6.65 11.52 3.98 10.74 2 8.99 2 8.99 2 16 2 16 2 16 16 16 16 16 16 16 16 8.99 16 8.99Z"/></svg>