<?xml version="1.0" encoding="UTF-8" standalone="no"?>
<svg width="15px" height="13px" viewBox="0 0 15 13" version="1.1" xmlns="http://www.w3.org/2000/svg" xmlns:xlink="http://www.w3.org/1999/xlink" xmlns:sketch="http://www.bohemiancoding.com/sketch/ns">
    <!-- Generator: Sketch 3.3.2 (12043) - http://www.bohemiancoding.com/sketch -->
    <title>Shape</title>
    <desc>Created with Sketch.</desc>
    <defs></defs>
    <g id="Page-1" stroke="none" stroke-width="1"  fill-rule="evenodd" sketch:type="MSPage">
        <path d="M14.042,4.068 L6.942,11.169 C6.935,11.176 6.933,11.187 6.925,11.194 C6.335,11.784 5.378,11.784 4.788,11.194 L4.787,11.193 C4.786,11.192 4.784,11.192 4.783,11.191 C4.782,11.19 4.782,11.188 4.781,11.187 L1.939,8.345 C1.349,7.755 1.349,6.799 1.939,6.209 C2.529,5.618 3.486,5.618 4.076,6.209 L5.852,7.985 L11.906,1.931 C12.496,1.341 13.452,1.341 14.042,1.931 C14.632,2.521 14.632,3.478 14.042,4.068 L14.042,4.068 Z" id="Shape" stroke="#FFFFFF"  sketch:type="MSShapeGroup"></path>
    </g>
</svg>
