<?xml version="1.0" encoding="utf-8"?>
<svg xmlns="http://www.w3.org/2000/svg"
	xmlns:xlink="http://www.w3.org/1999/xlink"
	width="17px" height="18px" viewBox="0 0 17 18">
<path fillRule="evenodd" d="M 17 11C 17 12.65 15.65 14 14 14 14 14 14 12 14 12 14.55 12 15 11.55 15 11 15 11 15 3.02 15 3.02 15 2.47 14.55 2.02 14 2.02 14 2.02 7 2 7 2 6.45 2 6 2.45 6 3 6 3 4 3 4 3 4 1.35 5.35-0 7-0 7-0 14-0 14-0 15.65-0 17 1.35 17 3 17 3 17 11 17 11ZM 13 7C 13 7 13 15 13 15 13 16.65 11.65 18 10 18 10 18 3 18 3 18 1.35 18-0 16.65-0 15-0 15 0 7 0 7 0 5.35 1.35 4 3 4 3 4 10 4 10 4 11.65 4 13 5.35 13 7ZM 3 6C 2.45 6 2 6.45 2 7 2 7 2 14.98 2 14.98 2 15.53 2.45 15.98 3 15.98 3 15.98 10 16 10 16 10.55 16 11 15.55 11 15 11 15 11 7.02 11 7.02 11 6.47 10.55 6.02 10 6.02 10 6.02 3 6 3 6Z"/></svg>