<?xml version="1.0" encoding="utf-8"?>
<svg xmlns="http://www.w3.org/2000/svg"
	xmlns:xlink="http://www.w3.org/1999/xlink"
	width="13px" height="13px" viewBox="0 0 13 13">
<path fillRule="evenodd" d="M 8.41 6.5C 8.41 6.5 11.91 10 11.91 10 12.44 10.53 12.44 11.38 11.91 11.91 11.38 12.44 10.53 12.44 10 11.91 10 11.91 6.5 8.41 6.5 8.41 6.5 8.41 3 11.91 3 11.91 2.47 12.44 1.62 12.44 1.09 11.91 0.57 11.38 0.57 10.53 1.09 10 1.09 10 4.59 6.5 4.59 6.5 4.59 6.5 1.09 3 1.09 3 0.57 2.47 0.57 1.62 1.09 1.09 1.62 0.57 2.47 0.57 3 1.09 3 1.09 6.5 4.59 6.5 4.59 6.5 4.59 10 1.09 10 1.09 10.53 0.57 11.38 0.57 11.91 1.09 12.44 1.62 12.44 2.47 11.91 3 11.91 3 8.41 6.5 8.41 6.5Z"/></svg>
