<?xml version="1.0" encoding="UTF-8" standalone="no"?>
<svg width="19px" height="9px" viewBox="0 0 19 9" version="1.1" xmlns="http://www.w3.org/2000/svg" xmlns:xlink="http://www.w3.org/1999/xlink" xmlns:sketch="http://www.bohemiancoding.com/sketch/ns">
    <!-- Generator: Sketch 3.3.2 (12043) - http://www.bohemiancoding.com/sketch -->
    <title>code</title>
    <desc>Created with Sketch.</desc>
    <defs></defs>
    <g id="Page-1" stroke="none" stroke-width="1"  fill-rule="evenodd" sketch:type="MSPage">
        <path d="M5.7775,7.16375 C5.9775,7.34875 6.0675,7.60175 6.0675,7.85375 C6.0675,8.10675 5.9775,8.35975 5.7775,8.54375 C5.3875,8.92275 4.7575,8.92275 4.3675,8.54375 L0.8275,4.95875 C0.6775,4.80275 0.5875,4.61875 0.5575,4.42375 C0.5375,4.37575 0.5375,4.31675 0.5375,4.26875 L0.5575,4.08375 C0.5875,3.88975 0.6775,3.70475 0.8275,3.55875 L4.3675,0.26475 C4.7575,-0.11425 5.3875,-0.11425 5.7775,0.26475 C5.9775,0.44975 6.0675,0.70275 6.0675,0.95475 C6.0675,1.20775 5.9775,1.45975 5.7775,1.64475 L2.9375,4.28775 L5.7775,7.16375 L5.7775,7.16375 Z M18.5175,4.35575 C18.4875,4.16175 18.3975,3.97675 18.2475,3.83175 L14.7075,0.24575 C14.3175,-0.13325 13.6875,-0.13325 13.2975,0.24575 C13.0975,0.42975 13.0075,0.68275 13.0075,0.93575 C13.0075,1.17875 13.0975,1.42075 13.2975,1.61575 L16.1375,4.50175 L13.2975,7.14475 C13.0975,7.32975 13.0075,7.58175 13.0075,7.83475 C13.0075,8.07775 13.0975,8.32075 13.2975,8.51475 C13.6875,8.89375 14.3175,8.89375 14.7075,8.51475 L18.2475,5.23075 C18.3975,5.07475 18.4875,4.89075 18.5175,4.69575 L18.5375,4.51175 C18.5375,4.46275 18.5375,4.40475 18.5175,4.35575 L18.5175,4.35575 Z" id="code"  sketch:type="MSShapeGroup"></path>
    </g>
</svg>
