<?xml version="1.0" encoding="utf-8"?>
<!-- Generator: Adobe Illustrator 19.0.1, SVG Export Plug-In . SVG Version: 6.00 Build 0)  -->
<svg version="1.1" id="Layer_1" xmlns="http://www.w3.org/2000/svg" xmlns:xlink="http://www.w3.org/1999/xlink" x="0px" y="0px"
	 viewBox="6 -1 89 94" style="enable-background:new 6 -1 89 94;" xml:space="preserve">
<style type="text/css">
	.st0{fill:#55BBCC;}
	.st1{fill:#A4A4A4;}
</style>
<g>
	<path class="st0" d="M81.6,65.6c0.7-0.7,1.5-1.2,2.4-1.4V21.8c0-0.3-0.1-0.5-0.2-0.8c-0.1-0.1-0.1-0.2-0.2-0.3L62.3-0.6
		c-0.1-0.1-0.2-0.2-0.3-0.2C61.8-0.9,61.5-1,61.2-1H10C7.8-1,6,0.8,6,3v86c0,2.2,1.8,4,4,4h70c2.2,0,4-1.8,4-4V78.8l-3,3V89
		c0,0.5-0.5,1-1,1H10c-0.5,0-1-0.5-1-1V3c0-0.5,0.5-1,1-1h49v18c0,2.2,1.8,4,4,4h18v42.2L81.6,65.6z M63,21c-0.5,0-1-0.5-1-1V3.4
		L79.6,21H63z"/>
	<path class="st0" d="M67.6,79.7c-0.2-0.2-0.4-0.4-0.6-0.7H20.5c-0.8,0-1.5,0.7-1.5,1.5s0.7,1.5,1.5,1.5h49.4L67.6,79.7z M20.5,72
		c-0.8,0-1.5,0.7-1.5,1.5s0.7,1.5,1.5,1.5h45.6c0.1-1.1,0.6-2.2,1.4-3H20.5z M74.5,65h-54c-0.8,0-1.5,0.7-1.5,1.5s0.7,1.5,1.5,1.5
		h54c0.8,0,1.5-0.7,1.5-1.5S75.3,65,74.5,65z M74.5,58h-54c-0.8,0-1.5,0.7-1.5,1.5s0.7,1.5,1.5,1.5h54c0.8,0,1.5-0.7,1.5-1.5
		S75.3,58,74.5,58z M74.5,51h-17c-0.8,0-1.5,0.7-1.5,1.5s0.7,1.5,1.5,1.5h17c0.8,0,1.5-0.7,1.5-1.5S75.3,51,74.5,51z M74.5,44h-17
		c-0.8,0-1.5,0.7-1.5,1.5s0.7,1.5,1.5,1.5h17c0.8,0,1.5-0.7,1.5-1.5S75.3,44,74.5,44z M74.5,37h-17c-0.8,0-1.5,0.7-1.5,1.5
		s0.7,1.5,1.5,1.5h17c0.8,0,1.5-0.7,1.5-1.5S75.3,37,74.5,37z M47,27H37c-1.1,0-2,0.9-2,2v21c0,1.1,0.9,2,2,2h10c1.1,0,2-0.9,2-2V29
		C49,27.9,48.1,27,47,27z M46,49h-8V30h8V49z M31,15H21c-1.1,0-2,0.9-2,2v33c0,1.1,0.9,2,2,2h10c1.1,0,2-0.9,2-2V17
		C33,15.9,32.1,15,31,15z M30,49h-8V18h8V49z"/>
	<g>
		<path class="st1" d="M86.5,70.6L76.5,80.7c0,0,0,0,0,0c-0.2,0.2-0.3,0.3-0.5,0.3c-0.2,0.1-0.4,0.1-0.5,0.1c-0.4,0-0.8-0.2-1.1-0.4
			v0c0,0,0,0,0,0l-3.8-3.8c-0.5-0.5-0.6-1.3-0.2-1.9c0.1-0.1,0.1-0.2,0.2-0.3c0.3-0.3,0.7-0.4,1.1-0.4s0.8,0.1,1.1,0.4l0.3,0.3
			l2.5,2.5l5.6-5.7l3.4-3.4c0.3-0.3,0.7-0.4,1.1-0.4c0.4,0,0.8,0.2,1.1,0.4C87.1,69,87.1,70,86.5,70.6z"/>
	</g>
</g>
</svg>
