<?xml version="1.0" encoding="utf-8"?>
<svg xmlns="http://www.w3.org/2000/svg"
	xmlns:xlink="http://www.w3.org/1999/xlink"
	width="18px" height="18px" viewBox="0 0 18 18">
<path fillRule="evenodd" d="M 17 10.46C 17 10.46 15.33 10.46 15.33 10.46 15.33 10.46 15.33 10.46 15.33 10.46 15.17 11.15 14.9 11.8 14.54 12.39 14.54 12.39 15.72 13.61 15.72 13.61 16.1 14.01 16.09 14.64 15.7 15.03 15.7 15.03 14.98 15.72 14.98 15.72 14.58 16.1 13.94 16.09 13.56 15.7 13.56 15.7 12.42 14.52 12.42 14.52 12.42 14.52 12.42 14.52 12.42 14.52 11.83 14.89 11.17 15.17 10.46 15.33 10.46 15.33 10.46 15.33 10.46 15.33 10.46 15.33 10.46 17 10.46 17 10.46 17.55 10.01 18 9.46 18 9.46 18 8.46 18 8.46 18 7.91 18 7.46 17.55 7.46 17 7.46 17 7.46 15.31 7.46 15.31 6.78 15.15 6.15 14.88 5.58 14.52 5.58 14.52 5.58 14.52 5.58 14.52 5.58 14.52 4.44 15.7 4.44 15.7 4.06 16.09 3.42 16.1 3.02 15.72 3.02 15.72 2.3 15.03 2.3 15.03 1.91 14.64 1.9 14.01 2.28 13.61 2.28 13.61 3.46 12.39 3.46 12.39 3.1 11.8 2.83 11.15 2.67 10.46 2.67 10.46 2.67 10.46 2.67 10.46 2.67 10.46 1 10.46 1 10.46 0.45 10.46 0 10.01 0 9.46 0 9.46 0 8.46 0 8.46 0 7.91 0.45 7.46 1 7.46 1 7.46 2.69 7.46 2.69 7.46 2.85 6.8 3.11 6.17 3.46 5.61 3.46 5.61 2.28 4.39 2.28 4.39 1.9 3.99 1.91 3.36 2.3 2.97 2.3 2.97 3.02 2.28 3.02 2.28 3.42 1.9 4.06 1.91 4.44 2.3 4.44 2.3 5.58 3.48 5.58 3.48 6.16 3.11 6.81 2.84 7.5 2.68 7.5 2.68 7.5 1 7.5 1 7.5 0.45 7.95-0 8.5-0 8.5-0 9.5-0 9.5-0 10.05-0 10.5 0.45 10.5 1 10.5 1 10.5 2.68 10.5 2.68 11.19 2.84 11.84 3.11 12.42 3.48 12.42 3.48 12.42 3.48 12.42 3.48 12.42 3.48 13.56 2.3 13.56 2.3 13.94 1.91 14.58 1.9 14.98 2.28 14.98 2.28 15.7 2.97 15.7 2.97 16.09 3.36 16.1 3.99 15.72 4.39 15.72 4.39 14.54 5.61 14.54 5.61 14.89 6.17 15.15 6.8 15.31 7.46 15.31 7.46 17 7.46 17 7.46 17.55 7.46 18 7.91 18 8.46 18 8.46 18 9.46 18 9.46 18 10.01 17.55 10.46 17 10.46ZM 9 6.5C 7.62 6.5 6.5 7.62 6.5 9 6.5 10.38 7.62 11.5 9 11.5 10.38 11.5 11.5 10.38 11.5 9 11.5 7.62 10.38 6.5 9 6.5Z"/></svg>
