<?xml version="1.0" encoding="utf-8"?>
<svg xmlns="http://www.w3.org/2000/svg"
	xmlns:xlink="http://www.w3.org/1999/xlink"
	width="11px" height="10px" viewBox="0 0 11 10">
<path fillRule="evenodd" d="M 10.98 5.5C 10.95 5.69 10.86 5.88 10.71 6.03 10.71 6.03 7.17 9.32 7.17 9.32 6.78 9.7 6.15 9.7 5.76 9.32 5.56 9.12 5.47 8.88 5.47 8.64 5.47 8.38 5.56 8.13 5.76 7.95 5.76 7.95 8.6 5.3 8.6 5.3 8.6 5.3 5.76 2.42 5.76 2.42 5.56 2.22 5.47 1.98 5.47 1.74 5.47 1.48 5.56 1.23 5.76 1.05 6.15 0.67 6.78 0.67 7.17 1.05 7.17 1.05 10.71 4.63 10.71 4.63 10.86 4.78 10.95 4.96 10.98 5.16 11 5.21 11 5.26 11 5.31 11 5.31 10.98 5.5 10.98 5.5ZM 5.98 5.16C 6 5.21 6 5.26 6 5.31 6 5.31 5.98 5.5 5.98 5.5 5.95 5.69 5.86 5.88 5.71 6.03 5.71 6.03 2.17 9.32 2.17 9.32 1.78 9.7 1.15 9.7 0.76 9.32 0.56 9.12 0.47 8.88 0.47 8.64 0.47 8.38 0.56 8.13 0.76 7.95 0.76 7.95 3.6 5.3 3.6 5.3 3.6 5.3 0.76 2.42 0.76 2.42 0.56 2.22 0.47 1.98 0.47 1.74 0.47 1.48 0.56 1.23 0.76 1.05 1.15 0.67 1.78 0.67 2.17 1.05 2.17 1.05 5.71 4.63 5.71 4.63 5.86 4.78 5.95 4.96 5.98 5.16Z"/></svg>
