<?xml version="1.0" encoding="utf-8"?>
<svg xmlns="http://www.w3.org/2000/svg"
	xmlns:xlink="http://www.w3.org/1999/xlink"
	width="29px" height="29px" viewBox="0 0 29 29">
<clipPath id="clip0"><path fillRule="evenodd" d="M 27.8 8.36C 27.8 8.36 10.56 25.92 10.56 25.92 10.51 25.98 10.45 26.04 10.39 26.06 10.25 26.22 10.12 26.32 9.96 26.42 9.88 26.48 9.79 26.54 9.69 26.58 9.26 26.83 8.8 26.99 8.29 27.03 8.29 27.03 2.53 28.93 2.53 28.93 2.44 28.95 2.34 28.99 2.24 28.99 1.99 29.02 1.74 29.01 1.49 28.95 1.35 28.91 1.19 28.87 1.06 28.79 0.81 28.67 0.56 28.45 0.38 28.22 0.26 28.04 0.15 27.86 0.09 27.64 0.03 27.42-0.01 27.23-0.01 27.01-0.01 26.89 0.01 26.77 0.03 26.65 0.05 26.59 0.07 26.52 0.09 26.44 0.09 26.38 0.11 26.34 0.13 26.28 0.13 26.28 2.46 20.61 2.46 20.61 2.59 19.9 2.92 19.25 3.46 18.69 3.46 18.69 20.7 1.11 20.7 1.11 22.17-0.38 24.73-0.38 26.19 1.11 26.19 1.11 27.81 2.77 27.81 2.77 28.53 3.5 28.94 4.5 28.94 5.55 28.94 6.62 28.53 7.61 27.8 8.36Z"/></clipPath><g><path fillRule="evenodd" d="M 27.8 8.36C 27.8 8.36 10.56 25.92 10.56 25.92 10.51 25.98 10.45 26.04 10.39 26.06 10.25 26.22 10.12 26.32 9.96 26.42 9.88 26.48 9.79 26.54 9.69 26.58 9.26 26.83 8.8 26.99 8.29 27.03 8.29 27.03 2.53 28.93 2.53 28.93 2.44 28.95 2.34 28.99 2.24 28.99 1.99 29.02 1.74 29.01 1.49 28.95 1.35 28.91 1.19 28.87 1.06 28.79 0.81 28.67 0.56 28.45 0.38 28.22 0.26 28.04 0.15 27.86 0.09 27.64 0.03 27.42-0.01 27.23-0.01 27.01-0.01 26.89 0.01 26.77 0.03 26.65 0.05 26.59 0.07 26.52 0.09 26.44 0.09 26.38 0.11 26.34 0.13 26.28 0.13 26.28 2.46 20.61 2.46 20.61 2.59 19.9 2.92 19.25 3.46 18.69 3.46 18.69 20.7 1.11 20.7 1.11 22.17-0.38 24.73-0.38 26.19 1.11 26.19 1.11 27.81 2.77 27.81 2.77 28.53 3.5 28.94 4.5 28.94 5.55 28.94 6.62 28.53 7.61 27.8 8.36Z"/><path fillRule="evenodd" d="M 3.74 25.37C 3.74 25.37 7.38 24.17 7.38 24.17 7.38 24.17 8.35 23.86 8.35 23.86 8.41 23.8 8.48 23.75 8.55 23.69 8.55 23.69 25.65 6.26 25.65 6.26 25.84 6.06 25.94 5.83 25.94 5.55 25.94 5.29 25.84 5.04 25.67 4.87 25.67 4.87 24.05 3.21 24.05 3.21 23.91 3.07 23.69 3 23.45 3 23.2 3 22.96 3.08 22.84 3.21 22.84 3.21 5.6 20.8 5.6 20.8 5.49 20.91 5.43 21.02 5.4 21.17 5.36 21.37 5.31 21.56 5.23 21.75 5.23 21.75 3.74 25.37 3.74 25.37M 1.98 29.01C 1.81 29.01 1.65 28.98 1.49 28.95 1.35 28.91 1.19 28.87 1.06 28.79 0.81 28.67 0.55 28.45 0.38 28.22 0.26 28.04 0.15 27.86 0.09 27.64 0.03 27.42-0.01 27.23-0.01 27.01-0.01 26.89 0.01 26.77 0.03 26.65 0.05 26.59 0.07 26.52 0.09 26.44 0.09 26.38 0.11 26.34 0.13 26.28 0.13 26.28 2.46 20.61 2.46 20.61 2.59 19.9 2.92 19.25 3.46 18.69 3.46 18.69 20.7 1.11 20.7 1.11 21.43 0.37 22.44-0.01 23.45-0.01 24.45-0.01 25.46 0.37 26.19 1.11 26.19 1.11 27.81 2.77 27.81 2.77 28.53 3.5 28.94 4.5 28.94 5.55 28.94 6.62 28.53 7.61 27.8 8.36 27.8 8.36 10.56 25.92 10.56 25.92 10.51 25.98 10.45 26.04 10.39 26.06 10.25 26.22 10.12 26.32 9.96 26.42 9.88 26.48 9.79 26.54 9.69 26.57 9.65 26.59 9.59 26.61 9.54 26.63 9.54 26.63 8.29 27.03 8.29 27.03 8.29 27.03 2.53 28.93 2.53 28.93 2.44 28.95 2.34 28.99 2.24 28.99 2.15 29 2.07 29.01 1.98 29.01 1.98 29.01 1.98 29.01 1.98 29.01ZM 8.29 27.03C 8.29 27.03 9.54 26.63 9.54 26.63 9.59 26.61 9.65 26.59 9.69 26.57 9.26 26.83 8.8 26.99 8.29 27.03 8.29 27.03 8.29 27.03 8.29 27.03Z" fill="rgb(165,165,165)"/></g><g><g><path fillRule="evenodd" d="M 27.8 8.36C 27.8 8.36 10.56 25.92 10.56 25.92 10.51 25.98 10.45 26.04 10.39 26.06 10.25 26.22 10.12 26.32 9.96 26.42 9.88 26.48 9.79 26.54 9.69 26.58 9.26 26.83 8.8 26.99 8.29 27.03 8.29 27.03 2.53 28.93 2.53 28.93 2.44 28.95 2.34 28.99 2.24 28.99 1.99 29.02 1.74 29.01 1.49 28.95 1.35 28.91 1.19 28.87 1.06 28.79 0.81 28.67 0.56 28.45 0.38 28.22 0.26 28.04 0.15 27.86 0.09 27.64 0.03 27.42-0.01 27.23-0.01 27.01-0.01 26.89 0.01 26.77 0.03 26.65 0.05 26.59 0.07 26.52 0.09 26.44 0.09 26.38 0.11 26.34 0.13 26.28 0.13 26.28 2.46 20.61 2.46 20.61 2.59 19.9 2.92 19.25 3.46 18.69 3.46 18.69 20.7 1.11 20.7 1.11 22.17-0.38 24.73-0.38 26.19 1.11 26.19 1.11 27.81 2.77 27.81 2.77 28.53 3.5 28.94 4.5 28.94 5.55 28.94 6.62 28.53 7.61 27.8 8.36Z"/><path fillRule="evenodd" d="M 13.91 5.09C 13.91 5.09 16.02 2.97 16.02 2.97 16.02 2.97 24.01 10.96 24.01 10.96 24.01 10.96 21.89 13.08 21.89 13.08 21.89 13.08 13.91 5.09 13.91 5.09Z" fill="rgb(165,165,165)" clip-path="url(#clip0)"/></g><path fillRule="evenodd" d="M 3.74 25.37C 3.74 25.37 7.38 24.17 7.38 24.17 7.38 24.17 8.35 23.86 8.35 23.86 8.41 23.8 8.48 23.75 8.55 23.69 8.55 23.69 25.65 6.26 25.65 6.26 25.84 6.06 25.94 5.83 25.94 5.55 25.94 5.29 25.84 5.04 25.67 4.87 25.67 4.87 24.05 3.21 24.05 3.21 23.91 3.07 23.69 3 23.45 3 23.2 3 22.96 3.08 22.84 3.21 22.84 3.21 5.6 20.8 5.6 20.8 5.49 20.91 5.43 21.02 5.4 21.17 5.36 21.37 5.31 21.56 5.23 21.75 5.23 21.75 3.74 25.37 3.74 25.37M 1.98 29.01C 1.81 29.01 1.65 28.98 1.49 28.95 1.35 28.91 1.19 28.87 1.06 28.79 0.81 28.67 0.55 28.45 0.38 28.22 0.26 28.04 0.15 27.86 0.09 27.64 0.03 27.42-0.01 27.23-0.01 27.01-0.01 26.89 0.01 26.77 0.03 26.65 0.05 26.59 0.07 26.52 0.09 26.44 0.09 26.38 0.11 26.34 0.13 26.28 0.13 26.28 2.46 20.61 2.46 20.61 2.59 19.9 2.92 19.25 3.46 18.69 3.46 18.69 20.7 1.11 20.7 1.11 21.43 0.37 22.44-0.01 23.45-0.01 24.45-0.01 25.46 0.37 26.19 1.11 26.19 1.11 27.81 2.77 27.81 2.77 28.53 3.5 28.94 4.5 28.94 5.55 28.94 6.62 28.53 7.61 27.8 8.36 27.8 8.36 10.56 25.92 10.56 25.92 10.51 25.98 10.45 26.04 10.39 26.06 10.25 26.22 10.12 26.32 9.96 26.42 9.88 26.48 9.79 26.54 9.69 26.57 9.65 26.59 9.59 26.61 9.54 26.63 9.54 26.63 8.29 27.03 8.29 27.03 8.29 27.03 2.53 28.93 2.53 28.93 2.44 28.95 2.34 28.99 2.24 28.99 2.15 29 2.07 29.01 1.98 29.01 1.98 29.01 1.98 29.01 1.98 29.01ZM 8.29 27.03C 8.29 27.03 9.54 26.63 9.54 26.63 9.59 26.61 9.65 26.59 9.69 26.57 9.26 26.83 8.8 26.99 8.29 27.03 8.29 27.03 8.29 27.03 8.29 27.03Z" fill="rgb(165,165,165)"/></g></svg>
