<?xml version="1.0" encoding="utf-8"?>
<svg xmlns="http://www.w3.org/2000/svg"
	xmlns:xlink="http://www.w3.org/1999/xlink"
	width="18px" height="18px" viewBox="0 0 18 18">
<path fillRule="evenodd" d="M 9 18C 4.03 18 0 13.97 0 9 0 4.03 4.03 0 9 0 13.97 0 18 4.03 18 9 18 13.97 13.97 18 9 18ZM 9 16C 12.87 16 16 12.87 16 9 16 7.3 15.37 5.75 14.35 4.54 14.35 4.54 5.07 14.79 5.07 14.79 6.19 15.55 7.54 16 9 16ZM 9 2C 5.13 2 2 5.13 2 9 2 10.69 2.62 12.22 3.62 13.43 3.62 13.43 12.89 3.18 12.89 3.18 11.78 2.44 10.44 2 9 2Z"/></svg>