<?xml version="1.0" encoding="UTF-8" standalone="no"?>
<svg width="19px" height="5px" viewBox="0 0 19 5" version="1.1" xmlns="http://www.w3.org/2000/svg" xmlns:xlink="http://www.w3.org/1999/xlink" xmlns:sketch="http://www.bohemiancoding.com/sketch/ns">
    <!-- Generator: Sketch 3.3.2 (12043) - http://www.bohemiancoding.com/sketch -->
    <title>dots</title>
    <desc>Created with Sketch.</desc>
    <defs></defs>
    <g id="Page-1" stroke="none" stroke-width="1"  fill-rule="evenodd" sketch:type="MSPage">
        <path d="M16.5415,4.4895 C15.4345,4.4895 14.5375,3.5925 14.5375,2.4855 C14.5375,1.3795 15.4345,0.4825 16.5415,0.4825 C17.6475,0.4825 18.5445,1.3795 18.5445,2.4855 C18.5445,3.5925 17.6475,4.4895 16.5415,4.4895 L16.5415,4.4895 Z M9.5415,4.4895 C8.4345,4.4895 7.5375,3.5925 7.5375,2.4855 C7.5375,1.3795 8.4345,0.4825 9.5415,0.4825 C10.6475,0.4825 11.5445,1.3795 11.5445,2.4855 C11.5445,3.5925 10.6475,4.4895 9.5415,4.4895 L9.5415,4.4895 Z M2.5415,4.4895 C1.4345,4.4895 0.5375,3.5925 0.5375,2.4855 C0.5375,1.3795 1.4345,0.4825 2.5415,0.4825 C3.6475,0.4825 4.5445,1.3795 4.5445,2.4855 C4.5445,3.5925 3.6475,4.4895 2.5415,4.4895 L2.5415,4.4895 Z" id="dots"  sketch:type="MSShapeGroup"></path>
    </g>
</svg>
