<svg xmlns="http://www.w3.org/2000/svg" xmlns:xlink="http://www.w3.org/1999/xlink" preserveAspectRatio="xMidYMid" width="10" height="11" viewBox="0 0 10 11">
  <defs></defs>
  <path d="M9.330,7.189 L5.946,10.550 C5.938,10.558 5.926,10.560 5.917,10.569 C5.645,10.829 5.279,10.994 4.874,10.994 C4.468,10.994 4.101,10.829 3.829,10.568 C3.821,10.560 3.809,10.558 3.801,10.550 L0.417,7.189 C-0.170,6.607 -0.170,5.653 0.417,5.070 C1.004,4.487 1.964,4.487 2.551,5.070 L3.365,5.878 L3.365,1.505 C3.365,0.681 4.044,0.006 4.874,0.006 C5.703,0.006 6.383,0.681 6.383,1.505 L6.383,5.878 L7.196,5.070 C7.783,4.487 8.743,4.487 9.330,5.070 C9.917,5.653 9.917,6.607 9.330,7.189 Z" class="cls-1"/>
</svg>
