<?xml version="1.0" encoding="UTF-8" standalone="no"?>
<svg width="16px" height="17px" viewBox="0 0 16 17" version="1.1" xmlns="http://www.w3.org/2000/svg" xmlns:xlink="http://www.w3.org/1999/xlink" xmlns:sketch="http://www.bohemiancoding.com/sketch/ns">
    <!-- Generator: Sketch 3.3.3 (12081) - http://www.bohemiancoding.com/sketch -->
    <title>Shape</title>
    <desc>Created with Sketch.</desc>
    <defs></defs>
    <g id="Page-1" stroke="none" stroke-width="1" fill-rule="evenodd" sketch:type="MSPage">
        <path d="M14.953,13.586 L12.711,15.828 C12.705,15.834 12.697,15.836 12.692,15.841 C12.512,16.015 12.269,16.125 12,16.125 C11.731,16.125 11.488,16.015 11.308,15.841 C11.302,15.835 11.295,15.834 11.289,15.828 L9.047,13.586 C8.658,13.197 8.658,12.56 9.047,12.171 C9.435,11.783 10.072,11.783 10.461,12.172 L11,12.711 L11,9.125 C11,8.575 11.45,8.125 12,8.125 C12.55,8.125 13,8.575 13,9.125 L13,12.711 L13.539,12.172 C13.928,11.783 14.565,11.783 14.953,12.171 C15.342,12.56 15.342,13.197 14.953,13.586 L14.953,13.586 Z M12,6.063 C11.448,6.063 11,5.615 11,5.063 L11,3 C11,2.448 10.551,2 10,2 L3,2 C2.449,2 2,2.448 2,3 L2,10.979 C2,11.53 2.449,11.979 3,11.979 L6,11.979 C6.552,11.979 6.999,12.427 6.999,12.979 C6.999,13.531 6.552,13.979 6,13.979 L3,13.979 C1.346,13.979 0,12.633 0,10.979 L0,3 C0,1.346 1.346,0 3,0 L10,0 C11.654,0 13,1.346 13,3 L13,5.063 C13,5.615 12.552,6.063 12,6.063 L12,6.063 Z" id="Shape" sketch:type="MSShapeGroup"></path>
    </g>
</svg>
