<svg xmlns="http://www.w3.org/2000/svg" xmlns:xlink="http://www.w3.org/1999/xlink" width="15" height="15" viewBox="0 0 15 15"><defs><path id="a" d="M1247.99 833.02c0 .54-.21 1.04-.6 1.43l-8.92 8.95a.27.27 0 0 1-.09.07.9.9 0 0 1-.22.18.6.6 0 0 1-.14.08c-.22.13-.46.21-.72.23l-2.99.97-.15.03c-.13.02-.26.01-.39-.02-.07-.02-.15-.04-.22-.08a.98.98 0 0 1-.35-.3c-.06-.08-.12-.17-.15-.28a1.2 1.2 0 0 1-.05-.33 1.11 1.11 0 0 1 .05-.29l.02-.08 1.2-2.89c.07-.36.24-.7.52-.98l8.93-8.96a2.06 2.06 0 0 1 2.84 0l.84.85c.38.37.59.88.59 1.42zm-5.35 3.34l-.83-.84-5.58 5.6v.01l-.02.01.01.01c0 .06-.02.13-.04.18l-.42 1.01 1.24-.4.04.04h.01l.08-.08zm3.34-3.34l-.84-.84-1.95 1.97.83.83z"/></defs><desc>Generated with Avocode.</desc><g transform="translate(-1233 -830)"><use xlink:href="#a"/></g></svg>
