<?xml version="1.0" encoding="utf-8"?>
<svg xmlns="http://www.w3.org/2000/svg"
	xmlns:xlink="http://www.w3.org/1999/xlink"
	width="18px" height="18px" viewBox="0 0 18 18">
<path fillRule="evenodd" d="M 9 18C 4.03 18 0 13.97 0 9 0 4.03 4.03 0 9 0 13.97 0 18 4.03 18 9 18 13.97 13.97 18 9 18ZM 9 2C 5.13 2 2 5.13 2 9 2 12.87 5.13 16 9 16 12.87 16 16 12.87 16 9 16 5.13 12.87 2 9 2ZM 8.78 11.68C 8.38 12.08 7.68 12.08 7.28 11.68 7.28 11.68 5.28 9.68 5.28 9.68 4.88 9.28 4.88 8.58 5.28 8.18 5.68 7.78 6.38 7.78 6.78 8.18 6.78 8.18 7.98 9.48 7.98 9.48 7.98 9.48 11.18 6.28 11.18 6.28 11.58 5.88 12.28 5.88 12.68 6.28 13.08 6.68 13.08 7.38 12.68 7.78 12.68 7.78 8.78 11.68 8.78 11.68Z"/></svg>