<?xml version="1.0" encoding="UTF-8" standalone="no"?>
<svg width="72px" height="72px" viewBox="0 0 72 72" version="1.1" xmlns="http://www.w3.org/2000/svg" xmlns:xlink="http://www.w3.org/1999/xlink" xmlns:sketch="http://www.bohemiancoding.com/sketch/ns">
    <!-- Generator: Sketch 3.3.2 (12043) - http://www.bohemiancoding.com/sketch -->
    <title>Shape</title>
    <desc>Created with Sketch.</desc>
    <defs></defs>
    <g id="Page-1" stroke="none" stroke-width="1"  fill-rule="evenodd" sketch:type="MSPage">
        <path d="M36.044356,71.395728 C55.6504646,71.395728 71.544356,55.5018366 71.544356,35.895728 C71.544356,16.2896194 55.6504646,0.395728 36.044356,0.395728 C16.4382474,0.395728 0.544356,16.2896194 0.544356,35.895728 C0.544356,55.5018366 16.4382474,71.395728 36.044356,71.395728 L36.044356,71.395728 Z M36.044356,68.395728 C18.0951016,68.395728 3.544356,53.8449824 3.544356,35.895728 C3.544356,17.9464736 18.0951016,3.395728 36.044356,3.395728 C53.9936104,3.395728 68.544356,17.9464736 68.544356,35.895728 C68.544356,53.8449824 53.9936104,68.395728 36.044356,68.395728 Z M36.044356,42.395728 C35.216356,42.395728 34.544356,41.723728 34.544356,40.895728 L34.544356,24.895728 C34.544356,24.067728 35.216356,23.395728 36.044356,23.395728 C36.872356,23.395728 37.544356,24.067728 37.544356,24.895728 L37.544356,40.895728 C37.544356,41.723728 36.872356,42.395728 36.044356,42.395728 Z M36.044356,45.395728 C36.872356,45.395728 37.544356,46.067728 37.544356,46.895728 C37.544356,47.723728 36.872356,48.395728 36.044356,48.395728 C35.216356,48.395728 34.544356,47.723728 34.544356,46.895728 C34.544356,46.067728 35.216356,45.395728 36.044356,45.395728 L36.044356,45.395728 L36.044356,45.395728 Z" id="Shape"  sketch:type="MSShapeGroup"></path>
    </g>
</svg>
