<svg id="SvgjsSvg1000" xmlns="http://www.w3.org/2000/svg" version="1.1" xmlns:xlink="http://www.w3.org/1999/xlink" xmlns:svgjs="http://svgjs.com/svgjs" width="18" height="19">
  <defs id="SvgjsDefs1001"></defs>
  <path id="SvgjsPath1007" d="M703 529.684C698.038 529.684 694 533.819 694 538.9C694 541.713 695.23 544.3349999999999 697.376 546.096C697.773 546.423 698.1999999999999 546.716 698.644 546.968C698.644 546.968 698.627 545.669 698.627 544.4979999999999C696.957 543.1279999999999 696 541.088 696 538.9C696 534.948 699.14 531.732 703 531.732C706.86 531.732 710 534.948 710 538.9L712 538.9C712 533.819 707.962 529.684 703 529.684ZM701 536L701 546L702.248 545.934L705.0690000000001 544.223L707.152 547.636L708.8480000000001 546.5509999999999L706.7900000000001 543.1779999999999L710.0000000000001 540.9999999999999L709.0000000000001 540.0589999999999L702.2480000000002 535.9629999999999ZM703 538.617L706.984 540.949L703 543.28Z " transform="matrix(1,0,0,1,-694,-529)"></path>
</svg>
