<svg xmlns="http://www.w3.org/2000/svg" width="18" height="18" viewBox="0 0 18 18">
  <path id="fires.svg" class="cls-1" d="M1399,742h-1.08a6.958,6.958,0,0,0-5.92-5.92V735a1,1,0,0,0-2,0v1.08a6.958,6.958,0,0,0-5.92,5.92H1383a1,1,0,0,0,0,2h1.08a6.958,6.958,0,0,0,5.92,5.92V751a1,1,0,0,0,2,0v-1.08a6.958,6.958,0,0,0,5.92-5.92H1399A1,1,0,0,0,1399,742Zm-3.07,1.82a5,5,0,1,1,0-1.64A4.838,4.838,0,0,1,1395.93,743.82ZM1393,743a2,2,0,1,1-2-2A2.006,2.006,0,0,1,1393,743Z" transform="translate(-1382 -734)"/>
</svg>
