<?xml version="1.0" encoding="utf-8"?>
<svg xmlns="http://www.w3.org/2000/svg"
	xmlns:xlink="http://www.w3.org/1999/xlink"
	width="16px" height="16px" viewBox="0 0 16 16">
<path fillRule="evenodd" d="M 15.1 6.13C 15.1 6.13 14.36 6.13 14.36 6.13 14.15 6.13 13.99 6.13 13.99 6.13 13.99 6.13 13.82 6.13 13.62 6.13 13.62 6.13 9.8 6.13 9.8 6.13 9.47 6.14 8.83 5.75 9.4 5.09 9.4 5.09 10.22 4.29 10.93 3.61 8.84 2.36 6.07 2.61 4.26 4.37 3.12 5.49 2.6 6.98 2.7 8.44 2.7 8.44-0.02 8.44-0.02 8.44-0.11 6.31 0.67 4.14 2.35 2.51 5.22-0.29 9.71-0.55 12.89 1.71 13.51 1.11 14.41 0.26 14.41 0.26 14.96-0.26 15.49 0.19 15.46 0.66 15.46 0.66 15.46 5.77 15.46 5.77 15.46 5.97 15.3 6.13 15.1 6.13ZM 0.9 9.87C 0.9 9.87 1.64 9.87 1.64 9.87 1.85 9.87 2.01 9.87 2.01 9.87 2.01 9.87 2.18 9.87 2.38 9.87 2.38 9.87 6.2 9.87 6.2 9.87 6.52 9.86 7.17 10.25 6.6 10.92 6.6 10.92 5.78 11.71 5.07 12.4 7.16 13.64 9.93 13.39 11.74 11.63 12.88 10.51 13.4 9.02 13.3 7.56 13.3 7.56 13.3 7.56 13.3 7.56 13.3 7.56 16.02 7.56 16.02 7.56 16.11 9.7 15.33 11.86 13.65 13.5 10.78 16.29 6.29 16.55 3.11 14.29 2.49 14.89 1.58 15.74 1.58 15.74 1.04 16.26 0.51 15.81 0.54 15.34 0.54 15.34 0.54 10.23 0.54 10.23 0.54 10.03 0.7 9.87 0.9 9.87Z"/></svg>