<svg xmlns="http://www.w3.org/2000/svg" xmlns:xlink="http://www.w3.org/1999/xlink" preserveAspectRatio="xMidYMid" width="20" height="17" viewBox="0 0 20 17">
  <path d="M19.933,8.383 C17.773,14.064 11.569,16.863 6.061,14.632 C5.835,14.540 5.610,14.439 5.394,14.337 C5.394,14.337 3.715,16.072 3.715,16.072 C3.322,16.458 2.704,16.447 2.331,16.052 C1.958,15.656 1.958,15.027 2.331,14.642 C2.331,14.642 2.674,14.277 2.674,14.277 C2.674,14.277 3.656,13.272 3.656,13.272 C3.656,13.272 3.656,13.262 3.656,13.262 C3.656,13.262 5.011,11.862 5.011,11.862 C5.011,11.862 5.021,11.862 5.021,11.862 C5.021,11.862 6.739,10.077 6.739,10.077 C6.739,10.077 7.318,9.489 7.318,9.489 C7.131,9.093 7.023,8.647 7.023,8.180 C7.023,6.496 8.339,5.127 9.978,5.127 C10.430,5.127 10.862,5.238 11.245,5.421 C11.245,5.421 11.608,5.045 11.608,5.045 C11.618,5.035 11.637,5.025 11.657,5.005 C11.657,5.005 13.110,3.493 13.110,3.493 C13.110,3.493 14.533,2.022 14.533,2.022 C14.533,2.022 15.947,0.572 15.947,0.572 C15.947,0.562 15.957,0.551 15.957,0.551 C15.957,0.551 16.212,0.288 16.212,0.288 C16.595,-0.108 17.213,-0.108 17.596,0.288 C17.979,0.683 17.979,1.333 17.596,1.728 C17.596,1.728 16.281,3.088 16.281,3.088 C17.910,4.315 19.187,6.009 19.933,7.977 C19.992,8.109 19.992,8.251 19.933,8.383 ZM17.783,8.038 C17.145,6.608 16.153,5.390 14.916,4.498 C14.916,4.498 12.639,6.851 12.639,6.851 C12.825,7.247 12.933,7.703 12.933,8.180 C12.933,9.874 11.608,11.233 9.978,11.233 C9.517,11.233 9.075,11.122 8.692,10.929 C8.692,10.929 6.827,12.856 6.827,12.856 C11.029,14.581 15.859,12.623 17.783,8.332 C17.832,8.241 17.832,8.129 17.783,8.038 ZM2.164,8.038 C2.115,8.129 2.115,8.241 2.164,8.332 C2.517,9.123 2.988,9.854 3.548,10.503 C3.548,10.503 2.183,11.923 2.183,11.923 C1.251,10.919 0.515,9.712 0.014,8.383 C-0.045,8.251 -0.045,8.109 0.014,7.977 C1.997,2.763 7.377,-0.017 12.501,1.282 C12.501,1.282 10.901,2.935 10.901,2.935 C7.337,2.530 3.754,4.487 2.164,8.038 Z"/>
</svg>
