<?xml version="1.0" encoding="UTF-8"?>
<svg width="68px" height="68px" viewBox="0 0 68 68" version="1.1" xmlns="http://www.w3.org/2000/svg" xmlns:xlink="http://www.w3.org/1999/xlink">
    <!-- Generator: Sketch 47.1 (45422) - http://www.bohemiancoding.com/sketch -->
    <title>ic-empty-small-list</title>
    <desc>Created with Sketch.</desc>
    <defs></defs>
    <g id="Symbols" stroke="none" stroke-width="1" fill="none" fill-rule="evenodd">
        <g id="Empty/Small/empty-list-small" fill="#A4A4A4">
            <g id="Icon/Empty/ic-empty-list-small">
                <path d="M22.5,42.5 C21.948,42.5 21.5,42.948 21.5,43.5 C21.5,44.052 21.948,44.5 22.5,44.5 C23.052,44.5 23.5,44.052 23.5,43.5 C23.5,42.948 23.052,42.5 22.5,42.5 M22.5,46 C21.119,46 20,44.881 20,43.5 C20,42.119 21.119,41 22.5,41 C23.881,41 25,42.119 25,43.5 C25,44.881 23.881,46 22.5,46 M22.5,33.5 C21.948,33.5 21.5,33.948 21.5,34.5 C21.5,35.052 21.948,35.5 22.5,35.5 C23.052,35.5 23.5,35.052 23.5,34.5 C23.5,33.948 23.052,33.5 22.5,33.5 M22.5,37 C21.119,37 20,35.881 20,34.5 C20,33.119 21.119,32 22.5,32 C23.881,32 25,33.119 25,34.5 C25,35.881 23.881,37 22.5,37 M22.5,24.5 C21.948,24.5 21.5,24.948 21.5,25.5 C21.5,26.052 21.948,26.5 22.5,26.5 C23.052,26.5 23.5,26.052 23.5,25.5 C23.5,24.948 23.052,24.5 22.5,24.5 M22.5,28 C21.119,28 20,26.881 20,25.5 C20,24.119 21.119,23 22.5,23 C23.881,23 25,24.119 25,25.5 C25,26.881 23.881,28 22.5,28 M30,42 L46,42 C46.828,42 47.5,42.672 47.5,43.5 C47.5,44.328 46.828,45 46,45 L30,45 C29.172,45 28.5,44.328 28.5,43.5 C28.5,42.672 29.172,42 30,42 M46,27 L30,27 C29.172,27 28.5,26.328 28.5,25.5 C28.5,24.672 29.172,24 30,24 L46,24 C46.828,24 47.5,24.672 47.5,25.5 C47.5,26.328 46.828,27 46,27 M46,36 L30,36 C29.172,36 28.5,35.328 28.5,34.5 C28.5,33.672 29.172,33 30,33 L46,33 C46.828,33 47.5,33.672 47.5,34.5 C47.5,35.328 46.828,36 46,36" id="ic-no-list-small"></path>
            </g>
        </g>
    </g>
</svg>