<svg xmlns="http://www.w3.org/2000/svg" xmlns:xlink="http://www.w3.org/1999/xlink" preserveAspectRatio="xMidYMid" width="54.06" height="66.969" viewBox="0 0 54.06 66.969">
  <defs>
    <style>
      .cls-1 {
        fill: #ccc;
        fill-rule: evenodd;
        width: 61px;
        height: 67px;
      }

      .cls-2 {
        stroke: #ccc;
        stroke-linecap: round;
        stroke-linejoin: round;
        stroke-width: 3px;
        fill: none;
      }
    </style>
  </defs>
  <g>
    <path d="M54.054,63.977 C54.054,65.627 52.699,66.970 51.034,66.970 L3.027,66.970 C1.362,66.970 0.007,65.627 0.007,63.977 L0.007,2.988 C0.007,1.337 1.362,-0.005 3.027,-0.005 L36.247,-0.005 L36.247,0.206 C36.776,0.025 37.387,0.131 37.807,0.548 L53.613,16.462 C53.793,16.640 53.898,16.856 53.968,17.082 L54.054,17.082 L54.054,63.977 ZM35.049,2.988 L3.027,2.988 L3.027,63.977 L51.034,63.977 L51.034,18.953 L38.069,18.953 C36.404,18.953 35.049,17.611 35.049,15.960 L35.049,2.988 ZM48.877,15.960 L38.007,5.015 L38.007,15.960 L48.877,15.960 Z" class="cls-1"/>
    <circle cx="27.03" cy="39.969" r="12" class="cls-2"/>
    <path d="M15.725,52.688 L14.335,51.250 L39.335,27.250 L40.725,28.688 L15.725,52.688 Z" class="cls-1"/>
  </g>
</svg>
