<?xml version="1.0" encoding="UTF-8"?>
<svg width="70px" height="70px" viewBox="0 0 70 70" version="1.1" xmlns="http://www.w3.org/2000/svg" xmlns:xlink="http://www.w3.org/1999/xlink">
    <!-- Generator: Sketch 47.1 (45422) - http://www.bohemiancoding.com/sketch -->
    <title>ic-no-list-large</title>
    <desc>Created with Sketch.</desc>
    <defs></defs>
    <g id="Icons" stroke="none" stroke-width="1" fill="none" fill-rule="evenodd">
        <g id="Medium-Icons" transform="translate(-507.000000, -2024.000000)">
            <g id="Icon/Empty/ic-no-list-large" transform="translate(507.000000, 2024.000000)">
                <rect id="#" x="0" y="0" width="70" height="70"></rect>
                <path d="M57,17 L46,6 L46,17 L57,17 Z M43.0173308,4 L11,4 L11,65 L59,65 L59,19.9678795 L46.0368905,19.9678795 C44.3721332,19.9678795 43.0173308,18.6256374 43.0173308,16.9743396 L43.0173308,4 Z M62,65.0058828 C62,66.6564987 60.6461783,68 58.9826262,68 L11.0173738,68 C9.35382167,68 8,66.6564987 8,65.0058828 L8,3.99411721 C8,2.34250093 9.35382167,1 11.0173738,1 L44.2084852,1 L44.2084852,1.21107876 C44.7370252,1.0300112 45.3474938,1.13605077 45.7671286,1.55320642 L61.5593835,17.4731467 C61.739227,17.6512131 61.8441357,17.8672938 61.9140748,18.0933781 L62,18.0933781 L62,65.0058828 Z M23.5,46.5 C22.948,46.5 22.5,46.948 22.5,47.5 C22.5,48.052 22.948,48.5 23.5,48.5 C24.052,48.5 24.5,48.052 24.5,47.5 C24.5,46.948 24.052,46.5 23.5,46.5 M23.5,50 C22.119,50 21,48.881 21,47.5 C21,46.119 22.119,45 23.5,45 C24.881,45 26,46.119 26,47.5 C26,48.881 24.881,50 23.5,50 M23.5,37.5 C22.948,37.5 22.5,37.948 22.5,38.5 C22.5,39.052 22.948,39.5 23.5,39.5 C24.052,39.5 24.5,39.052 24.5,38.5 C24.5,37.948 24.052,37.5 23.5,37.5 M23.5,41 C22.119,41 21,39.881 21,38.5 C21,37.119 22.119,36 23.5,36 C24.881,36 26,37.119 26,38.5 C26,39.881 24.881,41 23.5,41 M23.5,28.5 C22.948,28.5 22.5,28.948 22.5,29.5 C22.5,30.052 22.948,30.5 23.5,30.5 C24.052,30.5 24.5,30.052 24.5,29.5 C24.5,28.948 24.052,28.5 23.5,28.5 M23.5,32 C22.119,32 21,30.881 21,29.5 C21,28.119 22.119,27 23.5,27 C24.881,27 26,28.119 26,29.5 C26,30.881 24.881,32 23.5,32 M30.5,46 L46.5,46 C47.328,46 48,46.672 48,47.5 C48,48.328 47.328,49 46.5,49 L30.5,49 C29.672,49 29,48.328 29,47.5 C29,46.672 29.672,46 30.5,46 M46.5,31 L30.5,31 C29.672,31 29,30.328 29,29.5 C29,28.672 29.672,28 30.5,28 L46.5,28 C47.328,28 48,28.672 48,29.5 C48,30.328 47.328,31 46.5,31 M46.5,40 L30.5,40 C29.672,40 29,39.328 29,38.5 C29,37.672 29.672,37 30.5,37 L46.5,37 C47.328,37 48,37.672 48,38.5 C48,39.328 47.328,40 46.5,40" id="Fill-1" fill="#CCCCCC"></path>
            </g>
        </g>
    </g>
</svg>