<?xml version="1.0" encoding="utf-8"?>
<svg xmlns="http://www.w3.org/2000/svg"
	xmlns:xlink="http://www.w3.org/1999/xlink"
	width="16px" height="16px" viewBox="0 0 16 16">
<path fillRule="evenodd" d="M 15.72 4.69C 15.71 4.7 15.71 4.7 15.71 4.71 15.71 4.71 13.48 6.91 13.48 6.91 13.09 7.3 12.46 7.3 12.08 6.91 11.69 6.53 11.69 5.91 12.08 5.52 12.08 5.52 12.61 4.99 12.61 4.99 12.61 4.99 9.98 4.98 9.98 4.98 9.43 4.98 8.99 5.43 8.99 5.98 8.99 5.98 8.99 9.02 8.99 9.02 8.99 9.57 8.55 10.02 8.01 10.02 7.47 10.02 7.03 9.57 7.03 9.02 7.03 9.02 7.03 5.98 7.03 5.98 7.03 4.34 8.35 3 9.98 3 9.98 3 12.61 3.03 12.61 3.03 12.61 3.03 12.08 2.5 12.08 2.5 11.69 2.11 11.69 1.49 12.08 1.1 12.46 0.72 13.09 0.72 13.48 1.1 13.48 1.1 15.71 3.31 15.71 3.31 15.71 3.32 15.71 3.32 15.72 3.33 15.89 3.51 16 3.75 16 4.01 16 4.27 15.89 4.51 15.72 4.69ZM 4.02 4.99C 4.02 4.99 2.98 4.99 2.98 4.99 2.43 4.99 1.98 5.43 1.98 5.98 1.98 5.98 1.98 13.02 1.98 13.02 1.98 13.56 2.43 14 2.98 14 2.98 14 11.02 14 11.02 14 11.57 14 12.01 13.56 12.01 13.02 12.01 13.02 12.01 10.07 12.01 10.07 12.01 9.52 12.46 9.08 13 9.08 13.55 9.08 14 9.52 14 10.07 14 10.07 14 13.02 14 13.02 14 14.65 12.66 15.97 11.02 15.97 11.02 15.97 2.98 15.97 2.98 15.97 1.34 15.97-0 14.65-0 13.02-0 13.02-0 5.98-0 5.98-0 4.35 1.34 3.03 2.98 3.03 2.98 3.03 4.02 3.03 4.02 3.03 4.57 3.03 5.02 3.47 5.02 4.01 5.02 4.55 4.57 4.99 4.02 4.99Z"/></svg>
