<svg xmlns="http://www.w3.org/2000/svg" width="17" height="17" viewBox="0 0 17 17">
    <path fill-rule="evenodd" d="M11 11.93v2.067a1 1 0 0 1-1 1.001H3a1 1 0 0 1-1-1.001V5.993a1 1 0 0 1 1-1.001h1A1 1 0 0 0 4 3H3a3.008 3.008 0 0 0-3 3.002v7.995a3.007 3.007 0 0 0 3 3.002h7a3.007 3.007 0 0 0 3-3.002V11.93a1 1 0 1 0-2 0zM9.75 4C8.75 4 8 3.246 8 1.99 8 .734 8.75 0 9.75 0s1.75.734 1.75 1.99S10.75 4 9.75 4zm0-1.024c-.234 0-.45-.23-.45-1.009 0-.778.216-.99.45-.99s.45.212.45.99c0 .78-.216 1.01-.45 1.01zm4.4-1.67a.75.75 0 0 1 .274 1.024l-2.75 4.763a.75.75 0 1 1-1.299-.75l2.75-4.763a.75.75 0 0 1 1.025-.275zM14.75 9c-1 0-1.75-.754-1.75-2.01C13 5.734 13.75 5 14.75 5s1.75.734 1.75 1.99S15.75 9 14.75 9zM6 9H5a1 1 0 1 0 0 2h1v1a1 1 0 0 0 2 0v-1h1a1 1 0 0 0 0-2H8V8a1 1 0 1 0-2 0v1zm8.75-1.02c-.234 0-.45-.23-.45-1.009 0-.779.216-.991.45-.991s.45.212.45.991-.216 1.009-.45 1.009z"/>
</svg>
