<?xml version="1.0" encoding="UTF-8" standalone="no"?>
<svg width="19px" height="18px" viewBox="0 0 19 18" version="1.1" xmlns="http://www.w3.org/2000/svg" xmlns:xlink="http://www.w3.org/1999/xlink" xmlns:sketch="http://www.bohemiancoding.com/sketch/ns">
    <!-- Generator: Sketch 3.3.2 (12043) - http://www.bohemiancoding.com/sketch -->
    <title>info</title>
    <desc>Created with Sketch.</desc>
    <defs></defs>
    <g id="Page-1" stroke="none" stroke-width="1"  fill-rule="evenodd" sketch:type="MSPage">
        <path d="M9.77496875,18 C4.81496875,18 0.77496875,13.96 0.77496875,9 C0.77496875,4.04 4.81496875,0 9.77496875,0 C14.7349687,0 18.7749687,4.04 18.7749687,9 C18.7749687,13.96 14.7349687,18 9.77496875,18 L9.77496875,18 Z M9.77496875,2 C5.91496875,2 2.77496875,5.14 2.77496875,9 C2.77496875,12.86 5.91496875,16 9.77496875,16 C13.6349687,16 16.7749687,12.86 16.7749687,9 C16.7749687,5.14 13.6349687,2 9.77496875,2 L9.77496875,2 Z M11.7749687,14 L7.77496875,14 C7.22496875,14 6.77496875,13.55 6.77496875,13 C6.77496875,12.45 7.22496875,12 7.77496875,12 L8.77496875,12 L8.77496875,9 C8.22496875,9 7.77496875,8.55 7.77496875,8 C7.77496875,7.45 8.22496875,7 8.77496875,7 L9.77496875,7 C10.3249687,7 10.7749687,7.45 10.7749687,8 L10.7749687,12 L11.7749687,12 C12.3249687,12 12.7749687,12.45 12.7749687,13 C12.7749687,13.55 12.3249687,14 11.7749687,14 L11.7749687,14 Z M9.77496875,6 C9.22496875,6 8.77496875,5.55 8.77496875,5 C8.77496875,4.45 9.22496875,4 9.77496875,4 C10.3249687,4 10.7749687,4.45 10.7749687,5 C10.7749687,5.55 10.3249687,6 9.77496875,6 L9.77496875,6 Z" id="info"  sketch:type="MSShapeGroup"></path>
    </g>
</svg>
