<?xml version="1.0" encoding="UTF-8"?>
<svg width="15px" height="20px" viewBox="0 0 15 20" version="1.1" xmlns="http://www.w3.org/2000/svg" xmlns:xlink="http://www.w3.org/1999/xlink">
    <!-- Generator: Sketch 46.2 (44496) - http://www.bohemiancoding.com/sketch -->
    <title>insights</title>
    <desc>Created with Sketch.</desc>
    <defs></defs>
    <g id="Symbols" stroke="none" stroke-width="1" fill-rule="evenodd">
      <path d="M5.3638,18.0003 L9.3638,18.0003 C9.9168,18.0003 10.3638,18.4473 10.3638,19.0003 C10.3638,19.5533 9.9168,20.0003 9.3638,20.0003 L5.3638,20.0003 C4.8118,20.0003 4.3638,19.5533 4.3638,19.0003 C4.3638,18.4473 4.8118,18.0003 5.3638,18.0003 M0.2925,2.929 L0.2925,2.929 C0.6835,2.539 1.3165,2.539 1.7075,2.929 L2.4145,3.637 C2.8045,4.027 2.8045,4.66 2.4145,5.051 C2.0235,5.441 1.3905,5.441 1.0005,5.051 L0.2925,4.344 C-0.0975,3.953 -0.0975,3.32 0.2925,2.929 M14.4355,2.929 C14.8255,3.32 14.8255,3.953 14.4355,4.344 L13.7285,5.051 C13.3375,5.441 12.7035,5.441 12.3135,5.051 C11.9235,4.66 11.9235,4.027 12.3135,3.637 L13.0215,2.929 C13.4115,2.539 14.0445,2.539 14.4355,2.929 M7.3635,0 C7.9165,0 8.3635,0.448 8.3635,1 L8.3635,2 C8.3635,2.553 7.9165,3 7.3635,3 C6.8115,3 6.3635,2.553 6.3635,2 L6.3635,1 C6.3635,0.448 6.8115,0 7.3635,0 M9.2417,15.0003 C9.2377,14.5623 9.2897,14.1413 9.3987,13.7383 L9.4907,13.3983 L9.7757,13.1913 C10.7057,12.5163 11.3637,11.2603 11.3637,10.0003 C11.3637,7.7773 9.5817,6.0003 7.3637,6.0003 C5.1457,6.0003 3.3637,7.7773 3.3637,10.0003 C3.3637,11.2773 4.0457,12.5663 4.9307,13.1773 L5.3067,13.4363 L5.3577,13.8903 C5.4057,14.3243 5.4397,14.6943 5.4577,15.0003 L9.2417,15.0003 Z M11.2417,14.9803 C11.2417,16.1043 10.3457,17.0003 9.2417,17.0003 L5.4577,17.0003 C4.3997,17.0003 3.5247,16.1763 3.4617,15.1203 C3.4507,14.9503 3.4347,14.7533 3.4137,14.5293 C2.1937,13.4903 1.3637,11.7593 1.3637,10.0003 C1.3637,6.6713 4.0427,4.0003 7.3637,4.0003 C10.6837,4.0003 13.3637,6.6713 13.3637,10.0003 C13.3637,11.7663 12.5327,13.4833 11.2677,14.5603 C11.2497,14.6943 11.2407,14.8343 11.2417,14.9803 L11.2417,14.9803 Z" id="insights"></path>
    </g>
</svg>
