<svg id="SvgjsSvg1008" xmlns="http://www.w3.org/2000/svg" version="1.1" xmlns:xlink="http://www.w3.org/1999/xlink" xmlns:svgjs="http://svgjs.com/svgjs" width="18" height="18">
  <defs id="SvgjsDefs1009"></defs>
  <path id="SvgjsPath1010" d="M940.027 528.991C938.3810000000001 528.991 936.985 530.384 936.985 532.028L936.985 536.26C936.985 537.263 937.514 538.149 938.277 538.693C938.3720000000001 538.826 938.484 538.958 938.604 539.077L944.6450000000001 545.125C945.2270000000001 545.706 945.9970000000001 545.997 946.7630000000001 545.997C947.5300000000002 545.997 948.2980000000001 545.707 948.8800000000001 545.125L953.1110000000001 540.897C954.2740000000001 539.734 954.2750000000001 537.831 953.1110000000001 536.668L947.0760000000001 530.62C946.9600000000002 530.504 946.8310000000001 530.384 946.7010000000001 530.291C946.1580000000001 529.522 945.2670000000002 528.9910000000001 944.2600000000001 528.9910000000001ZM944.924 531.452L945.502 531.931C945.5459999999999 531.9630000000001 945.611 531.994 945.6479999999999 532.028L951.6919999999999 538.077C951.9429999999999 538.328 951.9849999999999 538.626 951.9849999999999 538.782C951.9849999999999 538.937 951.9499999999999 539.236 951.699 539.4870000000001L947.471 543.715C947.22 543.966 946.922 544.004 946.766 544.004C946.61 544.004 946.312 543.966 946.0609999999999 543.716L940.0269999999999 537.669C939.9889999999999 537.6279999999999 939.959 537.582 939.9279999999999 537.537L939.4339999999999 537.0690000000001C939.3049999999998 536.9770000000001 938.9789999999998 536.714 938.9789999999998 536.2600000000001L938.9789999999998 532.0280000000001C938.9789999999998 531.6730000000001 939.1889999999999 531.4120000000001 939.2989999999999 531.3020000000001C939.4089999999999 531.1920000000001 939.6719999999999 530.9840000000002 940.0269999999998 530.9840000000002L943.9639999999998 530.9840000000002C943.9639999999998 530.9840000000002 944.5409999999998 531.0930000000002 944.9239999999999 531.4520000000001ZM941.031 534C941.031 534.552 941.486 535 942.0469999999999 535C942.608 535 943.0629999999999 534.552 943.0629999999999 534C943.0629999999999 533.448 942.6079999999998 533 942.0469999999999 533C941.4859999999999 533 941.031 533.448 941.031 534Z " transform="matrix(1,0,0,1,-936,-528)"></path>
</svg>
