<?xml version="1.0" encoding="UTF-8" standalone="no"?>
<svg width="17px" height="19px" viewBox="0 0 17 19" version="1.1" xmlns="http://www.w3.org/2000/svg" xmlns:xlink="http://www.w3.org/1999/xlink" xmlns:sketch="http://www.bohemiancoding.com/sketch/ns">
    <!-- Generator: Sketch 3.3.2 (12043) - http://www.bohemiancoding.com/sketch -->
    <title>hide</title>
    <desc>Created with Sketch.</desc>
    <defs></defs>
    <g id="Page-1" stroke="none" stroke-width="1" fill-rule="evenodd" sketch:type="MSPage">
        <path d="M14.8368125,7.425 L13.8368125,7.425 L13.8368125,5.425 C13.8368125,2.665 11.5968125,0.425 8.8368125,0.425 C6.0768125,0.425 3.8368125,2.665 3.8368125,5.425 L3.8368125,7.425 L2.8368125,7.425 C1.7368125,7.425 0.8368125,8.325 0.8368125,9.425 L0.8368125,16.425 C0.8368125,17.525 1.7368125,18.425 2.8368125,18.425 L14.8368125,18.425 C15.9368125,18.425 16.8368125,17.525 16.8368125,16.425 L16.8368125,9.425 C16.8368125,8.325 15.9368125,7.425 14.8368125,7.425 L14.8368125,7.425 Z M11.8368125,7.425 L5.8368125,7.425 L5.8368125,5.425 C5.8368125,3.775 7.1868125,2.425 8.8368125,2.425 C10.4868125,2.425 11.8368125,3.775 11.8368125,5.425 L11.8368125,7.425 L11.8368125,7.425 Z" id="hide" sketch:type="MSShapeGroup"></path>
    </g>
</svg>
