<?xml version="1.0" encoding="utf-8"?>
<svg xmlns="http://www.w3.org/2000/svg"
	xmlns:xlink="http://www.w3.org/1999/xlink"
	width="62px" height="44px" viewBox="0 0 62 44">
<path fillRule="evenodd" d="M 62 4.2C 62 4.2 62 3.95 62 3.95 62 3.05 61.59 1.98 60.86 1.24 60.86 1.24 60.78 1.16 60.78 1.16 60.78 1.16 60.7 1.16 60.7 1.07 60.53 0.91 60.37 0.83 60.21 0.66 60.12 0.66 60.12 0.58 60.04 0.58 59.88 0.5 59.63 0.41 59.47 0.34 59.39 0.34 59.39 0.25 59.3 0.25 59.06 0.17 58.81 0.08 58.57 0.08 58.49 0.08 58.49 0.08 58.41 0.08 58.17 0.08 57.83 0 57.51 0 57.51 0 4.4 0 4.4 0 4.07 0 3.75 0 3.42 0.08 3.34 0.08 3.25 0.08 3.18 0.17 2.94 0.25 2.69 0.25 2.53 0.34 2.45 0.34 2.45 0.42 2.37 0.42 2.2 0.5 1.96 0.59 1.79 0.66 1.79 0.66 1.71 0.75 1.71 0.75 1.54 0.83 1.39 0.99 1.22 1.07 1.14 1.16 1.05 1.24 0.98 1.32 0.41 1.97 0.08 2.72-0 3.54-0 3.62-0 3.62-0 3.71-0 3.71-0 40.3-0 40.3-0 40.38-0 40.38-0 40.47 0.17 41.62 0.73 42.61 1.54 43.18 2.27 43.67 3.17 44 4.23 44 4.23 44 57.68 44 57.68 44 57.68 44 57.68 44 57.76 44 57.76 44 57.76 44 57.76 44 58 44 58.33 44 58.57 43.92 58.66 43.92 58.66 43.92 58.74 43.92 58.98 43.83 59.23 43.83 59.39 43.75 59.39 43.75 59.47 43.75 59.47 43.75 61.26 43.09 61.99 41.53 61.99 40.05 61.99 40.05 61.99 39.8 61.99 39.8 61.99 39.8 61.99 39.72 61.99 39.72 61.99 39.72 61.99 39.64 61.99 39.64 61.99 39.64 61.99 4.44 61.99 4.44 61.99 4.36 61.99 4.36 61.99 4.27 62 4.28 62 4.28 62 4.2ZM 56.8 3.05C 56.8 3.05 31.17 28.29 31.17 28.29 31.17 28.29 25.31 22.53 25.31 22.53 25.31 22.53 25.31 22.53 25.31 22.53 25.31 22.53 5.21 3.04 5.21 3.04 5.21 3.04 56.8 3.04 56.8 3.04 56.8 3.04 56.8 3.05 56.8 3.05ZM 3.02 39.31C 3.02 39.31 3.02 5.1 3.02 5.1 3.02 5.1 21.97 23.52 21.97 23.52 21.97 23.52 3.02 39.31 3.02 39.31ZM 30.36 41.03C 30.36 41.03 5.7 41.03 5.7 41.03 5.7 41.03 24.17 25.73 24.17 25.73 24.17 25.73 30.11 31.57 30.11 31.57 30.35 31.82 30.6 31.9 30.84 31.99 30.84 31.99 30.92 31.99 30.92 31.99 31 31.99 31 31.99 31.09 31.99 31.09 31.99 31.09 31.99 31.09 31.99 31.17 31.99 31.25 31.99 31.25 31.99 31.25 31.99 31.34 31.99 31.34 31.99 31.58 31.9 31.91 31.82 32.07 31.57 32.07 31.57 37.68 26.06 37.68 26.06 37.68 26.06 56.22 41.03 56.22 41.03 56.22 41.03 30.36 41.03 30.36 41.03 30.36 41.03 30.36 41.03 30.36 41.03ZM 58.99 39.39C 58.99 39.39 39.95 23.85 39.95 23.85 39.95 23.85 58.99 5.1 58.99 5.1 58.99 5.1 58.99 39.39 58.99 39.39Z"  /></svg>
