<?xml version="1.0" encoding="UTF-8" standalone="no"?>
<svg width="19px" height="14px" viewBox="0 0 19 14" version="1.1" xmlns="http://www.w3.org/2000/svg" xmlns:xlink="http://www.w3.org/1999/xlink" xmlns:sketch="http://www.bohemiancoding.com/sketch/ns">
    <!-- Generator: Sketch 3.3.2 (12043) - http://www.bohemiancoding.com/sketch -->
    <title>mail</title>
    <desc>Created with Sketch.</desc>
    <defs></defs>
    <g id="Page-1" stroke="none" stroke-width="1"  fill-rule="evenodd" sketch:type="MSPage">
        <path d="M16.8368125,13.08125 L2.8368125,13.08125 C1.7368125,13.08125 0.8368125,12.18125 0.8368125,11.08125 L0.8368125,2.08125 C0.8368125,1.90125 0.8568125,1.73125 0.9068125,1.57125 L9.8368125,10.49125 L18.7668125,1.57125 C18.8168125,1.73125 18.8368125,1.90125 18.8368125,2.08125 L18.8368125,11.08125 C18.8368125,12.18125 17.9368125,13.08125 16.8368125,13.08125 L16.8368125,13.08125 Z M2.3268125,0.15125 C2.4868125,0.10125 2.6568125,0.08125 2.8368125,0.08125 L16.8368125,0.08125 C17.0168125,0.08125 17.1868125,0.10125 17.3468125,0.15125 L9.8368125,7.67125 L2.3268125,0.15125 L2.3268125,0.15125 Z" id="mail" opacity="0.8"  sketch:type="MSShapeGroup"></path>
    </g>
</svg>
