<svg id="SvgjsSvg1000" xmlns="http://www.w3.org/2000/svg" version="1.1" xmlns:xlink="http://www.w3.org/1999/xlink"
     xmlns:svgjs="http://svgjs.com/svgjs" width="16" height="15">
  <defs id="SvgjsDefs1001"></defs>
  <path id="SvgjsPath1007"
        d="M139.083 92.9999L152.917 92.9999C153.51500000000001 92.9999 154 93.4478 154 94.0001C154 94.5523 153.515 95 152.917 95L139.083 95C138.48499999999999 95 138 94.5523 138 94.0001C138 93.4478 138.485 92.9999 139.083 92.9999ZM139.083 99L152.917 99C153.51500000000001 99 154 99.4478 154 100C154 100.552 153.515 101 152.917 101L139.083 101C138.48499999999999 101 138 100.552 138 100C138 99.4478 138.485 99 139.083 99ZM139.083 105L152.917 105C153.51500000000001 105 154 105.448 154 106C154 106.552 153.515 107 152.917 107L139.083 107C138.48499999999999 107 138 106.552 138 106C138 105.448 138.485 105 139.083 105Z "
        transform="matrix(1,0,0,1,-138,-92)"></path>
</svg>
