<?xml version="1.0" encoding="UTF-8" standalone="no"?>
<svg width="34px" height="27px" viewBox="0 0 34 27" version="1.1" xmlns="http://www.w3.org/2000/svg" xmlns:xlink="http://www.w3.org/1999/xlink" xmlns:sketch="http://www.bohemiancoding.com/sketch/ns">
    <!-- Generator: Sketch 3.3.3 (12081) - http://www.bohemiancoding.com/sketch -->
    <title>Shape</title>
    <desc>Created with Sketch.</desc>
    <defs></defs>
    <g id="Page-1" stroke="none" stroke-width="1" fill-rule="evenodd" sketch:type="MSPage">
        <path d="M30.5,7 C30.194,7 29.902,6.948 29.619,6.874 L24.091,15.166 C24.65,15.786 25,16.599 25,17.5 C25,19.433 23.433,21 21.5,21 C19.567,21 18,19.433 18,17.5 C18,16.95 18.138,16.436 18.365,15.972 L14.799,13.12 C14.183,13.661 13.385,14 12.5,14 C12.186,14 11.888,13.946 11.599,13.868 L6.109,21.188 C6.657,21.806 7,22.609 7,23.5 C7,25.433 5.433,27 3.5,27 C1.567,27 0,25.433 0,23.5 C0,21.567 1.567,20 3.5,20 C3.814,20 4.112,20.055 4.401,20.132 L9.891,12.812 C9.343,12.194 9,11.391 9,10.5 C9,8.567 10.567,7 12.5,7 C14.433,7 16,8.567 16,10.5 C16,10.817 15.944,11.119 15.865,11.411 L19.725,14.499 C20.247,14.19 20.849,14 21.5,14 C21.806,14 22.098,14.052 22.381,14.126 L27.909,5.834 C27.35,5.214 27,4.401 27,3.5 C27,1.567 28.567,0 30.5,0 C32.433,0 34,1.567 34,3.5 C34,5.433 32.433,7 30.5,7 L30.5,7 Z M3.5,21.75 C2.534,21.75 1.75,22.534 1.75,23.5 C1.75,24.467 2.534,25.25 3.5,25.25 C4.467,25.25 5.25,24.467 5.25,23.5 C5.25,22.534 4.467,21.75 3.5,21.75 L3.5,21.75 Z M12.5,8.75 C11.534,8.75 10.75,9.534 10.75,10.5 C10.75,11.467 11.534,12.25 12.5,12.25 C13.467,12.25 14.25,11.467 14.25,10.5 C14.25,9.534 13.467,8.75 12.5,8.75 L12.5,8.75 Z M19.75,17.5 C19.75,18.466 20.534,19.25 21.5,19.25 C22.467,19.25 23.25,18.466 23.25,17.5 C23.25,16.534 22.467,15.75 21.5,15.75 C20.534,15.75 19.75,16.534 19.75,17.5 L19.75,17.5 Z M30.5,1.75 C29.534,1.75 28.75,2.534 28.75,3.5 C28.75,4.466 29.534,5.25 30.5,5.25 C31.466,5.25 32.25,4.466 32.25,3.5 C32.25,2.534 31.466,1.75 30.5,1.75 L30.5,1.75 Z" id="Shape" sketch:type="MSShapeGroup"></path>
    </g>
</svg>
