<svg xmlns="http://www.w3.org/2000/svg" width="68" height="68" viewBox="0 0 68 68">
    <g fill="none" fill-rule="evenodd">
        <path d="M0 0h68v68H0z"/>
        <path fill="#A4A4A4" d="M56 15H12a2.006 2.006 0 0 0-2 2v34a2.006 2.006 0 0 0 2 2h44a2.006 2.006 0 0 0 2-2V17a2.006 2.006 0 0 0-2-2zm0 36H12v-6.51l8.12-6.31 8.06 4.03 18.91-17.92L56 30.52V51zm0-22.92l-9.1-6.37-19.08 18.08-7.94-3.97L12 41.95V17h44v11.08zM23 22a6 6 0 1 0 6 6 6.018 6.018 0 0 0-6-6zm0 10a4 4 0 1 1 4-4 4.012 4.012 0 0 1-4 4z"/>
    </g>
</svg>
