<?xml version="1.0" encoding="UTF-8" standalone="no"?>
<svg width="55px" height="68px" viewBox="0 0 55 68" version="1.1" xmlns="http://www.w3.org/2000/svg" xmlns:xlink="http://www.w3.org/1999/xlink" xmlns:sketch="http://www.bohemiancoding.com/sketch/ns">
    <!-- Generator: Sketch 3.3.2 (12043) - http://www.bohemiancoding.com/sketch -->
    <title>path-1</title>
    <desc>Created with Sketch.</desc>
    <defs></defs>
    <g id="Page-1" stroke="none" stroke-width="1" fill="none" fill-rule="evenodd" sketch:type="MSPage">
        <path d="M51.015,67.845 L3.028,67.845 C1.363,67.845 0.008,66.502 0.008,64.852 L0.008,3.988 C0.008,2.337 1.363,0.994 3.028,0.994 L36.248,0.994 L36.248,1.08 C36.778,0.9 37.388,1.005 37.809,1.422 L53.007,16.888 L53.144,16.888 L53.144,17.027 L53.448,17.337 C53.627,17.514 53.733,17.731 53.803,17.957 L54.035,17.957 L54.035,64.852 C54.035,66.502 52.68,67.845 51.015,67.845 L51.015,67.845 L51.015,67.845 Z M38.044,5.951 L38.044,16.888 L48.792,16.888 L38.044,5.951 L38.044,5.951 Z M51.015,19.882 L38.044,19.882 C36.378,19.882 35.024,18.539 35.024,16.888 L35.024,3.988 L3.028,3.988 L3.028,64.852 L51.015,64.852 L51.015,19.882 L51.015,19.882 Z M13.531,49.844 C13.845,49.844 14.143,49.898 14.432,49.976 L19.922,42.656 C19.374,42.038 19.031,41.234 19.031,40.344 C19.031,38.411 20.598,36.844 22.531,36.844 C24.464,36.844 26.031,38.411 26.031,40.344 C26.031,40.661 25.975,40.963 25.896,41.255 L29.756,44.343 C30.278,44.033 30.88,43.844 31.531,43.844 C31.838,43.844 32.129,43.896 32.412,43.969 L37.94,35.678 C37.381,35.057 37.031,34.245 37.031,33.344 C37.031,31.411 38.598,29.844 40.531,29.844 C42.464,29.844 44.031,31.411 44.031,33.344 C44.031,35.277 42.464,36.844 40.531,36.844 C40.225,36.844 39.933,36.792 39.65,36.718 L34.122,45.01 C34.681,45.63 35.031,46.443 35.031,47.344 C35.031,49.277 33.464,50.844 31.531,50.844 C29.598,50.844 28.031,49.277 28.031,47.344 C28.031,46.793 28.17,46.279 28.396,45.816 L24.83,42.964 C24.214,43.505 23.416,43.844 22.531,43.844 C22.218,43.844 21.919,43.789 21.63,43.712 L16.14,51.032 C16.688,51.649 17.031,52.453 17.031,53.344 C17.031,55.277 15.464,56.844 13.531,56.844 C11.598,56.844 10.031,55.277 10.031,53.344 C10.031,51.411 11.598,49.844 13.531,49.844 L13.531,49.844 L13.531,49.844 Z M42.281,33.344 C42.281,32.377 41.498,31.594 40.531,31.594 C39.565,31.594 38.781,32.377 38.781,33.344 C38.781,34.31 39.565,35.094 40.531,35.094 C41.498,35.094 42.281,34.31 42.281,33.344 L42.281,33.344 L42.281,33.344 Z M31.531,49.094 C32.498,49.094 33.281,48.31 33.281,47.344 C33.281,46.377 32.498,45.594 31.531,45.594 C30.565,45.594 29.781,46.377 29.781,47.344 C29.781,48.31 30.565,49.094 31.531,49.094 L31.531,49.094 L31.531,49.094 Z M22.531,42.094 C23.498,42.094 24.281,41.31 24.281,40.344 C24.281,39.377 23.498,38.594 22.531,38.594 C21.565,38.594 20.781,39.377 20.781,40.344 C20.781,41.31 21.565,42.094 22.531,42.094 L22.531,42.094 L22.531,42.094 Z M13.531,55.094 C14.498,55.094 15.281,54.31 15.281,53.344 C15.281,52.377 14.498,51.594 13.531,51.594 C12.565,51.594 11.781,52.377 11.781,53.344 C11.781,54.31 12.565,55.094 13.531,55.094 L13.531,55.094 L13.531,55.094 Z M11.082,24.779 L27.188,24.779 C27.742,24.779 28.195,25.228 28.195,25.776 L28.195,26.774 C28.195,27.323 27.742,27.772 27.188,27.772 L11.082,27.772 C10.528,27.772 10.075,27.323 10.075,26.774 L10.075,25.776 C10.075,25.228 10.528,24.779 11.082,24.779 L11.082,24.779 L11.082,24.779 Z M10.075,19.776 C10.075,19.228 10.528,18.779 11.082,18.779 L27.188,18.779 C27.742,18.779 28.195,19.228 28.195,19.776 L28.195,20.774 C28.195,21.323 27.742,21.772 27.188,21.772 L11.082,21.772 C10.528,21.772 10.075,21.323 10.075,20.774 L10.075,19.776 L10.075,19.776 Z M27.248,15.794 L11.082,15.794 C10.528,15.794 10.075,15.345 10.075,14.797 L10.075,13.799 C10.075,13.25 10.528,12.801 11.082,12.801 L27.248,12.801 C27.802,12.801 28.255,13.25 28.255,13.799 L28.255,14.797 C28.255,15.345 27.802,15.794 27.248,15.794 L27.248,15.794 L27.248,15.794 Z" id="path-1" fill="#CCCCCC" sketch:type="MSShapeGroup"></path>
    </g>
</svg>