<?xml version="1.0" encoding="utf-8"?>
<svg xmlns="http://www.w3.org/2000/svg"
	xmlns:xlink="http://www.w3.org/1999/xlink"
	width="61px" height="67px" viewBox="0 0 61 67">
<path fillRule="evenodd" d="M 60.38 60.02C 59.79 60.6 58.83 60.6 58.24 60.02 58.24 60.02 54.34 56.15 54.34 56.15 54.34 56.15 54.34 64.01 54.34 64.01 54.34 65.66 52.98 67 51.32 67 51.32 67 3 67 3 67 1.33 67-0.02 65.66-0.02 64.01-0.02 64.01-0.02 3.14-0.02 3.14-0.02 1.49 1.33 0.15 3 0.15 3 0.15 36.22 0.15 36.22 0.15 36.22 0.15 36.22 0.24 36.22 0.24 36.75 0.06 37.36 0.16 37.78 0.58 37.78 0.58 53.83 16.49 53.83 16.49 54.01 16.67 54.12 16.89 54.19 17.11 54.19 17.11 54.34 17.11 54.34 17.11 54.34 17.11 54.34 51.91 54.34 51.91 54.34 51.91 60.38 57.9 60.38 57.9 60.96 58.48 60.96 59.43 60.38 60.02ZM 34.71 15.12C 34.71 15.12 11.05 15.12 11.05 15.12 10.5 15.12 10.04 14.67 10.04 14.12 10.04 14.12 10.04 13.12 10.04 13.12 10.04 12.57 10.5 12.12 11.05 12.12 11.05 12.12 34.71 12.12 34.71 12.12 34.71 12.12 34.71 3.14 34.71 3.14 34.71 3.14 3 3.14 3 3.14 3 3.14 3 64.01 3 64.01 3 64.01 51.32 64.01 51.32 64.01 51.32 64.01 51.32 53.15 51.32 53.15 51.32 53.15 44.46 46.35 44.46 46.35 41.82 48.94 38.2 50.54 34.2 50.54 29.58 50.54 25.46 48.39 22.78 45.05 22.78 45.05 11.05 45.05 11.05 45.05 10.5 45.05 10.04 44.6 10.04 44.05 10.04 44.05 10.04 43.05 10.04 43.05 10.04 42.51 10.5 42.06 11.05 42.06 11.05 42.06 20.93 42.06 20.93 42.06 20.09 40.23 19.61 38.21 19.61 36.07 19.61 35.73 19.63 35.4 19.66 35.07 19.66 35.07 11.37 35.07 11.37 35.07 10.64 35.07 10.04 34.48 10.04 33.76 10.04 33.76 10.04 33.39 10.04 33.39 10.04 32.67 10.64 32.08 11.37 32.08 11.37 32.08 19.8 32.08 19.8 32.08 19.93 32.08 20.05 32.12 20.17 32.15 20.96 29.37 22.56 26.93 24.72 25.09 24.72 25.09 11.05 25.09 11.05 25.09 10.5 25.09 10.04 24.65 10.04 24.1 10.04 24.1 10.04 23.1 10.04 23.1 10.04 22.55 10.5 22.1 11.05 22.1 11.05 22.1 27.16 22.1 27.16 22.1 27.65 22.1 28.05 22.47 28.13 22.93 29.98 22.09 32.03 21.6 34.2 21.6 42.25 21.6 48.8 28.09 48.8 36.07 48.8 39.01 47.91 41.74 46.38 44.03 46.38 44.03 51.32 48.92 51.32 48.92 51.32 48.92 51.32 18.61 51.32 18.61 51.32 18.61 37.73 18.61 37.73 18.61 36.06 18.61 34.71 17.27 34.71 15.62 34.71 15.62 34.71 15.12 34.71 15.12ZM 45.78 36.07C 45.78 29.74 40.59 24.6 34.2 24.6 27.82 24.6 22.63 29.74 22.63 36.07 22.63 42.4 27.82 47.54 34.2 47.54 40.59 47.54 45.78 42.4 45.78 36.07ZM 37.73 4.76C 37.73 4.76 37.73 15.62 37.73 15.62 37.73 15.62 48.68 15.62 48.68 15.62 48.68 15.62 37.73 4.76 37.73 4.76ZM 11.05 52.03C 11.05 52.03 43.26 52.03 43.26 52.03 43.82 52.03 44.27 52.48 44.27 53.03 44.27 53.03 44.27 54.03 44.27 54.03 44.27 54.58 43.82 55.03 43.26 55.03 43.26 55.03 11.05 55.03 11.05 55.03 10.5 55.03 10.04 54.58 10.04 54.03 10.04 54.03 10.04 53.03 10.04 53.03 10.04 52.48 10.5 52.03 11.05 52.03Z" fill="rgb(203,203,203)"/></svg>