<svg xmlns="http://www.w3.org/2000/svg" width="30" height="30" viewBox="0 0 30 30">
  <defs>
    <style>
      .cls-1 {
        fill: #a4a4a4;
        fill-rule: evenodd;
      }
    </style>
  </defs>
  <path class="cls-1" d="M28.42,25.466a1.421,1.421,0,0,1,0,2.014l-0.1.1A1.408,1.408,0,0,1,27.315,28a1.425,1.425,0,0,1-1.005-.418L22.966,24.23a9.314,9.314,0,0,1-3.434,2.143,9.511,9.511,0,0,1-3.165.538,9.439,9.439,0,0,1-9.117-6.977,9.293,9.293,0,0,1-.339-2.492c0-.17,0-0.329.01-0.5a9.4,9.4,0,0,1,3.633-6.977,9.466,9.466,0,0,1,14.2,11.841,0.164,0.164,0,0,1,.05.04Zm-8.629-13.5a6.317,6.317,0,0,0-3.424-1,6.514,6.514,0,0,0-6.45,5.98c-0.01.159-.02,0.329-0.02,0.5a6.47,6.47,0,1,0,12.94,0A6.441,6.441,0,0,0,19.791,11.961Zm-1.4-5.98H2.461a1.495,1.495,0,0,1,0-2.99H18.387A1.495,1.495,0,0,1,18.387,5.981ZM2.461,9.968H7.7a11.42,11.42,0,0,0-1.861,2.99H2.461A1.5,1.5,0,0,1,2.461,9.968Zm0,6.977H4.93c-0.01.169-.01,0.329-0.01,0.5a11.374,11.374,0,0,0,.269,2.492H2.461A1.5,1.5,0,0,1,2.461,16.945Zm0,6.977H6.94a11.226,11.226,0,0,0,2.986,2.99H2.461A1.5,1.5,0,0,1,2.461,23.921Z"/>
</svg>
