<svg id="SvgjsSvg1000" xmlns="http://www.w3.org/2000/svg" version="1.1" xmlns:xlink="http://www.w3.org/1999/xlink" xmlns:svgjs="http://svgjs.com/svgjs" width="14" height="17"><defs id="SvgjsDefs1001"></defs><path id="SvgjsPath1007" d="M169 958L165 958C164.447 958 164 957.552 164 957L164 953L159 953L159 966L169 966ZM166 953L166 956L169 956ZM166 961L162 961C161.447 961 161 960.552 161 960C161 959.448 161.447 959 162 959L166 959C166.553 959 167 959.448 167 960C167 960.552 166.553 961 166 961ZM166 964L162 964C161.447 964 161 963.553 161 963C161 962.447 161.447 962 162 962L166 962C166.553 962 167 962.447 167 963C167 963.553 166.553 964 166 964ZM171 957L171 966C171 967.105 170.105 968 169 968L159 968C157.895 968 157 967.105 157 966L157 953C157 951.895 157.895 951 159 951L165 951C165.53 951 166.039 951.211 166.414 951.586L170.414 955.586C170.789 955.961 171 956.47 171 957Z " transform="matrix(1,0,0,1,-157,-951)"></path></svg>