<?xml version="1.0" encoding="utf-8"?>
<!-- Generator: Adobe Illustrator 19.2.1, SVG Export Plug-In . SVG Version: 6.00 Build 0)  -->
<svg version="1.1" id="Layer_2" xmlns="http://www.w3.org/2000/svg" xmlns:xlink="http://www.w3.org/1999/xlink" x="0px" y="0px"
	 viewBox="0 0 28 31" style="enable-background:new 0 0 28 31;" xml:space="preserve">
<g>
	<path d="M27.3,23c-2.6-1.9-4.3-5-4.3-8.5V9c0-2.6-1.1-4.9-2.8-6.5c0,0-0.1-0.1-0.1-0.1C18.4,0.9,16.3,0,14,0
		S9.6,0.9,8,2.3c0,0-0.1,0.1-0.1,0.1C6.1,4.1,5,6.4,5,9v5.5C5,18,3.3,21.1,0.7,23c-0.2,0.2-0.4,0.3-0.7,0.4V26h28v-2.6
		C27.8,23.3,27.6,23.2,27.3,23z M5,23L5,23c1.9-2.4,3-5.3,3-8.5V9c0-3.3,2.7-6,6-6s6,2.7,6,6v5.5c0,3.2,1.1,6.1,3,8.5l0,0H5z M14,28
		c-0.2,0-0.6-0.3-1-1H9.7c0.9,2.4,2.5,4,4.3,4s3.5-1.6,4.3-4H15C14.6,27.7,14.2,28,14,28z"/>
</g>
</svg>
