<svg id="SvgjsSvg1000" xmlns="http://www.w3.org/2000/svg" version="1.1" xmlns:xlink="http://www.w3.org/1999/xlink" xmlns:svgjs="http://svgjs.com/svgjs" width="14" height="18" viewBox="0 0 14 18"><title>ic-notification</title><desc>Created with Avocode.</desc><defs id="SvgjsDefs1001"></defs><path id="SvgjsPath1007" d="M8 3.98952C8.7187 3.98952 9.4106 4.2324600000000006 9.9588 4.67551L10.059 4.76504C10.6235 5.26953 10.9344 5.94148 10.9344 6.65687V9.09343C10.9344 10.6699 11.123 12.712399999999999 12 14H4C4.877 12.7124 5.0656 10.6699 5.0656 9.09343V6.65687C5.0656 5.941479999999999 5.3765 5.269629999999999 5.9411 4.76504L6.0413 4.67541C6.5893999999999995 4.2324600000000006 7.2813 3.98952 8 3.98952C8.7187 3.98952 8 3.98952 8 3.98952ZM4.6389 3.12804C4.6167 3.14391 4.594399999999999 3.16507 4.5778 3.18633C3.6056 4.0552399999999995 3 5.28988 3 6.65687V9.09343C3 11.0677 2.968 12.8162 1.39 13.887799999999999C1.2639999999999998 13.977999999999998 1.1319 14.057099999999998 0.9999999999999999 14.136099999999999V15.999999999999998H15V14.136099999999999C14.8681 14.057099999999998 14.7361 13.978 14.61 13.887799999999999C13.032 12.816199999999998 13 11.067699999999999 13 9.093429999999998V6.656869999999998C13 5.289879999999998 12.3945 4.055239999999998 11.4223 3.1863299999999977C11.4056 3.165069999999998 11.3833 3.1439099999999978 11.3612 3.1280399999999977C10.4667 2.3596499999999976 9.2889 1.8881099999999977 8 1.8881099999999977C6.7111 1.8881099999999977 5.5333000000000006 2.3596499999999976 4.6389 3.1280399999999977ZM8.0342 17.1613C7.904 17.1613 7.6616 16.9695 7.425000000000001 16.5973H5.467500000000001C5.982100000000001 17.9453 6.940100000000001 18.8534 8.034200000000002 18.8534C9.128400000000003 18.8534 10.086300000000001 17.9453 10.600900000000003 16.5973H8.643400000000003C8.406800000000004 16.9695 8.164300000000003 17.1613 8.034200000000004 17.1613Z " transform="matrix(1,0,0,1,-1,-1)"></path></svg>
