<?xml version="1.0" encoding="utf-8"?>
<svg xmlns="http://www.w3.org/2000/svg"
	xmlns:xlink="http://www.w3.org/1999/xlink"
	width="18px" height="18px" viewBox="0 0 18 18">
<path fillRule="evenodd" d="M 9 18C 4.03 18 0 13.97 0 9 0 4.03 4.03 0 9 0 13.97 0 18 4.03 18 9 18 13.97 13.97 18 9 18ZM 9 1.71C 4.98 1.71 1.71 4.98 1.71 9 1.71 13.02 4.98 16.29 9 16.29 13.02 16.29 16.29 13.02 16.29 9 16.29 4.98 13.02 1.71 9 1.71ZM 12 10C 12 10 6 10 6 10 5.45 10 5 9.55 5 9 5 8.45 5.45 8 6 8 6 8 12 8 12 8 12.55 8 13 8.45 13 9 13 9.55 12.55 10 12 10Z" fill="rgb(219,0,0)" opacity="0.55"/></svg>