<?xml version="1.0" encoding="utf-8"?>
<svg xmlns="http://www.w3.org/2000/svg"
	xmlns:xlink="http://www.w3.org/1999/xlink"
	width="16px" height="16px" viewBox="0 0 16 16">
<path fillRule="evenodd" d="M 14.84 13.06C 14.84 13.06 11.7 9.93 11.7 9.93 11.69 9.91 11.67 9.9 11.65 9.89 12.27 8.95 12.63 7.83 12.63 6.63 12.63 3.35 9.97 0.7 6.7 0.7 3.42 0.7 0.77 3.35 0.77 6.63 0.77 9.9 3.42 12.56 6.7 12.56 7.9 12.56 9.02 12.2 9.96 11.58 9.97 11.6 9.98 11.62 10 11.64 10 11.64 13.13 14.77 13.13 14.77 13.6 15.24 14.37 15.24 14.84 14.77 15.31 14.3 15.31 13.53 14.84 13.06ZM 6.7 10.5C 4.56 10.5 2.82 8.77 2.82 6.63 2.82 4.49 4.56 2.75 6.7 2.75 8.84 2.75 10.57 4.49 10.57 6.63 10.57 8.77 8.84 10.5 6.7 10.5Z" fill="rgb(85,187,203)"/></svg>