<?xml version="1.0" encoding="utf-8"?>
<svg xmlns="http://www.w3.org/2000/svg"
	xmlns:xlink="http://www.w3.org/1999/xlink"
	width="18px" height="18px" viewBox="0 0 18 18">
<path fillRule="evenodd" d="M 10.41 9C 10.41 9 11.83 10.41 11.83 10.41 12.22 10.8 12.22 11.44 11.83 11.83 11.44 12.22 10.8 12.22 10.41 11.83 10.41 11.83 9 10.41 9 10.41 9 10.41 7.59 11.83 7.59 11.83 7.2 12.22 6.56 12.22 6.17 11.83 5.78 11.44 5.78 10.8 6.17 10.41 6.17 10.41 7.59 9 7.59 9 7.59 9 6.17 7.59 6.17 7.59 5.78 7.2 5.78 6.56 6.17 6.17 6.56 5.78 7.2 5.78 7.59 6.17 7.59 6.17 9 7.59 9 7.59 9 7.59 10.41 6.17 10.41 6.17 10.8 5.78 11.44 5.78 11.83 6.17 12.22 6.56 12.22 7.2 11.83 7.59 11.83 7.59 10.41 9 10.41 9Z" fill="rgb(219,0,0)" opacity="0.55"/><path fillRule="evenodd" d="M 9 16C 12.86 16 16 12.86 16 9 16 5.14 12.86 2 9 2 5.14 2 2 5.14 2 9 2 12.86 5.14 16 9 16M 9 18C 4.03 18-0 13.97-0 9-0 4.03 4.03-0 9-0 13.97-0 18 4.03 18 9 18 13.97 13.97 18 9 18 9 18 9 18 9 18Z" fill="rgb(219,0,0)" opacity="0.50"/></svg>