<?xml version="1.0" encoding="utf-8"?>
<svg xmlns="http://www.w3.org/2000/svg"
	xmlns:xlink="http://www.w3.org/1999/xlink"
	width="18px" height="18px" viewBox="0 0 18 18">
<g><path fillRule="evenodd" d="M 9 16C 12.86 16 16 12.86 16 9 16 5.14 12.86 2 9 2 5.14 2 2 5.14 2 9 2 12.86 5.14 16 9 16M 9 18C 4.03 18-0 13.97-0 9-0 4.03 4.03-0 9-0 13.97-0 18 4.03 18 9 18 13.97 13.97 18 9 18 9 18 9 18 9 18Z" fill="rgb(85,187,203)"/><path fillRule="evenodd" d="M 12.68 7.77C 12.68 7.77 8.77 11.66 8.77 11.66 8.76 11.67 8.76 11.68 8.75 11.68 8.35 12.09 7.68 12.09 7.28 11.68 7.28 11.68 7.27 11.68 7.27 11.68 7.27 11.68 7.27 11.68 7.27 11.68 7.27 11.68 7.27 11.68 7.27 11.68 7.27 11.68 5.3 9.72 5.3 9.72 4.89 9.31 4.89 8.65 5.3 8.25 5.71 7.84 6.37 7.84 6.78 8.25 6.78 8.25 8.01 9.47 8.01 9.47 8.01 9.47 11.2 6.3 11.2 6.3 11.61 5.89 12.27 5.89 12.68 6.3 13.09 6.7 13.09 7.36 12.68 7.77Z" fill="rgb(85,187,203)"/></g></svg>