<?xml version="1.0" encoding="utf-8"?>
<svg xmlns="http://www.w3.org/2000/svg"
	xmlns:xlink="http://www.w3.org/1999/xlink"
	width="19px" height="18px" viewBox="0 0 19 18">
<g><path fillRule="evenodd" d="M 9 16C 12.86 16 16 12.86 16 9 16 5.14 12.86 2 9 2 5.14 2 2 5.14 2 9 2 12.86 5.14 16 9 16M 9 18C 4.03 18-0 13.97-0 9-0 4.03 4.03-0 9-0 13.97-0 18 4.03 18 9 18 13.97 13.97 18 9 18 9 18 9 18 9 18Z" fill="rgb(85,187,203)"/><path fillRule="evenodd" d="M 8.06 13.99C 8.06 13.99 9.86 13.99 9.86 13.99 9.86 13.99 9.86 12.74 9.86 12.74 11.17 12.43 11.98 11.55 11.98 10.39 11.98 10.39 11.98 10.39 11.98 10.39 11.98 9.19 11.33 8.46 9.78 7.94 9.78 7.94 9.78 7.94 9.78 7.94 9.22 7.74 8.56 7.48 8.56 7.25 8.56 7.25 8.56 7.25 8.56 7.25 8.56 6.94 9.01 6.89 9.27 6.89 9.27 6.89 9.27 6.89 9.27 6.89 10.05 6.89 10.55 7.12 10.84 7.26 10.84 7.26 10.84 7.26 10.84 7.26 10.84 7.26 11.19 7.42 11.19 7.42 11.19 7.42 11.29 7.07 11.29 7.07 11.29 7.07 11.72 5.53 11.72 5.53 11.72 5.53 11.48 5.42 11.48 5.42 11.17 5.28 10.66 5.1 9.92 5.04 9.92 5.04 9.92 5.04 9.92 5.04 9.92 5.04 9.92 4 9.92 4 9.92 4 8.12 4 8.12 4 8.12 4 8.12 5.16 8.12 5.16 6.88 5.47 6.11 6.33 6.11 7.44 6.11 7.44 6.11 7.44 6.11 7.44 6.11 8.88 7.37 9.48 8.47 9.83 8.47 9.83 8.47 9.83 8.47 9.83 9.4 10.14 9.53 10.36 9.53 10.55 9.53 10.55 9.53 10.55 9.53 10.55 9.53 10.83 9.11 10.96 8.69 10.96 8.69 10.96 8.69 10.96 8.69 10.96 7.87 10.96 7.19 10.66 6.86 10.49 6.86 10.49 6.86 10.49 6.86 10.49 6.86 10.49 6.5 10.3 6.5 10.3 6.5 10.3 5.98 12.25 5.98 12.25 5.98 12.25 5.98 12.25 5.98 12.25 5.98 12.25 6.2 12.36 6.2 12.36 6.68 12.62 7.38 12.8 8.06 12.86 8.06 12.86 8.06 12.86 8.06 12.86 8.06 12.86 8.06 13.99 8.06 13.99Z" fill="rgb(85,187,203)"/><g><circle cx="15.50" cy="3.50" r="3.50" fill="rgb(255,205,105)"/><path fillRule="evenodd" d="M 15.5 6C 16.88 6 18 4.88 18 3.5 18 2.12 16.88 1 15.5 1 14.12 1 13 2.12 13 3.5 13 4.88 14.12 6 15.5 6M 15.5 7C 13.57 7 12 5.43 12 3.5 12 1.57 13.57 0 15.5 0 17.43 0 19 1.57 19 3.5 19 5.43 17.43 7 15.5 7 15.5 7 15.5 7 15.5 7Z" fill="rgb(255,255,255)"/></g></g></svg>