<?xml version="1.0" encoding="utf-8"?>
<svg xmlns="http://www.w3.org/2000/svg"
	xmlns:xlink="http://www.w3.org/1999/xlink"
	width="16px" height="15px" viewBox="0 0 16 15">
<path fillRule="evenodd" d="M 14-0C 14-0 2-0 2-0 0.9-0 0 0.9 0 2 0 2 0 9.79 0 9.79 0 10.89 0.9 11.79 2 11.79 2 11.79 6.34 11.79 6.34 11.79 6.34 11.79 11.18 14.85 11.18 14.85 11.35 14.95 11.53 15 11.72 15 11.88 15 12.05 14.96 12.2 14.88 12.52 14.7 12.72 14.37 12.72 14 12.72 14 12.72 11.79 12.72 11.79 12.72 11.79 14 11.79 14 11.79 15.1 11.79 16 10.89 16 9.79 16 9.79 16 2 16 2 16 0.9 15.1-0 14-0ZM 14 9.79C 14 9.79 11.36 9.79 11.36 9.79 10.99 9.93 10.72 10.3 10.72 10.72 10.72 10.72 10.72 12.19 10.72 12.19 10.72 12.19 10.09 11.79 10.09 11.79 10.09 11.79 6.92 9.79 6.92 9.79 6.92 9.79 2 9.79 2 9.79 2 9.79 2 2 2 2 2 2 14 2 14 2 14 2 14 9.79 14 9.79Z" fill="rgb(85,187,203)"/></svg>