<?xml version="1.0" encoding="utf-8"?>
<svg xmlns="http://www.w3.org/2000/svg"
	xmlns:xlink="http://www.w3.org/1999/xlink"
	width="13px" height="16px" viewBox="0 0 13 16">
<g><path fillRule="evenodd" d="M 11 14C 11 14 11 2 11 2 11 2 2 2 2 2 2 2 2 14 2 14 2 14 11 14 11 14M 11 16C 11 16 2 16 2 16 0.9 16-0 15.1-0 14-0 14-0 2-0 2-0 0.9 0.9-0 2-0 2-0 11-0 11-0 12.1-0 13 0.9 13 2 13 2 13 14 13 14 13 15.1 12.1 16 11 16 11 16 11 16 11 16Z" fill="rgb(85,187,203)"/><path fillRule="evenodd" d="M 8 12C 8 12 5 12 5 12 4.45 12 4 11.55 4 11 4 10.45 4.45 10 5 10 5 10 8 10 8 10 8.55 10 9 10.45 9 11 9 11.55 8.55 12 8 12 8 12 8 12 8 12ZM 8 9C 8 9 5 9 5 9 4.45 9 4 8.55 4 8 4 7.45 4.45 7 5 7 5 7 8 7 8 7 8.55 7 9 7.45 9 8 9 8.55 8.55 9 8 9 8 9 8 9 8 9ZM 8 6C 8 6 5 6 5 6 4.45 6 4 5.55 4 5 4 4.45 4.45 4 5 4 5 4 8 4 8 4 8.55 4 9 4.45 9 5 9 5.55 8.55 6 8 6 8 6 8 6 8 6Z" fill="rgb(85,187,203)"/></g></svg>