<svg xmlns="http://www.w3.org/2000/svg" xmlns:xlink="http://www.w3.org/1999/xlink" preserveAspectRatio="xMidYMid" width="54" height="54" viewBox="0 0 54 54">
  <path d="M27.000,54.000 C12.088,54.000 -0.000,41.912 -0.000,27.000 C-0.000,12.088 12.088,-0.000 27.000,-0.000 C41.912,-0.000 54.000,12.088 54.000,27.000 C54.000,41.912 41.912,54.000 27.000,54.000 ZM27.000,3.000 C13.766,3.000 3.000,13.766 3.000,27.000 C3.000,40.234 13.766,51.000 27.000,51.000 C40.234,51.000 51.000,40.234 51.000,27.000 C51.000,13.766 40.234,3.000 27.000,3.000 ZM30.500,36.500 C29.672,36.500 29.000,35.828 29.000,35.000 L29.000,19.000 C29.000,18.172 29.672,17.500 30.500,17.500 C31.328,17.500 32.000,18.172 32.000,19.000 L32.000,35.000 C32.000,35.828 31.328,36.500 30.500,36.500 ZM23.500,36.500 C22.672,36.500 22.000,35.828 22.000,35.000 L22.000,19.000 C22.000,18.172 22.672,17.500 23.500,17.500 C24.328,17.500 25.000,18.172 25.000,19.000 L25.000,35.000 C25.000,35.828 24.328,36.500 23.500,36.500 Z"/>
</svg>
