<svg id="SvgjsSvg1008" xmlns="http://www.w3.org/2000/svg" version="1.1" xmlns:xlink="http://www.w3.org/1999/xlink" xmlns:svgjs="http://svgjs.com/svgjs" width="13" height="13"><defs id="SvgjsDefs1009"></defs><path id="SvgjsPath1010" d="M1615 368.882C1615 369.503 1614.55 370.007 1614 370.007C1613.45 370.007 1613 369.503 1613 368.882L1613 365L1609.12 365C1608.5 365 1607.9899999999998 364.552 1607.9899999999998 364C1607.9899999999998 363.448 1608.4999999999998 363 1609.12 363L1613 363L1613 359.132C1613 358.51 1613.45 358.007 1614 358.007C1614.55 358.007 1615 358.51 1615 359.132L1615 363L1618.87 363C1619.4899999999998 363 1619.9899999999998 363.448 1619.9899999999998 364C1619.9899999999998 364.552 1619.4899999999998 365 1618.87 365L1615 365Z " transform="matrix(1,0,0,1,-1607,-358)"></path></svg>