<?xml version="1.0" encoding="utf-8"?>
<!-- Generator: Adobe Illustrator 19.0.1, SVG Export Plug-In . SVG Version: 6.00 Build 0)  -->
<svg version="1.1" id="Layer_1" xmlns="http://www.w3.org/2000/svg" xmlns:xlink="http://www.w3.org/1999/xlink" x="0px" y="0px"
	 viewBox="0 0 104 104" enable-background="new 0 0 104 104" xml:space="preserve">
<g id="XMLID_4_">
	<path id="XMLID_3_" fill="#9CDAE5" d="M52,104C23.3,104,0,80.7,0,52h7.4c0,24.6,20,44.6,44.6,44.6c24.6,0,44.6-20,44.6-44.6
		c0-24.6-20-44.6-44.6-44.6V0c28.7,0,52,23.3,52,52C104,80.7,80.7,104,52,104z">
		  <animateTransform attributeName="transform"
                                  attributeType="XML"
                                  type="rotate"
                                  from="360 52 52"
                                  to="0 52 52"
                                  dur="2s"
                                  repeatCount="indefinite"/>
  </path>
</g>
<g id="XMLID_1_">
	<path id="XMLID_5_" fill="#1E89A3" d="M52,80.5c-15.7,0-28.5-12.8-28.5-28.5S36.3,23.5,52,23.5c15.7,0,28.5,12.8,28.5,28.5h-7.4
		c0-11.6-9.5-21.1-21.1-21.1c-11.6,0-21.1,9.5-21.1,21.1S40.4,73.1,52,73.1V80.5z">

      <animateTransform attributeName="transform"
                              attributeType="XML"
                              type="rotate"
                              from="0 52 52"
                              to="360 52 52"
                              dur="2s"
                              repeatCount="indefinite"/>

  </path>
</g>
</svg>
