<?xml version="1.0" encoding="UTF-8" standalone="no"?>
<svg width="20px" height="15px" viewBox="0 0 20 15" version="1.1" xmlns="http://www.w3.org/2000/svg" xmlns:xlink="http://www.w3.org/1999/xlink" xmlns:sketch="http://www.bohemiancoding.com/sketch/ns">
    <!-- Generator: Sketch 3.3.2 (12043) - http://www.bohemiancoding.com/sketch -->
    <title>progress</title>
    <desc>Created with Sketch.</desc>
    <defs></defs>
    <g id="Page-1" stroke="none" stroke-width="1"  fill-rule="evenodd" sketch:type="MSPage">
        <path d="M5.77296875,13.776 L5.77296875,13.775 C5.19796875,13.4 5.03696875,12.627 5.41296875,12.052 C5.78496875,11.481 6.54596875,11.317 7.11896875,11.681 C7.12896875,11.688 7.13696875,11.694 7.14696875,11.699 C7.93296875,12.212 8.86996875,12.509 9.87696875,12.509 C12.3969687,12.509 14.4809687,10.648 14.8349687,8.225 C14.8359687,8.214 14.8369687,8.203 14.8389687,8.193 C14.8409687,8.171 14.8419687,8.149 14.8419687,8.128 C14.8419687,7.776 14.5579687,7.492 14.2079687,7.492 L13.0339687,7.492 C12.8589687,7.492 12.7159687,7.35 12.7159687,7.174 C12.7159687,7.108 12.7369687,7.047 12.7719687,6.997 L12.7699687,6.996 L14.2429687,5.029 L15.6219687,3.188 C15.6869687,3.1 15.7739687,3.03 15.8749687,2.986 C15.9529687,2.952 16.0389687,2.932 16.1299687,2.932 C16.3209687,2.932 16.4919687,3.017 16.6079687,3.15 L16.6649687,3.225 L19.4579687,6.955 L19.5069687,7.02 C19.5069687,7.02 19.5069687,7.022 19.5089687,7.023 C19.5329687,7.069 19.5469687,7.12 19.5469687,7.174 C19.5469687,7.35 19.4049687,7.492 19.2299687,7.492 L17.9849687,7.492 C17.6609687,7.492 17.3939687,7.735 17.3559687,8.049 C17.3529687,8.068 17.3509687,8.088 17.3509687,8.108 C17.0379687,11.966 13.8119687,15 9.87696875,15 C8.36196875,15 6.95196875,14.55 5.77296875,13.776 L5.77296875,13.776 Z M12.6349687,3.303 C12.6259687,3.297 12.6169687,3.29 12.6069687,3.284 C11.8219687,2.772 10.8849687,2.475 9.87696875,2.475 C7.35896875,2.475 5.27296875,4.336 4.91996875,6.76 C4.91896875,6.77 4.91696875,6.781 4.91596875,6.791 C4.91396875,6.813 4.91296875,6.835 4.91296875,6.856 C4.91296875,7.208 5.19696875,7.492 5.54696875,7.492 L6.72096875,7.492 C6.89596875,7.492 7.03796875,7.634 7.03796875,7.81 C7.03796875,7.875 7.01796875,7.937 6.98296875,7.987 L6.98496875,7.988 L5.51196875,9.956 L4.13196875,11.796 C4.06696875,11.884 3.98096875,11.954 3.87996875,11.998 C3.80196875,12.033 3.71596875,12.052 3.62396875,12.052 C3.43396875,12.052 3.26396875,11.968 3.14696875,11.834 L3.08896875,11.759 L0.29696875,8.029 L0.24896875,7.965 C0.24796875,7.964 0.24796875,7.963 0.24696875,7.961 C0.22196875,7.916 0.20796875,7.865 0.20796875,7.81 C0.20796875,7.634 0.34996875,7.492 0.52496875,7.492 L1.76996875,7.492 C2.09496875,7.492 2.36096875,7.25 2.39996875,6.936 C2.40196875,6.916 2.40396875,6.897 2.40396875,6.877 C2.71696875,3.018 5.94296875,-0.016 9.87696875,-0.016 C11.3919687,-0.016 12.8019687,0.434 13.9819687,1.208 L13.9809687,1.209 C14.5559687,1.585 14.7179687,2.357 14.3419687,2.933 C13.9689687,3.504 13.2079687,3.668 12.6349687,3.303 L12.6349687,3.303 Z" id="progress"  sketch:type="MSShapeGroup"></path>
    </g>
</svg>
