<?xml version="1.0" encoding="utf-8"?>
<svg xmlns="http://www.w3.org/2000/svg"
     xmlns:xlink="http://www.w3.org/1999/xlink"
     width="54px" height="54px" viewBox="0 0 54 54">
  <path fillRule="evenodd"
        d="M 27 54C 12.09 54 0 41.91 0 27 0 12.09 12.09-0 27-0 41.91-0 54 12.09 54 27 54 41.91 41.91 54 27 54ZM 51 27C 51 20.91 48.7 15.36 44.95 11.13 44.95 11.13 11.13 44.95 11.13 44.95 15.36 48.7 20.91 51 27 51 40.23 51 51 40.23 51 27ZM 3 27C 3 33.07 5.28 38.6 9.01 42.83 9.01 42.83 42.83 9.01 42.83 9.01 38.6 5.28 33.07 3 27 3 13.77 3 3 13.77 3 27Z"
        />
</svg>
