<?xml version="1.0" encoding="utf-8"?>

<svg xmlns="http://www.w3.org/2000/svg"
	xmlns:xlink="http://www.w3.org/1999/xlink"
	width="18px" height="18px" viewBox="0 0 18 18">
<g>
	<g>
		<circle cx="9.00" cy="9.00" r="9.00" fill="rgba(239,239,239,0)"/>
		<path fillRule="evenodd" d="M 9 16C 12.86 16 16 12.86 16 9 16 5.14 12.86 2 9 2 5.14 2 2 5.14 2 9 2 12.86 5.14 16 9 16M 9 18C 4.03 18-0 13.97-0 9-0 4.03 4.03-0 9-0 13.97-0 18 4.03 18 9 18 13.97 13.97 18 9 18 9 18 9 18 9 18Z"/>
	</g>
	<path fillRule="evenodd" d="M 6 8C 6 8 12 8 12 8 12.55 8 13 8.45 13 9 13 9.55 12.55 10 12 10 12 10 6 10 6 10 5.45 10 5 9.55 5 9 5 8.45 5.45 8 6 8Z"/>
</g>
</svg>