<?xml version="1.0" encoding="utf-8"?>
<!-- Generator: Adobe Illustrator 19.0.1, SVG Export Plug-In . SVG Version: 6.00 Build 0)  -->
<svg version="1.1" id="Layer_1" xmlns="http://www.w3.org/2000/svg" xmlns:xlink="http://www.w3.org/1999/xlink" x="0px" y="0px"
	 viewBox="0 -1 78 94" style="enable-background:new 0 -1 78 94;" xml:space="preserve">
<style type="text/css">
	.st0{fill:#55BBCC;}
	.st1{fill:#A4A4A4;}
</style>
<g>
	<path class="st0" d="M77.8,21c-0.1-0.1-0.1-0.2-0.2-0.3L75,18.1L56.3-0.6c-0.1-0.1-0.2-0.2-0.3-0.2C55.8-0.9,55.5-1,55.2-1H4
		C1.8-1,0,0.8,0,3v86c0,2.2,1.8,4,4,4h70c2.2,0,4-1.8,4-4V21.8C78,21.5,77.9,21.2,77.8,21z M56,3.4L73.6,21H57c-0.5,0-1-0.5-1-1V3.4
		z M75,89c0,0.5-0.5,1-1,1H4c-0.5,0-1-0.5-1-1V3c0-0.5,0.5-1,1-1h49v18c0,2.2,1.8,4,4,4h18V89z"/>
	<path class="st0" d="M64.5,38H32.8c-0.8,0-1.5-0.7-1.5-1.5S32,35,32.8,35h31.7c0.8,0,1.5,0.7,1.5,1.5S65.3,38,64.5,38z M64.5,31
		h-51c-0.8,0-1.5-0.7-1.5-1.5s0.7-1.5,1.5-1.5h51c0.8,0,1.5,0.7,1.5,1.5S65.3,31,64.5,31z M34.6,24H13.5c-0.8,0-1.5-0.7-1.5-1.5
		s0.7-1.5,1.5-1.5h21.1c0.8,0,1.5,0.7,1.5,1.5S35.4,24,34.6,24z M34.6,17H13.5c-0.8,0-1.5-0.7-1.5-1.5c0-0.8,0.7-1.5,1.5-1.5h21.1
		c0.8,0,1.5,0.7,1.5,1.5C36.1,16.3,35.4,17,34.6,17z M32.8,42h31.7c0.8,0,1.5,0.7,1.5,1.5S65.3,45,64.5,45H32.8
		c-0.8,0-1.5-0.7-1.5-1.5S32,42,32.8,42z"/>
	<path class="st0" d="M63,56v23h-6V56H63L63,56z M49,61v18h-6V61H49L49,61z M35,65v14h-6V65H35L35,65z M21,70v9h-6v-9H21L21,70z
		 M64,53h-8c-1.1,0-2,0.9-2,2v25c0,1.1,0.9,2,2,2h8c1.1,0,2-0.9,2-2V55C66,53.9,65.1,53,64,53L64,53z M50,58h-8c-1.1,0-2,0.9-2,2v20
		c0,1.1,0.9,2,2,2h8c1.1,0,2-0.9,2-2V60C52,58.9,51.1,58,50,58L50,58z M36,62h-8c-1.1,0-2,0.9-2,2v16c0,1.1,0.9,2,2,2h8
		c1.1,0,2-0.9,2-2V64C38,62.9,37.1,62,36,62L36,62z M22,67h-8c-1.1,0-2,0.9-2,2v11c0,1.1,0.9,2,2,2h8c1.1,0,2-0.9,2-2V69
		C24,67.9,23.1,67,22,67L22,67z"/>
	<path class="st1" d="M25.1,42.1c-0.5-0.5-1-0.9-1.6-1.3c-0.6-0.4-1.7-0.7-2.5-0.8v-2h-2v2c-1.1,0.2-1.9,0.9-2.5,1.7s-1,1.8-1,2.9
		c0,0.7,0.2,1.3,0.5,1.8c0.3,0.5,0.7,0.9,1.2,1.3c0.5,0.4,1,0.7,1.5,0.9c0.5,0.3,1.1,0.5,1.5,0.8c0.5,0.3,0.9,0.5,1.2,0.8
		c0.3,0.3,0.5,0.6,0.5,1.1c0,0.6-0.2,1-0.5,1.2S20.6,53,19.9,53c-0.6,0-1.1-0.1-1.7-0.3s-1.1-0.6-1.7-1L14.9,54
		c0.6,0.5,1.2,0.9,2,1.2s1.3,0.7,2,0.8v2h2v-2c1.2-0.3,2.7-1.1,3.3-1.9c0.6-0.8,0.9-1.8,0.9-3c0-0.8-0.2-1.4-0.5-1.9s-0.7-1-1.2-1.3
		c-0.5-0.4-1-0.7-1.5-0.9s-1.1-0.5-1.5-0.7c-0.5-0.2-0.9-0.5-1.2-0.8s-0.5-0.6-0.5-1c0-0.5,0.2-0.9,0.5-1.2c0.3-0.2,0.7-0.4,1.3-0.4
		c0.5,0,1,0.1,1.4,0.3s0.8,0.5,1.2,0.9L25.1,42.1z"/>
</g>
</svg>
