<?xml version="1.0" encoding="utf-8"?>
<svg xmlns="http://www.w3.org/2000/svg"
	xmlns:xlink="http://www.w3.org/1999/xlink"
	width="31px" height="31px" viewBox="0 0 31 31">
<g><circle cx="15.50" cy="15.50" r="15.50"/><path fillRule="evenodd" d="M 15.48 28C 22.36 28 27.95 22.39 27.95 15.5 27.95 8.61 22.36 3 15.48 3 8.6 3 3 8.61 3 15.5 3 22.39 8.6 28 15.48 28M 15.48 31C 6.93 31-0 24.06-0 15.5-0 6.94 6.93 0 15.48 0 24.02 0 30.95 6.94 30.95 15.5 30.95 24.06 24.02 31 15.48 31 15.48 31 15.48 31 15.48 31Z" fill="rgb(165,165,165)"/></g><path fillRule="evenodd" d="M 21.45 13.85C 21.45 13.85 14.73 20.49 14.73 20.49 14.07 21.14 12.99 21.14 12.33 20.49 12.33 20.49 9.46 17.66 9.46 17.66 8.8 17.01 8.8 15.95 9.46 15.29 10.13 14.64 11.2 14.64 11.86 15.29 11.86 15.29 13.53 16.94 13.53 16.94 13.53 16.94 19.05 11.48 19.05 11.48 19.72 10.83 20.79 10.83 21.45 11.48 22.11 12.13 22.11 13.19 21.45 13.85Z" fill="rgb(165,165,165)"/></svg>
