<svg xmlns="http://www.w3.org/2000/svg" width="14.22" height="14.219" viewBox="0 0 14.22 14.219">
  <path id="ic_search.svg" class="cls-1" d="M2450.56,237.311l-3.06-3.059c-0.02-.016-0.03-0.027-0.05-0.042a6.027,6.027,0,0,0,1.03-3.257,5.642,5.642,0,0,0-5.79-5.788,6.156,6.156,0,0,0-6,6,5.641,5.641,0,0,0,5.79,5.787,6.027,6.027,0,0,0,3.25-1.029c0.02,0.017.03,0.036,0.05,0.053l3.05,3.058A1.222,1.222,0,0,0,2450.56,237.311Zm-8.05-2.4a3.69,3.69,0,0,1-3.78-3.781,4.03,4.03,0,0,1,3.92-3.922,3.684,3.684,0,0,1,3.78,3.782A4.015,4.015,0,0,1,2442.51,234.911Z" transform="translate(-2436.69 -225.156)"/>
</svg>
