<?xml version="1.0" encoding="utf-8"?>
<svg xmlns="http://www.w3.org/2000/svg"
	xmlns:xlink="http://www.w3.org/1999/xlink"
	width="18px" height="4px" viewBox="0 0 18 4">
<path fillRule="evenodd" d="M 16.02 3.99C 14.92 3.99 14.02 3.09 14.02 1.98 14.02 0.88 14.92-0.02 16.02-0.02 17.13-0.02 18.03 0.88 18.03 1.98 18.03 3.09 17.13 3.99 16.02 3.99ZM 9.02 3.99C 7.92 3.99 7.02 3.09 7.02 1.98 7.02 0.88 7.92-0.02 9.02-0.02 10.13-0.02 11.03 0.88 11.03 1.98 11.03 3.09 10.13 3.99 9.02 3.99ZM 2.02 3.99C 0.92 3.99 0.02 3.09 0.02 1.98 0.02 0.88 0.92-0.02 2.02-0.02 3.13-0.02 4.03 0.88 4.03 1.98 4.03 3.09 3.13 3.99 2.02 3.99Z"/></svg>
