<?xml version="1.0" encoding="UTF-8" standalone="no"?>
<svg width="18px" height="18px" viewBox="0 0 18 18" version="1.1" xmlns="http://www.w3.org/2000/svg" xmlns:xlink="http://www.w3.org/1999/xlink" xmlns:sketch="http://www.bohemiancoding.com/sketch/ns">
    <!-- Generator: Sketch 3.3.2 (12043) - http://www.bohemiancoding.com/sketch -->
    <title>Shape</title>
    <desc>Created with Sketch.</desc>
    <defs></defs>
    <g id="Page-1" stroke="none" stroke-width="1"  fill-rule="evenodd" sketch:type="MSPage">
        <path d="M17,5 L15,5 L15,7 C15,7.55 14.55,8 14,8 C13.45,8 13,7.55 13,7 L13,5 L11,5 C10.45,5 10,4.55 10,4 C10,3.45 10.45,3 11,3 L13,3 L13,1 C13,0.45 13.45,0 14,0 C14.55,0 15,0.45 15,1 L15,3 L17,3 C17.55,3 18,3.45 18,4 C18,4.55 17.55,5 17,5 L17,5 Z M6.999,6.084 L3,6.084 C2.449,6.084 2,6.532 2,7.084 L2,15 C2,15.552 2.449,16 3,16 L10,16 C10.551,16 11,15.552 11,15 L11,10 C11,9.447 11.448,9 12,9 C12.552,9 13,9.447 13,10 L13,15 C13,16.654 11.654,18 10,18 L3,18 C1.346,18 0,16.654 0,15 L0,7.084 C0,5.429 1.346,4.083 3,4.083 L6.999,4.083 C7.552,4.083 7.999,4.531 7.999,5.083 C7.999,5.636 7.552,6.084 6.999,6.084 L6.999,6.084 Z" id="Shape"  sketch:type="MSShapeGroup"></path>
    </g>
</svg>
