<?xml version="1.0" encoding="utf-8"?>
<svg xmlns="http://www.w3.org/2000/svg"
	xmlns:xlink="http://www.w3.org/1999/xlink"
	width="19px" height="26px" viewBox="0 0 19 26">
<path fillRule="evenodd" d="M 5.04 22.22C 4.75 21.32 4.74 20.27 5.22 19.05 6.78 15.06 8.42 13.42 11.96 10.09 11.96 10.09 13.37 8.77 13.37 8.77 13.37 8.77 14.74 10.14 14.74 10.14 15.57 10.97 16.32 11.76 17 12.48 17 12.48 17 2 17 2 17 2 6.47 2 6.47 2 6.91 2.41 7.38 2.84 7.93 3.32 7.93 3.32 9.97 5.09 9.97 5.09 9.97 5.09 7.68 6.52 7.68 6.52 7.61 6.56 1.02 10.77 2.14 17.4 2.53 19.69 3.7 21.22 5.04 22.22M 9.91 26C 7.31 26 1.24 24.06 0.17 17.73-1.19 9.7 6.62 4.83 6.62 4.83 4.89 3.32 3.77 2.17 2.81 1.22 2.09 0.49 2.44 0 3.36 0 6.82 0 13.93 0 17.39 0 18.57 0 19 0.41 19 1.45 19 4.91 19 12.27 19 15.74 19 16.35 18.82 16.63 18.54 16.63 18.31 16.63 18.01 16.45 17.68 16.08 16.55 14.96 15.11 13.34 13.33 11.55 9.73 14.93 8.46 16.26 7.08 19.78 5.67 23.39 11.34 24.54 11.08 25.64 11.03 25.86 10.59 26 9.91 26 9.91 26 9.91 26 9.91 26Z"/></svg>