<svg id="SvgjsSvg1000" xmlns="http://www.w3.org/2000/svg" version="1.1" xmlns:xlink="http://www.w3.org/1999/xlink" xmlns:svgjs="http://svgjs.com/svgjs" width="12" height="12"><defs id="SvgjsDefs1001"></defs><path id="SvgjsPath1007" d="M346.137 138.654L345.286 141.429L341.908 141.86C341.516 141.86 341.16700000000003 142.12400000000002 341.046 142.51500000000001C340.924 142.90400000000002 341.058 143.33100000000002 341.375 143.572L343.989 145.555L342.98999999999995 148.761C342.86799999999994 149.15099999999998 343.00199999999995 149.578 343.31899999999996 149.819C343.47799999999995 149.94 343.66599999999994 150 343.852 150C344.03999999999996 150 344.227 149.94 344.385 149.819L346.99899999999997 147.837L349.61299999999994 149.819C349.77099999999996 149.94 349.95899999999995 150 350.14599999999996 150C350.33199999999994 150 350.52 149.94 350.679 149.819C350.99699999999996 149.57799999999997 351.13 149.15099999999998 351.008 148.76L350.01 145.55499999999998L352.62399999999997 143.57299999999998C352.94199999999995 143.33199999999997 353.075 142.90499999999997 352.953 142.515C352.83099999999996 142.125 352.484 141.861 352.09099999999995 141.861L348.71399999999994 141.429L347.86099999999993 138.654C347.7389999999999 138.264 347.39199999999994 138.001 346.9989999999999 138C346.6069999999999 138 346.2579999999999 138.264 346.1369999999999 138.654Z " fill="#ffce6a" transform="matrix(1,0,0,1,-341,-138)"></path></svg>