<svg xmlns="http://www.w3.org/2000/svg" width="26" height="26" viewBox="0 0 26 26"><path d="M22.4 2c.87 0 1.6.78 1.6 1.7v12.04c0 1.14-.5 2.26-1 2.26h-9.96l-.6.75L9 23.05V18H4c-.77 0-2-1.23-2-2.26V3.7C2 2.78 2.73 2 3.6 2zM3.6 0A3.66 3.66 0 0 0 0 3.7v12.04C0 17.78 2.02 20 4 20h3v5c0 .74.84 1 1.56 1h.27c.45 0 .9-.63 1.17-1l4-5h9c1.98 0 3-2.22 3-4.26V3.7C26 1.67 24.38 0 22.4 0zm10.48 12.25c0-.22.02-.42.04-.6.03-.18.07-.35.13-.5.07-.16.15-.31.25-.46.11-.14.23-.28.39-.43l.77-.73c.25-.24.46-.5.65-.75a2.8 2.8 0 0 0 .61-1.82c0-.52-.08-.98-.25-1.4-.17-.4-.41-.74-.73-1.01-.31-.28-.7-.49-1.16-.63a5.22 5.22 0 0 0-1.56-.21c-.52 0-1.02.06-1.47.2-.46.13-.86.34-1.19.62-.34.27-.61.62-.81 1.05-.2.42-.3.92-.31 1.5h2.41c.01-.25.05-.46.13-.64.07-.18.18-.33.3-.44.13-.12.28-.2.44-.26.16-.05.33-.08.5-.08.43 0 .75.12.97.35.22.24.33.59.33 1.06a1.72 1.72 0 0 1-.37 1.06c-.12.15-.25.31-.41.47-.16.16-.34.32-.53.48-.24.22-.43.43-.59.65a3.41 3.41 0 0 0-.61 1.51c-.04.3-.06.63-.06 1zm-2.27 3.04c.06.16.15.3.27.4.11.12.25.2.42.27.17.06.35.1.56.1.2 0 .39-.04.55-.1.17-.06.31-.15.42-.26.12-.12.21-.25.27-.4.07-.16.1-.33.1-.5 0-.19-.03-.36-.1-.51a1.1 1.1 0 0 0-.27-.4c-.11-.12-.25-.2-.42-.27-.16-.07-.35-.1-.55-.1-.21 0-.39.03-.56.1-.17.06-.31.15-.42.26a1.1 1.1 0 0 0-.27.4c-.07.16-.1.33-.1.51s.03.35.1.5z"/></svg>