<?xml version="1.0" encoding="utf-8"?>
<svg xmlns="http://www.w3.org/2000/svg"
	xmlns:xlink="http://www.w3.org/1999/xlink"
	width="108px" height="108px" viewBox="0 0 54 54">
<g><path fillRule="evenodd" d="M 27 3C 40.23 3 51 13.77 51 27 51 40.23 40.23 51 27 51 13.77 51 3 40.23 3 27 3 13.77 13.77 3 27 3M 27 0C 12.09 0 0 12.09 0 27 0 41.91 12.09 54 27 54 41.91 54 54 41.91 54 27 54 12.09 41.91 0 27 0 27 0 27 0 27 0Z"/><path fillRule="evenodd" d="M 27 37.71C 20.95 37.71 16.03 32.69 16.03 26.51 16.03 20.34 20.95 15.32 27 15.32 33.05 15.32 37.97 20.34 37.97 26.51 37.97 32.69 33.05 37.71 27 37.71ZM 27 18.46C 22.65 18.46 19.11 22.07 19.11 26.51 19.11 30.95 22.65 34.57 27 34.57 31.35 34.57 34.89 30.95 34.89 26.51 34.89 22.07 31.35 18.46 27 18.46ZM 34.94 41.86C 40.53 38.84 44.01 32.96 44.01 26.51 44.01 20.07 40.53 14.18 34.94 11.16 34.32 10.83 33.54 11.07 33.21 11.71 32.88 12.35 33.12 13.14 33.74 13.48 38.49 16.04 41.44 21.04 41.44 26.51 41.44 31.99 38.49 36.98 33.74 39.55 33.12 39.89 32.88 40.68 33.21 41.32 33.44 41.76 33.88 42.01 34.34 42.01 34.55 42.01 34.75 41.97 34.94 41.86ZM 20.79 41.32C 21.12 40.68 20.89 39.89 20.26 39.55 15.51 36.98 12.56 31.99 12.56 26.51 12.56 21.04 15.51 16.04 20.26 13.48 20.88 13.14 21.12 12.35 20.79 11.71 20.46 11.07 19.69 10.83 19.06 11.16 13.47 14.18 10 20.07 10 26.51 10 32.96 13.47 38.84 19.06 41.86 19.25 41.97 19.46 42.01 19.66 42.01 20.12 42.01 20.56 41.76 20.79 41.32Z"/></g></svg>
