<?xml version="1.0" encoding="utf-8"?>
<svg xmlns="http://www.w3.org/2000/svg"
	xmlns:xlink="http://www.w3.org/1999/xlink"
	width="54px" height="54px" viewBox="0 0 54 54">
<path fillRule="evenodd" d="M 27 54C 12.09 54-0 41.91-0 27-0 12.09 12.09-0 27-0 41.91-0 54 12.09 54 27 54 41.91 41.91 54 27 54ZM 27 3C 13.77 3 3 13.77 3 27 3 40.23 13.77 51 27 51 40.23 51 51 40.23 51 27 51 13.77 40.23 3 27 3ZM 34 42C 34 42 20 42 20 42 18.9 42 18 41.1 18 40 18 40 18 14 18 14 18 12.9 18.9 12 20 12 20 12 34 12 34 12 35.1 12 36 12.9 36 14 36 14 36 40 36 40 36 41.1 35.1 42 34 42ZM 33 15C 33 15 21 15 21 15 21 15 21 39 21 39 21 39 33 39 33 39 33 39 33 15 33 15ZM 27 33C 28.1 33 29 33.9 29 35 29 36.1 28.1 37 27 37 25.9 37 25 36.1 25 35 25 33.9 25.9 33 27 33Z"/></svg>
