<?xml version="1.0" encoding="utf-8"?>
<svg xmlns="http://www.w3.org/2000/svg"
	xmlns:xlink="http://www.w3.org/1999/xlink"
	width="54px" height="54px" viewBox="0 0 54 54">
<path fillRule="evenodd" d="M 27 54C 12.1 54-0 41.9-0 27-0 12.1 12.1-0 27-0 41.9-0 54 12.1 54 27 54 41.9 41.9 54 27 54ZM 27 3C 13.8 3 3 13.8 3 27 3 40.2 13.8 51 27 51 40.2 51 51 40.2 51 27 51 13.8 40.2 3 27 3ZM 41 37C 41 37 28 37 28 37 28 37 28 39 28 39 28 39 31.5 39 31.5 39 32.3 39 33 39.7 33 40.5 33 41.3 32.3 42 31.5 42 31.5 42 22.5 42 22.5 42 21.7 42 21 41.3 21 40.5 21 39.7 21.7 39 22.5 39 22.5 39 26 39 26 39 26 39 26 37 26 37 26 37 13 37 13 37 12.4 37 12 36.6 12 36 12 36 12 17 12 17 12 16.4 12.4 16 13 16 13 16 41 16 41 16 41.6 16 42 16.4 42 17 42 17 42 36 42 36 42 36.6 41.6 37 41 37ZM 39 19C 39 19 15 19 15 19 15 19 15 34 15 34 15 34 39 34 39 34 39 34 39 19 39 19Z"/></svg>
