<?xml version="1.0" encoding="utf-8"?>
<svg xmlns="http://www.w3.org/2000/svg"
	xmlns:xlink="http://www.w3.org/1999/xlink"
	width="54px" height="54px" viewBox="0 0 54 54">
<path fillRule="evenodd" d="M 27 54C 12.1 54-0 41.9-0 27-0 12.1 12.1-0 27-0 41.9-0 54 12.1 54 27 54 41.9 41.9 54 27 54ZM 27 3C 13.8 3 3 13.8 3 27 3 40.2 13.8 51 27 51 40.2 51 51 40.2 51 27 51 13.8 40.2 3 27 3ZM 38 37C 38 37 27.2 37 27.2 37 27.2 37 21.9 42.3 21.9 42.3 21.6 42.7 21.2 43 20.7 43 20.7 43 20.4 43 20.4 43 19.6 43 19 42.4 19 41.6 19 41.6 19 37 19 37 19 37 16 37 16 37 13.8 37 12 35.2 12 33 12 33 12 20 12 20 12 17.8 13.8 16 16 16 16 16 38 16 38 16 40.2 16 42 17.8 42 20 42 20 42 33 42 33 42 35.2 40.2 37 38 37ZM 39 20C 39 19.5 38.5 19 38 19 38 19 16 19 16 19 15.5 19 15 19.5 15 20 15 20 15 33 15 33 15 33.5 15.5 34 16 34 16 34 22 34 22 34 22 34 22 37.9 22 37.9 22 37.9 25.9 34 25.9 34 25.9 34 38 34 38 34 38.5 34 39 33.5 39 33 39 33 39 20 39 20ZM 32 25C 32 25 19 25 19 25 18.4 25 18 24.6 18 24 18 23.4 18.4 23 19 23 19 23 32 23 32 23 32.6 23 33 23.4 33 24 33 24.6 32.6 25 32 25ZM 19 28C 19 28 26 28 26 28 26.6 28 27 28.4 27 29 27 29.6 26.6 30 26 30 26 30 19 30 19 30 18.4 30 18 29.6 18 29 18 28.4 18.4 28 19 28Z"/></svg>
