<?xml version="1.0" encoding="utf-8"?>
<svg xmlns="http://www.w3.org/2000/svg"
	xmlns:xlink="http://www.w3.org/1999/xlink"
	width="108px" height="108px" viewBox="0 0 54 54">
<path fillRule="evenodd" d="M 27 54C 12.09 54 0 41.91 0 27 0 12.09 12.09 0 27 0 41.91 0 54 12.09 54 27 54 41.91 41.91 54 27 54ZM 27 3C 13.75 3 3 13.75 3 27 3 40.25 13.75 51 27 51 40.25 51 51 40.25 51 27 51 13.75 40.25 3 27 3ZM 38 43C 38 43 26 43 26 43 24.9 43 24 42.1 24 41 24 41 24 20 24 20 24 18.9 24.9 18 26 18 26 18 38 18 38 18 39.1 18 40 18.9 40 20 40 20 40 41 40 41 40 42.1 39.1 43 38 43ZM 37 21C 37 21 27 21 27 21 27 21 27 40 27 40 27 40 37 40 37 40 37 40 37 21 37 21ZM 32 35C 32.83 35 33.5 35.67 33.5 36.5 33.5 37.33 32.83 38 32 38 31.17 38 30.5 37.33 30.5 36.5 30.5 35.67 31.17 35 32 35ZM 32 15C 32 15 16 15 16 15 16 15 16 37 16 37 16 37 22 37 22 37 22 37 22 40 22 40 22 40 15 40 15 40 13.9 40 13 39.1 13 38 13 38 13 14 13 14 13 12.9 13.9 12 15 12 15 12 33 12 33 12 34.1 12 35 12.9 35 14 35 14 35 16 35 16 35 16 32 16 32 16 32 16 32 15 32 15Z"/></svg>
