<?xml version="1.0" encoding="utf-8"?>
<svg xmlns="http://www.w3.org/2000/svg"
	xmlns:xlink="http://www.w3.org/1999/xlink"
	width="54px" height="54px" viewBox="0 0 54 54">
<path fillRule="evenodd" d="M 27 54C 12.1 54 0 41.9 0 27 0 12.1 12.1 0 27 0 41.9 0 54 12.1 54 27 54 41.9 41.9 54 27 54ZM 27 3C 13.8 3 3 13.8 3 27 3 40.3 13.7 51 27 51 40.3 51 51 40.3 51 27 51 13.7 40.3 3 27 3ZM 40 39C 40 39 14 39 14 39 12.9 39 12 38.1 12 37 12 37 12 17 12 17 12 15.9 12.9 15 14 15 14 15 40 15 40 15 41.1 15 42 15.9 42 17 42 17 42 37 42 37 42 38.1 41.1 39 40 39ZM 39 18C 39 18 15 18 15 18 15 18 15 36 15 36 15 36 39 36 39 36 39 36 39 18 39 18ZM 24.5 22.1C 24.5 22.1 32.5 26.1 32.5 26.1 32.8 26.3 33 26.6 33 27 33 27.4 32.8 27.7 32.5 27.9 32.5 27.9 24.5 31.9 24.5 31.9 24.3 32 24.2 32.1 24 32.1 23.8 32.1 23.6 32.1 23.5 32 23.2 31.8 23 31.5 23 31.1 23 31.1 23 23 23 23 23 22.7 23.2 22.3 23.5 22.1 23.8 21.9 24.2 21.9 24.5 22.1ZM 25 29.4C 25 29.4 29.8 27 29.8 27 29.8 27 25 24.6 25 24.6 25 24.6 25 29.4 25 29.4Z"/></svg>
