<?xml version="1.0" encoding="utf-8"?>
<svg xmlns="http://www.w3.org/2000/svg"
	xmlns:xlink="http://www.w3.org/1999/xlink"
	width="108px" height="108px" viewBox="0 0 54 54">
<g><path fillRule="evenodd" d="M 27 3C 40.23 3 51 13.77 51 27 51 40.23 40.23 51 27 51 13.77 51 3 40.23 3 27 3 13.77 13.77 3 27 3M 27 0C 12.09 0 0 12.09 0 27 0 41.91 12.09 54 27 54 41.91 54 54 41.91 54 27 54 12.09 41.91 0 27 0 27 0 27 0 27 0Z"/><path fillRule="evenodd" d="M 22.52 28.08C 23.9 28.08 25.36 27.79 26.91 27.48 28.67 27.14 30.49 26.78 32.46 26.78 33.34 26.78 34.18 26.85 35 27 35 27 35 16.6 35 16.6 34.2 16.33 33.37 16.21 32.46 16.21 31.07 16.21 29.61 16.49 28.06 16.8 26.31 17.14 24.49 17.5 22.52 17.5 21.65 17.5 20.81 17.43 20 17.29 20 17.29 20 27.68 20 27.68 20.78 27.95 21.6 28.08 22.52 28.08M 38 31.28C 36.09 30.15 34.25 29.78 32.46 29.78 29.1 29.78 25.87 31.08 22.52 31.08 20.73 31.08 18.9 30.71 17 29.58 17 24.06 17 18.53 17 13.01 18.9 14.14 20.73 14.5 22.52 14.5 25.87 14.5 29.1 13.21 32.46 13.21 34.25 13.21 36.09 13.57 38 14.71 38 20.23 38 25.76 38 31.28 38 31.28 38 31.28 38 31.28Z"/><path fillRule="evenodd" d="M 18.5 13C 19.33 13 20 13.67 20 14.5 20 14.5 20 39.5 20 39.5 20 40.33 19.33 41 18.5 41 17.67 41 17 40.33 17 39.5 17 39.5 17 14.5 17 14.5 17 13.67 17.67 13 18.5 13Z"/></g></svg>
