<svg xmlns="http://www.w3.org/2000/svg" width="16" height="18" viewBox="0 0 16 18">
  <defs>
    <style>
      .cls-1 {
        fill: #ccc;
        fill-rule: evenodd;
      }
    </style>
  </defs>
  <path id="ic_bin_copy_7" data-name="ic_bin copy 7" class="cls-1" d="M1117.14,658H1114v-1a2.006,2.006,0,0,0-2-2h-4a2.006,2.006,0,0,0-2,2v1h-3.14a0.914,0.914,0,0,0-.86.97v0.06a0.914,0.914,0,0,0,.86.97h0.23l0.91,10.075a2.945,2.945,0,0,0,3,2.925h6a2.928,2.928,0,0,0,3-2.825L1116.91,660h0.23a0.914,0.914,0,0,0,.86-0.97v-0.06A0.914,0.914,0,0,0,1117.14,658Zm-9.14-1h4v1h-4v-1Zm6,13.075a0.941,0.941,0,0,1-1,.925h-6a0.964,0.964,0,0,1-1-1.025L1105.11,660h9.78ZM1108.5,668h0a0.5,0.5,0,0,1-.5-0.5v-4a0.5,0.5,0,0,1,.5-0.5h0a0.5,0.5,0,0,1,.5.5v4A0.5,0.5,0,0,1,1108.5,668Zm3,0h0a0.5,0.5,0,0,1-.5-0.5v-4a0.5,0.5,0,0,1,.5-0.5h0a0.5,0.5,0,0,1,.5.5v4A0.5,0.5,0,0,1,1111.5,668Z" transform="translate(-1102 -655)"/>
</svg>
