<svg id="SvgjsSvg1011" xmlns="http://www.w3.org/2000/svg" version="1.1" xmlns:xlink="http://www.w3.org/1999/xlink" xmlns:svgjs="http://svgjs.com/svgjs" width="16" height="18"><defs id="SvgjsDefs1012"></defs><path id="SvgjsPath1013" d="M167.14 897L164 897L164 896C164 894.9 163.1 894 162 894L158 894C156.9 894 156 894.9 156 896L156 897L152.86 897C152.38000000000002 897 152 897.43 152 897.97L152 898.03C152 898.5699999999999 152.38 899 152.86 899L153.09 899L154 909.075C154 910.725 155.35 912 157 912L163 912C164.65 912 166 910.725 166 909.175L166.91 899L167.14 899C167.61999999999998 899 168 898.57 168 898.03L168 897.97C168 897.4300000000001 167.62 897 167.14 897ZM164 909.075C164 909.625 163.55 910 163 910L157 910C156.45 910 156 909.625 156 908.975L155.11 899L164.89000000000001 899ZM159 906.5L159 902.5C159 902.225 158.775 902 158.5 902C158.225 902 158 902.225 158 902.5L158 906.5C158 906.775 158.225 907 158.5 907C158.775 907 159 906.775 159 906.5ZM158 896L162 896L162 897L158 897ZM162 906.5L162 902.5C162 902.225 161.775 902 161.5 902C161.225 902 161 902.225 161 902.5L161 906.5C161 906.775 161.225 907 161.5 907C161.775 907 162 906.775 162 906.5Z " transform="matrix(1,0,0,1,-152,-894)"></path></svg>
