<?xml version="1.0" encoding="utf-8"?>
<!-- Generator: Adobe Illustrator 19.2.1, SVG Export Plug-In . SVG Version: 6.00 Build 0)  -->
<svg version="1.1" id="Layer_1" xmlns="http://www.w3.org/2000/svg" xmlns:xlink="http://www.w3.org/1999/xlink" x="0px" y="0px"
	 viewBox="0 0 54 70" style="enable-background:new 0 0 54 70;" xml:space="preserve">
<style type="text/css">
	.st0{fill:#CCCCCC;}
</style>
<path class="st0" d="M46,28H14V17.5C14,10.1,20,4,27.5,4S41,10.1,41,17.5c0,0.8,0.7,1.5,1.5,1.5s1.5-0.7,1.5-1.5
	C44,8.4,36.6,1,27.5,1S11,8.4,11,17.5V28H8c-4.3-0.1-7.9,3.2-8,7.5v24.3c0,4.4,3.6,8,8,8.1h38c4.4,0,8-3.6,8-8.1V35.7
	C54,31.4,50.3,28,46,28z M51,59.8c0,2.8-2.2,5.2-5,5.2H8c-2.8,0-5-2.4-5-5.2V35.7c0-2.6,2.2-4.8,4.8-4.7H46c2.6-0.1,4.9,1.9,5,4.5
	c0,0.1,0,0.1,0,0.2V59.8z"/>
<path class="st0" d="M30,45.2c0,1.1-0.6,2.1-1.5,2.6v4.5c0,0.8-0.7,1.5-1.5,1.5c-0.8,0-1.5-0.7-1.5-1.5v-4.5
	c-0.9-0.5-1.5-1.5-1.5-2.6c0-1.6,1.3-3,3-3C28.7,42.2,30,43.6,30,45.2z"/>
</svg>
