<?xml version="1.0" encoding="UTF-8" standalone="no"?>
<svg width="19px" height="20px" viewBox="0 0 19 20" version="1.1" xmlns="http://www.w3.org/2000/svg" xmlns:xlink="http://www.w3.org/1999/xlink" xmlns:sketch="http://www.bohemiancoding.com/sketch/ns">
    <!-- Generator: Sketch 3.3.2 (12043) - http://www.bohemiancoding.com/sketch -->
    <title>upload-circle</title>
    <desc>Created with Sketch.</desc>
    <defs></defs>
    <g id="Page-1" stroke="none" stroke-width="1"  fill-rule="evenodd" sketch:type="MSPage">
        <path d="M9.20746875,19.3905 C4.23146875,19.3905 0.19746875,15.4295 0.19746875,10.5445 C0.19746875,9.0605 0.57446875,7.6645 1.23246875,6.4365 L2.87346875,8.0725 C2.56246875,8.8385 2.37946875,9.6695 2.37946875,10.5445 C2.37946875,14.2455 5.43646875,17.2465 9.20846875,17.2465 C12.9794687,17.2465 16.0364687,14.2455 16.0364687,10.5445 C16.0364687,9.6755 15.8544687,8.8505 15.5484687,8.0885 L17.1904687,6.4515 C17.8434687,7.6755 18.2184687,9.0665 18.2184687,10.5445 C18.2184687,15.4295 14.1844687,19.3905 9.20746875,19.3905 L9.20746875,19.3905 Z M9.88946875,12.1395 L9.88746875,12.1395 C9.80046875,12.2205 9.69646875,12.2845 9.58046875,12.3285 C9.55646875,12.3375 9.52946875,12.3355 9.50346875,12.3425 C9.41546875,12.3685 9.32546875,12.3945 9.22646875,12.3945 C9.12846875,12.3945 9.03846875,12.3685 8.94946875,12.3425 C8.92446875,12.3355 8.89746875,12.3375 8.87346875,12.3285 C8.75746875,12.2845 8.65346875,12.2205 8.56646875,12.1395 L8.56446875,12.1395 L5.48546875,9.2835 C5.12146875,8.9445 5.12146875,8.3975 5.48546875,8.0585 C5.85046875,7.7205 6.44146875,7.7205 6.80546875,8.0585 L8.29346875,9.4395 L8.29346875,1.2475 C8.29346875,0.7695 8.71146875,0.3815 9.22646875,0.3815 C9.74246875,0.3815 10.1604687,0.7695 10.1604687,1.2475 L10.1604687,9.4395 L11.6484687,8.0585 C12.0124687,7.7205 12.6034687,7.7205 12.9674687,8.0585 C13.3324687,8.3975 13.3324687,8.9445 12.9674687,9.2835 L9.88946875,12.1395 L9.88946875,12.1395 Z" id="upload-circle"  sketch:type="MSShapeGroup"></path>
    </g>
</svg>
