<svg id="SvgjsSvg1000" xmlns="http://www.w3.org/2000/svg" version="1.1" xmlns:xlink="http://www.w3.org/1999/xlink" xmlns:svgjs="http://svgjs.com/svgjs" width="14" height="14"><defs id="SvgjsDefs1001"></defs><path id="SvgjsPath1007" d="M995 282C995.552 282 996 282.448 996 283L996 285L1006 285L1006 283C1006 282.448 1006.45 282 1007 282C1007.55 282 1008 282.448 1008 283L1008 286C1008 286.552 1007.55 287 1007 287L995 287C994.448 287 994 286.552 994 286L994 283C994 282.448 994.448 282 995 282ZM1001 273C1001.55 273 1002 273.448 1002 274L1002 279.649L1003.3 278.349C1003.6899999999999 277.959 1004.3199999999999 277.959 1004.7099999999999 278.349C1005.0999999999999 278.74 1005.0999999999999 279.373 1004.7099999999999 279.764L1001.7599999999999 282.713C1001.5586299999999 282.91489 1001.2932699999999 283.01254 1001.0299999999999 283.00594C1000.7706099999998 283.01244 1000.5091799999999 282.91774000000004 1000.3089299999998 282.72185C1000.2991599999998 282.71249 1000.2895699999998 282.70294 1000.2801799999999 282.6932L997.3489899999998 279.76301C996.9589899999999 279.37301 996.9589899999999 278.74001 997.3489899999998 278.34901C997.7399899999998 277.95901000000003 998.3729899999998 277.95901000000003 998.7639899999998 278.34901L999.9999899999998 279.58669000000003L999.9999899999998 274.00001000000003C999.9999899999998 273.44801 1000.4499899999998 273.00001000000003 1000.9999899999998 273.00001000000003Z " transform="matrix(1,0,0,1,-994,-273)"></path></svg>
