<?xml version="1.0" encoding="UTF-8" standalone="no"?>
<svg width="18px" height="19px" viewBox="0 0 18 19" version="1.1" xmlns="http://www.w3.org/2000/svg" xmlns:xlink="http://www.w3.org/1999/xlink" xmlns:sketch="http://www.bohemiancoding.com/sketch/ns">
    <!-- Generator: Sketch 3.3.2 (12043) - http://www.bohemiancoding.com/sketch -->
    <title>Shape</title>
    <desc>Created with Sketch.</desc>
    <defs></defs>
    <g id="Page-1" stroke="none" stroke-width="1"  fill-rule="evenodd" sketch:type="MSPage">
        <path d="M16.856,17.1827849 C16.108,17.8807849 15.098,18.2177849 13.985,18.2177849 C12.241,18.2177849 10.241,17.3927849 8.582,15.8397849 C6.97,14.3297849 6.009,12.3967849 6.01,10.6677849 C6.011,9.53978488 6.409,8.57478488 7.158,7.87478488 C7.564,7.49678488 8.194,7.52278488 8.568,7.93578488 C8.941,8.34778488 8.914,8.98878488 8.509,9.36678488 C8.175,9.67778488 8.007,10.1157849 8.006,10.6697849 C8.005,11.8247849 8.744,13.2347849 9.934,14.3497849 C11.996,16.2807849 14.525,16.6037849 15.506,15.6907849 C15.838,15.3797849 16.008,14.9407849 16.008,14.3857849 C16.008,13.2307849 15.27,11.8207849 14.08,10.7067849 C13.802,10.4467849 13.506,10.2077849 13.203,9.99778488 C12.748,9.68278488 12.63,9.05278488 12.941,8.59078488 C13.253,8.12778488 13.875,8.00978488 14.328,8.32378488 C14.711,8.58978488 15.082,8.88978488 15.432,9.21778488 C17.043,10.7257849 18.004,12.6587849 18.003,14.3877849 C18.003,15.5157849 17.606,16.4817849 16.856,17.1827849 L16.856,17.1827849 Z M10.171,10.6097849 C9.902,10.6097849 9.633,10.4997849 9.436,10.2817849 C9.063,9.87078488 9.09,9.22978488 9.496,8.85078488 C9.828,8.53978488 9.998,8.10178488 9.998,7.54678488 C9.999,6.39178488 9.26,4.98178488 8.07,3.86778488 C6.008,1.93778488 3.478,1.61178488 2.498,2.52678488 C2.165,2.83678488 1.996,3.27578488 1.996,3.82978488 C1.995,4.98578488 2.735,6.39578488 3.924,7.50978488 C4.196,7.76578488 4.492,8.00378488 4.803,8.22078488 C5.258,8.53678488 5.373,9.16778488 5.062,9.62878488 C4.751,10.0907849 4.13,10.2087849 3.675,9.89178488 C3.284,9.61978488 2.913,9.31978488 2.571,8.99878488 C0.96,7.49178488 -8.8817842e-16,5.55878488 -8.8817842e-16,3.82878488 C0.001,2.70078488 0.398,1.73478488 1.147,1.03478488 C3.071,-0.757215125 6.704,-0.166215125 9.423,2.37778488 C11.033,3.88678488 11.994,5.81878488 11.993,7.54778488 C11.992,8.67678488 11.595,9.64178488 10.846,10.3417849 C10.654,10.5217849 10.413,10.6097849 10.171,10.6097849 L10.171,10.6097849 Z" id="Shape" opacity="0.8"  sketch:type="MSShapeGroup"></path>
    </g>
</svg>
