<?xml version="1.0" encoding="UTF-8" standalone="no"?>
<svg width="22px" height="15px" viewBox="0 0 22 15" version="1.1" xmlns="http://www.w3.org/2000/svg" xmlns:xlink="http://www.w3.org/1999/xlink" xmlns:sketch="http://www.bohemiancoding.com/sketch/ns">
    <!-- Generator: Sketch 3.3.2 (12043) - http://www.bohemiancoding.com/sketch -->
    <title>Shape</title>
    <desc>Created with Sketch.</desc>
    <defs></defs>
    <g id="Page-1" stroke="none" stroke-width="1"  fill-rule="evenodd" sketch:type="MSPage">
        <path d="M11.1094492,12.726 L11.1094492,12.726 C14.6871318,12.726 17.9102427,10.4854552 19.4306671,6.99359338 C19.2545765,7.387396 19.2545765,7.8291974 19.422716,8.2143875 C17.9102427,4.74054482 14.6871318,2.5 11.1094492,2.5 C7.53264985,2.5 4.30960668,4.74065759 2.79167982,8.22690872 C2.96491385,7.83634473 2.96491385,7.39586772 2.79718243,7.0116125 C4.30960668,10.4853424 7.53264985,12.726 11.1094492,12.726 L11.1094492,12.726 Z M11.1094492,14.726 C6.61544924,14.726 2.74244924,11.896 0.963449244,7.81 C0.908449244,7.684 0.908449244,7.54 0.963449244,7.416 C2.74244924,3.33 6.61544924,0.5 11.1094492,0.5 C15.6044492,0.5 19.4774492,3.33 21.2564492,7.416 C21.3114492,7.542 21.3114492,7.687 21.2564492,7.81 C19.4774492,11.896 15.6044492,14.726 11.1094492,14.726 Z M11.1134492,4.604 C9.45144924,4.604 8.10444924,5.95 8.10444924,7.614 C8.10444924,9.275 9.45044924,10.623 11.1134492,10.623 C12.7744492,10.623 14.1224492,9.275 14.1224492,7.614 C14.1224492,5.952 12.7754492,4.604 11.1134492,4.604 Z" id="Shape"  sketch:type="MSShapeGroup"></path>
    </g>
</svg>
