<?xml version="1.0" encoding="UTF-8" standalone="no"?>
<!DOCTYPE svg PUBLIC "-//W3C//DTD SVG 1.1//EN"
 "http://www.w3.org/Graphics/SVG/1.1/DTD/svg11.dtd">
<!-- Generated by graphviz version 2.40.1 (20161225.0304)
 -->
<!-- Title: dependencies Pages: 1 -->
<svg width="828pt" height="211pt"
 viewBox="0.00 0.00 828.00 211.00" xmlns="http://www.w3.org/2000/svg" xmlns:xlink="http://www.w3.org/1999/xlink">
<g id="graph0" class="graph" transform="scale(1 1) rotate(0) translate(4 207)">
<title>dependencies</title>
<polygon fill="#ffffff" stroke="transparent" points="-4,4 -4,-207 824,-207 824,4 -4,4"/>
<text text-anchor="start" x="389.0091" y="-42.4" font-family="sans-serif" font-weight="bold" font-size="14.00" fill="#000000">Legend</text>
<polygon fill="#ffffb3" stroke="transparent" points="176,-10 176,-30 196,-30 196,-10 176,-10"/>
<text text-anchor="start" x="199.629" y="-15.4" font-family="sans-serif" font-size="14.00" fill="#000000"> &#160;Declarations</text>
<polygon fill="#8dd3c7" stroke="transparent" points="289,-10 289,-30 309,-30 309,-10 289,-10"/>
<text text-anchor="start" x="312.7251" y="-15.4" font-family="sans-serif" font-size="14.00" fill="#000000"> &#160;Module</text>
<polygon fill="#80b1d3" stroke="transparent" points="375,-10 375,-30 395,-30 395,-10 375,-10"/>
<text text-anchor="start" x="398.7812" y="-15.4" font-family="sans-serif" font-size="14.00" fill="#000000"> &#160;Bootstrap</text>
<polygon fill="#fdb462" stroke="transparent" points="472,-10 472,-30 492,-30 492,-10 472,-10"/>
<text text-anchor="start" x="495.6732" y="-15.4" font-family="sans-serif" font-size="14.00" fill="#000000"> &#160;Providers</text>
<polygon fill="#fb8072" stroke="transparent" points="568,-10 568,-30 588,-30 588,-10 568,-10"/>
<text text-anchor="start" x="591.7258" y="-15.4" font-family="sans-serif" font-size="14.00" fill="#000000"> &#160;Exports</text>
<g id="clust1" class="cluster">
<title>cluster_LoginModule</title>
<polygon fill="none" stroke="#000000" stroke-dasharray="1,5" points="8,-70 8,-195 812,-195 812,-70 8,-70"/>
</g>
<g id="clust2" class="cluster">
<title>cluster_LoginModule_declarations</title>
<polygon fill="none" stroke="#000000" points="146,-78 146,-130 804,-130 804,-78 146,-78"/>
</g>
<g id="clust7" class="cluster">
<title>cluster_LoginModule_imports</title>
<polygon fill="none" stroke="#000000" points="16,-78 16,-130 138,-130 138,-78 16,-78"/>
</g>
<!-- LoginPageComponent -->
<g id="node1" class="node">
<title>LoginPageComponent</title>
<polygon fill="#ffffb3" stroke="#000000" points="795.9874,-122 654.0126,-122 654.0126,-86 795.9874,-86 795.9874,-122"/>
<text text-anchor="middle" x="725" y="-99.8" font-family="Times,serif" font-size="14.00" fill="#000000">LoginPageComponent</text>
</g>
<!-- LoginModule -->
<g id="node5" class="node">
<title>LoginModule</title>
<polygon fill="#8dd3c7" stroke="#000000" points="445.493,-187 442.493,-191 421.493,-191 418.493,-187 352.507,-187 352.507,-151 445.493,-151 445.493,-187"/>
<text text-anchor="middle" x="399" y="-164.8" font-family="Times,serif" font-size="14.00" fill="#000000">LoginModule</text>
</g>
<!-- LoginPageComponent&#45;&gt;LoginModule -->
<g id="edge1" class="edge">
<title>LoginPageComponent&#45;&gt;LoginModule</title>
<path fill="none" stroke="#000000" d="M725,-122.2843C725,-143.3211 725,-175 725,-175 725,-175 455.7079,-175 455.7079,-175"/>
<polygon fill="#000000" stroke="#000000" points="455.7079,-171.5001 445.7079,-175 455.7078,-178.5001 455.7079,-171.5001"/>
</g>
<!-- AuthPageComponent -->
<g id="node2" class="node">
<title>AuthPageComponent</title>
<polygon fill="#ffffb3" stroke="#000000" points="636.0422,-122 499.9578,-122 499.9578,-86 636.0422,-86 636.0422,-122"/>
<text text-anchor="middle" x="568" y="-99.8" font-family="Times,serif" font-size="14.00" fill="#000000">AuthPageComponent</text>
</g>
<!-- AuthPageComponent&#45;&gt;LoginModule -->
<g id="edge2" class="edge">
<title>AuthPageComponent&#45;&gt;LoginModule</title>
<path fill="none" stroke="#000000" d="M568,-122.0225C568,-139.3734 568,-163 568,-163 568,-163 455.6274,-163 455.6274,-163"/>
<polygon fill="#000000" stroke="#000000" points="455.6274,-159.5001 445.6274,-163 455.6273,-166.5001 455.6274,-159.5001"/>
</g>
<!-- ResetPasswordComponent -->
<g id="node3" class="node">
<title>ResetPasswordComponent</title>
<polygon fill="#ffffb3" stroke="#000000" points="482.087,-122 315.913,-122 315.913,-86 482.087,-86 482.087,-122"/>
<text text-anchor="middle" x="399" y="-99.8" font-family="Times,serif" font-size="14.00" fill="#000000">ResetPasswordComponent</text>
</g>
<!-- ResetPasswordComponent&#45;&gt;LoginModule -->
<g id="edge3" class="edge">
<title>ResetPasswordComponent&#45;&gt;LoginModule</title>
<path fill="none" stroke="#000000" d="M399,-122.1061C399,-122.1061 399,-140.991 399,-140.991"/>
<polygon fill="#000000" stroke="#000000" points="395.5001,-140.9909 399,-150.991 402.5001,-140.991 395.5001,-140.9909"/>
</g>
<!-- CheckPageComponent -->
<g id="node4" class="node">
<title>CheckPageComponent</title>
<polygon fill="#ffffb3" stroke="#000000" points="298.3103,-122 153.6897,-122 153.6897,-86 298.3103,-86 298.3103,-122"/>
<text text-anchor="middle" x="226" y="-99.8" font-family="Times,serif" font-size="14.00" fill="#000000">CheckPageComponent</text>
</g>
<!-- CheckPageComponent&#45;&gt;LoginModule -->
<g id="edge4" class="edge">
<title>CheckPageComponent&#45;&gt;LoginModule</title>
<path fill="none" stroke="#000000" d="M226,-122.0225C226,-139.3734 226,-163 226,-163 226,-163 342.1837,-163 342.1837,-163"/>
<polygon fill="#000000" stroke="#000000" points="342.1837,-166.5001 352.1837,-163 342.1837,-159.5001 342.1837,-166.5001"/>
</g>
<!-- Ng2Webstorage -->
<g id="node6" class="node">
<title>Ng2Webstorage</title>
<polygon fill="#8dd3c7" stroke="#000000" points="130.4608,-122 127.4608,-126 106.4608,-126 103.4608,-122 23.5392,-122 23.5392,-86 130.4608,-86 130.4608,-122"/>
<text text-anchor="middle" x="77" y="-99.8" font-family="Times,serif" font-size="14.00" fill="#000000">Ng2Webstorage</text>
</g>
<!-- Ng2Webstorage&#45;&gt;LoginModule -->
<g id="edge5" class="edge">
<title>Ng2Webstorage&#45;&gt;LoginModule</title>
<path fill="none" stroke="#000000" d="M77,-122.2843C77,-143.3211 77,-175 77,-175 77,-175 342.1784,-175 342.1784,-175"/>
<polygon fill="#000000" stroke="#000000" points="342.1785,-178.5001 352.1784,-175 342.1784,-171.5001 342.1785,-178.5001"/>
</g>
</g>
</svg>
