<?xml version="1.0" encoding="UTF-8" standalone="no"?>
<!DOCTYPE svg PUBLIC "-//W3C//DTD SVG 1.1//EN"
 "http://www.w3.org/Graphics/SVG/1.1/DTD/svg11.dtd">
<!-- Generated by graphviz version 2.40.1 (20161225.0304)
 -->
<!-- Title: dependencies Pages: 1 -->
<svg width="666pt" height="211pt"
 viewBox="0.00 0.00 666.00 211.00" xmlns="http://www.w3.org/2000/svg" xmlns:xlink="http://www.w3.org/1999/xlink">
<g id="graph0" class="graph" transform="scale(1 1) rotate(0) translate(4 207)">
<title>dependencies</title>
<polygon fill="#ffffff" stroke="transparent" points="-4,4 -4,-207 662,-207 662,4 -4,4"/>
<text text-anchor="start" x="308.0091" y="-42.4" font-family="sans-serif" font-weight="bold" font-size="14.00" fill="#000000">Legend</text>
<polygon fill="#ffffb3" stroke="transparent" points="95,-10 95,-30 115,-30 115,-10 95,-10"/>
<text text-anchor="start" x="118.629" y="-15.4" font-family="sans-serif" font-size="14.00" fill="#000000"> &#160;Declarations</text>
<polygon fill="#8dd3c7" stroke="transparent" points="208,-10 208,-30 228,-30 228,-10 208,-10"/>
<text text-anchor="start" x="231.7251" y="-15.4" font-family="sans-serif" font-size="14.00" fill="#000000"> &#160;Module</text>
<polygon fill="#80b1d3" stroke="transparent" points="294,-10 294,-30 314,-30 314,-10 294,-10"/>
<text text-anchor="start" x="317.7812" y="-15.4" font-family="sans-serif" font-size="14.00" fill="#000000"> &#160;Bootstrap</text>
<polygon fill="#fdb462" stroke="transparent" points="391,-10 391,-30 411,-30 411,-10 391,-10"/>
<text text-anchor="start" x="414.6732" y="-15.4" font-family="sans-serif" font-size="14.00" fill="#000000"> &#160;Providers</text>
<polygon fill="#fb8072" stroke="transparent" points="487,-10 487,-30 507,-30 507,-10 487,-10"/>
<text text-anchor="start" x="510.7258" y="-15.4" font-family="sans-serif" font-size="14.00" fill="#000000"> &#160;Exports</text>
<g id="clust1" class="cluster">
<title>cluster_LoginModule</title>
<polygon fill="none" stroke="#000000" stroke-dasharray="1,5" points="8,-70 8,-195 650,-195 650,-70 8,-70"/>
</g>
<g id="clust2" class="cluster">
<title>cluster_LoginModule_declarations</title>
<polygon fill="none" stroke="#000000" points="146,-78 146,-130 642,-130 642,-78 146,-78"/>
</g>
<g id="clust6" class="cluster">
<title>cluster_LoginModule_imports</title>
<polygon fill="none" stroke="#000000" points="16,-78 16,-130 138,-130 138,-78 16,-78"/>
</g>
<!-- LoginPageComponent -->
<g id="node1" class="node">
<title>LoginPageComponent</title>
<polygon fill="#ffffb3" stroke="#000000" points="633.9874,-122 492.0126,-122 492.0126,-86 633.9874,-86 633.9874,-122"/>
<text text-anchor="middle" x="563" y="-99.8" font-family="Times,serif" font-size="14.00" fill="#000000">LoginPageComponent</text>
</g>
<!-- LoginModule -->
<g id="node4" class="node">
<title>LoginModule</title>
<polygon fill="#8dd3c7" stroke="#000000" points="367.493,-187 364.493,-191 343.493,-191 340.493,-187 274.507,-187 274.507,-151 367.493,-151 367.493,-187"/>
<text text-anchor="middle" x="321" y="-164.8" font-family="Times,serif" font-size="14.00" fill="#000000">LoginModule</text>
</g>
<!-- LoginPageComponent&#45;&gt;LoginModule -->
<g id="edge1" class="edge">
<title>LoginPageComponent&#45;&gt;LoginModule</title>
<path fill="none" stroke="#000000" d="M563,-122.1061C563,-141.3391 563,-169 563,-169 563,-169 377.66,-169 377.66,-169"/>
<polygon fill="#000000" stroke="#000000" points="377.6601,-165.5001 367.66,-169 377.66,-172.5001 377.6601,-165.5001"/>
</g>
<!-- AuthPageComponent -->
<g id="node2" class="node">
<title>AuthPageComponent</title>
<polygon fill="#ffffb3" stroke="#000000" points="474.0422,-122 337.9578,-122 337.9578,-86 474.0422,-86 474.0422,-122"/>
<text text-anchor="middle" x="406" y="-99.8" font-family="Times,serif" font-size="14.00" fill="#000000">AuthPageComponent</text>
</g>
<!-- AuthPageComponent&#45;&gt;LoginModule -->
<g id="edge2" class="edge">
<title>AuthPageComponent&#45;&gt;LoginModule</title>
<path fill="none" stroke="#000000" d="M352.6129,-122.1061C352.6129,-122.1061 352.6129,-140.991 352.6129,-140.991"/>
<polygon fill="#000000" stroke="#000000" points="349.113,-140.9909 352.6129,-150.991 356.113,-140.991 349.113,-140.9909"/>
</g>
<!-- ResetPasswordComponent -->
<g id="node3" class="node">
<title>ResetPasswordComponent</title>
<polygon fill="#ffffb3" stroke="#000000" points="320.087,-122 153.913,-122 153.913,-86 320.087,-86 320.087,-122"/>
<text text-anchor="middle" x="237" y="-99.8" font-family="Times,serif" font-size="14.00" fill="#000000">ResetPasswordComponent</text>
</g>
<!-- ResetPasswordComponent&#45;&gt;LoginModule -->
<g id="edge3" class="edge">
<title>ResetPasswordComponent&#45;&gt;LoginModule</title>
<path fill="none" stroke="#000000" d="M297.2735,-122.1061C297.2735,-122.1061 297.2735,-140.991 297.2735,-140.991"/>
<polygon fill="#000000" stroke="#000000" points="293.7736,-140.9909 297.2735,-150.991 300.7736,-140.991 293.7736,-140.9909"/>
</g>
<!-- Ng2Webstorage -->
<g id="node5" class="node">
<title>Ng2Webstorage</title>
<polygon fill="#8dd3c7" stroke="#000000" points="130.4608,-122 127.4608,-126 106.4608,-126 103.4608,-122 23.5392,-122 23.5392,-86 130.4608,-86 130.4608,-122"/>
<text text-anchor="middle" x="77" y="-99.8" font-family="Times,serif" font-size="14.00" fill="#000000">Ng2Webstorage</text>
</g>
<!-- Ng2Webstorage&#45;&gt;LoginModule -->
<g id="edge4" class="edge">
<title>Ng2Webstorage&#45;&gt;LoginModule</title>
<path fill="none" stroke="#000000" d="M77,-122.1061C77,-141.3391 77,-169 77,-169 77,-169 264.243,-169 264.243,-169"/>
<polygon fill="#000000" stroke="#000000" points="264.2431,-172.5001 274.243,-169 264.243,-165.5001 264.2431,-172.5001"/>
</g>
</g>
</svg>
