<svg width="36" height="41" fill="none" xmlns="http://www.w3.org/2000/svg"><path d="M30.816 28.313c.452.775.904 1.567 1.356 2.359.72 1.247 1.439 2.494 2.175 3.74.184.32.318.64.05.96-.25.321-.569.27-.92.186-1.59-.438-3.197-.86-4.803-1.297-.1-.034-.218-.05-.369-.085a834.29 834.29 0 0 1-.853 3.219c-.184.69-.385 1.381-.553 2.072-.083.337-.25.573-.602.624-.351.05-.569-.169-.736-.455a934.199 934.199 0 0 0-3.18-5.544.687.687 0 0 0-.335-.32c-.803-.32-1.64-.573-2.393-.96-1.122-.573-2.16-.556-3.264 0-.77.387-1.607.623-2.393.943-.134.05-.251.203-.335.32-1.004 1.753-2.008 3.488-3.012 5.24-.05.102-.118.186-.168.287-.15.303-.385.489-.736.438-.352-.05-.52-.303-.603-.623l-1.104-4.145c-.1-.37-.201-.725-.318-1.146-.737.202-1.44.388-2.143.573-1.037.286-2.075.556-3.113.842-.334.085-.619.068-.836-.219-.218-.286-.168-.573.016-.859 1.122-1.938 2.226-3.892 3.348-5.83.067-.135.134-.27.217-.421-1.389-.725-1.54-1.971-1.422-3.336.05-.556.117-1.112.2-1.668.118-.843-.1-1.567-.686-2.208-.569-.606-1.121-1.213-1.623-1.87-.904-1.23-.904-2.325 0-3.555.485-.657 1.037-1.247 1.59-1.837.636-.657.82-1.432.703-2.325-.1-.707-.184-1.415-.218-2.14-.017-1.685.686-2.611 2.343-3.05.72-.185 1.473-.336 2.21-.488.753-.152 1.305-.573 1.69-1.247.368-.657.736-1.331 1.138-1.971.602-.96 1.406-1.635 2.594-1.5.536.068 1.071.27 1.59.472.552.202 1.071.472 1.607.708.72.32 1.422.337 2.142.016a41.977 41.977 0 0 1 1.992-.876c1.723-.69 2.861-.337 3.866 1.23.401.607.736 1.247 1.087 1.887.386.691.954 1.112 1.724 1.264.837.169 1.674.337 2.477.573 1.406.438 2.042 1.297 2.026 2.78-.017.86-.118 1.736-.218 2.595-.084.775.117 1.432.653 2.005.502.54.987 1.062 1.456 1.634 1.171 1.466 1.154 2.713-.017 4.179-.318.387-.636.792-1.004 1.129-.971.876-1.256 1.938-1.021 3.201.084.455.134.91.15 1.382.067 1.634-.15 2.106-1.422 3.117zM30.9 9.56c.033-1.331-.218-1.685-1.306-1.988-.485-.135-.97-.253-1.473-.32-1.657-.22-2.862-1.045-3.598-2.595a9.845 9.845 0 0 0-.97-1.618c-.47-.674-.905-.792-1.674-.522-.636.236-1.272.505-1.875.809-1.339.673-2.66.69-4.017 0a16.368 16.368 0 0 0-1.757-.776c-.904-.337-1.356-.185-1.908.607-.368.54-.703 1.112-.987 1.702-.67 1.33-1.724 2.09-3.18 2.325-.686.118-1.373.27-2.025.472-.787.236-1.038.606-1.038 1.415 0 .607.05 1.23.15 1.837.252 1.584-.083 2.965-1.271 4.11A10.33 10.33 0 0 0 2.833 16.3c-.67.86-.67 1.399.016 2.258.452.573.954 1.096 1.456 1.635.787.859 1.139 1.87 1.021 3.05-.083.859-.15 1.735-.2 2.594-.034.674.3 1.13.937 1.314.519.152 1.037.32 1.573.388 1.858.219 3.197 1.129 3.966 2.864.235.523.57.994.904 1.466.385.54.92.725 1.54.489s1.255-.472 1.841-.775c1.423-.742 2.828-.742 4.251 0 .536.286 1.105.539 1.674.741.853.303 1.322.152 1.84-.59.369-.522.687-1.095.971-1.668.703-1.449 1.858-2.207 3.431-2.443.67-.1 1.34-.286 1.992-.488.586-.169.887-.624.87-1.23-.017-.64-.033-1.298-.134-1.921-.267-1.601.067-3 1.272-4.145a10.59 10.59 0 0 0 1.222-1.382c.57-.741.552-1.264.017-2.022-.167-.236-.368-.455-.57-.674-.367-.404-.736-.809-1.087-1.213-.736-.825-1.021-1.786-.904-2.881.034-.775.117-1.533.168-2.106zM12.221 33.806c-.335-.455-.62-.809-.87-1.163-.252-.37-.486-.741-.72-1.129a20.342 20.342 0 0 1-.653-1.162c-.368-.708-.954-1.112-1.724-1.264-.468-.084-.937-.168-1.389-.303-.284-.084-.418.017-.552.253-.837 1.5-1.707 2.982-2.56 4.481l-.185.371c.15-.034.218-.05.301-.067 1.322-.354 2.628-.708 3.95-1.062.62-.168.887 0 1.054.607.335 1.264.67 2.544 1.005 3.808.033.134.083.27.15.488.82-1.432 1.573-2.746 2.193-3.858zm11.397-.253c.77 1.348 1.54 2.68 2.36 4.111.402-1.533.77-2.931 1.155-4.347.15-.59.435-.741 1.02-.59 1.122.304 2.26.624 3.381.927.268.068.553.135.904.22-.987-1.72-1.924-3.354-2.878-4.988-.05-.084-.201-.135-.302-.118-.418.067-.82.152-1.238.219-.854.169-1.59.489-2.025 1.331-.218.421-.469.826-.703 1.247-.402.775-.87 1.516-1.674 1.988z" fill="#1DAD8C" stroke="#1DAD8C" stroke-width=".5"/><path d="M17.962 27.909c-5.757-.034-10.426-4.735-10.41-10.514.017-5.813 4.737-10.531 10.527-10.48 5.708.033 10.377 4.785 10.344 10.547-.017 5.78-4.72 10.463-10.46 10.447zm.05-1.365c5.005 0 9.072-4.095 9.088-9.116.017-5.038-4.083-9.166-9.088-9.166-5.02 0-9.104 4.112-9.104 9.15 0 5.037 4.084 9.132 9.104 9.132z" fill="#1DAD8C" stroke="#1DAD8C" stroke-width=".5"/><path d="M16.59 20.158c.218-.253.385-.472.57-.657 1.974-2.005 3.966-3.994 5.94-5.982.084-.084.168-.185.268-.27.285-.235.67-.218.904.034.251.27.251.573.05.877-.083.117-.184.202-.284.303-2.276 2.291-4.552 4.583-6.829 6.891-.502.506-.803.506-1.305-.017l-4.017-4.043-.117-.118c-.284-.32-.301-.708-.033-.978s.652-.286.97.034c.87.86 1.724 1.719 2.578 2.578.402.421.82.842 1.305 1.348z" fill="#1DAD8C" stroke="#1DAD8C" stroke-width=".5"/></svg>