<svg width="16" height="16" fill="none" xmlns="http://www.w3.org/2000/svg"><path d="M14.115 14.996c-.047-.22-.083-.44-.136-.657-.567-2.18-2.284-3.864-4.488-4.415a6.202 6.202 0 0 0-6.068 1.838 6.034 6.034 0 0 0-1.527 3.188l-.01.05H1v-.057c.029-.153.054-.306.086-.458a6.893 6.893 0 0 1 2.276-3.882 6.928 6.928 0 0 1 2.437-1.38c.015-.003.029-.01.04-.013.003 0 .007-.007.014-.011-1.043-.604-1.756-1.472-2.09-2.627a4.242 4.242 0 0 1 .1-2.698C4.503 2.114 6.24.942 8.119 1.002c1.914.057 3.563 1.308 4.108 3.118a4.374 4.374 0 0 1-2.079 5.079c.054.018.104.036.15.05 2.345.8 4.1 2.772 4.606 5.175.04.189.065.38.097.572h-.885zM8 8.872c1.943 0 3.527-1.568 3.527-3.498 0-1.926-1.577-3.5-3.516-3.5-1.96 0-3.541 1.56-3.541 3.493C4.473 7.301 6.054 8.872 8 8.872z" fill="#000" stroke="#000" stroke-width=".5"/></svg>