<svg width="64" height="47" viewBox="0 0 64 47" fill="none" xmlns="http://www.w3.org/2000/svg">
<g clip-path="url(#clip0_196_75)">
<path d="M39.0211 41.2116C38.2779 41.265 37.5081 41.345 36.7383 41.3984C36.1543 41.425 35.5438 41.5051 34.9598 41.425C33.5529 41.2116 32.5176 40.038 32.3849 38.5976C32.2522 37.0505 32.1194 35.5034 31.9867 33.9562C31.9602 33.7429 31.9336 33.5295 31.7744 33.3161C31.5355 34.9965 31.2966 36.6503 31.0576 38.3308C30.978 38.811 30.9515 39.2911 30.8187 39.7712C30.394 41.345 28.9075 42.3053 27.3414 42.0919C26.2796 41.9585 25.2443 41.7985 24.156 41.6384C24.0763 41.7985 23.9967 41.9318 23.9436 42.0919C22.6694 45.4528 19.4044 47.4001 15.9005 46.9199C12.4762 46.4398 9.87474 43.5856 9.60929 40.038C9.58275 39.5578 9.34384 39.5312 8.97221 39.4778C6.05226 39.0777 3.15885 38.6509 0.238905 38.2508C0.185815 38.2508 0.15927 38.2241 0.026545 38.1708C0.10618 37.5306 0.21236 36.8637 0.31854 36.1435C0.663625 36.1702 0.95562 36.1969 1.35379 36.2502C2.04396 31.3688 2.73413 26.4608 3.4243 21.4994C2.25632 21.3127 1.14144 21.1526 0 20.9659C0.10618 20.2724 0.185815 19.6055 0.291995 18.8853C1.43343 19.0454 2.52177 19.1787 3.68975 19.3388C3.98175 17.2582 4.27375 15.1776 4.56574 13.017C3.05268 12.8036 1.56616 12.5902 0 12.3501C0.10618 11.6566 0.185815 10.9897 0.291995 10.2429C4.67192 10.883 9.0253 11.4699 13.4052 12.1101C12.7416 10.5629 11.7329 9.68269 10.0606 9.4693C6.79552 9.06919 3.53048 8.56238 0.291995 8.10891C0.238905 8.10891 0.15927 8.05557 0.026545 8.02889C0.10618 7.38871 0.21236 6.72185 0.31854 5.97498C1.45998 6.13502 2.54832 6.26839 3.63666 6.42844C6.02571 6.7752 8.41477 7.12197 10.8038 7.44206C12.5823 7.68213 13.883 8.6424 14.8387 10.1628C16.9357 13.6572 19.1124 17.1515 21.2625 20.6191C21.3953 20.8325 21.528 21.0192 21.6873 21.2593C22.112 20.9926 22.4836 20.7258 22.8818 20.4858C24.9523 19.0987 26.9963 17.7116 29.0668 16.3513C29.8366 15.8444 30.2082 15.8711 30.8718 16.538C31.5089 17.1515 32.146 17.765 32.8096 18.4318C32.2522 18.9387 31.7744 19.3654 31.2169 19.8723C30.8718 19.5255 30.5002 19.1254 30.0489 18.7519C29.9162 18.6452 29.6242 18.5652 29.518 18.6452C27.7661 19.7922 26.0141 20.9659 24.2621 22.2196C27.4475 22.4597 29.9958 23.6867 31.5089 26.7009C31.6682 25.6872 31.6947 24.7803 31.9602 23.9267C32.4645 22.2996 33.022 20.6992 33.6591 19.0987C34.535 16.8581 35.4907 14.6174 36.3932 12.3768C37.2692 10.2429 38.8353 9.06919 41.1182 8.88247C48.3384 8.24229 55.5587 7.6021 62.7789 6.9886C63.1506 6.96192 63.5222 6.9886 64 6.9886C63.8938 7.73548 63.8142 8.40233 63.708 9.04251C58.5052 9.49598 53.3555 9.94944 48.2057 10.4029C45.8167 10.6163 43.4011 10.8297 41.012 11.0698C39.8971 11.1765 38.9946 11.7633 38.5699 12.7769C37.1365 16.1645 35.7827 19.5788 34.3758 22.9931C34.2696 23.2599 34.2165 23.5533 34.1369 23.8734C35.2252 24.4069 36.287 24.9404 37.3488 25.4738C38.623 26.114 38.7292 26.7542 37.747 27.7678C37.4284 28.0879 37.0834 28.408 36.6586 28.8348C37.1099 29.2349 37.4815 29.5817 37.8532 29.9551C38.6495 30.7553 38.5699 31.4222 37.6143 32.009C36.6852 32.5692 35.7561 33.1293 34.827 33.6895C34.0041 34.1963 34.0041 34.1963 34.2961 35.1833C35.3048 35.1032 36.3136 35.0232 37.3754 34.9165C37.4285 35.6367 37.5081 36.3036 37.5612 37.0238C36.4994 37.1305 35.4907 37.2372 34.4023 37.3439C34.4554 37.7973 34.4554 38.2508 34.5881 38.6509C34.7474 39.131 35.1456 39.3978 35.6765 39.3444C36.7383 39.2644 37.8001 39.1577 38.8884 39.0777C39.1008 36.8904 39.9768 35.0499 41.6757 33.6628C42.9498 32.6492 44.3832 32.0891 46.0025 32.009C49.4533 31.849 52.0282 33.7962 53.5944 37.7707C55.6649 37.5839 57.7885 37.3972 59.9652 37.2105C59.5404 32.2491 59.1157 27.341 58.6645 22.4063C58.3725 22.4063 58.107 22.3796 57.8681 22.4063C53.0635 22.8331 48.2588 23.2599 43.4542 23.6867C42.6047 23.7667 41.7287 23.8467 40.8793 23.8734C39.4193 23.9267 38.4372 22.8598 38.6495 21.3927C38.9415 19.4721 39.2601 17.5249 39.6051 15.6044C39.8706 14.1373 41.0386 13.1503 42.4985 13.017C49.3737 12.4035 56.2489 11.79 63.124 11.2031C63.3098 11.1765 63.5222 11.2031 63.7611 11.2031C63.8142 11.8967 63.8673 12.5368 63.9469 13.2837C62.6462 13.4171 61.3986 13.5238 60.0713 13.6572C60.2572 15.7911 60.443 17.845 60.6022 20.0056C61.664 19.9256 62.6462 19.8456 63.7611 19.7389C63.8142 20.4324 63.8938 21.0993 63.9469 21.8461C62.8851 21.9528 61.8764 22.0595 60.7881 22.1662C61.2128 27.101 61.6375 32.0357 62.0888 36.9971C62.6727 36.9704 63.2036 36.9438 63.7611 36.9171C63.8142 37.6373 63.8673 38.2775 63.9204 39.0244C60.4961 39.3178 57.1514 39.6379 53.7271 39.9313C53.5147 42.2253 52.5591 44.1191 50.7275 45.5062C49.533 46.4131 48.1792 46.9199 46.6661 46.9733C43.0825 47.08 40.6669 45.2661 39.0211 41.2116ZM29.1995 27.261C29.1995 27.1276 29.1995 27.0476 29.173 26.9943C29.0933 26.8342 28.9871 26.7009 28.881 26.5408C27.9253 25.3138 26.6512 24.727 25.1381 24.5402C19.9353 23.82 14.7325 23.0732 9.52966 22.353C8.2024 22.1662 6.87515 21.9795 5.52136 21.7928C4.83119 26.7542 4.14102 31.6356 3.45085 36.5703C5.62754 36.8637 7.69805 37.1572 9.7951 37.4772C9.87474 37.2639 9.98092 37.0505 10.0606 36.8637C11.494 33.1827 15.4226 31.2888 19.1655 32.4625C21.9793 33.3427 24.0232 35.8234 24.3418 38.7843C24.3683 39.1044 24.2356 39.5845 24.8196 39.6379C25.7752 39.7446 26.7043 39.9046 27.6333 40.0113C28.2173 40.0646 28.6155 39.7712 28.7748 39.2111C28.881 38.8643 28.881 38.4909 28.934 38.0641C27.8722 37.904 26.8635 37.744 25.8017 37.5839C25.9079 36.8637 25.9876 36.1969 26.0937 35.5034C27.1555 35.6367 28.1908 35.7701 29.2526 35.9301C29.3322 35.2099 29.4384 34.5164 29.518 33.8229C28.1112 33.6362 26.8104 33.4494 25.4832 33.2627C24.2356 33.076 23.4127 32.1157 23.5189 30.9421C23.5985 30.2219 23.7047 29.475 23.8374 28.7548C24.0763 27.4211 25.085 26.7275 26.4388 26.9142C27.3414 26.9943 28.2704 27.1276 29.1995 27.261ZM57.8946 13.8705C56.7267 13.9772 55.6383 14.0573 54.55 14.164C50.6213 14.5107 46.7192 14.8575 42.7905 15.2043C42.1535 15.2576 41.7818 15.5777 41.6757 16.2179C41.5695 16.8847 41.4367 17.5249 41.3306 18.1918C41.1447 19.3921 40.9324 20.5925 40.7466 21.8461C46.6927 21.3127 52.5591 20.7792 58.4786 20.2457C58.3194 18.2451 58.1601 16.3246 58.0008 14.404C57.9743 14.244 57.9477 14.0839 57.8946 13.8705ZM46.2945 44.8127C49.241 44.8127 51.63 42.4387 51.63 39.5045C51.63 36.5703 49.2144 34.143 46.2945 34.1696C43.4011 34.1696 41.012 36.5436 41.012 39.4778C41.012 42.4387 43.348 44.8127 46.2945 44.8127ZM11.6798 39.5312C11.6798 42.492 14.0158 44.8393 16.9888 44.866C19.8822 44.8927 22.2713 42.5187 22.2978 39.5845C22.3243 36.6503 19.9353 34.223 17.0153 34.223C14.0423 34.1963 11.6798 36.5703 11.6798 39.5312ZM6.68934 13.3104C6.39735 15.4443 6.10535 17.5249 5.81335 19.6322C10.3526 20.2724 14.759 20.8859 19.3248 21.5261C17.8382 19.1254 16.4844 16.9114 15.1041 14.6974C14.9979 14.5374 14.7059 14.4307 14.4936 14.404C13.3256 14.2173 12.1842 14.0573 11.0162 13.8972C9.58274 13.7105 8.17586 13.5238 6.68934 13.3104ZM29.8631 31.6623C29.9162 31.0221 29.9958 30.4886 29.9958 29.9818C29.9958 29.8217 29.8366 29.5283 29.7039 29.5283C28.4562 29.3149 27.2352 29.1549 25.9345 28.9948C25.8283 29.715 25.7486 30.3819 25.6425 31.1021C27.0759 31.2621 28.4297 31.4489 29.8631 31.6623ZM33.8449 31.7956C34.5085 31.3955 35.0129 31.0754 35.6765 30.6753C35.2783 30.3286 34.9067 30.0618 34.6147 29.7417C33.9511 29.0749 33.9511 28.5414 34.6412 27.8745C34.9067 27.6078 35.2518 27.3677 35.6499 27.0476C34.9332 26.6742 34.3758 26.4074 33.6325 26.034C33.6856 28.0079 33.7652 29.7951 33.8449 31.7956Z" fill="#1DAD8C"/>
<path d="M33.8182 11.3632C33.3138 10.8564 32.836 10.4029 32.252 9.84279C33.0749 9.09591 33.8447 8.34903 34.6411 7.62883C34.6145 7.57548 34.588 7.52213 34.5614 7.46878C33.4731 7.46878 32.3847 7.46878 31.2699 7.46878C30.1815 7.46878 29.863 7.12201 29.8364 6.02837C29.8364 5.33484 29.8364 4.64131 29.8364 3.97445C29.8364 3.92111 29.8099 3.89443 29.7833 3.76106C29.5444 3.97445 29.3586 4.16117 29.1728 4.34789C28.2703 5.25482 27.3943 6.13507 26.4918 7.04199C25.8547 7.6555 25.3503 7.6555 24.7132 7.04199C23.6249 5.97502 22.5631 4.88138 21.3686 3.68104C21.3686 4.61464 21.3686 5.41486 21.3686 6.18842C21.3686 7.09534 20.9969 7.46878 20.0679 7.49545C19.2981 7.49545 18.5283 7.49545 17.5992 7.49545C18.077 8.00226 18.4752 8.42905 18.8999 8.85584C18.3955 9.36265 17.9177 9.84279 17.4399 10.3229C16.3516 9.25595 15.2632 8.21566 14.2545 7.09534C14.0422 6.85527 13.936 6.26844 14.0952 6.02837C14.2811 5.70828 14.7589 5.41486 15.104 5.38819C16.2454 5.30817 17.4134 5.36152 18.5548 5.36152C18.7672 5.36152 18.9795 5.36152 19.2715 5.36152C19.2715 4.0278 19.2715 2.72077 19.2715 1.4404C19.2715 0.880243 19.3512 0.373433 19.9351 0.106691C20.5191 -0.160052 20.9439 0.160039 21.342 0.560153C22.7224 1.97389 24.1558 3.4143 25.6689 4.93473C26.1201 4.45459 26.5183 4.0278 26.9165 3.60102C27.9517 2.53405 29.0135 1.49375 30.0488 0.426781C30.3939 0.0800164 30.792 -0.133377 31.2964 0.0533422C31.8273 0.266736 32.0131 0.66685 31.9866 1.22701C31.9866 2.56072 31.9866 3.89443 31.9866 5.30817C32.7033 5.30817 33.3669 5.30817 34.0305 5.30817C35.0923 5.30817 36.1541 5.25482 37.2159 5.33484C37.561 5.36152 38.0388 5.65493 38.1981 5.94835C38.3308 6.24176 38.2777 6.85527 38.0388 7.09534C36.685 8.56242 35.2516 9.94948 33.8182 11.3632Z" fill="#1DAD8C"/>
<path d="M42.1004 28.088C42.0473 27.3678 41.9676 26.7009 41.9146 25.9807C43.348 25.8474 44.7018 25.7407 46.1352 25.6073C46.1883 26.3275 46.2679 26.9944 46.321 27.7412C44.9141 27.8479 43.5603 27.9546 42.1004 28.088Z" fill="#1DAD8C"/>
<path d="M7.29981 24.1669C8.73324 24.3803 10.0605 24.567 11.4674 24.7537C11.3877 25.4472 11.3081 26.1141 11.2019 26.861C9.79504 26.6742 8.44124 26.4875 7.00781 26.2741C7.11399 25.5806 7.19363 24.9137 7.29981 24.1669Z" fill="#1DAD8C"/>
</g>
<defs>
<clipPath id="clip0_196_75">
<rect width="64" height="47" fill="white"/>
</clipPath>
</defs>
</svg>
