<svg width="55" height="46" viewBox="0 0 55 46" fill="none" xmlns="http://www.w3.org/2000/svg">
<g clip-path="url(#clip0_196_247)">
<path d="M40.3668 25.7711C40.335 26.0908 40.3137 26.3573 40.2925 26.645C39.7089 26.645 39.1359 26.645 38.5204 26.645C38.4992 26.3786 38.4779 26.1228 38.4567 25.835C38.3506 25.8137 38.2551 25.7817 38.149 25.7817C36.345 25.7817 34.5304 25.7817 32.7264 25.7711C32.4399 25.7711 32.3232 25.8777 32.2277 26.1228C31.3894 28.2118 29.6066 29.4694 27.4949 29.4694C25.3938 29.4694 23.6004 28.2118 22.7621 26.1228C22.6666 25.8777 22.5499 25.7604 22.2634 25.7604C18.2734 25.7711 14.2835 25.7711 10.2935 25.7604C9.93269 25.7604 9.85841 25.9416 9.75229 26.2081C8.94581 28.2757 6.89777 29.5973 4.733 29.4481C2.55762 29.3095 0.743029 27.7961 0.170002 25.6645C-0.562199 22.9147 1.15688 20.0584 3.92651 19.4402C6.71737 18.8114 9.47639 20.6126 9.99636 23.4157C10.0282 23.5755 10.0706 23.7247 10.1131 23.8953C11.6199 23.8953 13.0949 23.8953 14.6549 23.8953C14.6549 23.2984 14.6549 22.7122 14.6549 22.1047C15.2916 22.1047 15.8646 22.1047 16.5013 22.1047C16.5013 22.7016 16.5013 23.2878 16.5013 23.8953C18.5175 23.8953 20.4594 23.8953 22.4544 23.8953C22.6772 22.3392 23.3776 21.0709 24.6828 20.1863C25.6167 19.5575 26.646 19.291 27.7814 19.323C30.0735 19.3869 31.5804 20.8044 32.5885 23.8846C36.6633 23.8846 40.7594 23.8846 44.898 23.8846C44.9404 23.6608 44.9935 23.4157 45.0465 23.1812C45.6514 20.6872 48.1769 18.9606 50.6388 19.355C53.3448 19.8026 55.2231 22.1367 55.0002 24.8012C54.7986 27.2099 53.0265 29.0751 50.5115 29.4161C48.559 29.6826 46.235 28.6274 45.3012 26.272C45.142 25.867 44.9616 25.7391 44.5372 25.7498C43.3381 25.7817 42.1389 25.7604 40.9398 25.7604C40.7276 25.7711 40.5578 25.7711 40.3668 25.7711ZM5.09379 21.1668C3.28982 21.1562 1.82541 22.595 1.82541 24.3855C1.82541 26.1441 3.27921 27.6256 5.03012 27.6362C6.78104 27.6469 8.25605 26.1867 8.26666 24.4282C8.27728 22.6483 6.84471 21.1775 5.09379 21.1668ZM30.7102 24.4282C30.7208 22.6589 29.2883 21.1775 27.5374 21.1668C25.7546 21.1562 24.3008 22.563 24.269 24.3323C24.2371 26.1228 25.7015 27.6256 27.4631 27.6362C29.214 27.6469 30.6996 26.1867 30.7102 24.4282ZM46.7232 24.3855C46.7232 26.1441 48.1663 27.6256 49.9173 27.6362C51.6682 27.6469 53.1432 26.1867 53.1644 24.4282C53.1856 22.6376 51.7318 21.1668 49.9385 21.1668C48.1663 21.1668 46.7232 22.6163 46.7232 24.3855Z" fill="#1DAD8C"/>
<path d="M38.4563 36.8128C38.4776 36.4824 38.4882 36.2266 38.4988 35.9388C39.093 35.9388 39.6661 35.9388 40.2815 35.9388C40.3028 36.2159 40.3134 36.4824 40.3346 36.7915C40.5362 36.8021 40.7272 36.8128 40.9182 36.8128C43.083 36.8128 45.2478 36.8128 47.4125 36.8128C48.2402 36.8128 48.548 37.1219 48.548 37.9425C48.548 40.2553 48.548 42.5788 48.548 44.8916C48.548 45.6909 48.2509 45.9893 47.4444 45.9893C42.0749 45.9893 36.716 45.9893 31.3466 45.9893C30.5401 45.9893 30.2536 45.6909 30.2536 44.8809C30.243 42.5681 30.243 40.2447 30.2536 37.9319C30.2536 37.1006 30.5613 36.8128 31.3996 36.8021C33.5432 36.8021 35.6973 36.8021 37.8409 36.8021C38.0319 36.8128 38.2229 36.8128 38.4563 36.8128ZM46.7016 38.6779C41.8096 38.6779 36.9707 38.6779 32.1212 38.6779C32.1212 40.5111 32.1212 42.3123 32.1212 44.1242C37.0026 44.1242 41.8414 44.1242 46.7016 44.1242C46.7016 42.3017 46.7016 40.5111 46.7016 38.6779Z" fill="#1DAD8C"/>
<path d="M15.5673 0C18.2202 0 20.8625 0 23.5154 0C24.4704 0 24.7357 0.255792 24.7357 1.20436C24.7357 3.47451 24.7357 5.73401 24.7357 8.00417C24.7357 8.89944 24.4386 9.18721 23.5366 9.18721C18.2202 9.18721 12.9037 9.18721 7.58733 9.18721C6.72779 9.18721 6.43066 8.88879 6.43066 8.02549C6.43066 5.72336 6.43066 3.42122 6.43066 1.11909C6.43066 0.287766 6.71718 0 7.56611 0C10.2296 0 12.8931 0 15.5673 0ZM8.27709 7.32206C13.169 7.32206 18.0079 7.32206 22.8574 7.32206C22.8574 5.48888 22.8574 3.68767 22.8574 1.87581C17.9761 1.87581 13.1372 1.87581 8.27709 1.87581C8.27709 3.69833 8.27709 5.48888 8.27709 7.32206Z" fill="#1DAD8C"/>
<path d="M16.4584 12.8429C15.8748 12.8429 15.3124 12.8429 14.7075 12.8429C14.7075 12.2461 14.7075 11.6705 14.7075 11.063C15.2912 11.063 15.8536 11.063 16.4584 11.063C16.4584 11.6279 16.4584 12.2034 16.4584 12.8429Z" fill="#1DAD8C"/>
<path d="M16.4479 20.1969C15.8642 20.1969 15.3018 20.1969 14.6651 20.1969C14.6651 19.6747 14.6439 19.1738 14.6757 18.6835C14.6864 18.5769 14.8455 18.481 14.9516 18.3851C14.9729 18.3638 15.0259 18.3851 15.0578 18.3851C16.5858 18.2998 16.692 18.4384 16.4479 20.1969Z" fill="#1DAD8C"/>
<path d="M14.6973 16.4986C14.6973 15.8911 14.6973 15.3262 14.6973 14.7294C15.3021 14.7294 15.8645 14.7294 16.4588 14.7294C16.4588 15.3156 16.4588 15.8804 16.4588 16.4986C15.8964 16.4986 15.3127 16.4986 14.6973 16.4986Z" fill="#1DAD8C"/>
<path d="M40.2818 28.5528C40.2818 29.139 40.2818 29.7039 40.2818 30.3114C39.6875 30.3114 39.1145 30.3114 38.499 30.3114C38.499 29.7252 38.499 29.1603 38.499 28.5528C39.0933 28.5528 39.6557 28.5528 40.2818 28.5528Z" fill="#1DAD8C"/>
<path d="M38.4776 33.9884C38.4776 33.4555 38.4564 32.9759 38.4882 32.4963C38.4989 32.3897 38.658 32.2085 38.7535 32.2085C39.2417 32.1765 39.7404 32.1979 40.271 32.1979C40.271 32.816 40.271 33.3809 40.271 33.9991C39.7086 33.9884 39.1249 33.9884 38.4776 33.9884Z" fill="#1DAD8C"/>
</g>
<defs>
<clipPath id="clip0_196_247">
<rect width="55" height="46" fill="white"/>
</clipPath>
</defs>
</svg>
