<svg width="42" height="46" viewBox="0 0 42 46" fill="none" xmlns="http://www.w3.org/2000/svg">
<g clip-path="url(#clip0_196_262)">
<path d="M5.50337 7.39561C5.50337 5.67432 5.50337 4.01239 5.50337 2.36232C5.50337 0.890323 6.39899 0 7.86027 0C16.6279 0 25.3956 0 34.1633 0C35.6128 0 36.4966 0.902194 36.4966 2.37419C36.4966 3.85806 36.4966 5.35381 36.4966 6.83768C36.4966 7.00387 36.4966 7.17006 36.4966 7.38374C37.5572 7.38374 38.5707 7.38374 39.5842 7.38374C41.069 7.38374 42 8.32155 42 9.81729C42 21.0591 42 32.3009 42 43.5546C42 45.0503 41.069 46 39.596 46C27.2104 46 14.8249 46 2.43939 46C0.919192 46 0 45.0741 0 43.5427C0 32.3128 0 21.0947 0 9.86477C0 8.33342 0.919192 7.40748 2.43939 7.39561C3.42929 7.39561 4.43098 7.39561 5.50337 7.39561ZM34.8704 33.2743C34.8704 33.0963 34.8704 32.9775 34.8704 32.8707C34.8704 22.721 34.8704 12.5714 34.8704 2.42168C34.8704 1.79252 34.7054 1.63819 34.0337 1.63819C25.3485 1.63819 16.6751 1.63819 7.9899 1.63819C7.27104 1.63819 7.14141 1.76877 7.14141 2.51665C7.14141 12.5832 7.14141 22.6379 7.14141 32.7045C7.14141 32.8826 7.14141 33.0606 7.14141 33.2743C7.3771 33.2743 7.55387 33.2743 7.71886 33.2743C10.2525 33.2743 12.7862 33.2743 15.3081 33.2743C16.0152 33.2743 16.2862 33.5474 16.3215 34.2596C16.3333 34.497 16.3687 34.7345 16.4158 34.9719C16.8165 37.2748 18.9141 38.9368 21.2828 38.8181C23.5926 38.6994 25.537 36.7525 25.6902 34.4258C25.7492 33.4643 25.9377 33.2862 26.904 33.2862C29.5202 33.2743 32.1599 33.2743 34.8704 33.2743ZM14.7071 34.9481C10.335 34.9481 5.98653 34.9481 1.62626 34.9481C1.62626 37.809 1.62626 40.6343 1.62626 43.4477C1.62626 44.1719 1.80303 44.3499 2.52189 44.3499C14.8367 44.3499 27.1633 44.3499 39.4781 44.3499C40.1852 44.3499 40.362 44.16 40.362 43.4359C40.362 40.7649 40.362 38.0939 40.362 35.423C40.362 35.2568 40.3502 35.0906 40.3384 34.9363C35.9545 34.9363 31.6061 34.9363 27.2694 34.9363C26.633 38.5569 23.8047 40.3732 21.1296 40.4444C18.4899 40.5275 15.4024 38.7943 14.7071 34.9481ZM5.49158 9.03381C4.50168 9.03381 3.54714 9.03381 2.60438 9.03381C1.77946 9.03381 1.62626 9.18813 1.62626 10.0072C1.62626 17.569 1.62626 25.1308 1.62626 32.6926C1.62626 32.8707 1.62626 33.0488 1.62626 33.215C2.95791 33.215 4.21885 33.215 5.49158 33.215C5.49158 25.1664 5.49158 17.1417 5.49158 9.03381ZM40.3737 33.2506C40.3737 33.0013 40.3737 32.7995 40.3737 32.5977C40.3737 26.2348 40.3737 19.872 40.3737 13.4973C40.3737 12.2865 40.3737 11.0637 40.3737 9.8529C40.3737 9.23561 40.1734 9.03381 39.5488 9.03381C38.665 9.03381 37.7811 9.03381 36.8973 9.03381C36.7677 9.03381 36.638 9.05755 36.532 9.06942C36.532 17.1535 36.532 25.1902 36.532 33.2506C37.7929 33.2506 39.0539 33.2506 40.3737 33.2506Z" fill="#1DAD8C"/>
<path d="M20.9999 8.21471C18.1127 8.21471 15.2255 8.21471 12.3383 8.21471C12.1851 8.21471 12.0319 8.23845 11.8787 8.20284C11.4426 8.096 11.1952 7.82297 11.2069 7.36C11.2187 6.93265 11.478 6.67149 11.8904 6.58839C12.0201 6.56465 12.1615 6.57652 12.2911 6.57652C18.0773 6.57652 23.8635 6.57652 29.6497 6.57652C29.7676 6.57652 29.8854 6.56465 30.0032 6.57652C30.4393 6.624 30.7575 6.98013 30.7575 7.39562C30.7575 7.82297 30.4393 8.15536 29.9915 8.20284C29.8618 8.21471 29.7204 8.20284 29.579 8.20284C26.7389 8.21471 23.8753 8.21471 20.9999 8.21471Z" fill="#1DAD8C"/>
<path d="M20.9999 13.1412C18.1127 13.1412 15.2255 13.1412 12.3383 13.1412C12.1851 13.1412 12.0319 13.1649 11.8787 13.1293C11.4426 13.0225 11.1952 12.7494 11.2069 12.2865C11.2187 11.8591 11.478 11.5979 11.8904 11.5148C12.0201 11.4911 12.1615 11.503 12.2911 11.503C18.0773 11.503 23.8635 11.503 29.6497 11.503C29.7676 11.503 29.8854 11.4911 30.0032 11.503C30.4393 11.5505 30.7575 11.9066 30.7575 12.3221C30.7575 12.7494 30.4393 13.0818 29.9915 13.1293C29.8618 13.1412 29.7204 13.1293 29.579 13.1293C26.7389 13.1412 23.8753 13.1412 20.9999 13.1412Z" fill="#1DAD8C"/>
<path d="M20.941 18.0676C18.0892 18.0676 15.2373 18.0676 12.3855 18.0676C12.2441 18.0676 12.1144 18.0795 11.973 18.0676C11.5252 18.0201 11.2188 17.6877 11.207 17.2604C11.207 16.833 11.5134 16.4888 11.9612 16.4413C12.0909 16.4294 12.2323 16.4413 12.3737 16.4413C18.1245 16.4413 23.8754 16.4413 29.638 16.4413C29.7912 16.4413 29.9444 16.4175 30.0976 16.4532C30.5101 16.5363 30.7693 16.7974 30.7811 17.2248C30.7929 17.6759 30.5454 17.9608 30.1094 18.0676C29.968 18.1032 29.803 18.0795 29.6498 18.0795C26.7508 18.0676 23.84 18.0676 20.941 18.0676Z" fill="#1DAD8C"/>
<path d="M20.9999 23.0059C18.1127 23.0059 15.2255 23.0059 12.3383 23.0059C12.1851 23.0059 12.0319 23.0297 11.8787 22.9941C11.4426 22.8872 11.1952 22.6142 11.2069 22.1512C11.2187 21.7239 11.478 21.4627 11.8904 21.3796C12.0201 21.3559 12.1615 21.3677 12.2911 21.3677C18.0773 21.3677 23.8635 21.3677 29.6497 21.3677C29.7676 21.3677 29.8854 21.3559 30.0032 21.3677C30.4393 21.4152 30.7575 21.7713 30.7575 22.1868C30.7575 22.6142 30.4393 22.9466 29.9915 22.9941C29.8618 23.0059 29.7204 22.9941 29.579 22.9941C26.7389 23.0059 23.8753 23.0059 20.9999 23.0059Z" fill="#1DAD8C"/>
<path d="M16.5103 27.9324C15.1079 27.9324 13.6938 27.9324 12.2914 27.9324C11.5961 27.9324 11.2308 27.6594 11.219 27.1252C11.2072 26.591 11.5843 26.2942 12.2678 26.2942C15.1315 26.2942 17.9951 26.2942 20.8705 26.2942C21.4244 26.2942 21.7662 26.5672 21.8133 27.0183C21.8604 27.4338 21.5658 27.8374 21.1534 27.9205C21.0237 27.9443 20.8823 27.9324 20.7527 27.9324C19.3268 27.9324 17.9244 27.9324 16.5103 27.9324Z" fill="#1DAD8C"/>
</g>
<defs>
<clipPath id="clip0_196_262">
<rect width="42" height="46" fill="white"/>
</clipPath>
</defs>
</svg>
