<svg width="34" height="34" fill="none" xmlns="http://www.w3.org/2000/svg"><g clip-path="url(#a)" fill="#1DAD8C"><path d="M8.01 16.117V3.213C8.01 1.26 9.263 0 11.21 0h14.887c.44 0 .787.133 1.093.451a1416.45 1416.45 0 0 0 6.331 6.307c.32.318.467.663.467 1.115-.014 7.647 0 15.28 0 22.928 0 1.924-1.267 3.186-3.186 3.186H9.076c-4.398 0-8.023-2.96-8.916-7.236-1.013-4.872 2.412-9.798 7.344-10.554.173-.027.32-.053.506-.08zm6.65 15.878h16.128c.826 0 1.2-.371 1.2-1.195V8.643h-5.505c-.76 0-1.146-.385-1.16-1.142V2.005H11.17c-.8 0-1.173.385-1.173 1.181V16.117c1.653.2 3.105.783 4.412 1.74.16.119.373.185.573.185 4.358.013 8.73.013 13.088.013h.333a.99.99 0 0 1 .813 1.421c-.213.425-.573.57-1.04.57H16.54c.307.665.653 1.275.893 1.926.24.664.373 1.354.56 2.058h10.183c.48 0 .853.172 1.04.61.306.69-.214 1.381-1.014 1.381H17.926c-.293 2.416-1.372 4.381-3.265 5.974zm-5.664-13.94c-3.851 0-6.997 3.134-6.983 6.97 0 3.85 3.145 6.984 7.023 6.97 3.852-.013 6.984-3.146 6.971-6.983-.013-3.837-3.159-6.957-7.01-6.957zM27.35 3.505v3.12h3.12a344.69 344.69 0 0 0-3.12-3.12z"/><path d="M21.045 12.081h7.224c.773 0 1.28.704.986 1.38-.186.412-.52.612-.973.612H13.901c-.146 0-.293 0-.426-.027a1.007 1.007 0 0 1-.787-1.075c.067-.505.48-.877 1.04-.877 2.426-.013 4.865-.013 7.317-.013zM7.624 26.512c.266-.292.493-.53.72-.77a346.36 346.36 0 0 1 3.132-3.12c.48-.477 1.092-.504 1.506-.08.413.412.386 1.023-.067 1.474l-4.518 4.501c-.493.491-1.067.491-1.56.013-.626-.61-1.24-1.234-1.866-1.858-.453-.465-.493-1.063-.08-1.474.414-.425 1.027-.398 1.506.08.4.385.787.783 1.227 1.234z"/></g><defs><clipPath id="a"><path fill="#fff" d="M0 0h34v34H0z"/></clipPath></defs></svg>