<svg width="34" height="24" fill="none" xmlns="http://www.w3.org/2000/svg"><g clip-path="url(#a)"><path d="M16.987 24H3.147C1.276 24 0 22.707 0 20.84V3.147C0 1.293 1.288 0 3.121 0h27.745C32.725 0 34 1.293 34 3.147V20.88c0 1.827-1.288 3.12-3.108 3.12H16.987zM3.533 2.013c-.013.027-.04.054-.053.08.106.08.212.16.305.254 4.09 4.106 8.181 8.213 12.259 12.346.544.56 1.381.547 1.912 0 4.09-4.146 8.195-8.266 12.299-12.4.08-.08.16-.173.265-.293-9.03.013-18.01.013-26.987.013zm-.067 19.96H30.48c-2.842-2.84-5.684-5.653-8.5-8.466-.876.866-1.78 1.76-2.682 2.666-1.328 1.334-3.294 1.334-4.609 0-.823-.84-1.66-1.666-2.483-2.506-.08-.08-.16-.147-.2-.187l-8.54 8.493zm7.066-9.986-8.527-8.48V20.48c2.83-2.813 5.672-5.653 8.527-8.493zM31.994 3.52c-2.815 2.813-5.67 5.64-8.526 8.48l8.526 8.48V3.52z" fill="#1DAD8C"/></g><defs><clipPath id="a"><path fill="#fff" d="M0 0h34v24H0z"/></clipPath></defs></svg>