<svg width="117" height="64" viewBox="0 0 117 64" fill="none" xmlns="http://www.w3.org/2000/svg">
<path d="M16.0999 32.2995L17.4777 32.5553C17.2218 33.4411 16.8085 34.1299 16.277 34.5826C15.7653 35.0353 15.0961 35.2912 14.4072 35.2912C13.6789 35.3306 12.9704 34.996 12.5177 34.4252C12.065 33.8347 11.8288 33.008 11.8288 31.8861C11.8091 31.0398 11.9666 30.2131 12.2815 29.4258C12.5374 28.7566 12.9704 28.1465 13.5412 27.7134C14.0529 27.3198 14.6828 27.123 15.3126 27.123C15.9621 27.1033 16.592 27.3395 17.0447 27.8119C17.517 28.3236 17.7926 28.9928 17.832 29.6817L16.5329 29.8392C16.4935 29.4652 16.3558 29.1306 16.1196 28.8353C15.9031 28.6188 15.6078 28.5007 15.2929 28.5204C14.8993 28.5204 14.5253 28.6779 14.2497 28.9338C13.8758 29.288 13.6002 29.7211 13.4624 30.2131C13.2656 30.7642 13.1672 31.3547 13.1672 31.9452C13.1672 32.575 13.2853 33.0671 13.5412 33.4214C13.7577 33.7363 14.112 33.9331 14.4859 33.9331C14.8402 33.9331 15.1945 33.7757 15.4504 33.5198C15.7653 33.1852 16.0015 32.7522 16.0999 32.2995Z" fill="black"/>
<path d="M18.2842 35.1537L19.662 27.261H21.4334C21.9254 27.261 22.2404 27.261 22.3781 27.2807C22.634 27.3004 22.8702 27.3791 23.1064 27.4775C23.3229 27.5759 23.5197 27.7334 23.6969 27.8908C23.874 28.0877 24.0315 28.3042 24.1496 28.5403C24.2873 28.8159 24.3858 29.1111 24.4448 29.4261C24.5235 29.7803 24.5432 30.1543 24.5432 30.5283C24.5629 31.2959 24.4251 32.0832 24.1299 32.7918C23.9134 33.3822 23.5591 33.9137 23.1064 34.3664C22.7521 34.6813 22.3388 34.9175 21.8861 35.0356C21.4531 35.134 21.02 35.1734 20.587 35.1537H18.2842ZM19.8588 33.8743H20.5477C20.9216 33.894 21.2759 33.8546 21.6302 33.7562C21.8664 33.6775 22.0829 33.5397 22.2404 33.3429C22.5356 33.0083 22.7718 32.6146 22.9096 32.1816C23.1064 31.6305 23.2048 31.04 23.1851 30.4692C23.2048 30.0362 23.1261 29.6032 22.9489 29.2096C22.8308 28.9537 22.634 28.7569 22.3978 28.6388C22.1223 28.56 21.8467 28.5207 21.5712 28.5403H20.7839L19.8588 33.8743Z" fill="black"/>
<path d="M25.2515 35.1537L26.6292 27.261H27.9873L26.8457 33.8349H30.2115L29.9753 35.1537H25.2515Z" fill="black"/>
<path d="M31.3722 31.5513H33.8719L33.616 33.0471H31.0967L31.3722 31.5513Z" fill="black"/>
<path d="M38.8123 33.4019H36.1945L35.4072 35.1537H34.0098L37.7494 27.261H39.265L40.3279 35.1537H39.0485L38.8123 33.4019ZM38.6352 32.0832L38.2612 28.8946L36.6669 32.0832H38.6352Z" fill="black"/>
<path d="M41.4492 35.1537L42.827 27.261H44.5984C45.0905 27.261 45.4054 27.261 45.5432 27.2807C45.7991 27.3004 46.0352 27.3791 46.2714 27.4775C46.4879 27.5759 46.6848 27.7334 46.8619 27.8908C47.0391 28.0877 47.1965 28.3042 47.3146 28.5403C47.4524 28.8159 47.5508 29.1111 47.6098 29.4261C47.6886 29.7803 47.7083 30.1543 47.7083 30.5283C47.7279 31.2959 47.5902 32.0832 47.2949 32.7918C47.0784 33.3822 46.7241 33.9137 46.2714 34.3664C45.9171 34.6813 45.5038 34.9175 45.0511 35.0356C44.6181 35.134 44.1851 35.1734 43.7521 35.1537H41.4492ZM43.0238 33.8743H43.7127C44.0867 33.894 44.441 33.8546 44.7952 33.7562C45.0314 33.6775 45.2479 33.5397 45.4054 33.3429C45.7006 33.0083 45.9368 32.6146 46.0746 32.1816C46.2714 31.6305 46.3698 31.04 46.3502 30.4692C46.3698 30.0362 46.2911 29.6032 46.114 29.2096C45.9959 28.9537 45.7991 28.7569 45.5432 28.6388C45.2676 28.56 44.9921 28.5207 44.7165 28.5403H43.9292L43.0238 33.8743Z" fill="black"/>
<path d="M51.6838 35.1537H50.2273L49.0464 27.261H50.4045L51.2508 33.2445L53.9867 27.261H55.3251L51.6838 35.1537Z" fill="black"/>
<path d="M54.7539 35.1537L56.1317 27.261H57.4898L56.112 35.1537H54.7539Z" fill="black"/>
<path d="M57.8638 32.5948L59.1628 32.5161C59.1825 33.0081 59.2612 33.3427 59.3793 33.5199C59.5762 33.7954 59.9501 33.9332 60.4815 33.9332C60.9342 33.9332 61.2492 33.8348 61.446 33.638C61.6428 33.4608 61.7412 33.2049 61.7412 32.9491C61.7412 32.7326 61.6625 32.5161 61.505 32.3586C61.2098 32.1224 60.8949 31.9256 60.5603 31.7878C60.1666 31.591 59.8123 31.3745 59.4581 31.1186C59.2219 30.9415 59.025 30.7053 58.9069 30.4297C58.7692 30.1148 58.7101 29.7802 58.7101 29.4259C58.6904 28.8157 58.9069 28.2253 59.3203 27.7726C59.7139 27.3396 60.3044 27.123 61.072 27.123C61.8396 27.123 62.4498 27.3396 62.8631 27.7726C63.2962 28.245 63.552 28.8551 63.5717 29.5046L62.2727 29.5834C62.2727 29.2684 62.1349 28.9535 61.9381 28.7173C61.7019 28.5008 61.3869 28.4024 61.072 28.4221C60.7768 28.4024 60.5012 28.4811 60.265 28.6583C60.1076 28.8157 60.0289 29.0323 60.0289 29.2488C60.0289 29.4653 60.1076 29.6621 60.2454 29.8196C60.5406 30.0754 60.8752 30.2723 61.2295 30.4297C61.9971 30.8234 62.4695 31.1383 62.686 31.3942C63.0009 31.7878 63.1781 32.2799 63.1584 32.7719C63.1781 33.4411 62.9222 34.071 62.4695 34.563C62.0168 35.0551 61.3673 35.311 60.5406 35.311C60.0289 35.3307 59.5171 35.2126 59.0644 34.9764C58.6708 34.7795 58.3558 34.4253 58.1787 34.0316C57.9425 33.5395 57.8441 33.0672 57.8638 32.5948Z" fill="black"/>
<path d="M64.5357 32.0439C64.5357 31.5519 64.5947 31.0598 64.7128 30.5677C64.8506 29.9182 65.0868 29.308 65.4214 28.7569C65.7166 28.2649 66.1103 27.8515 66.6024 27.5563C67.0944 27.2611 67.6652 27.1036 68.236 27.1036C69.0036 27.0839 69.7319 27.4185 70.2043 28.009C70.6963 28.6192 70.9522 29.4261 70.9522 30.4299C70.9522 31.2566 70.7947 32.0833 70.4601 32.8509C70.1846 33.5595 69.7319 34.1893 69.1217 34.642C68.5706 35.0553 67.9014 35.2719 67.2125 35.2719C66.6614 35.2915 66.1103 35.1144 65.6576 34.7601C65.2443 34.4452 64.949 34.0122 64.7719 33.5201C64.6144 33.0674 64.516 32.5557 64.5357 32.0439ZM65.8741 32.0242C65.8544 32.5163 66.0119 32.9887 66.2874 33.3823C66.5433 33.7366 66.937 33.9334 67.37 33.9334C67.7636 33.9138 68.1376 33.776 68.4328 33.5004C68.8265 33.1461 69.102 32.6934 69.2792 32.1817C69.4957 31.6306 69.6138 31.0598 69.6138 30.4693C69.6532 29.9576 69.4957 29.4261 69.2005 29.0128C68.9446 28.6782 68.5509 28.4814 68.1376 28.4814C67.4684 28.4814 66.937 28.8553 66.5236 29.5836C66.0709 30.3315 65.8544 31.1582 65.8741 32.0242Z" fill="black"/>
<path d="M72.9396 35.1537H71.5815L72.9593 27.261H75.892C76.2857 27.2413 76.699 27.3004 77.073 27.4382C77.3682 27.5759 77.6044 27.8121 77.7619 28.127C77.939 28.501 78.0374 28.9143 78.0177 29.3277C78.0374 29.9182 77.8603 30.5086 77.506 30.981C77.132 31.4337 76.5809 31.7289 75.9707 31.788C76.1676 32.0045 76.325 32.2604 76.4628 32.5359C76.8565 33.3823 77.1911 34.268 77.4666 35.1537H76.0101C75.892 34.701 75.6558 34.0121 75.3212 33.0674C75.1441 32.5556 74.9473 32.221 74.7307 32.0439C74.5339 31.9258 74.2977 31.8667 74.0615 31.8864H73.5104L72.9396 35.1537ZM73.7269 30.6858H74.4552C75.1834 30.6858 75.6755 30.6267 75.9117 30.5283C76.1479 30.4299 76.3447 30.2528 76.4628 30.0363C76.6006 29.8197 76.6596 29.5836 76.6596 29.3277C76.6793 29.0718 76.5612 28.8356 76.3644 28.6782C76.2463 28.5994 75.9904 28.5601 75.5771 28.5601H74.0812L73.7269 30.6858Z" fill="black"/>
<path d="M20.311 20.2741C21.6494 20.1363 85.6538 16.4165 85.6538 16.4165H86.2049L86.4017 17.4793L85.7719 19.9395L85.1224 22.3997L84.4729 24.8599C84.2564 25.6865 84.0399 26.4935 83.8234 27.3201C83.3708 28.9537 82.9574 30.5872 82.4851 32.2208L81.7962 34.6613L81.0877 37.1018L81.5207 34.6023L81.9734 32.1027C82.2686 30.4298 82.8 20.5693 82.8 20.5693C73.7465 20.7071 21.5313 20.3135 20.311 20.2741Z" fill="#21AD8C"/>
<path d="M98.5846 23.8955C97.9941 19.3884 95.0812 18.5815 94.5302 18.424L85.5947 18.1682V16.4165H94.8057L94.8844 16.4362C96.6164 16.8101 100.061 18.798 100.69 23.6593L98.5846 23.8955Z" fill="#21AD8C"/>
<path d="M116.968 43.4389C116.968 43.4389 117.578 34.0312 107.481 34.5822L97.5422 34.1492C97.5422 34.1492 102.896 33.4013 102.482 28.8352C102.482 28.8352 103.25 24.2101 87.7998 23.4622H102.797C102.797 23.4622 106.832 25.391 104.687 31.5316L113.602 32.929C113.602 32.929 117.243 33.2045 116.988 38.676L116.968 43.4389Z" fill="#21AD8C"/>
<path d="M96.2822 45.5253H0V43.9902H94.747C95.4949 43.2029 97.3253 40.2507 101.439 40.3885C105.159 40.5262 105.611 45.1908 105.611 45.1908C104.627 43.6359 102.403 43.0455 101.124 42.9471C98.5259 42.7306 96.5184 45.2498 96.4987 45.2695L96.2822 45.5253Z" fill="black"/>
<path d="M24.4444 45.0136C24.4444 45.0136 24.346 45.2498 24.2082 45.7222C24.0705 46.1945 23.854 46.8834 23.6571 47.7494C23.421 48.7925 23.2832 49.8553 23.2438 50.9181C23.2241 51.2133 23.2438 51.5282 23.2438 51.8431C23.2438 52.158 23.2832 52.4729 23.3226 52.8075C23.4013 53.4767 23.5587 54.1262 23.7949 54.756C24.0508 55.4055 24.405 56.0156 24.838 56.547C25.3104 57.1178 25.8615 57.6098 26.4913 58.0231C27.1801 58.4758 27.9084 58.8301 28.6759 59.1056C29.0893 59.2434 29.4829 59.4009 29.9159 59.4993L30.5654 59.6764C30.6441 59.6961 30.6835 59.7158 30.7228 59.7158L30.8803 59.7551L31.2149 59.8338C32.1202 60.0307 33.0649 60.1684 34.049 60.2865C35.0331 60.4046 36.0172 60.5227 37.0209 60.5817C39.0678 60.7392 41.1147 60.7589 43.1616 60.6605C45.2281 60.5621 47.275 60.3653 49.3022 60.07C51.3294 59.7748 53.2976 59.4205 55.2067 59.0072L56.6238 58.6923C57.0961 58.5742 57.5488 58.4561 58.0015 58.338L58.6903 58.1609L59.3595 57.9838L60.6782 57.6295C61.5441 57.3737 62.3708 57.1178 63.1777 56.8816L65.5001 56.114L67.6257 55.3465C68.2949 55.0906 68.9247 54.8347 69.5152 54.6182C70.1056 54.4017 70.6567 54.1459 71.1684 53.9491L72.5658 53.3586L75.2031 52.1777L75.3212 52.4336L72.7626 53.8113L71.4046 54.5001C70.9126 54.756 70.3615 55.0119 69.7907 55.2874C69.22 55.5629 68.5901 55.8582 67.9407 56.1534L65.8544 57.0587L63.5713 57.9838C62.7644 58.279 61.9378 58.5939 61.0915 58.9088C60.2452 59.2237 59.3595 59.5189 58.4345 59.7945L57.0567 60.2275L55.6397 60.6211C53.7109 61.1328 51.723 61.6446 49.6565 62.0185C47.5899 62.3925 45.484 62.7074 43.3584 62.9042C41.2328 63.101 39.0875 63.2191 36.9619 63.2191C34.8559 63.2388 32.7697 63.0616 30.7031 62.6877L30.3095 62.6089L30.1127 62.5696C30.034 62.5499 29.9552 62.5302 29.9159 62.5302L29.1483 62.3137C28.6563 62.1563 28.1642 61.9988 27.6722 61.7823C26.7078 61.3887 25.8024 60.877 24.9758 60.2472C24.8774 60.1684 24.7593 60.0897 24.6609 60.011L24.3657 59.7551C24.1689 59.5977 23.9917 59.4205 23.8146 59.2237C23.6375 59.0269 23.48 58.8498 23.3029 58.653L22.8699 58.0428C22.3582 57.2556 21.9645 56.3699 21.7283 55.4645C21.5119 54.6379 21.4134 53.8113 21.4331 52.965C21.4528 52.2368 21.5315 51.5085 21.6693 50.8C21.9055 49.6585 22.2597 48.5563 22.7518 47.5132C22.9486 47.0802 23.1454 46.7062 23.3226 46.3913C23.4997 46.0764 23.6571 45.8009 23.7949 45.5844C24.0508 45.1711 24.2279 44.9546 24.2279 44.9546L24.4444 45.0136Z" fill="black"/>
<path d="M108.091 23.3836C108.091 23.3836 108.209 23.1277 108.426 22.6554C108.642 22.183 108.957 21.4745 109.312 20.5495C109.666 19.6244 110.059 18.5223 110.414 17.2233C110.807 15.8062 111.083 14.3498 111.181 12.8737C111.28 11.2991 111.142 9.58683 110.473 8.07135C110.138 7.30377 109.666 6.59523 109.075 5.9851C108.78 5.6702 108.446 5.37497 108.091 5.11911C107.737 4.84357 107.343 4.58771 106.95 4.37122C106.536 4.15472 106.103 3.93822 105.651 3.76109C105.434 3.66268 105.198 3.58395 104.962 3.48555L104.608 3.36746L104.43 3.30841L104.391 3.28873H104.371H104.411L104.352 3.26905C103.899 3.17064 103.387 3.07223 102.876 2.99351C102.364 2.91478 101.833 2.85574 101.321 2.81637C99.1558 2.61956 96.9908 2.59987 94.8259 2.75733C92.6412 2.93446 90.4762 3.28873 88.331 3.78077C86.2447 4.25313 84.1781 4.84357 82.1706 5.55211C80.2025 6.22128 78.313 6.98886 76.5614 7.77613C74.8097 8.56339 73.1762 9.37033 71.6804 10.1576C70.1846 10.9449 68.8462 11.7124 67.685 12.421C66.5041 13.1295 65.5003 13.779 64.6737 14.3104C63.8471 14.8418 63.1976 15.2748 62.7646 15.5897L62.0954 16.0424L61.938 15.8259L62.5678 15.3142C62.9811 14.9796 63.5912 14.5072 64.3785 13.8971C65.1658 13.287 66.1302 12.5784 67.2717 11.7912C68.4132 11.0039 69.7122 10.1379 71.1686 9.25224C72.6251 8.36657 74.2193 7.44154 75.9709 6.53619C77.7226 5.63083 79.5923 4.76485 81.5802 3.9579C85.7527 2.24561 90.122 1.04503 94.5897 0.415222C96.8924 0.0806352 99.2149 -0.0571357 101.537 0.0215906C102.128 0.0412721 102.698 0.100317 103.269 0.159361C103.86 0.218406 104.45 0.316814 105.041 0.454585L105.178 0.493948L105.257 0.51363H105.277L105.336 0.533311L105.552 0.612037L105.966 0.749808C106.241 0.867898 106.517 0.946624 106.792 1.08439C107.068 1.22217 107.324 1.32057 107.599 1.45834C107.875 1.59612 108.131 1.73389 108.386 1.89134C109.41 2.48179 110.335 3.24937 111.103 4.13504C111.85 5.00103 112.441 6.02447 112.834 7.10695C113.189 8.11071 113.386 9.15383 113.425 10.2166C113.464 11.1614 113.386 12.1257 113.228 13.0508C112.953 14.645 112.461 16.1998 111.811 17.6759C111.319 18.7978 110.768 19.8606 110.138 20.9037C109.607 21.75 109.174 22.4192 108.839 22.8325C108.505 23.2458 108.327 23.482 108.327 23.482L108.091 23.3836Z" fill="#21AD8C"/>
</svg>
