<svg width="40" height="46" fill="none" xmlns="http://www.w3.org/2000/svg"><g clip-path="url(#a)"><path d="M12.16 18.723c-.446-.035-.91-.018-1.338-.107-2-.432-2.893-2.696-1.75-4.403a1.4 1.4 0 0 0 .214-.7c.018-2.193-.018-4.403.035-6.595.018-.827.125-1.69.393-2.462.715-2.174 3.036-2.749 4.625-2.605.447.036.84 0 1.25-.162C17.68.862 19.84.216 22.09.054c2-.162 3.929.09 5.608 1.33 1.535 1.15 2.303 2.785 2.696 4.618.482 2.317.34 4.635-.054 6.953-.053.342-.035.557.25.809.84.773 1.09 2.013.679 3.09a2.88 2.88 0 0 1-2.59 1.834h-.785c-.107.503-.179.988-.304 1.437-.303 1.096-.839 2.066-1.553 2.947-.16.198-.268.503-.268.755a46.489 46.489 0 0 0 0 2.73.66.66 0 0 0 .268.468c1.34.79 2.678 1.635 4.071 2.318.697.341 1.536.45 2.304.629.893.215 1.803.413 2.696.629 2.893.7 4.893 3.216 4.929 6.217.018 2.731 0 5.48 0 8.212 0 .7-.232.934-.947.934H1.107c-.875 0-1.071-.198-1.071-1.078v-7.817c0-3.288 1.964-5.786 5.143-6.54 1.321-.306 2.642-.593 3.946-.916.41-.108.821-.252 1.197-.468 1.232-.683 2.446-1.401 3.678-2.102.25-.144.322-.288.322-.557-.018-.934 0-1.887-.018-2.821a.791.791 0 0 0-.161-.485 7.904 7.904 0 0 1-1.91-4.313.361.361 0 0 1-.072-.144zm26.411 25.822c0-2.696.054-5.355-.017-7.997-.054-2.102-1.59-3.935-3.608-4.456-1.428-.377-2.857-.665-4.285-1.024-.286-.072-.447-.018-.643.198-1.41 1.653-2.857 3.288-4.286 4.941-.464.521-.678.557-1.303.216-.34-.18-.661-.378-1.018-.575-.357.898-.715 1.76-1.036 2.623a.947.947 0 0 0 .018.665c.732 1.707 1.482 3.396 2.232 5.085.107.252.232.36.518.36 2.232-.019 4.464 0 6.696 0 .108 0 .197-.019.34-.019v-3.287c0-.648.232-.99.696-.99.464 0 .732.342.732.971v3.324c1.66-.035 3.286-.035 4.965-.035zm-21.946-8.697c-.375.215-.714.395-1.036.593-.607.341-.839.305-1.303-.234-1.429-1.653-2.857-3.288-4.286-4.941-.179-.216-.34-.252-.607-.198-1.286.323-2.572.61-3.857.898-2.607.611-4.107 2.498-4.107 5.193v7.386h5v-3.468c0-.504.285-.81.696-.827.429-.018.714.305.732.827v3.413c.072.036.107.054.125.054 2.34 0 4.679.019 7 0 .125 0 .304-.143.375-.269.786-1.725 1.536-3.468 2.304-5.193.053-.126.107-.27.071-.377-.34-.953-.732-1.887-1.107-2.857zM13.59 10.566c0 2.623-.071 5.228.018 7.852.125 3.306 2.965 5.966 6.232 6.02 3.661.053 6.572-2.804 6.59-6.505.018-2.426 0-4.852 0-7.278 0-.125-.018-.251-.018-.413-1.232.27-2.447.503-3.643.79-2.072.486-4.16.701-6.268.288-.982-.197-1.928-.503-2.91-.754zm15.232 2.353.072-.143c.375-2.12.518-4.259.107-6.38-.25-1.329-.75-2.55-1.75-3.503-1.178-1.114-2.607-1.456-4.16-1.456-2.197 0-4.268.575-6.286 1.33-.982.36-1.929.665-3.054.54-1.5-.163-2.553.718-2.875 2.173a6.381 6.381 0 0 0-.143 1.42c-.018 1.887 0 3.773 0 5.66v.431c.5-.036.965-.053 1.429-.09v-3.45c0-.485.25-.826.643-.808.232 0 .464.108.678.198 2.554 1.204 5.197 1.527 7.965.97 1.82-.36 3.642-.773 5.446-1.15.625-.126.982.162.982.79v3.451c.34.018.625.018.947.018zm-4.535 11.698c-2.875 1.69-5.715 1.653-8.572 0 0 .737-.018 1.402.018 2.084 0 .198.09.432.215.593 1.214 1.42 2.446 2.822 3.66 4.223.125.144.25.27.393.431 1.41-1.617 2.786-3.198 4.16-4.78a.42.42 0 0 0 .126-.269v-2.282zm.875 3.612c-1.357 1.563-2.679 3.09-4.036 4.636 1.268.736 2.482 1.437 3.732 2.138 1.357-1.563 2.679-3.073 4.036-4.636-1.268-.719-2.5-1.42-3.732-2.138zm-14.036 2.156c1.357 1.563 2.697 3.09 4.036 4.636 1.25-.719 2.464-1.42 3.732-2.138-1.357-1.564-2.697-3.09-4.036-4.636-1.268.7-2.482 1.401-3.732 2.138zm12.054 14.16c-.554-1.24-1.054-2.408-1.572-3.576-.214-.468-.321-1.132-.696-1.366-.375-.233-1-.054-1.518-.072-.268-.018-.393.09-.482.324-.625 1.455-1.268 2.893-1.91 4.348-.055.108-.072.216-.108.341h6.286zm-5.304-9.434c.375.952.732 1.85 1.107 2.75a.473.473 0 0 0 .357.215c.447.018.893.018 1.34 0 .107 0 .285-.054.321-.144.393-.934.75-1.869 1.143-2.821-.679-.395-1.322-.773-1.964-1.132-.09-.054-.232-.036-.322 0-.66.377-1.303.755-1.982 1.132zm10-17.897c.75.09 1.447.054 1.91-.665.322-.485.287-1.114-.07-1.599-.393-.521-1.054-.719-1.84-.521v2.785zm-15.75 0v-2.821c-.768-.09-1.464-.054-1.893.683-.303.503-.303 1.024.018 1.527.447.683 1.143.7 1.875.611z" fill="#1DAD8C"/></g><defs><clipPath id="a"><path fill="#fff" d="M0 0h40v46H0z"/></clipPath></defs></svg>