<svg width="39" height="46" fill="none" xmlns="http://www.w3.org/2000/svg"><g clip-path="url(#a)" fill="#1DAD8C"><path d="M21.035 0c.783.12 1.578.216 2.348.371 4.648.923 7.718 4.11 8.38 8.793.17 1.198.145 2.408.181 3.618.012.263.06.419.29.575.65.443.986 1.078.986 1.869 0 .862.013 1.736 0 2.599a2.283 2.283 0 0 1-2.287 2.288c-.927.012-1.855 0-2.806 0-.41 2.192-1.637 3.821-3.263 5.211-.24.204-.337.42-.325.73.024.959.012 1.917.012 2.936.77.215 1.541.443 2.312.658 2.252.635 4.503 1.246 6.755 1.893 2.408.683 4.13 2.803 4.395 5.271.289 2.671.638 5.343.95 8.014.013.132.025.264.025.407 0 .432-.265.731-.662.755-.41.024-.723-.216-.77-.647-.133-.982-.242-1.964-.362-2.935-.24-1.94-.422-3.893-.723-5.834-.264-1.7-1.276-2.922-2.901-3.498-1.638-.575-3.336-.982-5.021-1.461a1071.85 1071.85 0 0 0-2.59 3.87c-.469.706-.95 1.425-1.432 2.132-.385.563-.783.634-1.312.203l-2.601-2.156c-.109-.096-.229-.18-.41-.312v4.768c0 .515-.3.839-.734.827-.421-.012-.698-.324-.698-.827v-4.804c-.53.444-.988.815-1.445 1.187-.518.43-1.036.862-1.566 1.293-.53.431-.927.384-1.312-.191a897.327 897.327 0 0 0-3.733-5.559 8.59 8.59 0 0 1-.3-.431c-1.686.48-3.408.874-5.046 1.474-1.758.67-2.709 2.06-2.938 3.929-.337 2.743-.65 5.498-.987 8.241-.06.515-.35.767-.783.743-.445-.036-.71-.36-.65-.898.18-1.63.373-3.27.578-4.9.157-1.306.253-2.623.506-3.917.481-2.432 1.962-4.037 4.346-4.744 2.878-.85 5.78-1.629 8.67-2.444.108-.036.216-.072.349-.12 0-1.054.012-2.108-.012-3.15 0-.168-.169-.371-.313-.491-.987-.85-1.854-1.809-2.456-2.959-.35-.683-.578-1.425-.903-2.252H8.03c-1.228-.024-2.227-1.018-2.24-2.24-.011-.887 0-1.761 0-2.648 0-.778.314-1.401.952-1.832.289-.192.337-.396.313-.707-.145-2.144.108-4.24.915-6.253 1.336-3.283 3.865-5.175 7.26-5.99.904-.215 1.83-.311 2.746-.467C18.988 0 20.012 0 21.035 0zm5.539 20.676a1.006 1.006 0 0 0-.145-.096c-.132.048-.252.084-.385.132-.662.252-1.324.48-1.975.755-.108.048-.216.227-.24.347-.145.994-.891 1.773-1.843 1.893-.999.131-1.95-.408-2.323-1.33a2.14 2.14 0 0 1 .71-2.527c.83-.612 1.866-.564 2.71.095a.72.72 0 0 0 .54.096c.928-.311 1.831-.67 2.746-.994.253-.084.35-.216.337-.48-.012-1.616.037-3.234-.036-4.85-.024-.672-.24-1.354-.506-1.965-.313-.72-.975-1.079-1.77-.97-.722.107-1.468.239-2.119.538-1.89.875-3.72.91-5.599 0a6.928 6.928 0 0 0-1.529-.503c-1.409-.287-2.348.3-2.709 1.677-.12.444-.18.91-.18 1.378-.025 1.7.012 3.414-.013 5.115-.012 1.198.314 2.276 1 3.246 1.312 1.87 3.07 3.187 5.141 4.097.759.336 1.505.312 2.264-.024 1.95-.862 3.6-2.108 4.864-3.821.434-.563.723-1.21 1.06-1.809zM10.62 12.914c.072.011.132.024.205.036.06-.24.12-.492.192-.731.494-1.953 1.95-3.103 3.697-2.935a7.734 7.734 0 0 1 2.721.743c1.373.67 2.733.658 4.118.012.482-.228 1-.42 1.517-.563 1.288-.348 2.553-.348 3.624.563.434.37.759.862 1.168 1.353-.144-.719-.24-1.413-.421-2.096-.698-2.672-2.24-4.576-4.997-5.319a12.12 12.12 0 0 0-6.538.06c-1.879.563-3.263 1.749-4.13 3.51-.506 1.042-.807 2.156-.951 3.294-.085.695-.133 1.378-.205 2.073zm-1.553.011c.24-1.425.373-2.815.71-4.156.807-3.187 2.757-5.367 6.02-6.205C17.99 2 20.204 2 22.407 2.468c2.024.431 3.721 1.413 4.95 3.114 1.023 1.426 1.54 3.031 1.794 4.732.132.85.192 1.725.277 2.6h1.047c.012-.18.048-.348.036-.504-.06-1.03-.024-2.072-.192-3.078-.602-3.654-2.601-6.181-6.238-7.26-2.841-.838-5.73-.838-8.597-.167-2.456.575-4.443 1.856-5.707 4.109-.867 1.545-1.228 3.234-1.3 4.983-.024.635 0 1.282 0 1.928h.59zm6.875 13.74c-.145 1.426-.289 2.78 1.12 3.666.216.132.36.348.542.527.626.623 1.252 1.246 1.902 1.905a938.178 938.178 0 0 0 3.492-3.498.382.382 0 0 0 .108-.192c.012-.778 0-1.557 0-2.455-2.432 1.797-4.804 1.725-7.164.048zm11.138 4.553c-1.012-.288-1.963-.551-2.914-.815a.411.411 0 0 0-.313.072c-1.096 1.066-2.18 2.144-3.287 3.234 1.047.875 2.07 1.713 3.106 2.576a531.179 531.179 0 0 0 3.408-5.067zm-15.16.012c1.144 1.713 2.264 3.378 3.396 5.079 1.06-.875 2.07-1.713 3.094-2.576-1.095-1.09-2.155-2.156-3.239-3.198-.084-.084-.265-.12-.385-.096-.915.24-1.854.503-2.866.79zm-1.107-16.855c-.94 0-1.855-.024-2.77.012-.481.012-.807.371-.819.85a46.78 46.78 0 0 0 0 2.6c.012.467.338.815.783.838.927.037 1.854.012 2.793.012.013-1.449.013-2.85.013-4.312zm17.374 4.313c.915 0 1.794.012 2.661 0 .554-.012.916-.348.928-.887.024-.85.012-1.701 0-2.551-.012-.432-.253-.803-.687-.827-.963-.048-1.938-.012-2.902-.012v4.277zm-5.803 2.875c0-.372-.35-.72-.723-.72s-.722.348-.722.72c0 .37.349.718.722.718.374 0 .723-.347.723-.718z"/><path d="M18.784 44.18c0-.348-.012-.696 0-1.031.012-.455.3-.743.722-.743.41 0 .698.288.71.707.012.719.012 1.438 0 2.156-.012.431-.3.707-.698.719-.421.012-.722-.288-.735-.73-.012-.36 0-.72 0-1.079z"/></g><defs><clipPath id="a"><path fill="#fff" d="M0 0h39v46H0z"/></clipPath></defs></svg>