<svg width="31" height="31" fill="none" xmlns="http://www.w3.org/2000/svg"><g clip-path="url(#a)" fill="#1DAD8C"><path d="M9.678 12.957c.631 1.38 1.516 2.543 2.499 3.657 1.31 1.477 2.753 2.81 4.427 3.887.4.254.824.46 1.237.702.17.097.23 0 .327-.096.607-.606 1.213-1.211 1.832-1.817.594-.593 1.26-1.03 2.134-1.078.74-.036 1.431.134 1.965.642 1.468 1.417 2.923 2.846 4.318 4.323.982 1.042.97 2.7.012 3.79a41.734 41.734 0 0 1-2.705 2.774c-.4.375-.922.666-1.419.884-1.128.496-2.316.423-3.505.23-2.45-.424-4.657-1.478-6.78-2.725-5.324-3.148-9.363-7.508-12.177-13.005-.788-1.55-1.419-3.185-1.697-4.917-.23-1.38-.255-2.749.448-4.032.194-.34.413-.678.68-.957.848-.884 1.697-1.792 2.62-2.603 1.321-1.15 2.825-1.139 4.11.072a79.73 79.73 0 0 1 4.027 4.069c1.031 1.102 1.007 2.688 0 3.814-.655.74-1.382 1.417-2.074 2.12-.085.084-.17.17-.279.266zm12.577 16.287c1.02-.012 1.832-.303 2.487-.98.691-.715 1.395-1.405 2.074-2.132.218-.242.424-.557.51-.872.157-.557-.183-.957-.547-1.32-1.164-1.174-2.34-2.337-3.517-3.512a2.647 2.647 0 0 0-.279-.242c-.424-.315-.885-.327-1.322-.036-.17.109-.315.254-.46.387-.704.69-1.396 1.405-2.111 2.095-.51.497-1.043.618-1.625.327-.607-.302-1.201-.617-1.771-.98-1.856-1.175-3.457-2.652-4.9-4.3-1.091-1.234-2.062-2.554-2.74-4.08-.365-.824-.268-1.296.375-1.926.752-.738 1.504-1.465 2.232-2.228.497-.52.497-1.065.048-1.635-.085-.096-.17-.193-.267-.29C9.29 6.37 8.15 5.22 6.998 4.069c-.728-.727-1.37-.727-2.098-.012-.716.702-1.443 1.392-2.11 2.13-.316.34-.595.752-.765 1.175-.34.848-.254 1.744-.097 2.628.28 1.562.861 3.015 1.565 4.42 1.613 3.21 3.784 5.994 6.404 8.44 2.704 2.507 5.76 4.457 9.242 5.74 1.018.4 2.098.618 3.116.654zM16.3.884a.873.873 0 0 1 1.031-.872c3.263.593 6.125 1.986 8.563 4.263 2.038 1.9 3.53 4.177 4.427 6.817.279.836.46 1.708.655 2.567.109.497-.182.896-.667 1.005a.851.851 0 0 1-1.02-.63c-.169-.605-.278-1.234-.46-1.84-.922-3.04-2.656-5.534-5.155-7.496-1.952-1.537-4.172-2.494-6.61-2.942-.485-.085-.764-.424-.764-.872zM17.016 5.607c.473.12 1.031.218 1.565.411 3.468 1.26 5.712 3.67 6.658 7.242.06.218.11.436.146.654a.89.89 0 0 1-.655 1.017.874.874 0 0 1-1.056-.593c-.157-.509-.242-1.042-.436-1.538-1.152-2.955-3.299-4.771-6.416-5.425-.485-.097-.764-.4-.788-.824-.012-.424.218-.775.618-.896.097-.012.194-.024.364-.048z"/></g><defs><clipPath id="a"><path fill="#fff" d="M0 0h31v31H0z"/></clipPath></defs></svg>