<svg width="46" height="46" viewBox="0 0 46 46" fill="none" xmlns="http://www.w3.org/2000/svg">
<g clip-path="url(#clip0_196_269)">
<path d="M6.44462 38.9831C6.44462 39.2429 6.44462 39.3934 6.44462 39.5575C6.44462 41.1989 6.4583 42.854 6.4583 44.4954C6.4583 45.2067 6.06152 45.7401 5.40476 45.9453C4.83011 46.1231 4.20072 45.9316 3.87234 45.3982C3.72184 45.152 3.5987 44.851 3.5987 44.5638C3.55765 41.3631 3.53028 38.1624 3.5166 34.9617C3.5166 34.0179 4.09126 33.3886 5.03534 33.375C8.30542 33.3476 11.5618 33.3339 14.8319 33.3476C15.5844 33.3476 16.1454 33.9905 16.1454 34.7702C16.1317 35.6045 15.5571 36.1927 14.6814 36.2064C12.7795 36.2201 10.8777 36.22 8.97585 36.22C8.64748 36.22 8.3191 36.22 7.88126 36.22C8.07282 36.4389 8.18228 36.603 8.3191 36.7398C11.5344 40.091 15.4065 42.1838 20.0038 42.8677C30.3477 44.3997 40.0621 37.8888 42.5523 27.7395C42.9217 26.2076 43.1133 24.6482 43.1269 23.0752C43.1269 22.1041 43.6606 21.5433 44.5499 21.5433C45.4666 21.5433 46.0002 22.1041 45.9866 23.1026C45.9729 33.5118 38.7212 42.8403 28.569 45.2477C20.2501 47.2174 12.9574 45.1246 6.75931 39.2703C6.6909 39.2019 6.60881 39.1198 6.44462 38.9831Z" fill="#1DAD8C"/>
<path d="M39.5554 7.00336C39.5554 6.74347 39.5554 6.56565 39.5554 6.40151C39.5554 4.76012 39.528 3.10505 39.5417 1.46366C39.5417 0.711355 40.1027 0.0958332 40.8142 0.0137636C41.512 -0.068306 42.1824 0.383077 42.3603 1.09435C42.4013 1.24481 42.4013 1.42262 42.4013 1.58676C42.4287 4.66437 42.456 7.75566 42.4697 10.8333C42.4834 12.078 41.9224 12.6388 40.6773 12.6388C37.5578 12.6525 34.4519 12.6662 31.3323 12.6662C30.2924 12.6662 29.6904 11.8865 29.9093 10.8743C30.0598 10.2041 30.5798 9.8074 31.3597 9.79372C33.3846 9.78004 35.396 9.78004 37.4209 9.78004C37.6125 9.78004 37.804 9.78004 38.1051 9.78004C37.9545 9.58855 37.8588 9.46544 37.7493 9.35602C34.7255 6.12795 31.0313 4.03517 26.6803 3.25551C20.8106 2.18861 15.4471 3.48804 10.6993 7.0991C6.64937 10.1904 4.15919 14.3075 3.22879 19.3138C2.99619 20.5312 2.95514 21.7759 2.87305 23.0069C2.81832 23.8823 2.29839 24.4431 1.4364 24.4431C0.54705 24.4431 -0.0139259 23.8823 -0.000243537 22.9659C0.0955328 16.5234 2.40785 11.0248 7.00511 6.51094C10.4667 3.11873 14.6399 1.02596 19.4287 0.314685C26.3519 -0.711184 32.55 1.06699 37.9409 5.53978C38.4608 5.97749 38.9534 6.45623 39.5554 7.00336Z" fill="#1DAD8C"/>
</g>
<defs>
<clipPath id="clip0_196_269">
<rect width="46" height="46" fill="white"/>
</clipPath>
</defs>
</svg>
