<svg width="35" height="40" fill="none" xmlns="http://www.w3.org/2000/svg"><g clip-path="url(#a)" fill="#1DAD8C"><path d="M25.364 22.588c1.923-.47 3.198.514 3.22 2.439 0 1.946.086 3.893-.022 5.818-.065.963-.346 1.968-.735 2.866-.475 1.07-.67 2.096-.302 3.23.194.62.259 1.284.389 1.925.15.792-.108 1.134-.93 1.134H15.816c-.821 0-1.059-.235-1.059-1.048 0-1.005.022-1.99-.021-2.995-.022-.3-.13-.663-.324-.898-.735-1.005-1.534-1.947-2.226-2.952-.713-1.027-1.274-2.16-2.01-3.144-.993-1.327-2.095-2.589-3.153-3.872-.757-.898-.757-2.096.021-2.91.821-.855 2.031-.962 2.96-.149 1.296 1.134 2.55 2.31 3.803 3.465.15.129.28.257.54.492V14.438c0-.855.194-1.582.907-2.117.756-.556 1.556-.642 2.398-.235.8.385 1.275 1.026 1.297 1.925.021 1.647 0 3.273 0 4.92v.62c1.469-.342 2.549.085 3.132 1.454 1.729-.3 2.377 0 3.284 1.583zM15.75 20.92v6.417c0 .385 0 .749-.41.962-.433.214-.713-.064-.994-.32-.908-.856-1.837-1.712-2.744-2.567-.778-.727-1.556-1.433-2.333-2.14-.476-.427-.843-.448-1.189-.128-.302.3-.28.728.108 1.198.065.086.152.15.216.236 1.383 1.775 2.874 3.486 4.084 5.369.95 1.497 2.009 2.909 3.09 4.299.107.15.345.257.54.257 3.175.021 6.33.021 9.506 0 .15 0 .388-.086.432-.193.389-.984.972-1.946 1.037-2.952.15-2.224.064-4.449.043-6.674 0-.47-.324-.727-.778-.79-.454-.065-.843.256-.95.705-.022.043 0 .107-.022.15-.065.449-.303.748-.778.706-.475-.043-.648-.364-.648-.835.021-.406 0-.813 0-1.219-.022-.663-.346-1.07-.864-1.112-.476-.043-.821.32-.95.962-.087.407-.303.642-.736.62-.453-.02-.67-.299-.67-.748 0-.47.022-.92 0-1.39a.883.883 0 0 0-.799-.856c-.453-.043-.82.214-.95.684-.043.129 0 .279-.087.364-.172.193-.389.492-.605.492-.237 0-.518-.235-.713-.428-.108-.107-.086-.363-.086-.556V14.29c-.022-.62-.367-.984-.907-.963-.519.022-.865.385-.865.963.022 2.182.022 4.406.022 6.63zm.454 17.604H26.38c-.152-.706-.324-1.369-.39-2.032-.064-.556-.323-.62-.82-.62-2.636.021-5.25 0-7.886 0h-1.102c.022.94.022 1.775.022 2.652z"/><path d="M19.898 15.722v-1.37h11.17c1.62 0 2.463-.833 2.463-2.416V3.872c0-1.605-.843-2.439-2.463-2.439H3.954c-1.707 0-2.528.792-2.528 2.481v8.022c0 1.604.843 2.417 2.463 2.417h9.42v1.369c-.173 0-.346.021-.519.021H3.673c-2.117 0-3.695-1.54-3.695-3.636 0-2.76.022-5.519 0-8.278C-.022 1.412 1.858 0 3.868 0c9.181.043 18.363.021 27.546.021 1.966 0 3.564 1.54 3.586 3.466.022 2.93.022 5.84 0 8.77-.022 1.946-1.599 3.465-3.565 3.465H19.9z"/></g><defs><clipPath id="a"><path fill="#fff" d="M0 0h35v40H0z"/></clipPath></defs></svg>