<svg width="43" height="46" fill="none" xmlns="http://www.w3.org/2000/svg"><g clip-path="url(#a)" fill="#1DAD8C"><path d="M25.012 38.447v2.14c1.11.09 2.096.45 2.92 1.223.896.827 1.38 1.87 1.451 3.093.036.72-.322 1.097-1.039 1.097H12.721c-.717 0-1.075-.36-1.057-1.097.036-2.14 1.791-3.992 4.049-4.28.107-.018.197-.018.322-.036v-2.14H4.765C1.936 38.447 0 36.523 0 33.682V11.527c0-2.77 1.935-4.712 4.694-4.73h9.174c.304 0 .465-.072.627-.36 2.383-4.405 6.073-6.67 11.054-6.42 4.3.199 7.507 2.393 9.604 6.169.268.485.52.647 1.057.611a4.348 4.348 0 0 1 3.081.971c1.165.936 1.72 2.158 1.72 3.633 0 3.633.036 7.247-.018 10.88-.018.88.197 1.51.86 2.104.43.395.789.953.986 1.51.483 1.367-.18 2.877-1.47 3.525-.268.144-.34.305-.34.593.018 1.205 0 2.428 0 3.633 0 2.84-1.917 4.765-4.748 4.765H25.585c-.18.036-.358.036-.573.036zm-11.27-23.503c-.61-2.14-.61-4.226-.072-6.348H4.838c-1.953 0-3.046 1.097-3.046 3.039v18.882h37.553c-.125-.324-.143-.684-.322-.828-.466-.395-1.076-.647-1.506-1.079-2.167-2.14-4.317-4.315-6.467-6.473-.251-.252-.413-.306-.753-.126-1.451.809-3.046 1.277-4.694 1.33-4.873.144-8.528-1.942-10.965-6.168M1.792 32.351v1.169c0 2.068 1.057 3.129 3.1 3.129h31.246c.233 0 .484 0 .717-.036 1.057-.162 1.81-.737 2.203-1.745.323-.827.144-1.672.18-2.517H1.791zm23.094-10.808c5.411.018 9.872-4.441 9.872-9.872 0-5.45-4.425-9.909-9.854-9.89-5.41 0-9.818 4.423-9.854 9.854-.018 5.412 4.425 9.89 9.836 9.908zM35.1 17.317c1.433 1.439 2.795 2.824 4.139 4.154v-7.66c0-.846.017-1.673 0-2.518-.054-1.672-1.488-2.913-3.064-2.625.752 3.075.376 6.006-1.075 8.65zm-2.777 3.525s.053.072.125.126l6.522 6.546c.09.09.161.161.268.233a1.233 1.233 0 0 0 1.935-.593c.198-.576-.035-1.007-.43-1.403-2.167-2.158-4.317-4.334-6.485-6.51-.072-.072-.162-.143-.162-.143-.627.593-1.182 1.15-1.773 1.744zM27.43 44.184c-.34-.882-.95-1.421-1.81-1.673a2.617 2.617 0 0 0-.752-.09c-2.902 0-5.787-.018-8.69 0-1.218 0-2.257.755-2.526 1.78 4.57-.017 9.156-.017 13.778-.017zm-9.585-3.615h5.34v-2.086h-5.34v2.086z"/><path d="M16.806 19.817c-.108-.09-.233-.18-.34-.288-.018-.018-.018-.018-.036-.018-.036-.018-.054-.036-.09-.072-.25.486-.502.99-.752 1.475-.628 1.223-1.237 2.446-1.9 3.758-.107-.215-.197-.36-.268-.503-.77-1.51-1.523-3.003-2.294-4.514-.161-.306-.322-.593-.698-.593-.413-.018-.592.287-.735.611-.376.756-.788 1.51-1.147 2.284-.125.252-.268.342-.555.324-.556-.018-1.111 0-1.648 0-.645 0-.95.234-.95.683 0 .45.305.665.932.665.734 0 1.469-.018 2.185 0 .502.018.807-.18 1.022-.629.268-.575.573-1.133.896-1.762.107.215.197.341.268.485.77 1.51 1.523 3.003 2.294 4.514.16.324.34.611.752.611.394-.018.555-.305.699-.593.806-1.618 1.63-3.219 2.454-4.837.18-.342.359-.684.556-1.097-.233-.162-.448-.342-.645-.504z"/></g><defs><clipPath id="a"><path fill="#fff" d="M0 0h43v46H0z"/></clipPath></defs></svg>