<svg width="38" height="46" fill="none" xmlns="http://www.w3.org/2000/svg"><g clip-path="url(#a)" fill="#1DAD8C"><path d="M37.92 14.054c0 2.105.08 4.223-.014 6.328-.201 4.237-1.368 8.233-3.367 11.976-3.366 6.288-8.343 10.831-14.996 13.522-.362.147-.67.16-1.033 0C9.255 42.03 3.487 35.183.9 25.631.24 23.18-.013 20.675 0 18.157c.013-3.197 0-6.38 0-9.578 0-.732.174-.999.845-1.265C6.68 4.916 12.515 2.53 18.35.134A1.604 1.604 0 0 1 19.636.12a4833.443 4833.443 0 0 0 17.491 7.154c.617.253.885.652.872 1.319-.027 1.811-.013 3.636-.013 5.448-.014.013-.04.013-.068.013zm-2.106.906h.08c0-1.811-.013-3.637.014-5.448 0-.36-.121-.507-.443-.64a5722.13 5722.13 0 0 1-16.002-6.54c-.336-.134-.604-.134-.94.013C13.2 4.516 7.874 6.7 2.536 8.872c-.322.133-.443.293-.443.64.014 2.864 0 5.728.014 8.592.013 1.945.147 3.89.563 5.795 2.04 9.219 7.378 15.813 15.976 19.81.228.106.59.066.818-.04 5.5-2.478 9.765-6.315 12.77-11.51 2.078-3.597 3.286-7.487 3.567-11.617.12-1.838.014-3.717.014-5.582z"/><path d="M14.835 19.876c0-.906-.067-1.772.014-2.638.187-2.091 1.945-3.61 4.144-3.623 2.187-.014 3.984 1.518 4.172 3.65.08.84.013 1.692.013 2.611.43 0 .752-.013 1.073 0 .644.013 1.087.44 1.087 1.08.013 2.77.013 5.528 0 8.299 0 .679-.443 1.092-1.18 1.105-.872.014-1.744 0-2.616 0h-7.418c-1.1 0-1.448-.346-1.448-1.425v-7.753c0-.933.375-1.306 1.314-1.306h.845zm8.397 8.353c0-2.038 0-4.01-.014-5.982 0-.093-.254-.266-.388-.266-2.549-.013-5.11-.013-7.66-.013-.281 0-.415.066-.415.373.013 1.891.013 3.796.013 5.688 0 .067.027.12.054.2h8.41zm-2.186-8.38c.013-.066.04-.106.04-.16 0-.679.013-1.372-.014-2.051-.04-1.013-.791-1.812-1.77-1.892-1.194-.106-2.2.48-2.334 1.532-.12.84-.027 1.706-.027 2.585 1.382-.014 2.75-.014 4.105-.014z"/></g><defs><clipPath id="a"><path fill="#fff" d="M0 0h38v46H0z"/></clipPath></defs></svg>