<svg width="80" height="80" viewBox="0 0 80 80" fill="none" xmlns="http://www.w3.org/2000/svg">
<g clip-path="url(#clip0_196_67)">
<path d="M16.5326 36.5329C16.0878 36.3239 15.3139 35.9051 14.4834 35.6603C13.7881 35.4723 13.5159 35.1272 13.5111 34.4333C13.5148 32.178 13.4609 29.9424 13.4646 27.6871C13.4534 26.068 14.5448 25.0003 16.1639 24.9891C31.9308 24.8804 47.6592 24.772 63.3876 24.6636C65.0067 24.6524 66.1127 25.705 66.1239 27.3241C66.1587 29.5791 66.1741 31.815 66.1704 34.0703C66.1765 34.957 66.0425 35.0928 65.1766 35.3108C63.0212 35.8269 61.6071 37.61 61.6414 39.7879C61.6754 41.9273 63.114 43.6908 65.2183 44.1582C66.1451 44.3831 66.2421 44.4788 66.2488 45.4426C66.2639 47.6399 66.2985 49.8564 66.3136 52.0538C66.3253 53.75 65.2531 54.7983 63.5569 54.8099C47.8671 54.9181 32.1772 55.0263 16.4874 55.1344C14.7526 55.1464 13.6852 54.0936 13.6732 52.3588C13.6586 50.2386 13.6437 48.0798 13.6291 45.9595C13.6405 44.8222 13.6788 44.7833 14.7755 44.4866C16.4879 44.0315 17.5793 42.9638 18.0302 41.2644C18.4426 39.5653 17.9699 38.1036 16.5326 36.5329ZM64.4973 45.8209C61.6762 44.838 60.004 42.7292 59.8702 40.1086C59.8035 38.8175 60.0649 37.5821 60.751 36.4593C61.5896 35.0657 62.8362 34.1511 64.3942 33.6585C64.3609 31.6348 64.3471 29.6302 64.3333 27.6256C64.3264 26.6233 64.1323 26.4318 63.13 26.4387C50.5821 26.5445 37.9954 26.612 25.409 26.7181C22.4021 26.7388 19.3566 26.7598 16.3497 26.7805C15.7715 26.7845 15.2711 26.9036 15.2759 27.5975C15.2714 29.7372 15.286 31.8574 15.3006 33.9776C18.3546 35.1903 19.9109 37.2613 19.9112 40.0949C19.9303 42.8705 18.4024 44.9243 15.3849 46.198C15.3995 48.3182 15.4141 50.4385 15.4481 52.5779C15.4516 53.079 15.7427 53.3662 16.2632 53.3819C16.8029 53.3781 17.3621 53.3936 17.9017 53.3898C29.8137 53.3077 41.6871 53.2259 53.599 53.1438C56.8758 53.1212 60.1911 53.0983 63.4678 53.0757C64.0846 53.0715 64.5076 52.9144 64.5028 52.2205C64.5265 50.0614 64.5119 47.9411 64.4973 45.8209Z" fill="#1DAD8C"/>
<path d="M50.9769 36.2761C50.4407 36.7809 49.6104 36.5746 49.5093 35.9007C49.4083 35.2267 49.4033 34.4943 49.495 33.819C49.5317 33.5489 49.9533 33.199 50.2229 33.1586C50.4925 33.1182 51.0343 33.4228 51.0742 33.6153C51.176 34.4049 51.1431 35.2148 51.1486 36.0243C51.1109 36.1402 50.9958 36.2181 50.9769 36.2761Z" fill="#1DAD8C"/>
<path d="M50.9504 46.3962C50.7 46.4172 50.3733 46.5544 50.122 46.4597C49.8708 46.3651 49.5794 46.0394 49.5584 45.7889C49.4768 45.1341 49.4337 44.479 49.5642 43.842C49.6201 43.5525 50.0223 43.1835 50.3113 43.1622C50.6003 43.141 51.1421 43.4456 51.1823 43.6767C51.2838 44.4277 51.2312 45.1799 51.2174 45.9703C51.1988 46.0668 51.0839 46.1832 50.9504 46.3962Z" fill="#1DAD8C"/>
<path d="M50.7896 31.4584C50.5969 31.4597 50.2316 31.5971 49.9804 31.5025C49.7291 31.4078 49.4763 31.0819 49.4361 30.8509C49.3548 30.2346 49.3309 29.5601 49.4231 28.9619C49.479 28.6724 49.8812 28.3034 50.1699 28.2436C50.4201 28.184 50.9813 28.5078 51.0212 28.7003C51.1422 29.4705 51.0898 30.2612 51.1145 31.0513C51.1151 31.1284 50.9808 31.2257 50.7896 31.4584Z" fill="#1DAD8C"/>
<path d="M51.0596 48.2266C51.1583 48.5536 51.2561 48.765 51.2768 48.9769C51.3191 49.5163 51.3037 50.0754 51.3074 50.6151C51.2917 51.1357 51.0049 51.4653 50.446 51.4885C49.9063 51.4922 49.5958 51.1859 49.5344 50.6659C49.4918 50.0879 49.449 49.4714 49.5416 48.9117C49.5783 48.6416 49.8457 48.2928 50.0956 48.1947C50.3838 48.0578 50.751 48.1902 51.0596 48.2266Z" fill="#1DAD8C"/>
<path d="M50.9352 41.4038C50.7042 41.4439 50.3389 41.5814 50.1262 41.4865C49.8556 41.3727 49.5833 41.0276 49.5429 40.758C49.4424 40.1611 49.4188 39.5252 49.5496 38.9267C49.6054 38.6372 49.9688 38.2299 50.2576 38.1701C50.5272 38.1297 51.1075 38.4341 51.1474 38.6266C51.2684 39.3968 51.216 40.1875 51.2022 40.9779C51.1644 41.0938 51.0496 41.2102 50.9352 41.4038Z" fill="#1DAD8C"/>
</g>
<defs>
<clipPath id="clip0_196_67">
<rect width="56.4274" height="56.4274" fill="white" transform="translate(39.624) rotate(44.605)"/>
</clipPath>
</defs>
</svg>
