<svg width="39" height="46" fill="none" xmlns="http://www.w3.org/2000/svg"><g clip-path="url(#a)" fill="#1DAD8C"><path d="M6.138 39.891H2.372C.93 39.891 0 38.951 0 37.531V2.361C0 .94.946 0 2.372 0H30.49c1.442 0 2.372.926 2.372 2.36v3.594c0 .031.015.062.03.155h3.845c1.27.015 2.216.956 2.247 2.206.016.694 0 1.372 0 2.067v24.25c0 1.68-.65 3.1-1.875 4.257-1.845 1.727-3.69 3.44-5.518 5.183-1.364 1.295-2.946 1.943-4.837 1.928-6.06-.015-12.121 0-18.182 0-1.52 0-2.434-.91-2.434-2.422v-3.687zm21.717 4.443v-.57c0-1.698-.016-3.379 0-5.076.015-1.944 1.287-3.193 3.224-3.193h5.286c.945 0 .945 0 .945-.926V8.746c0-.879-.108-.987-.976-.987H8.85c-.946 0-1.054.108-1.054 1.065v34.538c0 .88.093.987.976.987H26.91c.295-.015.574-.015.946-.015zm3.317-38.225c.016-.2.016-.355.016-.51V2.685c0-.91-.093-1.003-1.008-1.003H2.65c-.154 0-.294 0-.449.016-.31.03-.496.2-.511.509-.016.185-.016.355-.016.54V37.5c.016.571.186.756.76.756h3.689v-.586c0-9.687.015-19.375-.016-29.062 0-1.435 1.008-2.53 2.542-2.53 7.317.046 14.618.015 21.934.015.202.016.372.016.59.016zM29.53 43.532c.047.03.078.046.124.077 2.263-2.129 4.526-4.242 6.79-6.37-.032-.032-.063-.078-.094-.109-1.798 0-3.596-.015-5.41 0-.759 0-1.395.54-1.41 1.25-.031 1.712 0 3.424 0 5.152z"/><path d="M22.523 15.534H14.85c-.155 0-.31 0-.45-.016-.434-.077-.76-.432-.76-.817 0-.417.342-.771.791-.833.14-.016.264-.016.403-.016h15.424c.775 0 1.209.293 1.209.833s-.434.849-1.194.849h-7.75zM22.523 26.594h-7.937c-.697 0-1.131-.555-.852-1.11.124-.232.418-.37.666-.51.109-.061.295-.015.45-.015h15.423c.806 0 1.21.262 1.21.818 0 .555-.388.833-1.195.833-2.604-.016-5.177-.016-7.765-.016zM22.57 21.056h-7.674c-.186 0-.356 0-.542-.015a.816.816 0 0 1-.713-.802c0-.386.31-.756.697-.818.078-.015.155-.015.233-.015h15.966c.697 0 1.116.57.852 1.157-.155.355-.465.478-.837.478H27.22c-1.55.015-3.1.015-4.65.015zM18.942 32.163h-4.278c-.605 0-1.023-.355-1.023-.848 0-.494.418-.833 1.023-.833h8.51c.65 0 1.007.308 1.023.817.015.54-.357.864-1.023.864h-4.232z"/></g><defs><clipPath id="a"><path fill="#fff" d="M0 0h39v46H0z"/></clipPath></defs></svg>