<?xml version="1.0" encoding="UTF-8" standalone="no"?>
<!DOCTYPE svg PUBLIC "-//W3C//DTD SVG 1.1//EN"
 "http://www.w3.org/Graphics/SVG/1.1/DTD/svg11.dtd">
<!-- Generated by graphviz version 2.40.1 (20161225.0304)
 -->
<!-- Title: dependencies Pages: 1 -->
<svg width="6214pt" height="284pt"
 viewBox="0.00 0.00 6214.00 284.00" xmlns="http://www.w3.org/2000/svg" xmlns:xlink="http://www.w3.org/1999/xlink">
<g id="graph0" class="graph" transform="scale(1 1) rotate(0) translate(4 280)">
<title>dependencies</title>
<polygon fill="#ffffff" stroke="transparent" points="-4,4 -4,-280 6210,-280 6210,4 -4,4"/>
<text text-anchor="start" x="3082.0091" y="-42.4" font-family="sans-serif" font-weight="bold" font-size="14.00" fill="#000000">Legend</text>
<polygon fill="#ffffb3" stroke="transparent" points="2869,-10 2869,-30 2889,-30 2889,-10 2869,-10"/>
<text text-anchor="start" x="2892.629" y="-15.4" font-family="sans-serif" font-size="14.00" fill="#000000"> &#160;Declarations</text>
<polygon fill="#8dd3c7" stroke="transparent" points="2982,-10 2982,-30 3002,-30 3002,-10 2982,-10"/>
<text text-anchor="start" x="3005.7251" y="-15.4" font-family="sans-serif" font-size="14.00" fill="#000000"> &#160;Module</text>
<polygon fill="#80b1d3" stroke="transparent" points="3068,-10 3068,-30 3088,-30 3088,-10 3068,-10"/>
<text text-anchor="start" x="3091.7812" y="-15.4" font-family="sans-serif" font-size="14.00" fill="#000000"> &#160;Bootstrap</text>
<polygon fill="#fdb462" stroke="transparent" points="3165,-10 3165,-30 3185,-30 3185,-10 3165,-10"/>
<text text-anchor="start" x="3188.6732" y="-15.4" font-family="sans-serif" font-size="14.00" fill="#000000"> &#160;Providers</text>
<polygon fill="#fb8072" stroke="transparent" points="3261,-10 3261,-30 3281,-30 3281,-10 3261,-10"/>
<text text-anchor="start" x="3284.7258" y="-15.4" font-family="sans-serif" font-size="14.00" fill="#000000"> &#160;Exports</text>
<g id="clust1" class="cluster">
<title>cluster_AppModule</title>
<polygon fill="none" stroke="#000000" stroke-dasharray="1,5" points="8,-70 8,-268 1617,-268 1617,-70 8,-70"/>
</g>
<g id="clust2" class="cluster">
<title>cluster_AppModule_declarations</title>
<polygon fill="none" stroke="#000000" points="1032,-78 1032,-130 1479,-130 1479,-78 1032,-78"/>
</g>
<g id="clust6" class="cluster">
<title>cluster_AppModule_imports</title>
<polygon fill="none" stroke="#000000" points="1487,-78 1487,-130 1609,-130 1609,-78 1487,-78"/>
</g>
<g id="clust8" class="cluster">
<title>cluster_AppModule_bootstrap</title>
<polygon fill="none" stroke="#000000" points="749,-208 749,-260 873,-260 873,-208 749,-208"/>
</g>
<g id="clust9" class="cluster">
<title>cluster_AppModule_providers</title>
<polygon fill="none" stroke="#000000" points="16,-78 16,-130 1024,-130 1024,-78 16,-78"/>
</g>
<g id="clust10" class="cluster">
<title>cluster_ComponentsModule</title>
<polygon fill="none" stroke="#000000" stroke-dasharray="1,5" points="4230,-70 4230,-268 6198,-268 6198,-70 4230,-70"/>
</g>
<g id="clust11" class="cluster">
<title>cluster_ComponentsModule_declarations</title>
<polygon fill="none" stroke="#000000" points="4238,-78 4238,-130 6190,-130 6190,-78 4238,-78"/>
</g>
<g id="clust24" class="cluster">
<title>cluster_ComponentsModule_exports</title>
<polygon fill="none" stroke="#000000" points="4309,-208 4309,-260 6119,-260 6119,-208 4309,-208"/>
</g>
<g id="clust27" class="cluster">
<title>cluster_LoginModule</title>
<polygon fill="none" stroke="#000000" stroke-dasharray="1,5" points="1625,-70 1625,-195 2137,-195 2137,-70 1625,-70"/>
</g>
<g id="clust28" class="cluster">
<title>cluster_LoginModule_declarations</title>
<polygon fill="none" stroke="#000000" points="1633,-78 1633,-130 2129,-130 2129,-78 1633,-78"/>
</g>
<g id="clust36" class="cluster">
<title>cluster_MainModule</title>
<polygon fill="none" stroke="#000000" stroke-dasharray="1,5" points="2145,-70 2145,-195 4222,-195 4222,-70 2145,-70"/>
</g>
<g id="clust37" class="cluster">
<title>cluster_MainModule_declarations</title>
<polygon fill="none" stroke="#000000" points="2153,-78 2153,-130 4214,-130 4214,-78 2153,-78"/>
</g>
<!-- AppComponent -->
<g id="node1" class="node">
<title>AppComponent</title>
<polygon fill="#ffffb3" stroke="#000000" points="1145.9399,-122 1040.0601,-122 1040.0601,-86 1145.9399,-86 1145.9399,-122"/>
<text text-anchor="middle" x="1093" y="-99.8" font-family="Times,serif" font-size="14.00" fill="#000000">AppComponent</text>
</g>
<!-- AppModule -->
<g id="node4" class="node">
<title>AppModule</title>
<polygon fill="#8dd3c7" stroke="#000000" points="852.6571,-187 849.6571,-191 828.6571,-191 825.6571,-187 769.3429,-187 769.3429,-151 852.6571,-151 852.6571,-187"/>
<text text-anchor="middle" x="811" y="-164.8" font-family="Times,serif" font-size="14.00" fill="#000000">AppModule</text>
</g>
<!-- AppComponent&#45;&gt;AppModule -->
<g id="edge1" class="edge">
<title>AppComponent&#45;&gt;AppModule</title>
<path fill="none" stroke="#000000" d="M1093,-122.2396C1093,-137.5706 1093,-157 1093,-157 1093,-157 862.9137,-157 862.9137,-157"/>
<polygon fill="#000000" stroke="#000000" points="862.9138,-153.5001 852.9137,-157 862.9137,-160.5001 862.9138,-153.5001"/>
</g>
<!-- Error404Component -->
<g id="node2" class="node">
<title>Error404Component</title>
<polygon fill="#ffffb3" stroke="#000000" points="1470.8669,-122 1339.1331,-122 1339.1331,-86 1470.8669,-86 1470.8669,-122"/>
<text text-anchor="middle" x="1405" y="-99.8" font-family="Times,serif" font-size="14.00" fill="#000000">Error404Component</text>
</g>
<!-- Error404Component&#45;&gt;AppModule -->
<g id="edge2" class="edge">
<title>Error404Component&#45;&gt;AppModule</title>
<path fill="none" stroke="#000000" d="M1405,-122.1061C1405,-141.3391 1405,-169 1405,-169 1405,-169 862.7689,-169 862.7689,-169"/>
<polygon fill="#000000" stroke="#000000" points="862.769,-165.5001 852.7689,-169 862.7689,-172.5001 862.769,-165.5001"/>
</g>
<!-- WrapperPageComponent -->
<g id="node3" class="node">
<title>WrapperPageComponent</title>
<polygon fill="#ffffb3" stroke="#000000" points="1320.51,-122 1163.49,-122 1163.49,-86 1320.51,-86 1320.51,-122"/>
<text text-anchor="middle" x="1242" y="-99.8" font-family="Times,serif" font-size="14.00" fill="#000000">WrapperPageComponent</text>
</g>
<!-- WrapperPageComponent&#45;&gt;AppModule -->
<g id="edge3" class="edge">
<title>WrapperPageComponent&#45;&gt;AppModule</title>
<path fill="none" stroke="#000000" d="M1242,-122.0225C1242,-139.3734 1242,-163 1242,-163 1242,-163 862.7177,-163 862.7177,-163"/>
<polygon fill="#000000" stroke="#000000" points="862.7177,-159.5001 852.7177,-163 862.7177,-166.5001 862.7177,-159.5001"/>
</g>
<!-- AppComponent  -->
<g id="node6" class="node">
<title>AppComponent </title>
<polygon fill="#80b1d3" stroke="#000000" points="865.439,-252 756.561,-252 756.561,-216 865.439,-216 865.439,-252"/>
<text text-anchor="middle" x="811" y="-229.8" font-family="Times,serif" font-size="14.00" fill="#000000">AppComponent </text>
</g>
<!-- AppModule&#45;&gt;AppComponent  -->
<g id="edge5" class="edge">
<title>AppModule&#45;&gt;AppComponent </title>
<path fill="none" stroke="#000000" stroke-dasharray="1,5" d="M811,-187.1061C811,-187.1061 811,-205.991 811,-205.991"/>
<polygon fill="#000000" stroke="#000000" points="807.5001,-205.9909 811,-215.991 814.5001,-205.991 807.5001,-205.9909"/>
</g>
<!-- Ng2Webstorage -->
<g id="node5" class="node">
<title>Ng2Webstorage</title>
<polygon fill="#8dd3c7" stroke="#000000" points="1601.4608,-122 1598.4608,-126 1577.4608,-126 1574.4608,-122 1494.5392,-122 1494.5392,-86 1601.4608,-86 1601.4608,-122"/>
<text text-anchor="middle" x="1548" y="-99.8" font-family="Times,serif" font-size="14.00" fill="#000000">Ng2Webstorage</text>
</g>
<!-- Ng2Webstorage&#45;&gt;AppModule -->
<g id="edge4" class="edge">
<title>Ng2Webstorage&#45;&gt;AppModule</title>
<path fill="none" stroke="#000000" d="M1548,-122.2843C1548,-143.3211 1548,-175 1548,-175 1548,-175 862.736,-175 862.736,-175"/>
<polygon fill="#000000" stroke="#000000" points="862.736,-171.5001 852.736,-175 862.7359,-178.5001 862.736,-171.5001"/>
</g>
<!-- LoginModule -->
<g id="node36" class="node">
<title>LoginModule</title>
<polygon fill="#8dd3c7" stroke="#000000" points="1770.493,-187 1767.493,-191 1746.493,-191 1743.493,-187 1677.507,-187 1677.507,-151 1770.493,-151 1770.493,-187"/>
<text text-anchor="middle" x="1724" y="-164.8" font-family="Times,serif" font-size="14.00" fill="#000000">LoginModule</text>
</g>
<!-- Ng2Webstorage&#45;&gt;LoginModule -->
<g id="edge37" class="edge">
<title>Ng2Webstorage&#45;&gt;LoginModule</title>
<path fill="none" stroke="#000000" d="M1574.7402,-122.2479C1574.7402,-145.0179 1574.7402,-181 1574.7402,-181 1574.7402,-181 1667.1828,-181 1667.1828,-181"/>
<polygon fill="#000000" stroke="#000000" points="1667.1828,-184.5001 1677.1828,-181 1667.1828,-177.5001 1667.1828,-184.5001"/>
</g>
<!-- MainModule -->
<g id="node52" class="node">
<title>MainModule</title>
<polygon fill="#8dd3c7" stroke="#000000" points="3131.5997,-187 3128.5997,-191 3107.5997,-191 3104.5997,-187 3042.4003,-187 3042.4003,-151 3131.5997,-151 3131.5997,-187"/>
<text text-anchor="middle" x="3087" y="-164.8" font-family="Times,serif" font-size="14.00" fill="#000000">MainModule</text>
</g>
<!-- Ng2Webstorage&#45;&gt;MainModule -->
<g id="edge51" class="edge">
<title>Ng2Webstorage&#45;&gt;MainModule</title>
<path fill="none" stroke="#000000" d="M1521.2598,-122.0449C1521.2598,-129.749 1521.2598,-137 1521.2598,-137 1521.2598,-137 3051.8876,-137 3051.8876,-137 3051.8876,-137 3051.8876,-140.7566 3051.8876,-140.7566"/>
<polygon fill="#000000" stroke="#000000" points="3048.3877,-140.7566 3051.8876,-150.7566 3055.3877,-140.7566 3048.3877,-140.7566"/>
</g>
<!-- AuthService -->
<g id="node7" class="node">
<title>AuthService</title>
<ellipse fill="#fdb462" stroke="#000000" cx="536" cy="-104" rx="59.1083" ry="18"/>
<text text-anchor="middle" x="536" y="-99.8" font-family="Times,serif" font-size="14.00" fill="#000000">AuthService</text>
</g>
<!-- AuthService&#45;&gt;AppModule -->
<g id="edge6" class="edge">
<title>AuthService&#45;&gt;AppModule</title>
<path fill="none" stroke="#000000" d="M536,-122.0091C536,-138.0494 536,-159 536,-159 536,-159 759.2334,-159 759.2334,-159"/>
<polygon fill="#000000" stroke="#000000" points="759.2335,-162.5001 769.2334,-159 759.2334,-155.5001 759.2335,-162.5001"/>
</g>
<!-- ProjectInterceptor -->
<g id="node8" class="node">
<title>ProjectInterceptor</title>
<ellipse fill="#fdb462" stroke="#000000" cx="378" cy="-104" rx="80.993" ry="18"/>
<text text-anchor="middle" x="378" y="-99.8" font-family="Times,serif" font-size="14.00" fill="#000000">ProjectInterceptor</text>
</g>
<!-- ProjectInterceptor&#45;&gt;AppModule -->
<g id="edge7" class="edge">
<title>ProjectInterceptor&#45;&gt;AppModule</title>
<path fill="none" stroke="#000000" d="M378,-122.2667C378,-140.5552 378,-166 378,-166 378,-166 759.0887,-166 759.0887,-166"/>
<polygon fill="#000000" stroke="#000000" points="759.0887,-169.5001 769.0887,-166 759.0887,-162.5001 759.0887,-169.5001"/>
</g>
<!-- MainService -->
<g id="node9" class="node">
<title>MainService</title>
<ellipse fill="#fdb462" stroke="#000000" cx="219" cy="-104" rx="60.2499" ry="18"/>
<text text-anchor="middle" x="219" y="-99.8" font-family="Times,serif" font-size="14.00" fill="#000000">MainService</text>
</g>
<!-- MainService&#45;&gt;AppModule -->
<g id="edge8" class="edge">
<title>MainService&#45;&gt;AppModule</title>
<path fill="none" stroke="#000000" d="M219,-122.1289C219,-142.5724 219,-173 219,-173 219,-173 758.8994,-173 758.8994,-173"/>
<polygon fill="#000000" stroke="#000000" points="758.8994,-176.5001 768.8994,-173 758.8994,-169.5001 758.8994,-176.5001"/>
</g>
<!-- UserService -->
<g id="node10" class="node">
<title>UserService</title>
<ellipse fill="#fdb462" stroke="#000000" cx="82" cy="-104" rx="58.4415" ry="18"/>
<text text-anchor="middle" x="82" y="-99.8" font-family="Times,serif" font-size="14.00" fill="#000000">UserService</text>
</g>
<!-- UserService&#45;&gt;AppModule -->
<g id="edge9" class="edge">
<title>UserService&#45;&gt;AppModule</title>
<path fill="none" stroke="#000000" d="M82,-122.0109C82,-144.4852 82,-180 82,-180 82,-180 759.1875,-180 759.1875,-180"/>
<polygon fill="#000000" stroke="#000000" points="759.1875,-183.5001 769.1875,-180 759.1874,-176.5001 759.1875,-183.5001"/>
</g>
<!-- RouteActivatorService -->
<g id="node11" class="node">
<title>RouteActivatorService</title>
<ellipse fill="#fdb462" stroke="#000000" cx="916" cy="-104" rx="99.5539" ry="18"/>
<text text-anchor="middle" x="916" y="-99.8" font-family="Times,serif" font-size="14.00" fill="#000000">RouteActivatorService</text>
</g>
<!-- RouteActivatorService&#45;&gt;AppModule -->
<g id="edge10" class="edge">
<title>RouteActivatorService&#45;&gt;AppModule</title>
<path fill="none" stroke="#000000" d="M834.6506,-114.4434C834.6506,-114.4434 834.6506,-140.9681 834.6506,-140.9681"/>
<polygon fill="#000000" stroke="#000000" points="831.1507,-140.968 834.6506,-150.9681 838.1507,-140.9681 831.1507,-140.968"/>
</g>
<!-- UserResolverService -->
<g id="node12" class="node">
<title>UserResolverService</title>
<ellipse fill="#fdb462" stroke="#000000" cx="706" cy="-104" rx="92.59" ry="18"/>
<text text-anchor="middle" x="706" y="-99.8" font-family="Times,serif" font-size="14.00" fill="#000000">UserResolverService</text>
</g>
<!-- UserResolverService&#45;&gt;AppModule -->
<g id="edge11" class="edge">
<title>UserResolverService&#45;&gt;AppModule</title>
<path fill="none" stroke="#000000" d="M783.8584,-113.8721C783.8584,-113.8721 783.8584,-140.9074 783.8584,-140.9074"/>
<polygon fill="#000000" stroke="#000000" points="780.3585,-140.9073 783.8584,-150.9074 787.3585,-140.9074 780.3585,-140.9073"/>
</g>
<!-- ProjectModalComponent -->
<g id="node13" class="node">
<title>ProjectModalComponent</title>
<polygon fill="#ffffb3" stroke="#000000" points="4755.5365,-122 4598.4635,-122 4598.4635,-86 4755.5365,-86 4755.5365,-122"/>
<text text-anchor="middle" x="4677" y="-99.8" font-family="Times,serif" font-size="14.00" fill="#000000">ProjectModalComponent</text>
</g>
<!-- ComponentsModule -->
<g id="node24" class="node">
<title>ComponentsModule</title>
<polygon fill="#8dd3c7" stroke="#000000" points="5282.3272,-187 5279.3272,-191 5258.3272,-191 5255.3272,-187 5151.6728,-187 5151.6728,-151 5282.3272,-151 5282.3272,-187"/>
<text text-anchor="middle" x="5217" y="-164.8" font-family="Times,serif" font-size="14.00" fill="#000000">ComponentsModule</text>
</g>
<!-- ProjectModalComponent&#45;&gt;ComponentsModule -->
<g id="edge12" class="edge">
<title>ProjectModalComponent&#45;&gt;ComponentsModule</title>
<path fill="none" stroke="#000000" d="M4720.2095,-122.2228C4720.2095,-142.3652 4720.2095,-172 4720.2095,-172 4720.2095,-172 5141.7981,-172 5141.7981,-172"/>
<polygon fill="#000000" stroke="#000000" points="5141.7981,-175.5001 5151.7981,-172 5141.798,-168.5001 5141.7981,-175.5001"/>
</g>
<!-- ProjectButtonComponent -->
<g id="node14" class="node">
<title>ProjectButtonComponent</title>
<polygon fill="#ffffb3" stroke="#000000" points="4580.6038,-122 4421.3962,-122 4421.3962,-86 4580.6038,-86 4580.6038,-122"/>
<text text-anchor="middle" x="4501" y="-99.8" font-family="Times,serif" font-size="14.00" fill="#000000">ProjectButtonComponent</text>
</g>
<!-- ProjectButtonComponent&#45;&gt;ComponentsModule -->
<g id="edge13" class="edge">
<title>ProjectButtonComponent&#45;&gt;ComponentsModule</title>
<path fill="none" stroke="#000000" d="M4536.9139,-122.0267C4536.9139,-142.7672 4536.9139,-174 4536.9139,-174 4536.9139,-174 5141.7905,-174 5141.7905,-174"/>
<polygon fill="#000000" stroke="#000000" points="5141.7905,-177.5001 5151.7905,-174 5141.7905,-170.5001 5141.7905,-177.5001"/>
</g>
<!-- ProjectDeleteComponent -->
<g id="node15" class="node">
<title>ProjectDeleteComponent</title>
<polygon fill="#ffffb3" stroke="#000000" points="4403.5183,-122 4246.4817,-122 4246.4817,-86 4403.5183,-86 4403.5183,-122"/>
<text text-anchor="middle" x="4325" y="-99.8" font-family="Times,serif" font-size="14.00" fill="#000000">ProjectDeleteComponent</text>
</g>
<!-- ProjectDeleteComponent&#45;&gt;ComponentsModule -->
<g id="edge14" class="edge">
<title>ProjectDeleteComponent&#45;&gt;ComponentsModule</title>
<path fill="none" stroke="#000000" d="M4360.206,-122.1686C4360.206,-143.498 4360.206,-176 4360.206,-176 4360.206,-176 5141.5451,-176 5141.5451,-176"/>
<polygon fill="#000000" stroke="#000000" points="5141.5452,-179.5001 5151.5451,-176 5141.5451,-172.5001 5141.5452,-179.5001"/>
</g>
<!-- ProjectCheckboxComponent -->
<g id="node16" class="node">
<title>ProjectCheckboxComponent</title>
<polygon fill="#ffffb3" stroke="#000000" points="6181.752,-122 6004.248,-122 6004.248,-86 6181.752,-86 6181.752,-122"/>
<text text-anchor="middle" x="6093" y="-99.8" font-family="Times,serif" font-size="14.00" fill="#000000">ProjectCheckboxComponent</text>
</g>
<!-- ProjectCheckboxComponent&#45;&gt;ComponentsModule -->
<g id="edge15" class="edge">
<title>ProjectCheckboxComponent&#45;&gt;ComponentsModule</title>
<path fill="none" stroke="#000000" d="M6057.5714,-122.1061C6057.5714,-141.3391 6057.5714,-169 6057.5714,-169 6057.5714,-169 5292.2588,-169 5292.2588,-169"/>
<polygon fill="#000000" stroke="#000000" points="5292.2588,-165.5001 5282.2588,-169 5292.2587,-172.5001 5292.2588,-165.5001"/>
</g>
<!-- ProjectCircleComponent -->
<g id="node17" class="node">
<title>ProjectCircleComponent</title>
<polygon fill="#ffffb3" stroke="#000000" points="5986.6937,-122 5831.3063,-122 5831.3063,-86 5986.6937,-86 5986.6937,-122"/>
<text text-anchor="middle" x="5909" y="-99.8" font-family="Times,serif" font-size="14.00" fill="#000000">ProjectCircleComponent</text>
</g>
<!-- ProjectCircleComponent&#45;&gt;ComponentsModule -->
<g id="edge16" class="edge">
<title>ProjectCircleComponent&#45;&gt;ComponentsModule</title>
<path fill="none" stroke="#000000" d="M5885.3448,-122.2667C5885.3448,-140.5552 5885.3448,-166 5885.3448,-166 5885.3448,-166 5292.3006,-166 5292.3006,-166"/>
<polygon fill="#000000" stroke="#000000" points="5292.3006,-162.5001 5282.3006,-166 5292.3006,-169.5001 5292.3006,-162.5001"/>
</g>
<!-- ProjectBarComponent -->
<g id="node18" class="node">
<title>ProjectBarComponent</title>
<polygon fill="#ffffb3" stroke="#000000" points="5813.6979,-122 5672.3021,-122 5672.3021,-86 5813.6979,-86 5813.6979,-122"/>
<text text-anchor="middle" x="5743" y="-99.8" font-family="Times,serif" font-size="14.00" fill="#000000">ProjectBarComponent</text>
</g>
<!-- ProjectBarComponent&#45;&gt;ComponentsModule -->
<g id="edge17" class="edge">
<title>ProjectBarComponent&#45;&gt;ComponentsModule</title>
<path fill="none" stroke="#000000" d="M5708.4595,-122.0336C5708.4595,-139.0597 5708.4595,-162 5708.4595,-162 5708.4595,-162 5292.262,-162 5292.262,-162"/>
<polygon fill="#000000" stroke="#000000" points="5292.2621,-158.5001 5282.262,-162 5292.262,-165.5001 5292.2621,-158.5001"/>
</g>
<!-- ProjectTextareaComponent -->
<g id="node19" class="node">
<title>ProjectTextareaComponent</title>
<polygon fill="#ffffb3" stroke="#000000" points="5653.9482,-122 5484.0518,-122 5484.0518,-86 5653.9482,-86 5653.9482,-122"/>
<text text-anchor="middle" x="5569" y="-99.8" font-family="Times,serif" font-size="14.00" fill="#000000">ProjectTextareaComponent</text>
</g>
<!-- ProjectTextareaComponent&#45;&gt;ComponentsModule -->
<g id="edge18" class="edge">
<title>ProjectTextareaComponent&#45;&gt;ComponentsModule</title>
<path fill="none" stroke="#000000" d="M5524.6639,-122.0091C5524.6639,-138.0494 5524.6639,-159 5524.6639,-159 5524.6639,-159 5292.2476,-159 5292.2476,-159"/>
<polygon fill="#000000" stroke="#000000" points="5292.2476,-155.5001 5282.2476,-159 5292.2476,-162.5001 5292.2476,-155.5001"/>
</g>
<!-- ProjectSelectComponent -->
<g id="node20" class="node">
<title>ProjectSelectComponent</title>
<polygon fill="#ffffb3" stroke="#000000" points="5465.6937,-122 5310.3063,-122 5310.3063,-86 5465.6937,-86 5465.6937,-122"/>
<text text-anchor="middle" x="5388" y="-99.8" font-family="Times,serif" font-size="14.00" fill="#000000">ProjectSelectComponent</text>
</g>
<!-- ProjectSelectComponent&#45;&gt;ComponentsModule -->
<g id="edge19" class="edge">
<title>ProjectSelectComponent&#45;&gt;ComponentsModule</title>
<path fill="none" stroke="#000000" d="M5347.456,-122.1243C5347.456,-136.7832 5347.456,-155 5347.456,-155 5347.456,-155 5292.228,-155 5292.228,-155"/>
<polygon fill="#000000" stroke="#000000" points="5292.228,-151.5001 5282.228,-155 5292.228,-158.5001 5292.228,-151.5001"/>
</g>
<!-- ProjectInputComponent -->
<g id="node21" class="node">
<title>ProjectInputComponent</title>
<polygon fill="#ffffb3" stroke="#000000" points="5292.0379,-122 5141.9621,-122 5141.9621,-86 5292.0379,-86 5292.0379,-122"/>
<text text-anchor="middle" x="5217" y="-99.8" font-family="Times,serif" font-size="14.00" fill="#000000">ProjectInputComponent</text>
</g>
<!-- ProjectInputComponent&#45;&gt;ComponentsModule -->
<g id="edge20" class="edge">
<title>ProjectInputComponent&#45;&gt;ComponentsModule</title>
<path fill="none" stroke="#000000" d="M5217,-122.1061C5217,-122.1061 5217,-140.991 5217,-140.991"/>
<polygon fill="#000000" stroke="#000000" points="5213.5001,-140.9909 5217,-150.991 5220.5001,-140.991 5213.5001,-140.9909"/>
</g>
<!-- ProjectUploaderDirective -->
<g id="node22" class="node">
<title>ProjectUploaderDirective</title>
<polygon fill="#ffffb3" stroke="#000000" points="5123.8235,-122 4964.1765,-122 4964.1765,-86 5123.8235,-86 5123.8235,-122"/>
<text text-anchor="middle" x="5044" y="-99.8" font-family="Times,serif" font-size="14.00" fill="#000000">ProjectUploaderDirective</text>
</g>
<!-- ProjectUploaderDirective&#45;&gt;ComponentsModule -->
<g id="edge21" class="edge">
<title>ProjectUploaderDirective&#45;&gt;ComponentsModule</title>
<path fill="none" stroke="#000000" d="M5074.1429,-122.2222C5074.1429,-140.8285 5074.1429,-167 5074.1429,-167 5074.1429,-167 5141.425,-167 5141.425,-167"/>
<polygon fill="#000000" stroke="#000000" points="5141.425,-170.5001 5151.425,-167 5141.4249,-163.5001 5141.425,-170.5001"/>
</g>
<!-- ProjectUploaderComponent -->
<g id="node23" class="node">
<title>ProjectUploaderComponent</title>
<polygon fill="#ffffb3" stroke="#000000" points="4946.573,-122 4773.427,-122 4773.427,-86 4946.573,-86 4946.573,-122"/>
<text text-anchor="middle" x="4860" y="-99.8" font-family="Times,serif" font-size="14.00" fill="#000000">ProjectUploaderComponent</text>
</g>
<!-- ProjectUploaderComponent&#45;&gt;ComponentsModule -->
<g id="edge22" class="edge">
<title>ProjectUploaderComponent&#45;&gt;ComponentsModule</title>
<path fill="none" stroke="#000000" d="M4897.0948,-122.1061C4897.0948,-141.3391 4897.0948,-169 4897.0948,-169 4897.0948,-169 5141.4905,-169 5141.4905,-169"/>
<polygon fill="#000000" stroke="#000000" points="5141.4905,-172.5001 5151.4905,-169 5141.4904,-165.5001 5141.4905,-172.5001"/>
</g>
<!-- ProjectModalComponent  -->
<g id="node25" class="node">
<title>ProjectModalComponent </title>
<polygon fill="#fb8072" stroke="#000000" points="5744.5358,-252 5583.4642,-252 5583.4642,-216 5744.5358,-216 5744.5358,-252"/>
<text text-anchor="middle" x="5664" y="-229.8" font-family="Times,serif" font-size="14.00" fill="#000000">ProjectModalComponent </text>
</g>
<!-- ComponentsModule&#45;&gt;ProjectModalComponent  -->
<g id="edge23" class="edge">
<title>ComponentsModule&#45;&gt;ProjectModalComponent </title>
<path fill="none" stroke="#000000" stroke-dasharray="5,2" d="M5282.4387,-180C5396.2731,-180 5618.7281,-180 5618.7281,-180 5618.7281,-180 5618.7281,-205.7181 5618.7281,-205.7181"/>
<polygon fill="#000000" stroke="#000000" points="5615.2282,-205.718 5618.7281,-215.7181 5622.2282,-205.7181 5615.2282,-205.718"/>
</g>
<!-- ProjectButtonComponent  -->
<g id="node26" class="node">
<title>ProjectButtonComponent </title>
<polygon fill="#fb8072" stroke="#000000" points="5565.1043,-252 5402.8957,-252 5402.8957,-216 5565.1043,-216 5565.1043,-252"/>
<text text-anchor="middle" x="5484" y="-229.8" font-family="Times,serif" font-size="14.00" fill="#000000">ProjectButtonComponent </text>
</g>
<!-- ComponentsModule&#45;&gt;ProjectButtonComponent  -->
<g id="edge24" class="edge">
<title>ComponentsModule&#45;&gt;ProjectButtonComponent </title>
<path fill="none" stroke="#000000" stroke-dasharray="5,2" d="M5282.4459,-184C5346.3834,-184 5434.1475,-184 5434.1475,-184 5434.1475,-184 5434.1475,-205.9489 5434.1475,-205.9489"/>
<polygon fill="#000000" stroke="#000000" points="5430.6475,-205.9488 5434.1475,-215.9489 5437.6475,-205.9489 5430.6475,-205.9488"/>
</g>
<!-- ProjectDeleteComponent  -->
<g id="node27" class="node">
<title>ProjectDeleteComponent </title>
<polygon fill="#fb8072" stroke="#000000" points="5384.5176,-252 5223.4824,-252 5223.4824,-216 5384.5176,-216 5384.5176,-252"/>
<text text-anchor="middle" x="5304" y="-229.8" font-family="Times,serif" font-size="14.00" fill="#000000">ProjectDeleteComponent </text>
</g>
<!-- ComponentsModule&#45;&gt;ProjectDeleteComponent  -->
<g id="edge25" class="edge">
<title>ComponentsModule&#45;&gt;ProjectDeleteComponent </title>
<path fill="none" stroke="#000000" stroke-dasharray="5,2" d="M5252.8273,-187.1061C5252.8273,-187.1061 5252.8273,-205.991 5252.8273,-205.991"/>
<polygon fill="#000000" stroke="#000000" points="5249.3274,-205.9909 5252.8273,-215.991 5256.3274,-205.991 5249.3274,-205.9909"/>
</g>
<!-- ProjectCheckboxComponent  -->
<g id="node28" class="node">
<title>ProjectCheckboxComponent </title>
<polygon fill="#fb8072" stroke="#000000" points="5205.752,-252 5024.248,-252 5024.248,-216 5205.752,-216 5205.752,-252"/>
<text text-anchor="middle" x="5115" y="-229.8" font-family="Times,serif" font-size="14.00" fill="#000000">ProjectCheckboxComponent </text>
</g>
<!-- ComponentsModule&#45;&gt;ProjectCheckboxComponent  -->
<g id="edge26" class="edge">
<title>ComponentsModule&#45;&gt;ProjectCheckboxComponent </title>
<path fill="none" stroke="#000000" stroke-dasharray="5,2" d="M5178.7313,-187.1061C5178.7313,-187.1061 5178.7313,-205.991 5178.7313,-205.991"/>
<polygon fill="#000000" stroke="#000000" points="5175.2313,-205.9909 5178.7313,-215.991 5182.2313,-205.991 5175.2313,-205.9909"/>
</g>
<!-- ProjectCircleComponent  -->
<g id="node29" class="node">
<title>ProjectCircleComponent </title>
<polygon fill="#fb8072" stroke="#000000" points="5006.1939,-252 4847.8061,-252 4847.8061,-216 5006.1939,-216 5006.1939,-252"/>
<text text-anchor="middle" x="4927" y="-229.8" font-family="Times,serif" font-size="14.00" fill="#000000">ProjectCircleComponent </text>
</g>
<!-- ComponentsModule&#45;&gt;ProjectCircleComponent  -->
<g id="edge27" class="edge">
<title>ComponentsModule&#45;&gt;ProjectCircleComponent </title>
<path fill="none" stroke="#000000" stroke-dasharray="5,2" d="M5151.8188,-185C5083.2634,-185 4985.2176,-185 4985.2176,-185 4985.2176,-185 4985.2176,-205.7542 4985.2176,-205.7542"/>
<polygon fill="#000000" stroke="#000000" points="4981.7176,-205.7542 4985.2176,-215.7542 4988.7176,-205.7542 4981.7176,-205.7542"/>
</g>
<!-- ProjectBarComponent  -->
<g id="node30" class="node">
<title>ProjectBarComponent </title>
<polygon fill="#fb8072" stroke="#000000" points="4829.1981,-252 4684.8019,-252 4684.8019,-216 4829.1981,-216 4829.1981,-252"/>
<text text-anchor="middle" x="4757" y="-229.8" font-family="Times,serif" font-size="14.00" fill="#000000">ProjectBarComponent </text>
</g>
<!-- ComponentsModule&#45;&gt;ProjectBarComponent  -->
<g id="edge28" class="edge">
<title>ComponentsModule&#45;&gt;ProjectBarComponent </title>
<path fill="none" stroke="#000000" stroke-dasharray="5,2" d="M5151.6063,-183C5034.5693,-183 4801.4062,-183 4801.4062,-183 4801.4062,-183 4801.4062,-205.8757 4801.4062,-205.8757"/>
<polygon fill="#000000" stroke="#000000" points="4797.9063,-205.8757 4801.4062,-215.8757 4804.9063,-205.8757 4797.9063,-205.8757"/>
</g>
<!-- ProjectTextareaComponent  -->
<g id="node31" class="node">
<title>ProjectTextareaComponent </title>
<polygon fill="#fb8072" stroke="#000000" points="4666.9488,-252 4493.0512,-252 4493.0512,-216 4666.9488,-216 4666.9488,-252"/>
<text text-anchor="middle" x="4580" y="-229.8" font-family="Times,serif" font-size="14.00" fill="#000000">ProjectTextareaComponent </text>
</g>
<!-- ComponentsModule&#45;&gt;ProjectTextareaComponent  -->
<g id="edge29" class="edge">
<title>ComponentsModule&#45;&gt;ProjectTextareaComponent </title>
<path fill="none" stroke="#000000" stroke-dasharray="5,2" d="M5151.6493,-181C4999.1204,-181 4632.4781,-181 4632.4781,-181 4632.4781,-181 4632.4781,-205.7604 4632.4781,-205.7604"/>
<polygon fill="#000000" stroke="#000000" points="4628.9782,-205.7604 4632.4781,-215.7604 4635.9782,-205.7604 4628.9782,-205.7604"/>
</g>
<!-- ProjectSelectComponent  -->
<g id="node32" class="node">
<title>ProjectSelectComponent </title>
<polygon fill="#fb8072" stroke="#000000" points="4475.1939,-252 4316.8061,-252 4316.8061,-216 4475.1939,-216 4475.1939,-252"/>
<text text-anchor="middle" x="4396" y="-229.8" font-family="Times,serif" font-size="14.00" fill="#000000">ProjectSelectComponent </text>
</g>
<!-- ComponentsModule&#45;&gt;ProjectSelectComponent  -->
<g id="edge30" class="edge">
<title>ComponentsModule&#45;&gt;ProjectSelectComponent </title>
<path fill="none" stroke="#000000" stroke-dasharray="5,2" d="M5151.8009,-178C4966.2157,-178 4448.3975,-178 4448.3975,-178 4448.3975,-178 4448.3975,-205.973 4448.3975,-205.973"/>
<polygon fill="#000000" stroke="#000000" points="4444.8975,-205.973 4448.3975,-215.973 4451.8975,-205.973 4444.8975,-205.973"/>
</g>
<!-- ProjectInputComponent  -->
<g id="node33" class="node">
<title>ProjectInputComponent </title>
<polygon fill="#fb8072" stroke="#000000" points="6111.0372,-252 5956.9628,-252 5956.9628,-216 6111.0372,-216 6111.0372,-252"/>
<text text-anchor="middle" x="6034" y="-229.8" font-family="Times,serif" font-size="14.00" fill="#000000">ProjectInputComponent </text>
</g>
<!-- ComponentsModule&#45;&gt;ProjectInputComponent  -->
<g id="edge31" class="edge">
<title>ComponentsModule&#45;&gt;ProjectInputComponent </title>
<path fill="none" stroke="#000000" stroke-dasharray="5,2" d="M5282.3338,-173C5465.6943,-173 5971.7891,-173 5971.7891,-173 5971.7891,-173 5971.7891,-205.698 5971.7891,-205.698"/>
<polygon fill="#000000" stroke="#000000" points="5968.2892,-205.698 5971.7891,-215.698 5975.2892,-205.698 5968.2892,-205.698"/>
</g>
<!-- ProjectUploaderComponent  -->
<g id="node34" class="node">
<title>ProjectUploaderComponent </title>
<polygon fill="#fb8072" stroke="#000000" points="5939.0735,-252 5762.9265,-252 5762.9265,-216 5939.0735,-216 5939.0735,-252"/>
<text text-anchor="middle" x="5851" y="-229.8" font-family="Times,serif" font-size="14.00" fill="#000000">ProjectUploaderComponent </text>
</g>
<!-- ComponentsModule&#45;&gt;ProjectUploaderComponent  -->
<g id="edge32" class="edge">
<title>ComponentsModule&#45;&gt;ProjectUploaderComponent </title>
<path fill="none" stroke="#000000" stroke-dasharray="5,2" d="M5282.2406,-177C5432.1029,-177 5788.1562,-177 5788.1562,-177 5788.1562,-177 5788.1562,-205.9648 5788.1562,-205.9648"/>
<polygon fill="#000000" stroke="#000000" points="5784.6563,-205.9648 5788.1562,-215.9648 5791.6563,-205.9649 5784.6563,-205.9648"/>
</g>
<!-- ResetPasswordComponent -->
<g id="node35" class="node">
<title>ResetPasswordComponent</title>
<polygon fill="#ffffb3" stroke="#000000" points="1807.087,-122 1640.913,-122 1640.913,-86 1807.087,-86 1807.087,-122"/>
<text text-anchor="middle" x="1724" y="-99.8" font-family="Times,serif" font-size="14.00" fill="#000000">ResetPasswordComponent</text>
</g>
<!-- ResetPasswordComponent&#45;&gt;LoginModule -->
<g id="edge33" class="edge">
<title>ResetPasswordComponent&#45;&gt;LoginModule</title>
<path fill="none" stroke="#000000" d="M1708.5012,-122.1061C1708.5012,-122.1061 1708.5012,-140.991 1708.5012,-140.991"/>
<polygon fill="#000000" stroke="#000000" points="1705.0013,-140.9909 1708.5012,-150.991 1712.0013,-140.991 1705.0013,-140.9909"/>
</g>
<!-- ResetPasswordComponent&#45;&gt;LoginModule -->
<g id="edge36" class="edge">
<title>ResetPasswordComponent&#45;&gt;LoginModule</title>
<path fill="none" stroke="#000000" d="M1739.4988,-122.1061C1739.4988,-122.1061 1739.4988,-140.991 1739.4988,-140.991"/>
<polygon fill="#000000" stroke="#000000" points="1735.9989,-140.9909 1739.4988,-150.991 1742.9989,-140.991 1735.9989,-140.9909"/>
</g>
<!-- LoginPageComponent -->
<g id="node37" class="node">
<title>LoginPageComponent</title>
<polygon fill="#ffffb3" stroke="#000000" points="2120.9874,-122 1979.0126,-122 1979.0126,-86 2120.9874,-86 2120.9874,-122"/>
<text text-anchor="middle" x="2050" y="-99.8" font-family="Times,serif" font-size="14.00" fill="#000000">LoginPageComponent</text>
</g>
<!-- LoginPageComponent&#45;&gt;LoginModule -->
<g id="edge34" class="edge">
<title>LoginPageComponent&#45;&gt;LoginModule</title>
<path fill="none" stroke="#000000" d="M2050,-122.3228C2050,-145.6602 2050,-183 2050,-183 2050,-183 1780.7079,-183 1780.7079,-183"/>
<polygon fill="#000000" stroke="#000000" points="1780.7079,-179.5001 1770.7079,-183 1780.7078,-186.5001 1780.7079,-179.5001"/>
</g>
<!-- AuthPageComponent -->
<g id="node38" class="node">
<title>AuthPageComponent</title>
<polygon fill="#ffffb3" stroke="#000000" points="1961.0422,-122 1824.9578,-122 1824.9578,-86 1961.0422,-86 1961.0422,-122"/>
<text text-anchor="middle" x="1893" y="-99.8" font-family="Times,serif" font-size="14.00" fill="#000000">AuthPageComponent</text>
</g>
<!-- AuthPageComponent&#45;&gt;LoginModule -->
<g id="edge35" class="edge">
<title>AuthPageComponent&#45;&gt;LoginModule</title>
<path fill="none" stroke="#000000" d="M1893,-122.2921C1893,-144.2057 1893,-178 1893,-178 1893,-178 1780.6274,-178 1780.6274,-178"/>
<polygon fill="#000000" stroke="#000000" points="1780.6274,-174.5001 1770.6274,-178 1780.6273,-181.5001 1780.6274,-174.5001"/>
</g>
<!-- FormPageComponent -->
<g id="node39" class="node">
<title>FormPageComponent</title>
<polygon fill="#ffffb3" stroke="#000000" points="2774.3781,-122 2635.6219,-122 2635.6219,-86 2774.3781,-86 2774.3781,-122"/>
<text text-anchor="middle" x="2705" y="-99.8" font-family="Times,serif" font-size="14.00" fill="#000000">FormPageComponent</text>
</g>
<!-- FormPageComponent&#45;&gt;MainModule -->
<g id="edge38" class="edge">
<title>FormPageComponent&#45;&gt;MainModule</title>
<path fill="none" stroke="#000000" d="M2705,-122.027C2705,-138.3976 2705,-160 2705,-160 2705,-160 3032.4321,-160 3032.4321,-160"/>
<polygon fill="#000000" stroke="#000000" points="3032.4322,-163.5001 3042.4321,-160 3032.4321,-156.5001 3032.4322,-163.5001"/>
</g>
<!-- TabPageComponent -->
<g id="node40" class="node">
<title>TabPageComponent</title>
<polygon fill="#ffffb3" stroke="#000000" points="2617.3118,-122 2486.6882,-122 2486.6882,-86 2617.3118,-86 2617.3118,-122"/>
<text text-anchor="middle" x="2552" y="-99.8" font-family="Times,serif" font-size="14.00" fill="#000000">TabPageComponent</text>
</g>
<!-- TabPageComponent&#45;&gt;MainModule -->
<g id="edge39" class="edge">
<title>TabPageComponent&#45;&gt;MainModule</title>
<path fill="none" stroke="#000000" d="M2552,-122.302C2552,-140.2699 2552,-165 2552,-165 2552,-165 3032.3064,-165 3032.3064,-165"/>
<polygon fill="#000000" stroke="#000000" points="3032.3064,-168.5001 3042.3064,-165 3032.3064,-161.5001 3032.3064,-168.5001"/>
</g>
<!-- MainPageComponent -->
<g id="node41" class="node">
<title>MainPageComponent</title>
<polygon fill="#ffffb3" stroke="#000000" points="2469.094,-122 2330.906,-122 2330.906,-86 2469.094,-86 2469.094,-122"/>
<text text-anchor="middle" x="2400" y="-99.8" font-family="Times,serif" font-size="14.00" fill="#000000">MainPageComponent</text>
</g>
<!-- MainPageComponent&#45;&gt;MainModule -->
<g id="edge40" class="edge">
<title>MainPageComponent&#45;&gt;MainModule</title>
<path fill="none" stroke="#000000" d="M2400,-122.1061C2400,-141.3391 2400,-169 2400,-169 2400,-169 3032.189,-169 3032.189,-169"/>
<polygon fill="#000000" stroke="#000000" points="3032.1891,-172.5001 3042.189,-169 3032.189,-165.5001 3032.1891,-172.5001"/>
</g>
<!-- SidebarPageComponent -->
<g id="node42" class="node">
<title>SidebarPageComponent</title>
<polygon fill="#ffffb3" stroke="#000000" points="2312.8075,-122 2161.1925,-122 2161.1925,-86 2312.8075,-86 2312.8075,-122"/>
<text text-anchor="middle" x="2237" y="-99.8" font-family="Times,serif" font-size="14.00" fill="#000000">SidebarPageComponent</text>
</g>
<!-- SidebarPageComponent&#45;&gt;MainModule -->
<g id="edge41" class="edge">
<title>SidebarPageComponent&#45;&gt;MainModule</title>
<path fill="none" stroke="#000000" d="M2237,-122.0267C2237,-142.7672 2237,-174 2237,-174 2237,-174 3032.1992,-174 3032.1992,-174"/>
<polygon fill="#000000" stroke="#000000" points="3032.1992,-177.5001 3042.1992,-174 3032.1992,-170.5001 3032.1992,-177.5001"/>
</g>
<!-- HeaderPageComponent -->
<g id="node43" class="node">
<title>HeaderPageComponent</title>
<polygon fill="#ffffb3" stroke="#000000" points="4206.4552,-122 4057.5448,-122 4057.5448,-86 4206.4552,-86 4206.4552,-122"/>
<text text-anchor="middle" x="4132" y="-99.8" font-family="Times,serif" font-size="14.00" fill="#000000">HeaderPageComponent</text>
</g>
<!-- HeaderPageComponent&#45;&gt;MainModule -->
<g id="edge42" class="edge">
<title>HeaderPageComponent&#45;&gt;MainModule</title>
<path fill="none" stroke="#000000" d="M4132,-122.302C4132,-140.2699 4132,-165 4132,-165 4132,-165 3141.5681,-165 3141.5681,-165"/>
<polygon fill="#000000" stroke="#000000" points="3141.5681,-161.5001 3131.5681,-165 3141.568,-168.5001 3141.5681,-161.5001"/>
</g>
<!-- HelloPageComponent -->
<g id="node44" class="node">
<title>HelloPageComponent</title>
<polygon fill="#ffffb3" stroke="#000000" points="4039.647,-122 3900.353,-122 3900.353,-86 4039.647,-86 4039.647,-122"/>
<text text-anchor="middle" x="3970" y="-99.8" font-family="Times,serif" font-size="14.00" fill="#000000">HelloPageComponent</text>
</g>
<!-- HelloPageComponent&#45;&gt;MainModule -->
<g id="edge43" class="edge">
<title>HelloPageComponent&#45;&gt;MainModule</title>
<path fill="none" stroke="#000000" d="M3970,-122.0225C3970,-139.3734 3970,-163 3970,-163 3970,-163 3141.6972,-163 3141.6972,-163"/>
<polygon fill="#000000" stroke="#000000" points="3141.6972,-159.5001 3131.6972,-163 3141.6972,-166.5001 3141.6972,-159.5001"/>
</g>
<!-- ProjectTextEllipsisDirective -->
<g id="node45" class="node">
<title>ProjectTextEllipsisDirective</title>
<polygon fill="#ffffb3" stroke="#000000" points="3881.8989,-122 3706.1011,-122 3706.1011,-86 3881.8989,-86 3881.8989,-122"/>
<text text-anchor="middle" x="3794" y="-99.8" font-family="Times,serif" font-size="14.00" fill="#000000">ProjectTextEllipsisDirective</text>
</g>
<!-- ProjectTextEllipsisDirective&#45;&gt;MainModule -->
<g id="edge44" class="edge">
<title>ProjectTextEllipsisDirective&#45;&gt;MainModule</title>
<path fill="none" stroke="#000000" d="M3794,-122.027C3794,-138.3976 3794,-160 3794,-160 3794,-160 3141.7624,-160 3141.7624,-160"/>
<polygon fill="#000000" stroke="#000000" points="3141.7624,-156.5001 3131.7624,-160 3141.7623,-163.5001 3141.7624,-156.5001"/>
</g>
<!-- ProjectTextDirective -->
<g id="node46" class="node">
<title>ProjectTextDirective</title>
<polygon fill="#ffffb3" stroke="#000000" points="3688.8948,-122 3555.1052,-122 3555.1052,-86 3688.8948,-86 3688.8948,-122"/>
<text text-anchor="middle" x="3622" y="-99.8" font-family="Times,serif" font-size="14.00" fill="#000000">ProjectTextDirective</text>
</g>
<!-- ProjectTextDirective&#45;&gt;MainModule -->
<g id="edge45" class="edge">
<title>ProjectTextDirective&#45;&gt;MainModule</title>
<path fill="none" stroke="#000000" d="M3622,-122.2819C3622,-137.9478 3622,-158 3622,-158 3622,-158 3141.6936,-158 3141.6936,-158"/>
<polygon fill="#000000" stroke="#000000" points="3141.6936,-154.5001 3131.6936,-158 3141.6936,-161.5001 3141.6936,-154.5001"/>
</g>
<!-- ProjectTitleDirective -->
<g id="node47" class="node">
<title>ProjectTitleDirective</title>
<polygon fill="#ffffb3" stroke="#000000" points="3537.1755,-122 3402.8245,-122 3402.8245,-86 3537.1755,-86 3537.1755,-122"/>
<text text-anchor="middle" x="3470" y="-99.8" font-family="Times,serif" font-size="14.00" fill="#000000">ProjectTitleDirective</text>
</g>
<!-- ProjectTitleDirective&#45;&gt;MainModule -->
<g id="edge46" class="edge">
<title>ProjectTitleDirective&#45;&gt;MainModule</title>
<path fill="none" stroke="#000000" d="M3470,-122.1871C3470,-137.1824 3470,-156 3470,-156 3470,-156 3141.6845,-156 3141.6845,-156"/>
<polygon fill="#000000" stroke="#000000" points="3141.6846,-152.5001 3131.6845,-156 3141.6845,-159.5001 3141.6846,-152.5001"/>
</g>
<!-- ProjectPointerDirective -->
<g id="node48" class="node">
<title>ProjectPointerDirective</title>
<polygon fill="#ffffb3" stroke="#000000" points="3385.1755,-122 3236.8245,-122 3236.8245,-86 3385.1755,-86 3385.1755,-122"/>
<text text-anchor="middle" x="3311" y="-99.8" font-family="Times,serif" font-size="14.00" fill="#000000">ProjectPointerDirective</text>
</g>
<!-- ProjectPointerDirective&#45;&gt;MainModule -->
<g id="edge47" class="edge">
<title>ProjectPointerDirective&#45;&gt;MainModule</title>
<path fill="none" stroke="#000000" d="M3311,-122.0511C3311,-136.373 3311,-154 3311,-154 3311,-154 3141.7914,-154 3141.7914,-154"/>
<polygon fill="#000000" stroke="#000000" points="3141.7914,-150.5001 3131.7914,-154 3141.7913,-157.5001 3141.7914,-150.5001"/>
</g>
<!-- ProjectListDirective -->
<g id="node49" class="node">
<title>ProjectListDirective</title>
<polygon fill="#ffffb3" stroke="#000000" points="3218.5157,-122 3089.4843,-122 3089.4843,-86 3218.5157,-86 3218.5157,-122"/>
<text text-anchor="middle" x="3154" y="-99.8" font-family="Times,serif" font-size="14.00" fill="#000000">ProjectListDirective</text>
</g>
<!-- ProjectListDirective&#45;&gt;MainModule -->
<g id="edge48" class="edge">
<title>ProjectListDirective&#45;&gt;MainModule</title>
<path fill="none" stroke="#000000" d="M3110.3962,-122.1061C3110.3962,-122.1061 3110.3962,-140.991 3110.3962,-140.991"/>
<polygon fill="#000000" stroke="#000000" points="3106.8963,-140.9909 3110.3962,-150.991 3113.8963,-140.991 3106.8963,-140.9909"/>
</g>
<!-- FocusDirective -->
<g id="node50" class="node">
<title>FocusDirective</title>
<polygon fill="#ffffb3" stroke="#000000" points="3070.5257,-122 2969.4743,-122 2969.4743,-86 3070.5257,-86 3070.5257,-122"/>
<text text-anchor="middle" x="3020" y="-99.8" font-family="Times,serif" font-size="14.00" fill="#000000">FocusDirective</text>
</g>
<!-- FocusDirective&#45;&gt;MainModule -->
<g id="edge49" class="edge">
<title>FocusDirective&#45;&gt;MainModule</title>
<path fill="none" stroke="#000000" d="M3061.3249,-122.1061C3061.3249,-122.1061 3061.3249,-140.991 3061.3249,-140.991"/>
<polygon fill="#000000" stroke="#000000" points="3057.825,-140.9909 3061.3249,-150.991 3064.825,-140.991 3057.825,-140.9909"/>
</g>
<!-- AddUserPageComponent -->
<g id="node51" class="node">
<title>AddUserPageComponent</title>
<polygon fill="#ffffb3" stroke="#000000" points="2951.5772,-122 2792.4228,-122 2792.4228,-86 2951.5772,-86 2951.5772,-122"/>
<text text-anchor="middle" x="2872" y="-99.8" font-family="Times,serif" font-size="14.00" fill="#000000">AddUserPageComponent</text>
</g>
<!-- AddUserPageComponent&#45;&gt;MainModule -->
<g id="edge50" class="edge">
<title>AddUserPageComponent&#45;&gt;MainModule</title>
<path fill="none" stroke="#000000" d="M2872,-122.1871C2872,-137.1824 2872,-156 2872,-156 2872,-156 3032.1907,-156 3032.1907,-156"/>
<polygon fill="#000000" stroke="#000000" points="3032.1907,-159.5001 3042.1907,-156 3032.1906,-152.5001 3032.1907,-159.5001"/>
</g>
</g>
</svg>
